<svg width="72" height="72" viewBox="0 0 72 72" fill="none" xmlns="http://www.w3.org/2000/svg">
<rect x="1" y="1" width="70" height="70" rx="35" fill="#141D26"/>
<path d="M54.8313 32.6667C51.5839 38.6667 48.8146 38.7347 49.3939 40.2433C49.7233 41.1013 50.7686 41.012 51.6086 40.7753C38.5406 55.1687 37.9446 41.914 37.9052 38.246C37.8872 36.4927 37.8126 33.016 37.7426 29.936C39.1766 29.8424 40.6005 29.6312 41.9999 29.3047V26.6953C40.5713 26.3608 39.117 26.147 37.6526 26.056L37.6279 25.036C38.6543 24.6556 39.5142 23.9262 40.057 22.9756C40.5998 22.025 40.7908 20.9138 40.5967 19.8365C40.4026 18.7592 39.8357 17.7845 38.9953 17.0831C38.1549 16.3817 37.0945 15.9983 35.9999 16C34.7622 16 33.5752 16.4917 32.7001 17.3668C31.8249 18.242 31.3332 19.429 31.3332 20.6667C31.3332 22.6707 32.5992 24.3753 34.3739 25.0367L34.3492 26.056C32.8843 26.147 31.4296 26.3608 30.0005 26.6953V29.3047C31.4032 29.634 32.8279 29.8413 34.2579 29.936C34.1879 33.0167 34.1139 36.4927 34.0952 38.246C34.0559 41.914 33.4599 55.168 20.3925 40.776C21.2332 41.012 22.2772 41.1013 22.6072 40.2433C23.1859 38.7347 20.4165 38.6667 17.1685 32.6667C17.1685 32.6667 14.6865 42.7953 16.9572 44.5153C17.9352 45.2567 18.6265 43.1027 18.9745 41.6167C20.1685 44.09 22.8112 47.6153 28.6592 51.506C32.4312 54.018 35.9999 56 35.9999 56C35.9999 56 39.5692 54.018 43.3412 51.5067C49.1886 47.616 51.8313 44.0913 53.0253 41.6173C53.3733 43.1033 54.0653 45.2567 55.0433 44.516C57.3133 42.7953 54.8313 32.6667 54.8313 32.6667ZM35.9999 18C36.7071 18 37.3854 18.281 37.8855 18.7811C38.3856 19.2812 38.6666 19.9594 38.6666 20.6667C38.6666 21.3739 38.3856 22.0522 37.8855 22.5523C37.3854 23.0524 36.7071 23.3333 35.9999 23.3333C35.2926 23.3333 34.6144 23.0524 34.1143 22.5523C33.6142 22.0522 33.3332 21.3739 33.3332 20.6667C33.3332 19.9594 33.6142 19.2812 34.1143 18.7811C34.6144 18.281 35.2926 18 35.9999 18Z" fill="#B17C57"/>
<rect x="1" y="1" width="70" height="70" rx="35" stroke="#B17C57" stroke-width="2"/>
</svg>
