<svg width="480" height="176" viewBox="0 0 480 176" fill="none" xmlns="http://www.w3.org/2000/svg">
<path d="M17.8394 169.491C14.029 175.241 8.31349 175.518 0 175.449C7.93245 170.911 12.401 168.106 13.5441 157.852C11.6389 163.118 7.55142 165.716 3.04828 165.958C11.3964 154.735 11.7082 149.296 13.0245 133.951C13.7865 145.036 15.7956 148.638 18.255 152.206C22.8967 158.995 26.2221 166.893 26.8803 175.449C24.5248 171.396 20.7837 169.803 17.8047 169.491H17.8394ZM121.931 131.353C116.804 131.249 112.994 132.496 110.258 134.055C112.128 134.956 114.276 137.657 114.865 139.701C102.637 136.272 94.0117 141.849 79.4631 143.858C72.0156 145.14 55.3886 145.174 43.438 137.242C51.9939 139.77 59.6146 138.385 67.3739 133.743C67.3739 135.995 66.4733 138.073 65.0877 139.182C72.2927 138.731 75.9991 137.657 80.5715 131.422C81.3682 133.016 81.8532 135.475 81.0218 137.38C88.4001 135.995 91.5523 132.184 93.2496 127.993C94.4273 129.102 95.0162 130.868 95.1201 132.877C102.117 128.513 113.098 126.746 121.896 131.353H121.931ZM80.1212 75.1678C74.6482 78.1814 71.9463 81.8532 70.5261 85.6636C69.1059 89.4046 68.9673 94.081 69.3483 98.3763C66.4386 97.5103 64.672 94.1502 65.2609 92.1065C63.1825 93.596 54.5226 93.8385 49.6038 88.7811C58.9218 87.7073 62.6283 85.1093 67.3392 81.5761C71.1842 78.701 74.6828 76.1723 80.1559 75.1678H80.1212ZM55.8043 110.673L61.3812 113.133L60.2728 115.765L57.3977 114.553L58.714 117.601L57.0859 118.259L55.9082 115.142L54.6958 118.052L52.0978 116.943L54.3494 111.193L52.9638 107.798L50.7469 110.708L51.4051 116.874L48.5993 117.186L48.1836 114.033L46.2091 116.701L44.8235 115.627L46.9019 113.029L43.819 113.444L43.4726 110.604L49.5345 109.703L51.7168 106.794L48.1489 106.309L43.2301 109.981L41.4635 107.694L43.9922 105.754L40.7014 105.373L40.9439 103.607L44.2 104.126L42.2949 101.632L44.5811 99.8658L48.3568 104.715L51.9246 105.2L50.5737 101.806L44.9967 99.3115L46.1052 96.6789L48.9803 97.8913L47.664 94.843L49.292 94.1849L50.4698 97.3024L51.6822 94.3927L54.2801 95.5012L52.0286 101.217L53.4141 104.611L55.6311 101.736L54.9383 95.6051L57.7441 95.2587L58.1598 98.4109L60.1342 95.7437L61.5544 96.8175L59.4761 99.4154L62.6283 99.0344L62.9747 101.875L56.8781 102.775L54.7305 105.685L58.2983 106.17L63.2518 102.533L64.9491 104.854L62.4204 106.759L65.7112 107.14L65.4687 108.907L62.2126 108.387L64.1178 110.916L61.8662 112.648L58.0558 107.798L54.488 107.313L55.8043 110.743V110.673ZM40.3897 46.313L40.6322 45.4817L44.5118 33.2886L47.1444 34.1546L45.6549 38.6231L49.7424 37.2721V39.8355L44.8235 41.1864L42.8145 47.1098L48.8417 45.6895L50.6776 40.9093L53.1717 41.1864L51.4743 45.1353L55.9775 44.0961L56.6356 46.9712L52.0286 47.9065L55.2154 50.7815L53.0678 52.0978L49.4306 48.4607L43.334 49.6384L47.5601 54.2109L52.6174 53.4142L53.622 55.735L49.3613 56.22L52.5135 59.6839L50.3659 61.6237L47.283 58.0905L46.417 62.3165L44.2 61.1041L45.5163 56.0814L41.4635 51.3704L39.6623 57.3631L42.8491 61.4159L41.3596 63.425L38.8309 59.961L37.48 64.3602L34.882 63.5982L40.3897 46.313ZM28.7508 83.9316C57.0859 89.37 77.6618 77.4193 80.7794 55.6657C81.5068 50.6083 81.3336 45.4817 80.433 40.3897C81.195 40.459 84.9708 41.1518 88.8157 40.5975C92.6607 40.0433 95.2241 38.242 95.2241 38.242C89.2314 36.9257 81.5414 33.7043 79.0474 29.8246C79.0474 29.8246 83.9662 29.6861 88.0883 26.6724C92.2104 23.6242 94.3581 19.0171 94.3581 19.0171C94.3581 19.0171 85.04 23.1046 78.8049 20.1948C72.5352 17.2851 71.6345 14.514 71.6345 14.514C71.6345 14.514 75.4102 15.1721 79.3938 13.2669C83.3427 11.3618 84.4165 7.2743 84.4165 7.2743C70.8378 11.535 63.3903 6.58151 55.4925 0.277116C55.3886 0.207837 55.25 0.103919 55.1461 0C55.1461 0 57.8134 6.58151 55.9428 13.7173C54.0723 20.853 46.3823 27.7116 46.3823 27.7116C46.3823 27.7116 51.2319 27.2613 55.0422 25.079C58.8179 22.8967 61.9008 19.3981 61.9008 19.3981C61.1734 26.2914 56.5317 30.2057 50.1234 34.0507C50.1234 34.0507 57.2245 33.9121 61.693 31.2795C66.1615 28.6469 67.8242 26.8456 67.8242 26.8456C67.8242 26.8456 67.5471 32.1108 65.0184 35.748C62.4897 39.3851 56.7742 41.8099 56.7742 41.8099C59.7878 42.4681 64.6027 42.0177 69.3483 39.7662C69.3483 39.7662 68.6902 43.8536 64.4295 49.3267C60.1689 54.7997 54.869 57.9173 54.869 57.9173C60.4806 59.095 65.4341 57.3977 68.5863 55.2847C68.5863 55.2847 63.8406 62.1433 55.4579 66.2308C49.6038 69.0712 39.9047 70.2143 34.3624 69.7986C33.8082 69.764 33.4964 69.5562 33.4964 69.5562C36.4061 73.5397 42.7105 75.9645 47.5601 75.0639C47.5601 75.0639 45.7935 78.3893 40.6668 80.814C35.5402 83.2041 28.8547 83.9316 28.8547 83.9316H28.7508ZM47.3522 88.9889C47.3522 88.9889 41.6713 87.638 37.1682 90.3052C32.6651 92.9725 31.2102 97.8913 31.2102 97.8913C28.7162 94.2888 28.3698 90.1321 28.3351 85.3172C28.3351 85.3172 25.564 91.6216 25.1137 96.5057C24.698 100.94 25.7718 105.858 28.7508 109.253C28.7508 109.253 28.6815 109.253 28.5083 109.184C25.5293 108.318 23.7281 106.794 21.6497 104.473C23.9706 111.712 31.2102 118.467 43.0569 119.472C29.5475 108.318 38.2767 93.215 47.3522 89.0236V88.9889ZM20.2641 111.262C26.2914 120.649 37.7917 123.975 48.7378 123.178C79.4631 120.927 100.801 87.7766 130.799 91.4137C148.257 93.5267 153.799 100.905 153.799 100.905L142.68 100.662C142.68 100.662 143.061 102.706 144.066 105.027C145.07 107.313 146.906 109.357 146.906 109.357C137.242 109.496 129.309 107.002 121.273 101.736C121.273 101.736 121.065 104.161 121.931 106.586C122.797 109.011 123.906 110.154 123.906 110.154C123.906 110.154 118.363 110.95 113.86 110.431C109.357 109.911 106.205 107.798 106.205 107.798C106.205 107.798 106.205 109.461 107.59 111.158C108.976 112.856 111.228 113.583 111.228 113.583C110.708 114.033 109.773 114.657 109.08 115.038C103.538 118.121 98.1338 118.883 91.8294 118.917C88.4001 118.917 85.1786 118.363 85.1786 118.363C87.638 121.238 89.751 122.139 92.6954 122.52C92.6954 122.52 90.0628 123.628 86.7027 124.598C81.3682 126.192 75.9991 126.746 70.5261 125.43C69.6601 125.222 69.2098 125.083 69.2098 125.083C71.011 127.231 74.2325 128.582 76.5534 128.582C76.5534 128.582 75.9298 128.859 74.8907 129.24C67.3739 132.115 60.827 133.362 52.0286 131.526C48.9457 130.868 47.0405 129.967 47.0405 129.967C47.664 131.041 48.2875 131.699 49.396 132.323C50.6083 133.05 53.1717 133.709 53.1717 133.709C35.9558 136.41 23.9013 127.889 20.2295 111.297L20.2641 111.262ZM17.874 118.64C21.5458 126.919 26.7764 133.154 34.882 137.519C55.2154 148.5 71.2881 147.01 69.4869 175.311C69.4869 175.311 66.4733 172.262 62.4204 170.219C58.3676 168.175 54.8344 167.759 54.8344 167.759C52.6174 171.985 49.8463 174.064 44.8582 175.553C44.8582 175.553 46.4862 172.332 46.3823 168.694C46.2784 165.057 44.9275 162.529 44.9275 162.529C42.953 169.179 36.3022 174.064 29.409 175.415C29.409 175.415 33.3232 170.426 34.9513 165.369C36.614 160.277 36.4061 155.635 36.4061 155.635C34.2585 158.995 32.0069 160.831 27.7809 162.113C27.7809 162.113 29.2704 157.021 28.5083 151.686C27.7809 146.352 25.0097 143.373 25.0097 143.373C22.9314 145.798 21.7536 148.084 20.7837 151.548C20.7837 151.548 15.4146 140.879 16.0727 131.111C16.7309 121.342 17.9086 118.64 17.9086 118.64H17.874ZM62.1433 0.0346395C62.1433 0.0346395 68.2399 5.29985 75.7913 5.19593C83.3427 5.05737 89.0236 3.74107 89.0236 3.74107C89.0236 3.74107 89.5085 8.7638 86.9799 11.9853C84.4512 15.2068 81.2297 16.2806 81.2297 16.2806C81.2297 16.2806 84.6936 17.874 89.4393 16.4191C94.2195 14.9643 100.42 8.62524 100.42 8.62524C101.182 10.3226 101.563 15.38 100.628 18.9132C100.628 18.9132 107.902 16.4884 112.128 10.2879C116.354 4.08746 117.359 0.0692791 117.359 0.0692791H62.1433V0.0346395ZM135.302 43.9922C135.302 43.9922 132.565 58.333 120.13 66.1269C109.634 72.6737 96.8175 74.4403 96.8175 74.4403C104.265 77.4886 107.175 82.8231 108.733 90.4092C108.733 90.4092 110.465 87.7766 110.535 84.0701C110.604 80.3637 109.288 78.2507 109.288 78.2507C113.583 80.2251 115.384 82.7885 117.255 87.2223C117.255 87.2223 118.571 84.9015 118.536 80.6062C118.536 76.3109 117.463 73.7476 117.463 73.7476C120.407 73.99 122.416 77.454 123.144 80.6755C123.386 81.7146 139.32 69.3483 135.302 43.9576V43.9922ZM139.251 56.3585C139.736 63.5982 137.069 75.1331 123.386 87.1531C123.386 87.1531 131.145 86.4949 139.043 88.0883C146.906 89.6817 151.202 92.6261 151.202 92.6261C149.262 87.7766 142.368 81.68 139.667 80.6755C142.715 74.1979 141.849 64.6027 139.251 56.3585ZM98.8958 69.6255C95.9861 59.199 95.5358 46.0359 97.0946 35.0552C93.7346 34.6395 90.236 33.4964 87.4648 31.3834C87.4648 31.3834 87.8458 31.3141 88.2961 31.2449C93.4574 30.171 97.6488 26.0143 99.6233 21.234C99.6233 25.6333 100.697 30.7253 103.919 33.9814C108.006 38.1381 116.493 38.8656 116.493 38.8656C114.795 41.4635 112.613 43.2301 110.154 44.9967C109.911 45.1699 108.63 46.0013 108.63 46.0013C119.61 48.6339 125.014 45.4817 133.397 38.4499C133.397 38.4499 133.293 50.9894 122.901 59.7532C112.509 68.517 98.9305 69.6255 98.9305 69.6255H98.8958ZM120.753 0.0346395C120.753 0.0346395 125.88 16.2459 127.751 21.9961C129.621 27.7463 130.002 33.4964 127.023 37.8956C124.044 42.2949 115.315 43.6458 115.315 43.6458C118.71 40.6668 121.689 37.5146 122.312 32.8729C122.312 32.8729 119.541 34.7088 112.959 33.7043C106.378 32.6651 103.087 24.5248 103.087 24.5248C103.087 24.5248 111.089 21.1994 115.523 14.8257C119.957 8.45205 120.753 0.0346395 120.753 0.0346395ZM134.644 175.484C123.871 175.969 117.116 175.068 112.959 171.258C111.886 173.128 110.604 174.202 108.63 175.311V148.326C111.539 162.944 116.943 173.648 134.644 175.484ZM177.943 175.449C172.713 174.479 169.318 170.149 168.521 166.685C166.963 170.565 164.434 173.544 158.891 175.449C160.485 172.886 161.386 170.808 161.316 165.3C153.141 175.172 149.677 174.41 138.212 175.449C158.199 170.184 161.94 150.474 156.259 136.688C155.601 140.602 153.626 142.438 153.626 142.438C153.557 133.535 150.058 126.538 145.347 123.351C147.322 129.032 145.902 133.397 145.971 134.228C143.304 126.815 139.286 121.377 133.05 119.714C134.852 124.529 134.055 127.889 133.154 130.349C129.933 123.109 125.43 119.818 119.68 119.645C121.204 121.169 122.278 123.732 122.485 125.741C117.116 122.174 111.158 121.793 104.75 124.148C115.28 115.696 127.335 113.618 136.965 114.588C141.121 115.003 147.287 116.354 150.058 111.955C152.171 108.595 151.409 104.092 151.409 104.092C151.409 104.092 156.259 107.313 155.947 114.484C155.809 117.67 155.116 119.957 154.354 121.515C167.274 132.531 170.704 154.839 177.978 175.484L177.943 175.449ZM124.979 155.566L122.97 161.489L119.922 161.282L121.862 156.432L116.423 157.852L115.523 154.423L121.03 153.107L117.082 149.747L119.645 148.084L124.183 152.31L131.526 150.647L126.226 145.278L120.165 146.456L118.883 143.685L123.94 142.957L119.957 138.835L122.52 136.48L126.4 140.567L127.3 135.441L130.002 136.895L128.651 142.957L133.778 148.5L135.718 141.191L131.665 136.48L133.397 133.951L136.584 138.073L138.039 132.565L141.433 133.535L139.84 139.008L144.689 137.207L144.828 140.29L138.939 142.126L136.757 149.366L143.962 147.391L145.971 141.537L148.985 141.745L147.079 146.594L152.483 145.174L153.384 148.604L147.876 149.92L151.825 153.28L149.262 154.943L144.724 150.717L137.415 152.414L142.715 157.748L148.777 156.571L150.058 159.342L144.932 160.104L148.881 164.157L146.387 166.616L142.542 162.459L141.641 167.586L138.939 166.2L140.325 160.104L135.233 154.596L133.293 161.905L137.311 166.651L135.579 169.145L132.392 165.057L130.868 170.426L127.473 169.526L129.102 164.122L124.252 165.854L124.113 162.806L130.002 160.935L132.184 153.696L124.945 155.601L124.979 155.566Z" fill="#B17C57"/>
<path opacity="0.9" d="M373.345 28.1272V41.4634C373.345 46.0012 370.713 48.9455 366.071 48.9455H365.378C365.378 48.9455 368.149 45.828 368.149 41.4634V23.4509H386.577V48.5645H381.174V28.1272H373.31H373.345ZM258.411 28.1272V41.4634C258.411 46.0012 255.779 48.9455 251.137 48.9455H250.444C250.444 48.9455 253.215 45.828 253.215 41.4634V23.4509H271.643V48.5645H266.274V28.1272H258.411ZM281.343 37.8609L280.13 39.1772V48.5992H274.865V23.4509H280.13V32.5264L289.414 23.4509H296.549L285.257 33.9813L296.757 48.5992H289.829L281.308 37.8955L281.343 37.8609ZM328.383 28.1272V48.5645H322.979V23.4509H339.849V28.1618H328.348L328.383 28.1272ZM426.621 37.8263H416.818V48.5645H411.414V23.4162H416.818V33.2538H426.621V23.4162H432.024V48.5299H426.621V37.7916V37.8263ZM236.242 14.5831H230.284L217.433 48.5645H223.495L226.924 39.0733H239.048L242.304 48.5645H248.608L236.242 14.5831ZM228.76 33.8081L233.055 22.0999L236.969 33.8081H228.76ZM319.065 29.6513C318.199 27.6076 316.883 25.9449 315.081 24.6979C313.176 23.3123 310.925 22.7581 308.569 22.7581C306.214 22.7581 303.997 23.3123 302.057 24.6979C300.256 25.9449 298.939 27.6076 298.073 29.6513C297.207 31.6604 296.792 33.8081 296.792 35.9904C296.792 38.1727 297.207 40.3203 298.073 42.3294C298.939 44.3731 300.256 46.0358 302.057 47.2828C303.997 48.6684 306.214 49.2227 308.569 49.2227C310.925 49.2227 313.176 48.6684 315.081 47.2828C316.883 46.0358 318.199 44.3385 319.065 42.3294C319.931 40.3203 320.347 38.2073 320.347 35.9904C320.347 33.7734 319.931 31.6604 319.065 29.6513ZM314.25 39.8353C313.869 41.0824 313.211 42.1908 312.276 43.0915C311.271 44.0614 309.955 44.3731 308.569 44.3731C307.184 44.3731 305.867 44.0614 304.863 43.0915C303.928 42.1562 303.269 41.0824 302.888 39.8007C302.542 38.5537 302.334 37.272 302.334 35.9904C302.334 34.7087 302.542 33.3924 302.888 32.1454C303.269 30.8984 303.928 29.8245 304.863 28.8893C305.867 27.9193 307.218 27.573 308.569 27.573C309.92 27.573 311.271 27.9193 312.276 28.8893C313.211 29.7899 313.869 30.8637 314.25 32.1454C314.596 33.3924 314.804 34.6741 314.804 35.9904C314.804 37.3067 314.596 38.5883 314.25 39.8353ZM363.369 29.6513C362.503 27.6076 361.187 25.9449 359.42 24.6979C357.48 23.3123 355.229 22.7581 352.908 22.7581C350.587 22.7581 348.301 23.3123 346.361 24.6979C344.594 25.9449 343.278 27.6076 342.412 29.6513C341.546 31.6604 341.13 33.8081 341.13 35.9904C341.13 38.1727 341.546 40.3203 342.412 42.3294C343.278 44.3731 344.594 46.0358 346.361 47.2828C348.301 48.6684 350.552 49.2227 352.908 49.2227C355.263 49.2227 357.48 48.6684 359.42 47.2828C361.187 46.0358 362.503 44.3385 363.369 42.3294C364.235 40.3203 364.651 38.2073 364.651 35.9904C364.651 33.7734 364.235 31.6604 363.369 29.6513ZM358.554 39.8353C358.208 41.0824 357.55 42.1908 356.58 43.0915C355.575 44.0614 354.259 44.3731 352.908 44.3731C351.557 44.3731 350.206 44.0614 349.201 43.0915C348.231 42.1562 347.573 41.0824 347.227 39.8007C346.881 38.5537 346.638 37.272 346.638 35.9904C346.638 34.7087 346.881 33.3924 347.227 32.1454C347.573 30.8984 348.231 29.8245 349.201 28.8893C350.206 27.9193 351.522 27.573 352.908 27.573C354.293 27.573 355.575 27.9193 356.58 28.8893C357.55 29.7899 358.208 30.8637 358.554 32.1454C358.9 33.3924 359.108 34.6741 359.108 35.9904C359.108 37.3067 358.9 38.5883 358.554 39.8353ZM399.463 33.427H394.995V23.4509H389.626V48.5645H399.463C401.265 48.5645 403.204 48.322 404.832 47.56C406.183 46.9365 407.326 46.0358 408.089 44.7542C408.781 43.5764 409.093 42.2601 409.093 40.9092C409.093 35.1244 404.59 33.427 399.463 33.427ZM402.789 43.1607C401.992 43.7843 400.399 43.8882 399.429 43.8882H394.995V37.9995H399.463C400.468 37.9995 401.957 38.1034 402.789 38.6922C403.482 39.1772 403.655 40.0085 403.655 40.8053C403.655 41.602 403.482 42.6065 402.789 43.1607ZM453.882 25.356C452.739 24.3168 451.423 23.5894 449.933 23.243C448.721 22.9659 447.439 22.7581 446.227 22.7581C443.594 22.7581 440.788 23.2084 438.641 24.8018C436.528 26.3606 435.766 28.7853 435.696 31.314V32.0415H440.65L440.754 31.4526C440.892 30.3788 441.273 29.3742 441.966 28.5082C442.763 27.6076 444.425 27.469 445.534 27.469C447.785 27.469 450.453 27.8501 450.453 30.6212C450.453 31.7297 450.176 32.6303 448.963 32.7342L442.347 33.5656C440.026 33.8427 437.394 34.6048 436.043 36.6485C435.073 38.2073 434.484 39.87 434.484 41.7059C434.484 43.0915 434.83 44.4424 435.558 45.6201C436.251 46.7979 437.255 47.6985 438.467 48.322C439.784 48.9802 441.204 49.2573 442.659 49.2573C444.495 49.2573 446.435 48.9802 448.097 48.0796C449.067 47.5253 450.002 46.8672 450.834 46.1051C451.007 46.7286 451.284 47.3175 451.734 47.8371C452.531 48.7377 453.882 48.9802 455.025 49.0148H455.753V30.0324C455.718 28.2311 455.233 26.5684 453.882 25.356ZM450.349 39.6621C450.349 40.5628 450.037 41.3595 449.448 42.0523C448.79 42.8836 447.924 43.4725 446.954 43.8882C445.915 44.3385 444.806 44.5463 443.663 44.5463C441.239 44.5463 440.026 43.5764 440.026 41.117C440.026 40.4935 440.165 39.87 440.615 39.4197C441.065 38.9694 441.585 38.623 442.209 38.4498C442.971 38.2073 443.733 38.0687 444.529 37.9302C446.088 37.757 447.82 37.5491 449.344 37.1681C449.656 37.0988 450.002 36.9949 450.349 36.891V39.6621ZM469.123 23.4509C466.733 23.4509 464.239 23.9012 462.299 25.3907C460.464 26.8109 459.701 28.7853 459.701 31.0715C459.701 32.4571 460.048 33.7734 460.775 34.9512C461.433 35.9904 462.299 36.891 463.373 37.5491C463.927 37.8609 464.516 38.138 465.105 38.3112L457.623 48.5645H464.239L471.306 38.5883H474.596V48.5645H480V23.4509H469.123ZM474.596 34.0159H469.123C467.01 34.0159 465.348 33.4617 465.348 31.0715C465.348 28.6814 467.045 28.1618 469.123 28.1618H474.596V34.0159ZM242.338 76.865C241.923 74.9252 241.022 73.0547 239.221 72.0155C237.558 71.0802 235.757 70.6299 233.817 70.6299C231.877 70.6299 230.284 71.0456 228.725 72.0155C227.097 72.9854 225.954 74.4402 225.157 76.1376C224.153 78.2159 223.806 80.6061 223.806 82.8923C223.806 86.1484 224.326 89.6816 226.231 92.3835C228.032 94.9815 230.942 95.7436 233.956 95.7436C235.099 95.7436 236.242 95.5011 237.281 95.0508C238.563 94.5658 239.602 93.5959 240.433 92.5221C241.576 91.0672 242.235 89.1274 242.581 87.3261L242.685 86.7719H248.331L248.227 87.5686C247.777 90.7208 246.738 93.9769 244.451 96.3324C242.823 98.0298 240.849 99.5539 238.528 100.177C236.831 100.662 234.995 101.009 233.228 101.009C231.254 101.009 229.314 100.697 227.443 99.9696C225.573 99.2768 223.91 98.1683 222.49 96.7481C220.897 95.1547 219.788 93.1802 219.026 91.0672C218.091 88.5039 217.779 85.6981 217.779 82.9616C217.779 80.5368 218.091 78.1467 218.853 75.8605C219.546 73.7821 220.585 71.8769 222.005 70.2489C223.391 68.6554 225.123 67.4431 227.062 66.5771C229.175 65.6764 231.427 65.2954 233.713 65.2954C236.207 65.2954 238.701 65.7111 240.987 66.8542C242.927 67.8241 244.59 69.175 245.802 71.0109C246.911 72.7083 247.638 74.5788 247.881 76.5879L247.985 77.35H242.338L242.235 76.7957L242.338 76.865ZM257.337 91.1365L266.551 75.0984H272.509V100.247H267.106V84.1393L257.649 100.247H251.934V75.0984H257.337V91.1365ZM307.357 91.1365L316.571 75.0984H322.529V100.247H317.125V84.1393L307.669 100.247H301.953V75.0984H307.357V91.1365ZM367.664 83.8622C367.214 80.9525 365.724 79.3591 362.676 79.3591C360.771 79.3591 359.247 80.0172 358.277 81.6799C357.203 83.4812 356.787 85.5595 356.787 87.6379C356.787 91.7254 357.723 96.0553 362.607 96.0553C363.854 96.0553 364.858 95.605 365.759 94.7736C366.798 93.7691 367.352 92.3835 367.63 90.9979L367.734 90.4437H372.929L372.86 91.2058C372.583 93.7345 371.648 95.9514 370.02 97.8912C368.115 100.177 365.343 100.905 362.468 100.905C360.321 100.905 358.242 100.42 356.406 99.2768C354.64 98.1683 353.358 96.6442 352.457 94.739C351.488 92.7299 351.107 90.513 351.107 88.296C351.107 85.8713 351.488 83.4812 352.388 81.2296C353.254 79.1512 354.605 77.4539 356.441 76.2069C358.45 74.8559 360.806 74.371 363.196 74.371C365.032 74.371 366.868 74.7174 368.461 75.7219C369.847 76.5879 370.92 77.7656 371.613 79.2205C372.306 80.6407 372.722 82.1302 372.826 83.689L372.895 84.4164H367.699L367.595 83.8276L367.664 83.8622ZM382.247 89.5084L381.035 90.8247V100.247H375.77V75.0984H381.035V84.1739L390.318 75.0984H397.454L386.162 85.6288L397.662 100.247H390.734L382.213 89.5431L382.247 89.5084ZM298.073 81.8185C297.207 79.8786 295.96 78.2506 294.228 76.9689C292.462 75.6873 290.418 75.0984 288.236 75.0984C286.989 75.0984 285.638 75.2023 284.425 75.5487C283.456 75.8605 282.555 76.2761 281.758 76.9343C281.62 77.0382 281.481 77.1421 281.343 77.246C281.966 75.8605 282.832 74.5788 284.114 73.6435C286.573 71.8769 289.621 71.6691 292.566 71.6691C294.575 71.6691 296.549 70.0064 296.549 67.8934V67.2006H293.466C289.448 67.2006 285.291 67.3391 281.793 69.5907C279.264 71.2188 277.775 73.6782 276.909 76.5186C275.973 79.6015 275.766 82.7884 275.766 86.0098C275.766 88.296 276.008 90.6862 276.77 92.8685C277.359 94.5658 278.225 96.2285 279.472 97.5448C280.546 98.6533 281.758 99.5539 283.213 100.108C284.495 100.628 285.846 100.905 287.231 100.905C289.621 100.905 291.977 100.385 293.986 99.0343C295.787 97.8219 297.173 96.2285 298.073 94.2194C298.939 92.245 299.355 90.1666 299.355 88.0189C299.355 85.8713 298.905 83.7929 298.073 81.8185ZM293.259 91.4829C292.912 92.7299 292.254 93.8037 291.319 94.739C290.314 95.7435 288.998 96.0553 287.612 96.0553C286.227 96.0553 284.876 95.7435 283.871 94.739C282.936 93.8037 282.278 92.7299 281.931 91.4829C281.585 90.3398 281.343 89.162 281.343 88.0189C281.343 86.8758 281.585 85.6288 281.931 84.5203C282.278 83.2733 282.936 82.1995 283.871 81.2642C284.876 80.2597 286.192 79.9133 287.612 79.9133C289.033 79.9133 290.314 80.2597 291.319 81.2642C292.254 82.1995 292.912 83.2733 293.259 84.5203C293.57 85.6288 293.813 86.8412 293.813 88.0189C293.813 89.1967 293.605 90.3398 293.259 91.4829ZM347.158 80.6407C346.361 78.7702 345.149 77.246 343.486 76.0683C341.789 74.8906 339.814 74.4056 337.77 74.4056C336.108 74.4056 334.341 74.6827 332.99 75.6873C332.367 76.1722 331.778 76.7264 331.258 77.3153V75.0984H326.097V109.634H331.501V98.8265C331.951 99.2421 332.47 99.5885 333.025 99.9003C334.306 100.628 335.761 100.905 337.216 100.905C339.641 100.905 341.927 100.316 343.798 98.7226C345.495 97.3023 346.638 95.5011 347.365 93.3881C348.058 91.3097 348.37 89.162 348.37 86.9451C348.37 84.7282 348.024 82.6498 347.158 80.6407ZM342.17 92.1064C341.789 93.2495 341.165 94.2887 340.23 95.0508C339.329 95.7782 338.255 96.0553 337.112 96.0553C335.553 96.0553 334.237 95.4318 333.094 94.3926C331.605 93.007 331.293 90.6862 331.293 88.781C331.293 84.7975 331.951 79.3937 337.008 79.3937C338.359 79.3937 339.849 79.6362 340.819 80.6407C341.65 81.5067 342.239 82.4766 342.481 83.6543C342.758 84.9707 342.862 86.287 342.862 87.6033C342.862 89.1274 342.689 90.6862 342.17 92.1064ZM432.89 75.0984C430.5 75.0984 428.006 75.5487 426.066 77.0382C424.231 78.4584 423.469 80.4675 423.469 82.7191C423.469 84.1047 423.815 85.421 424.542 86.5987C425.2 87.6379 426.066 88.5385 427.14 89.1967C427.66 89.5431 428.249 89.8202 428.872 89.9934L421.39 100.247H428.006L435.073 90.2359H438.364V100.247H443.733V75.0984H432.89ZM438.364 85.6634H432.89C430.777 85.6634 429.115 85.1092 429.115 82.7191C429.115 80.329 430.812 79.8094 432.89 79.8094H438.364V85.6634ZM416.887 77.0036C415.744 75.9644 414.462 75.2369 412.938 74.8906C411.726 74.6134 410.479 74.4056 409.232 74.4056C406.634 74.4056 403.793 74.8559 401.646 76.4493C399.533 78.0081 398.771 80.4329 398.701 82.9962V83.689H403.689L403.759 83.1001C403.932 82.0263 404.278 81.0217 404.971 80.1558C405.768 79.2551 407.43 79.1166 408.539 79.1166C410.825 79.1166 413.458 79.4976 413.458 82.2688C413.458 83.3772 413.215 84.2779 411.968 84.3818L405.352 85.2131C403.066 85.4902 400.399 86.2523 399.082 88.296C398.078 89.8202 397.489 91.5175 397.489 93.3534C397.489 94.739 397.835 96.0899 398.563 97.2677C399.29 98.4454 400.26 99.3461 401.507 99.9696C402.789 100.628 404.209 100.905 405.664 100.905C407.534 100.905 409.474 100.628 411.102 99.7271C412.107 99.1729 413.007 98.5147 413.839 97.7526C414.012 98.3761 414.324 98.965 414.774 99.4846C415.536 100.385 416.887 100.628 418.03 100.662H418.758V81.6799C418.758 79.8786 418.238 78.2159 416.887 77.0036ZM413.354 91.3097C413.354 92.2103 413.042 93.007 412.488 93.6998C411.795 94.4965 410.929 95.0854 409.959 95.5011C408.92 95.9514 407.811 96.1939 406.668 96.1939C404.278 96.1939 403.031 95.1893 403.031 92.7645C403.031 92.1064 403.17 91.5175 403.655 91.0672C404.105 90.6169 404.625 90.2705 405.214 90.0973C405.976 89.8548 406.772 89.7163 407.534 89.5777C409.093 89.3699 410.825 89.162 412.349 88.8156C412.696 88.7464 413.042 88.6424 413.354 88.5039V91.3097ZM359.247 128.478C358.138 127.439 356.822 126.711 355.298 126.365C354.12 126.088 352.839 125.88 351.592 125.88C348.959 125.88 346.153 126.296 344.005 127.924C341.892 129.482 341.13 131.907 341.061 134.436V135.163H346.049L346.118 134.574C346.292 133.501 346.638 132.496 347.365 131.63C348.128 130.695 349.79 130.556 350.899 130.556C353.185 130.556 355.818 130.972 355.818 133.743C355.818 134.817 355.575 135.752 354.363 135.856L347.712 136.687C345.426 136.965 342.793 137.727 341.442 139.77C340.438 141.295 339.883 142.992 339.883 144.828C339.883 146.213 340.195 147.53 340.923 148.742C341.615 149.92 342.62 150.82 343.867 151.409C345.149 152.067 346.569 152.345 348.024 152.345C349.894 152.345 351.834 152.067 353.462 151.167C354.467 150.613 355.367 149.989 356.199 149.227C356.372 149.85 356.684 150.439 357.134 150.924C357.931 151.825 359.247 152.067 360.39 152.137H361.117V133.154C361.117 131.353 360.598 129.69 359.247 128.478ZM355.714 142.784C355.714 143.685 355.402 144.447 354.848 145.174C354.155 145.971 353.289 146.56 352.319 146.975C351.28 147.426 350.171 147.668 349.028 147.668C346.638 147.668 345.391 146.664 345.391 144.239C345.391 143.581 345.53 142.992 346.015 142.507C346.43 142.057 346.984 141.745 347.573 141.537C348.335 141.329 349.132 141.156 349.894 141.052C351.453 140.844 353.185 140.636 354.709 140.29C355.021 140.186 355.402 140.117 355.714 139.978V142.784ZM263.365 132.115C262.533 130.245 261.356 128.72 259.693 127.577C257.961 126.4 256.021 125.915 253.943 125.915C252.315 125.915 250.548 126.192 249.197 127.196C248.574 127.681 247.985 128.201 247.43 128.79V126.573H242.304V161.108H247.673V150.301C248.158 150.716 248.677 151.098 249.232 151.409C250.513 152.102 251.934 152.379 253.423 152.379C255.813 152.379 258.134 151.79 260.005 150.197C261.667 148.777 262.845 146.975 263.538 144.862C264.231 142.784 264.577 140.636 264.577 138.454C264.577 136.272 264.231 134.124 263.365 132.115ZM258.377 143.615C257.995 144.758 257.372 145.763 256.437 146.525C255.536 147.287 254.462 147.564 253.319 147.564C251.76 147.564 250.444 146.906 249.301 145.867C247.811 144.481 247.5 142.161 247.5 140.255C247.5 136.272 248.158 130.868 253.215 130.868C254.566 130.868 256.021 131.111 257.026 132.115C257.857 132.981 258.411 133.951 258.654 135.129C258.931 136.445 259.035 137.761 259.035 139.078C259.035 140.602 258.861 142.161 258.377 143.615ZM331.605 131.284H321.802V151.721H316.398V126.607H336.974V151.756H331.57V131.318L331.605 131.284ZM307.218 131.284H297.45V151.721H292.046V126.607H312.622V151.756H307.218V131.318V131.284ZM274.519 151.617L265.443 126.573H271.505L277.324 144.412L283.282 126.573H289.171L288.825 127.508C284.876 138.523 281.1 150.058 276.216 160.693L276.008 161.108H269.946L274.449 151.617H274.519ZM226.993 122.208V151.721H221.589V117.532H241.957V122.243H226.958L226.993 122.208Z" fill="#A7B0B9"/>
</svg>
