<svg width="153" height="71" viewBox="0 0 153 71" fill="none" xmlns="http://www.w3.org/2000/svg">
<path fill-rule="evenodd" clip-rule="evenodd" d="M15.2954 19.2506H33.4863V15.6529L35.1019 15.6701V19.2506H45.5432C44.0874 18.6386 42.6174 18.0495 41.2245 17.3317C40.5395 16.9799 39.8487 16.5366 39.2521 16.0419C37.4767 14.5633 38.9524 12.9418 38.9524 11.1001C38.9524 10.3794 37.7565 7.5882 36.2151 5.84943C35.7013 5.26888 35.1476 4.80845 34.5881 4.5768C34.1685 4.40521 33.6433 4.05631 32.9383 3.34707C31.5197 1.9143 30.9773 0.790381 28.8366 0.773222C26.8414 0.756063 23.9356 1.16216 22.3828 2.5692C22.2344 2.70361 22.0974 2.8609 22.0317 3.05251C21.8291 3.64449 22.3743 4.20788 22.5598 4.80845C22.6854 5.22026 22.634 5.68356 22.4171 6.05819C21.4009 7.80841 20.1764 9.21545 18.7863 10.7083C17.9957 11.5577 17.6931 12.367 17.5219 13.4852C17.4162 14.1744 17.265 15.1153 16.3487 15.0295C15.9862 14.9952 15.6465 14.8322 15.284 14.8036C14.4077 14.7349 13.7712 15.5414 13.0376 15.8903C11.5106 16.6196 11.0681 17.8064 10.5087 19.2477H15.2897L15.2954 19.2506Z" fill="#B17C57"/>
<path fill-rule="evenodd" clip-rule="evenodd" d="M12.9691 25.1848C13.2346 25.179 13.3745 24.9274 13.3916 24.4269V23.629C13.3745 23.1285 13.2346 22.8769 12.9691 22.8712H12.5381V24.4012C12.5381 24.9331 12.6808 25.1933 12.9691 25.1819V25.1848Z" fill="#B17C57"/>
<path fill-rule="evenodd" clip-rule="evenodd" d="M57.6856 25.1848C57.9511 25.179 58.091 24.9274 58.1081 24.4269V24.3239C57.8226 24.3154 57.5401 24.2982 57.2575 24.2668V24.404C57.2575 24.9359 57.4002 25.1962 57.6885 25.1848H57.6856Z" fill="#B17C57"/>
<path fill-rule="evenodd" clip-rule="evenodd" d="M47.33 22.3421L47.7439 21.2782L49.6791 21.2696C49.6963 21.2696 49.7134 21.2696 49.7305 21.2696C49.2339 20.9751 48.7258 20.7034 48.2091 20.446H47.3386L47.33 22.3392V22.3421Z" fill="#B17C57"/>
<path fill-rule="evenodd" clip-rule="evenodd" d="M56.0786 41.4658H53.738C53.1871 41.4658 52.9046 41.7318 52.8931 42.2608C52.8874 42.8099 53.15 43.0873 53.681 43.0873H54.9797L54.914 43.3476C55.1024 43.2532 55.2908 43.1617 55.4821 43.0787C55.8331 42.87 55.9987 42.6069 56.0758 42.3237V41.4686L56.0786 41.4658Z" fill="#B17C57"/>
<path fill-rule="evenodd" clip-rule="evenodd" d="M77.9088 22.9426C77.9088 22.0561 77.3522 21.1181 76.4474 21.0695C75.788 21.0351 75.1515 21.2296 74.5007 21.2325C73.8585 21.2353 73.2676 21.0552 72.6482 21.3469C72.1373 21.5899 71.7462 22.1104 71.2981 22.4508C70.6216 22.9655 69.9451 23.4803 69.2201 23.9236C67.6616 24.873 66.2116 24.4441 64.5019 24.2353C63.2888 24.0894 62.461 24.7501 61.305 24.7701C61.2907 24.7701 61.2736 24.7701 61.2593 24.7701C60.7255 24.7701 60.2089 24.6042 59.6922 24.4727C59.6637 26.0198 58.9986 26.792 57.6971 26.792C56.3641 26.7977 55.699 25.9998 55.699 24.3983V23.9865C55.445 23.9264 55.1938 23.8549 54.9426 23.7806V27.2782C54.9426 27.7929 55.2195 28.0532 55.7704 28.0532H58.3421L57.9682 29.6404H55.7475C54.1348 29.6404 53.327 28.8539 53.327 27.2782V23.6576C53.327 23.4975 53.3356 23.3516 53.3498 23.2086C52.8675 23.0056 52.3908 22.7825 51.9284 22.5423C52.0425 22.8511 52.1025 23.2172 52.1025 23.6376C52.1082 25.1619 51.3832 25.9569 49.9275 26.0255L50.6353 27.2867C50.8808 27.7128 51.2405 27.7901 51.7172 27.5184L51.9255 27.4068L51.5602 29.28C50.5897 29.5145 49.8161 29.117 49.2424 28.0903L47.507 24.9874L48.4147 24.4698H49.7134C50.2443 24.4698 50.5069 24.1924 50.5012 23.6404C50.4898 23.1085 50.21 22.8426 49.6563 22.8426L47.3386 22.8511V29.6375L45.723 29.24V20.4432H41.5556V21.2553H41.7212C43.3339 21.2553 44.1388 22.0418 44.1388 23.6176V26.8721C44.1388 28.445 43.3339 29.2343 41.7212 29.2343H39.8601C38.2531 29.2343 37.451 28.4478 37.451 26.8721V23.6176C37.451 22.0447 38.2531 21.2553 39.8601 21.2553H39.98V20.4432H35.1019V29.6318L33.4863 29.2343V20.446H26.2905V21.2668H28.6624C30.2752 21.2668 31.0801 22.0332 31.0744 23.5632V26.8091C31.0801 28.4106 30.2837 29.2114 28.6853 29.2114L27.7861 29.2286L27.3894 27.6499H28.6881C29.219 27.6499 29.4816 27.3725 29.4759 26.8206V23.589C29.4702 23.0999 29.1905 22.854 28.6396 22.854H26.2905V32.0341L24.6749 31.6365V20.446H23.7044L20.4647 25.1676L21.3496 26.5003V26.5089L22.1944 27.7529C22.4599 27.9931 22.7139 28.0389 22.9594 27.8959C23.0393 29.0827 23.0736 29.6747 23.0622 29.6747C22.8938 29.6919 22.7311 29.6919 22.5769 29.6833C21.7606 29.6404 21.1897 29.3001 20.8643 28.6623L19.4885 26.5889L17.3392 29.7233L16.009 28.8053L18.518 25.1361L18.0014 24.3554V24.3468L17.1651 23.1028C16.8996 22.8597 16.6456 22.8111 16.4001 22.9598C16.3202 21.7701 16.2859 21.1724 16.2973 21.1724C17.3791 21.0866 18.1127 21.4269 18.4952 22.1934L19.4971 23.7091L21.7349 20.446H12.5495V21.2582H12.9863C14.3021 21.2582 14.97 22.0475 14.9843 23.6261V24.424C14.97 26.0027 14.3021 26.792 12.9863 26.792C11.6533 26.7977 10.9882 25.9998 10.9882 24.3983L10.9796 22.8826L10.6057 22.8912C10.3574 22.8912 10.2318 23.1285 10.2318 23.6004V27.2782C10.2318 27.7929 10.5087 28.0532 11.0596 28.0532H13.6313L13.2574 29.6404H11.0367C9.42401 29.6404 8.61623 28.8539 8.61623 27.2782V23.6576C8.61623 22.0504 9.28415 21.2553 10.6228 21.2639L10.9796 21.2468L10.9711 20.4403H8.93306C7.87124 20.6462 6.52969 20.6405 6.06443 20.6405C4.42888 20.6405 2.82472 20.323 1.19202 20.2973C0.952257 20.2944 0.706782 20.2973 0.484141 20.3774C0.258647 20.4603 0.0559866 20.6405 0.0103168 20.875C-0.0296443 21.078 0.0531323 21.2868 0.144472 21.4727C0.578336 22.3507 1.25197 23.0799 1.86565 23.8435C2.47934 24.6071 3.34422 25.6852 3.15583 26.7262C2.99313 27.6299 2.04833 28.1104 1.80286 28.9769C1.61162 29.6547 2.05404 30.3925 2.66773 30.7328C3.564 31.2276 4.68862 31.056 5.66196 30.9616C7.4231 30.7929 9.36693 30.6842 10.9368 31.1389C13.1261 31.771 13.4515 33.9473 15.4182 35.2657C16.1204 35.7347 16.891 36.361 17.3506 36.8758C18.4181 38.0712 17.6532 39.7184 19.0832 40.8824C20.1422 41.746 21.2782 42.2923 21.6978 41.6831C22.1288 41.0568 22.7539 40.7365 23.4304 41.1541C24.8205 42.0149 25.3885 44.6802 25.8338 46.0987C26.7443 48.99 27.4522 51.9413 28.2229 54.8727C29.0221 57.9127 29.8327 60.967 30.9374 63.9098C31.7138 65.9803 32.9583 69.6037 35.4301 70.1814C36.863 70.516 37.3825 68.9459 38.1075 68.0565C39.1465 66.781 40.3568 65.5256 40.6936 63.8497C40.8591 63.0289 40.6679 62.191 40.9419 61.3731C41.1132 60.8554 41.5642 60.4093 41.6412 59.8659C41.7383 59.1767 41.6298 58.4818 41.5185 57.8012C41.3101 56.5199 40.9134 55.0929 41.5642 53.8632C42.0837 52.8822 44.0589 52.4933 44.9866 51.8298C46.2025 50.9633 47.2701 49.9023 48.3262 48.8527C49.7905 47.3971 51.2605 45.8242 52.9388 44.5744C51.8427 44.3456 51.2976 43.5706 51.3004 42.2465C51.3004 40.6622 52.1082 39.87 53.7209 39.87H56.0843V38.6488C56.0843 38.1341 55.0197 38.1427 52.8932 38.6803V35.8805H51.1491V35.8891L46.9218 35.8977V35.8805H46.4508V44.6774L44.8353 45.0749V38.2885H42.4861C41.9352 38.2885 41.6555 38.5316 41.6498 39.0206V42.2465C41.6441 42.7985 41.9067 43.0759 42.4376 43.0759H43.7363L43.3396 44.6631L42.4405 44.6459C40.842 44.6459 40.0485 43.8452 40.0514 42.2437V38.9977C40.0457 37.4677 40.8506 36.7013 42.4633 36.7013H44.8353V35.8805H31.4997V35.8891L27.2724 35.8977V34.6937L31.1657 34.6851H44.8353V33.5212C44.8353 33.0064 44.5584 32.7462 44.0075 32.7462H43.5851L44.0303 31.1589C45.6431 31.1589 46.4508 31.9454 46.4508 33.5212V34.6851H47.4613V34.6908L50.4555 34.6851H58.7104V35.8805H54.523V36.6927H55.2794C56.8921 36.6927 57.6999 37.4792 57.6999 39.0549V39.8671C59.5695 39.7098 61.3735 39.9386 63.2202 39.3209C63.5827 39.2008 63.9281 38.992 64.2707 38.769C64.6874 38.5001 65.0699 38.3915 65.421 38.3915C66.4143 38.3915 67.0108 40.156 68.0584 39.7642C68.224 39.7013 68.3495 39.6012 68.4466 39.4725C68.8862 38.8834 68.7206 37.7194 68.8976 37.1446C69.1231 36.4039 69.5398 34.8424 70.4932 34.7194C72.5426 34.4592 73.1649 31.7967 73.7015 30.2038C74.0326 29.2228 74.3808 28.2019 75.0373 27.384C75.4541 26.8606 76.0478 26.2915 76.7157 26.1171C77.2038 25.9884 77.689 26.2715 78.1714 26.1857C78.9221 26.0513 78.905 24.8702 79.0363 24.2896C79.2532 23.343 77.9145 23.4374 77.9145 22.9312L77.9088 22.9426ZM47.7125 36.7042C49.3252 36.7042 50.133 37.4906 50.133 39.0664V44.6888L48.5174 45.0863V39.0635C48.5174 38.5488 48.2405 38.2885 47.6896 38.2885H47.2529L47.7153 36.7013L47.7125 36.7042ZM32.062 36.6956L33.6776 36.7127L33.669 37.7823L34.0829 36.7127H36.0438C37.6594 36.7127 38.4672 37.4792 38.4672 39.0092L38.49 45.0148L36.8573 44.6574L36.8488 39.0349C36.8431 38.5459 36.5662 38.2999 36.0124 38.2999H33.6719V45.0863L32.0563 44.6888V36.6956H32.062ZM28.0659 36.7042C29.6786 36.7042 30.4864 37.4906 30.4864 39.0664V44.6888L28.8708 45.0863V39.0635C28.8708 38.5488 28.5939 38.2885 28.043 38.2885H27.6035L28.0659 36.7013V36.7042ZM29.9526 33.8329L29.3475 34.136C29.1191 32.9721 29.3132 32.1141 29.9298 31.5593C30.4236 31.1132 30.8746 30.8901 31.2827 30.8901C31.3769 30.8901 31.474 30.9044 31.5682 30.9302L32.0934 32.3343C30.8346 32.403 30.121 32.9034 29.9526 33.8329ZM49.5992 33.8329L48.9941 34.136C48.7657 32.9721 48.9598 32.1141 49.5764 31.5593C50.0702 31.1132 50.5212 30.8901 50.9293 30.8901C51.0235 30.8901 51.1206 30.9044 51.2148 30.9302L51.74 32.3343C50.4812 32.403 49.7676 32.9034 49.5992 33.8329Z" fill="#B17C57"/>
<path fill-rule="evenodd" clip-rule="evenodd" d="M39.0723 23.6233L39.0638 26.8778C39.0638 27.3925 39.3378 27.6528 39.8887 27.6528H41.6983C42.2492 27.6528 42.5232 27.3954 42.5232 26.8778L42.5147 23.6233C42.5204 23.1085 42.2464 22.8483 41.6955 22.8483H39.8858C39.3349 22.8483 39.0638 23.1057 39.0666 23.6233H39.0723Z" fill="#B17C57"/>
<path d="M93.3048 39.778C94.0659 38.8544 94.1471 38.1968 94.2136 37.6722C94.2506 37.3915 94.2728 37.1993 94.391 36.9998C94.5092 37.1993 94.5388 37.3915 94.5683 37.6722C94.6348 38.1968 94.7087 38.8544 95.4771 39.778C96.6667 41.2189 98.2553 41.9134 99.3045 41.9651C99.8217 41.9873 100.236 41.8691 100.494 41.6031C100.753 41.3445 100.878 40.9307 100.856 40.4135C100.804 39.3643 100.11 37.7757 98.6691 36.5861C97.7455 35.825 97.0879 35.7438 96.5633 35.6773C96.2825 35.6403 96.0904 35.6181 95.8909 35.4999C96.0904 35.3817 96.2825 35.3521 96.5633 35.3226C97.0879 35.2561 97.7455 35.1822 98.6691 34.4138C100.11 33.2242 100.804 31.6356 100.856 30.5864C100.878 30.0692 100.76 29.6554 100.494 29.3968C100.236 29.1382 99.8217 29.0126 99.3045 29.0347C98.2553 29.0864 96.6667 29.781 95.4771 31.2218C94.7161 32.1454 94.6348 32.803 94.5683 33.3276C94.5314 33.6084 94.5092 33.8005 94.391 34C94.2728 33.8005 94.2432 33.6084 94.2136 33.3276C94.1471 32.803 94.0733 32.1454 93.3048 31.2218C92.1152 29.781 90.5266 29.0864 89.4774 29.0347C88.9602 29.0126 88.5464 29.1382 88.2878 29.3968C88.0514 29.6332 87.9258 30.0027 87.9258 30.4608C87.9258 30.5051 87.9258 30.542 87.9258 30.5864C87.9775 31.6356 88.672 33.2242 90.1129 34.4138C91.0365 35.1748 91.6941 35.2561 92.2187 35.3226C92.4994 35.3595 92.6916 35.3817 92.8911 35.4999C92.6916 35.6181 92.4994 35.6477 92.2187 35.6773C91.6941 35.7438 91.0365 35.8176 90.1129 36.5861C88.672 37.7757 87.9775 39.3717 87.9258 40.4135C87.9258 40.4578 87.9258 40.5021 87.9258 40.5391C87.9258 40.9972 88.0514 41.3666 88.2878 41.6031C88.5464 41.8617 88.9602 41.9873 89.4774 41.9651C90.5266 41.9134 92.1152 41.2189 93.3048 39.778ZM93.9624 35.4999C93.9624 35.2635 94.1545 35.0714 94.391 35.0714C94.6274 35.0714 94.8195 35.2635 94.8195 35.4999C94.8195 35.7364 94.6274 35.9285 94.391 35.9285C94.1545 35.9285 93.9624 35.7364 93.9624 35.4999ZM98.1445 37.2141C99.3858 38.2412 99.9917 39.6155 100.036 40.4504C100.051 40.7681 99.9843 40.9529 99.9178 41.0194C99.8513 41.0859 99.6666 41.1524 99.3489 41.1376C98.5065 41.1006 97.1396 40.4874 96.1126 39.246C95.4993 38.5072 95.4402 38.0269 95.3885 37.5614C95.3515 37.2289 95.3072 36.889 95.0707 36.527C95.2185 36.4309 95.3441 36.3053 95.4402 36.1575C95.7948 36.3866 96.1421 36.4309 96.4746 36.4752C96.9401 36.5344 97.413 36.5861 98.1593 37.1993L98.1445 37.2141ZM96.1052 31.739C97.1322 30.4977 98.5065 29.8918 99.3415 29.8475C99.6592 29.8327 99.8439 29.8992 99.9104 29.9657C99.9769 30.0322 100.043 30.2169 100.029 30.5347C99.9917 31.377 99.3784 32.7439 98.1371 33.7709C97.3982 34.3842 96.9179 34.4433 96.4525 34.495C96.12 34.532 95.7801 34.5763 95.418 34.8128C95.322 34.665 95.1964 34.5394 95.0486 34.4433C95.2776 34.0887 95.322 33.7414 95.3663 33.4089C95.4254 32.9434 95.4771 32.4705 96.0904 31.7242L96.1052 31.739ZM90.6301 33.7783C89.3962 32.7587 88.7829 31.3844 88.7459 30.5494C88.7312 30.2317 88.7977 30.047 88.8642 29.9805C88.9307 29.914 89.1154 29.8475 89.4331 29.8623C90.2754 29.8992 91.6423 30.5125 92.6694 31.7538C93.2827 32.4927 93.3418 32.973 93.3935 33.4384C93.4304 33.7709 93.4748 34.1108 93.7112 34.4729C93.5634 34.5689 93.4378 34.6945 93.3418 34.8423C92.9871 34.6133 92.6398 34.5689 92.3073 34.5246C91.8418 34.4655 91.369 34.4138 90.6227 33.8005L90.6301 33.7783ZM88.7459 40.4578C88.7829 39.6155 89.3962 38.2486 90.6375 37.2215C91.3763 36.6082 91.8566 36.5491 92.3221 36.4974C92.6546 36.4605 92.9945 36.4161 93.3565 36.1797C93.4526 36.3275 93.5782 36.4531 93.726 36.5491C93.4969 36.9038 93.4526 37.2511 93.4083 37.5836C93.3492 38.0491 93.2974 38.5219 92.6842 39.2682C91.6571 40.5095 90.2828 41.1154 89.4479 41.1597C89.1302 41.1745 88.9454 41.108 88.8789 41.0415C88.8124 40.975 88.7459 40.7903 88.7607 40.4726L88.7459 40.4578Z" fill="#A7B0B9"/>
<path d="M113.995 53.1988C113.084 54.4423 111.716 54.5023 109.727 54.4873C111.625 53.5059 112.694 52.8991 112.968 50.6816C112.512 51.8203 111.534 52.3822 110.456 52.4346C112.454 50.0074 112.528 48.8312 112.843 45.5125C113.026 47.9098 113.506 48.6889 114.095 49.4605C115.206 50.9289 116.001 52.6369 116.159 54.4873C115.595 53.6108 114.7 53.2662 113.987 53.1988H113.995ZM138.904 44.9507C137.677 44.9282 136.765 45.1979 136.11 45.535C136.558 45.7298 137.072 46.3141 137.213 46.7561C134.287 46.0145 132.223 47.2206 128.741 47.6551C126.959 47.9323 122.981 47.9398 120.121 46.2242C122.168 46.7711 123.992 46.4714 125.849 45.4676C125.849 45.9545 125.633 46.404 125.302 46.6437C127.026 46.5464 127.913 46.3141 129.007 44.9657C129.197 45.3103 129.313 45.8422 129.114 46.2542C130.88 45.9545 131.634 45.1305 132.04 44.224C132.322 44.4637 132.463 44.8458 132.488 45.2803C134.162 44.3364 136.79 43.9543 138.895 44.9507H138.904ZM128.899 32.7995C127.589 33.4513 126.943 34.2454 126.603 35.0695C126.263 35.8785 126.23 36.8899 126.321 37.8188C125.625 37.6315 125.202 36.9049 125.343 36.4629C124.846 36.785 122.773 36.8374 121.596 35.7437C123.826 35.5114 124.713 34.9496 125.84 34.1855C126.76 33.5637 127.598 33.0168 128.907 32.7995H128.899ZM123.08 40.4783L124.415 41.0102L124.149 41.5795L123.461 41.3173L123.776 41.9766L123.387 42.1189L123.105 41.4447L122.815 42.074L122.193 41.8342L122.732 40.5907L122.4 39.8565L121.87 40.4858L122.027 41.8193L121.356 41.8867L121.257 41.205L120.784 41.7818L120.452 41.5496L120.95 40.9877L120.212 41.0776L120.129 40.4633L121.58 40.2685L122.102 39.6392L121.248 39.5344L120.071 40.3285L119.648 39.834L120.254 39.4145L119.466 39.3321L119.524 38.95L120.303 39.0624L119.847 38.523L120.394 38.1409L121.298 39.1898L122.152 39.2946L121.828 38.5605L120.494 38.0211L120.759 37.4517L121.447 37.7139L121.132 37.0547L121.522 36.9124L121.804 37.5866L122.094 36.9573L122.715 37.197L122.177 38.4331L122.508 39.1673L123.039 38.5455L122.873 37.2195L123.544 37.1446L123.644 37.8263L124.116 37.2495L124.456 37.4817L123.959 38.0436L124.713 37.9612L124.796 38.5755L123.337 38.7702L122.823 39.3995L123.677 39.5044L124.862 38.7178L125.268 39.2197L124.663 39.6317L125.451 39.7142L125.393 40.0962L124.614 39.9838L125.069 40.5307L124.531 40.9053L123.619 39.8565L122.765 39.7516L123.08 40.4933V40.4783ZM119.392 26.5592L119.45 26.3794L120.378 23.7424L121.008 23.9297L120.651 24.8961L121.63 24.6039V25.1583L120.452 25.4504L119.972 26.7315L121.414 26.4243L121.853 25.3905L122.45 25.4504L122.044 26.3045L123.122 26.0797L123.279 26.7015L122.177 26.9038L122.939 27.5256L122.425 27.8102L121.555 27.0236L120.096 27.2783L121.107 28.2672L122.318 28.0949L122.558 28.5968L121.538 28.7017L122.293 29.4509L121.779 29.8704L121.041 29.1063L120.834 30.0202L120.303 29.758L120.618 28.6718L119.648 27.6529L119.217 28.9489L119.98 29.8254L119.624 30.2599L119.019 29.5108L118.695 30.4622L118.074 30.2974L119.392 26.5592ZM116.606 34.6949C123.387 35.871 128.31 33.2865 129.056 28.5819C129.231 27.4881 129.189 26.3794 128.974 25.2781C129.156 25.2931 130.059 25.4429 130.979 25.3231C131.9 25.2032 132.513 24.8137 132.513 24.8137C131.079 24.529 129.239 23.8323 128.642 22.9932C128.642 22.9932 129.819 22.9633 130.805 22.3115C131.792 21.6523 132.306 20.6559 132.306 20.6559C132.306 20.6559 130.076 21.5399 128.584 20.9106C127.084 20.2813 126.868 19.682 126.868 19.682C126.868 19.682 127.772 19.8243 128.725 19.4123C129.67 19.0003 129.927 18.1163 129.927 18.1163C126.678 19.0377 124.895 17.9665 123.005 16.603C122.981 16.588 122.947 16.5656 122.923 16.5431C122.923 16.5431 123.561 17.9665 123.113 19.5097C122.666 21.0529 120.825 22.5363 120.825 22.5363C120.825 22.5363 121.986 22.4389 122.898 21.9669C123.801 21.4949 124.539 20.7383 124.539 20.7383C124.365 22.2291 123.254 23.0756 121.721 23.9072C121.721 23.9072 123.42 23.8772 124.489 23.3079C125.558 22.7385 125.956 22.349 125.956 22.349C125.956 22.349 125.89 23.4877 125.285 24.2743C124.68 25.0609 123.312 25.5853 123.312 25.5853C124.033 25.7276 125.185 25.6302 126.321 25.1433C126.321 25.1433 126.164 26.0273 125.144 27.2109C124.125 28.3946 122.856 29.0688 122.856 29.0688C124.199 29.3235 125.384 28.9564 126.139 28.4994C126.139 28.4994 125.003 29.9828 122.997 30.8667C121.596 31.481 119.275 31.7283 117.949 31.6384C117.817 31.6309 117.742 31.5859 117.742 31.5859C118.438 32.4474 119.947 32.9718 121.107 32.7771C121.107 32.7771 120.685 33.4962 119.458 34.0206C118.231 34.5376 116.631 34.6949 116.631 34.6949H116.606ZM121.058 35.7886C121.058 35.7886 119.698 35.4965 118.621 36.0733C117.543 36.6502 117.195 37.7139 117.195 37.7139C116.598 36.9348 116.515 36.0359 116.507 34.9945C116.507 34.9945 115.844 36.358 115.736 37.4143C115.637 38.3732 115.894 39.437 116.606 40.1711C116.606 40.1711 116.59 40.1711 116.548 40.1562C115.836 39.9689 115.405 39.6392 114.907 39.1373C115.463 40.703 117.195 42.1639 120.03 42.3811C116.797 39.9689 118.886 36.7026 121.058 35.7961V35.7886ZM114.576 40.6056C116.018 42.6358 118.77 43.355 121.389 43.1827C128.741 42.6958 133.847 35.5264 141.026 36.313C145.203 36.77 146.53 38.3657 146.53 38.3657L143.869 38.3133C143.869 38.3133 143.96 38.7552 144.2 39.2572C144.441 39.7516 144.88 40.1936 144.88 40.1936C142.567 40.2236 140.669 39.6842 138.746 38.5455C138.746 38.5455 138.697 39.0699 138.904 39.5943C139.111 40.1187 139.376 40.3659 139.376 40.3659C139.376 40.3659 138.05 40.5382 136.972 40.4258C135.895 40.3135 135.141 39.8565 135.141 39.8565C135.141 39.8565 135.141 40.2161 135.472 40.5832C135.804 40.9502 136.342 41.1076 136.342 41.1076C136.218 41.205 135.994 41.3398 135.829 41.4222C134.502 42.0889 133.209 42.2538 131.701 42.2612C130.88 42.2612 130.109 42.1414 130.109 42.1414C130.698 42.7632 131.203 42.958 131.908 43.0404C131.908 43.0404 131.278 43.2801 130.474 43.4898C129.197 43.8345 127.913 43.9543 126.603 43.6696C126.396 43.6247 126.288 43.5947 126.288 43.5947C126.719 44.0592 127.49 44.3514 128.045 44.3514C128.045 44.3514 127.896 44.4113 127.647 44.4937C125.849 45.1155 124.282 45.3852 122.177 44.9881C121.439 44.8458 120.983 44.651 120.983 44.651C121.132 44.8833 121.281 45.0256 121.547 45.1604C121.837 45.3178 122.45 45.4601 122.45 45.4601C118.331 46.0444 115.446 44.2015 114.567 40.6131L114.576 40.6056ZM114.004 42.2013C114.882 43.9918 116.134 45.3402 118.074 46.2842C122.939 48.6589 126.785 48.3368 126.354 54.4573C126.354 54.4573 125.633 53.7981 124.663 53.3561C123.693 52.9141 122.848 52.8242 122.848 52.8242C122.318 53.7382 121.654 54.1876 120.461 54.5098C120.461 54.5098 120.85 53.8131 120.825 53.0265C120.801 52.2399 120.477 51.693 120.477 51.693C120.005 53.1313 118.413 54.1876 116.764 54.4798C116.764 54.4798 117.701 53.401 118.09 52.3073C118.488 51.206 118.438 50.2022 118.438 50.2022C117.924 50.9289 117.386 51.3259 116.374 51.6031C116.374 51.6031 116.731 50.5018 116.548 49.3482C116.374 48.1945 115.711 47.5502 115.711 47.5502C115.214 48.0746 114.932 48.569 114.7 49.3182C114.7 49.3182 113.415 47.0108 113.573 44.8982C113.73 42.7856 114.012 42.2013 114.012 42.2013H114.004ZM124.597 16.5506C124.597 16.5506 126.056 17.6893 127.863 17.6668C129.67 17.6368 131.029 17.3522 131.029 17.3522C131.029 17.3522 131.145 18.4384 130.54 19.1351C129.935 19.8318 129.164 20.0641 129.164 20.0641C129.164 20.0641 129.993 20.4087 131.129 20.094C132.273 19.7794 133.756 18.4085 133.756 18.4085C133.939 18.7755 134.03 19.8693 133.806 20.6334C133.806 20.6334 135.547 20.109 136.558 18.7681C137.569 17.4271 137.81 16.5581 137.81 16.5581H124.597V16.5506ZM142.103 26.0572C142.103 26.0572 141.448 29.1587 138.473 30.8443C135.961 32.2602 132.894 32.6422 132.894 32.6422C134.676 33.3015 135.373 34.4552 135.746 36.0958C135.746 36.0958 136.16 35.5264 136.177 34.7248C136.193 33.9233 135.878 33.4663 135.878 33.4663C136.906 33.8933 137.337 34.4477 137.785 35.4066C137.785 35.4066 138.1 34.9046 138.091 33.9757C138.091 33.0468 137.834 32.4924 137.834 32.4924C138.539 32.5448 139.02 33.294 139.194 33.9907C139.252 34.2154 143.065 31.541 142.103 26.0497V26.0572ZM143.048 28.7317C143.164 30.2974 142.526 32.7921 139.252 35.3916C139.252 35.3916 141.109 35.2492 142.998 35.5939C144.88 35.9385 145.908 36.5752 145.908 36.5752C145.444 35.5264 143.794 34.2079 143.148 33.9907C143.877 32.5898 143.67 30.5147 143.048 28.7317ZM133.392 31.6009C132.695 29.346 132.588 26.4992 132.961 24.1244C132.157 24.0345 131.319 23.7873 130.656 23.3303C130.656 23.3303 130.747 23.3154 130.855 23.3004C132.09 23.0681 133.093 22.1692 133.566 21.1354C133.566 22.0868 133.823 23.188 134.593 23.8922C135.572 24.7912 137.602 24.9485 137.602 24.9485C137.196 25.5104 136.674 25.8924 136.085 26.2745C136.027 26.3119 135.721 26.4917 135.721 26.4917C138.348 27.0611 139.641 26.3794 141.647 24.8586C141.647 24.8586 141.623 27.5705 139.136 29.4658C136.649 31.3612 133.4 31.6009 133.4 31.6009H133.392ZM138.622 16.5506C138.622 16.5506 139.849 20.0566 140.296 21.3002C140.744 22.5437 140.835 23.7873 140.122 24.7387C139.409 25.6902 137.321 25.9823 137.321 25.9823C138.133 25.3381 138.846 24.6563 138.995 23.6525C138.995 23.6525 138.332 24.0495 136.757 23.8323C135.182 23.6075 134.395 21.847 134.395 21.847C134.395 21.847 136.309 21.1279 137.37 19.7494C138.431 18.371 138.622 16.5506 138.622 16.5506ZM141.946 54.4948C139.368 54.5997 137.752 54.4049 136.757 53.5808C136.5 53.9854 136.193 54.2176 135.721 54.4573V48.6215C136.417 51.7829 137.71 54.0977 141.946 54.4948ZM152.307 54.4873C151.055 54.2775 150.243 53.3411 150.052 52.592C149.679 53.431 149.074 54.0753 147.748 54.4873C148.129 53.9329 148.345 53.4834 148.328 52.2923C146.372 54.4274 145.543 54.2626 142.8 54.4873C147.582 53.3486 148.478 49.086 147.118 46.1044C146.961 46.9509 146.488 47.3479 146.488 47.3479C146.472 45.4226 145.634 43.9094 144.507 43.2202C144.98 44.4487 144.64 45.3927 144.656 45.5725C144.018 43.9693 143.057 42.7931 141.565 42.4335C141.996 43.4749 141.805 44.2015 141.589 44.7334C140.818 43.1677 139.741 42.456 138.365 42.4186C138.73 42.7482 138.987 43.3026 139.036 43.7371C137.752 42.9654 136.326 42.883 134.792 43.3925C137.312 41.5645 140.197 41.1151 142.501 41.3248C143.496 41.4147 144.971 41.7069 145.634 40.7555C146.14 40.0288 145.958 39.0549 145.958 39.0549C145.958 39.0549 147.118 39.7516 147.044 41.3023C147.01 41.9916 146.845 42.486 146.662 42.8231C149.754 45.2054 150.575 50.0299 152.315 54.4948L152.307 54.4873ZM139.633 50.1872L139.152 51.4682L138.423 51.4233L138.887 50.3745L137.586 50.6816L137.37 49.94L138.688 49.6553L137.743 48.9286L138.357 48.569L139.443 49.483L141.2 49.1234L139.932 47.9622L138.481 48.217L138.174 47.6176L139.385 47.4603L138.431 46.5688L139.045 46.0594L139.973 46.9434L140.189 45.8347L140.835 46.1493L140.512 47.4603L141.739 48.6589L142.203 47.0783L141.233 46.0594L141.647 45.5125L142.41 46.404L142.758 45.2129L143.57 45.4226L143.189 46.6063L144.35 46.2167L144.383 46.8835L142.974 47.2805L142.451 48.8462L144.176 48.4192L144.656 47.1532L145.377 47.1981L144.922 48.2469L146.215 47.9398L146.43 48.6814L145.112 48.9661L146.057 49.6928L145.444 50.0524L144.358 49.1384L142.609 49.5055L143.877 50.6592L145.328 50.4045L145.634 51.0038L144.408 51.1686L145.353 52.0451L144.756 52.577L143.836 51.678L143.62 52.7867L142.974 52.4871L143.305 51.1686L142.087 49.9774L141.623 51.5581L142.584 52.5845L142.17 53.1239L141.407 52.2399L141.042 53.401L140.23 53.2063L140.62 52.0376L139.459 52.4122L139.426 51.7529L140.835 51.3484L141.357 49.7827L139.625 50.1947L139.633 50.1872Z" fill="#B17C57"/>
</svg>
