<svg width="250" height="107" viewBox="0 0 250 107" fill="none" xmlns="http://www.w3.org/2000/svg">
<path d="M179.864 52.4106C179.789 52.501 179.739 52.5913 179.699 52.6767C179.474 52.8825 179.339 53.1786 179.394 53.55C181.049 64.7234 187.304 74.3557 197.693 79.1091C208.462 84.0433 221.787 82.181 231.651 76.0673C236.706 72.9302 241.221 68.9799 246.4 66.0485C247.565 65.391 248.765 64.8137 249.995 64.3168V56.4212C249.915 56.115 249.83 55.8088 249.75 55.5026C249.83 55.4825 249.915 55.4625 249.995 55.4424V53.3844C249.05 53.6053 248.115 53.8462 247.19 54.1273C247.35 52.511 247.17 50.8998 246.715 49.3839C247.695 48.907 248.825 48.38 249.995 48.0035V43.2953C248.835 44.9216 247.07 46.4425 245.905 47.3309C245.02 45.554 243.745 43.993 242.15 42.8235C243.8 40.5346 247.39 36.3333 249.995 38.1805V35.746C248.09 35.2039 246 36.1927 244.165 37.6484C245.02 34.6367 245.09 31.5146 242.22 30.586C240.116 29.9034 238.346 30.7818 236.936 32.2776C236.901 32.0065 236.846 31.7305 236.736 31.4343C235.671 28.4728 232.256 27.3936 229.056 27.1728C236.146 26.7361 243.35 27.7249 249.995 30.1945V27.9508C241.52 25.0144 232.266 24.387 223.367 25.7372C205.928 28.3775 190.954 39.0589 179.864 52.4056V52.4106ZM201.103 36.4036C205.818 33.4822 210.862 31.1482 216.217 29.5319C218.872 35.8113 216.662 43.1598 210.827 46.5529C210.667 46.061 210.392 45.5741 209.982 45.0872C208.167 42.9389 205.318 43.2351 202.708 44.3193C204.038 41.3728 204.113 38.0901 201.103 36.4036ZM214.707 68.0563C215.272 65.1048 212.987 63.4283 210.382 62.5449C212.167 61.8121 213.867 60.753 214.872 59.3274C216.987 61.8924 220.167 64.7585 223.287 62.7005C225.636 61.1495 225.146 57.8869 224.057 55.0258C226.586 56.4312 229.491 57.0185 231.761 54.9605C233.926 52.9979 233.096 50.7191 231.406 48.7615C233.076 48.892 234.691 49.5997 235.961 50.709C238.181 52.6415 238.461 55.4926 237.846 58.1981C233.356 60.8283 229.271 64.111 224.577 66.425C221.167 68.1065 217.522 69.3162 213.777 69.9888C214.222 69.4668 214.552 68.8393 214.702 68.0513L214.707 68.0563ZM204.328 69.7227C205.158 67.8053 205.588 65.7875 205.663 63.7596C205.673 63.7596 205.678 63.7646 205.688 63.7646C207.808 63.8801 212.742 64.4573 212.532 67.5845C212.317 70.7417 206.673 70.1243 204.328 69.7227ZM205.623 61.7318C205.458 59.5834 204.913 57.4702 204.048 55.5026C204.193 55.5076 204.338 55.4926 204.478 55.4474C206.168 54.8651 213.517 52.5763 213.532 56.4212C213.547 59.9499 208.232 61.3704 205.633 61.7267C205.633 61.7267 205.628 61.7267 205.623 61.7267V61.7318ZM230.361 53.3543C228.466 56.2706 223.527 52.2851 221.947 50.7241C223.262 49.5295 224.397 48.1692 225.306 46.6332C227.491 47.8429 232.086 50.694 230.361 53.3543ZM222.392 60.2661C221.477 63.6442 217.122 58.6147 215.767 56.898C215.787 56.6069 215.792 56.3107 215.757 55.9995C215.707 55.5578 215.612 55.1613 215.472 54.8099C217.157 54.0721 218.737 53.1886 220.167 52.1546C221.602 54.4987 223.137 57.5004 222.387 60.2661H222.392ZM203.218 53.8111C202.183 51.9639 200.843 50.2974 199.268 48.9171C199.403 48.8067 199.538 48.6912 199.673 48.5657C201.828 46.7437 205.113 44.6756 207.853 46.1363C211.507 48.0939 204.648 52.9025 203.303 53.7458C203.273 53.7659 203.248 53.786 203.218 53.8111ZM189.859 44.9718C192.733 42.3366 195.788 39.9172 199.003 37.7638C199.053 37.7889 199.098 37.814 199.153 37.8341C203.788 39.4454 200.408 45.0872 198.008 47.2255C197.913 47.3058 197.808 47.3912 197.718 47.4715C197.663 47.5167 197.623 47.5668 197.583 47.617C195.343 46.1062 192.728 45.1424 189.859 44.9718ZM183.729 51.1909C185.029 49.7302 186.379 48.3147 187.774 46.9495C187.904 46.9846 188.049 47.0047 188.204 46.9946C199.628 46.2116 206.998 60.6476 201.738 70.1092C200.038 69.793 198.393 69.3312 196.823 68.7088C198.303 64.879 198.008 60.5171 195.928 56.9432C193.373 52.5462 188.494 51.1056 183.729 51.1909ZM182.719 53.279C187.264 52.9327 191.728 54.1574 194.153 58.3135C195.808 61.1595 195.888 64.7334 194.798 67.8003C189.084 64.9392 184.644 59.9649 182.719 53.279ZM189.329 70.4907C186.569 67.5092 184.604 63.9403 183.294 60.1356C185.499 63.7847 188.539 66.7412 192.213 68.8694C192.073 68.9698 191.953 69.0953 191.868 69.266C191.453 70.0992 191.034 70.9375 190.619 71.7707C190.179 71.3541 189.739 70.9425 189.329 70.4957V70.4907ZM192.318 73.2414C192.868 72.1421 193.413 71.0429 193.963 69.9436C193.988 69.8984 193.998 69.8583 194.013 69.8131C194.593 70.0942 195.183 70.3502 195.793 70.5911C195.318 71.9765 194.843 73.3568 194.363 74.7372C193.658 74.2704 192.978 73.7684 192.318 73.2364V73.2414ZM196.288 75.9117C196.813 74.3858 197.338 72.8599 197.868 71.329C198.463 71.5097 199.063 71.6753 199.678 71.8209C199.648 71.8912 199.623 71.9664 199.603 72.0468C199.248 73.7132 198.893 75.3797 198.543 77.0461C197.778 76.6998 197.028 76.3233 196.293 75.9117H196.288ZM200.628 77.8944C201.028 76.0171 201.428 74.1399 201.823 72.2626C202.718 72.4132 203.618 72.5085 204.518 72.5788C204.428 74.7121 204.338 76.8454 204.248 78.9786C203.018 78.6875 201.808 78.3261 200.623 77.8944H200.628ZM206.473 79.4203C206.568 77.1716 206.663 74.9279 206.758 72.6792C207.508 72.6892 208.253 72.6742 209.002 72.634L208.977 79.7265C208.137 79.6563 207.308 79.5508 206.478 79.4153L206.473 79.4203ZM211.207 79.852C211.217 77.4527 211.227 75.0534 211.232 72.6541C211.232 72.5838 211.222 72.5236 211.212 72.4634C211.887 72.3881 212.562 72.2977 213.227 72.1823C213.227 72.1923 213.227 72.2024 213.227 72.2124C213.527 74.7322 213.832 77.257 214.132 79.7817C213.157 79.847 212.177 79.8771 211.202 79.857L211.207 79.852ZM216.372 79.5508C216.062 76.9708 215.757 74.3959 215.447 71.8159C215.447 71.7958 215.437 71.7757 215.432 71.7556C216.102 71.605 216.767 71.4444 217.427 71.2587C217.997 73.8588 218.572 76.4589 219.142 79.0539C218.222 79.2597 217.302 79.4203 216.367 79.5458L216.372 79.5508ZM221.322 78.4968C220.747 75.8716 220.167 73.2414 219.587 70.6162C220.352 70.3652 221.112 70.0942 221.862 69.8081C222.707 72.3479 223.557 74.8928 224.402 77.4377C223.397 77.8493 222.367 78.1956 221.322 78.5018V78.4968ZM226.446 76.5241C225.606 73.9993 224.766 71.4745 223.927 68.9498C224.567 68.6687 225.201 68.3725 225.826 68.0663C226.961 70.3853 228.096 72.7043 229.236 75.0233C228.321 75.5554 227.396 76.0573 226.446 76.5191V76.5241ZM231.156 73.8538C230.041 71.5799 228.931 69.3111 227.816 67.0373C228.631 66.5956 229.436 66.1338 230.221 65.652C231.296 67.8806 232.366 70.1092 233.441 72.3379C232.686 72.8549 231.926 73.3618 231.156 73.8538ZM235.301 71.0429C234.246 68.8494 233.191 66.6559 232.136 64.4623C232.896 63.9755 233.651 63.4936 234.401 63.0117C235.486 65.1299 236.571 67.2482 237.656 69.3664C236.871 69.9285 236.091 70.4857 235.301 71.0429ZM242.03 66.3396C241.181 66.8968 240.336 67.474 239.496 68.0613C238.431 65.9782 237.361 63.8901 236.296 61.8071C237.121 61.2901 237.941 60.7831 238.776 60.2962C239.861 62.314 240.946 64.3268 242.035 66.3447L242.03 66.3396ZM243.92 65.145C242.85 63.1573 241.78 61.1746 240.711 59.1869C241.49 58.7602 242.28 58.3537 243.085 57.9672C243.855 60.0703 244.625 62.1785 245.395 64.2867C244.9 64.5627 244.41 64.8489 243.92 65.145ZM249.26 62.3893C248.625 62.6553 248 62.9364 247.385 63.2376C246.63 61.1796 245.88 59.1166 245.125 57.0586C245.93 56.7274 246.75 56.4162 247.595 56.1401C248.15 58.2232 248.7 60.3062 249.255 62.3893H249.26ZM244.81 54.9354C243.77 55.3119 242.75 55.7184 241.76 56.1551C241.261 56.376 240.776 56.632 240.286 56.8779C240.646 52.1998 237.736 48.114 233.386 46.9946C235.041 46.5178 236.371 45.4888 236.881 43.5362C236.946 43.2953 236.981 43.0594 237.001 42.8335C242.47 43.8424 245.76 49.5646 244.805 54.9404L244.81 54.9354ZM226.321 44.6405C226.731 43.6868 227.066 42.6779 227.311 41.6037C227.581 40.4091 227.711 39.1944 227.736 37.9696C230.481 38.3963 234.206 39.606 234.701 42.708C235.286 46.3722 228.606 45.1926 226.326 44.6405H226.321ZM240.171 41.669C239.076 41.162 237.881 40.8307 236.616 40.7002C236.371 40.1983 236.021 39.7365 235.601 39.3199C236.321 36.8704 238.026 32.2575 241.126 32.4533C244.1 32.639 241.415 39.0488 240.166 41.669H240.171ZM233.746 37.9245C233.156 37.5831 232.531 37.282 231.891 37.026C232.816 36.7549 233.736 36.4136 234.531 35.9769C234.216 36.6445 233.956 37.3071 233.746 37.9245ZM234.221 31.4594C236.726 34.205 229.856 35.475 227.661 35.7962C227.476 33.5726 226.966 31.354 226.261 29.2508C229.011 28.9898 232.276 29.3311 234.221 31.4594ZM223.387 27.9157C224.936 31.6953 225.756 35.7862 225.336 39.872C224.667 46.4324 219.882 50.7191 214.127 53.1485C212.697 52.2048 210.542 52.1446 208.457 52.4207C209.532 51.3666 210.452 50.1619 210.827 48.902C218.302 45.3382 221.477 36.5542 218.382 28.9246C220.017 28.4979 221.672 28.1315 223.362 27.8454C223.372 27.8705 223.372 27.8906 223.382 27.9157H223.387ZM102.589 106.982C105.659 107.238 107.514 104.693 108.583 101.862C109.608 104.457 111.433 106.661 114.423 106.29C117.748 105.883 119.163 103.032 119.663 99.965C121.083 101.978 123.118 103.408 125.822 103.137C129.227 102.796 130.312 99.6387 130.462 96.4162C132.107 98.3086 134.332 99.3928 137.127 98.2232C140.062 96.9935 140.887 94.032 140.642 91.1207C142.176 92.0844 143.991 92.4057 145.921 91.4821C149.011 90.0014 149.326 86.4626 148.756 83.3405C150.806 84.3695 153.066 84.6657 155.131 83.1197C157.136 81.6138 157.286 78.9837 156.751 76.6245C160.72 77.7388 164.46 74.702 163.445 69.778C164.025 69.5019 164.615 69.2359 165.22 68.9999C169.825 67.203 174.51 68.2269 178.704 70.5459C178.714 70.551 178.729 70.556 178.739 70.561C179.134 70.8722 179.519 71.1985 179.889 71.5448C184.009 75.47 184.604 81.2474 182.884 86.4426C181.404 90.9149 177.869 94.1474 173.165 94.6745C169.045 95.1363 164.78 92.9127 162.97 89.1832C160.39 83.8525 165.565 77.2871 171.26 78.818C173.31 79.3701 174.13 81.3428 173.85 83.2954C173.78 83.7672 173.585 84.239 173.325 84.6607C173.325 84.6607 173.325 84.6556 173.325 84.6506C172.395 83.1699 171.14 82.5525 169.455 83.205C168.08 83.7321 167.47 85.6445 168.5 86.7588C170.97 89.4342 174.745 87.2808 175.814 84.5C177.159 80.9965 174.929 77.6434 171.525 76.7249C166.8 75.455 162.375 78.6775 160.715 82.9641C157.096 92.3103 168.515 98.8005 176.354 96.095C186.159 92.7119 188.749 79.4505 182.869 71.585C175.454 61.6665 161.18 64.2766 152.266 70.1544C142.236 76.76 131.717 82.5776 119.938 85.3232C104.709 88.872 89.7746 85.6244 76.1404 78.3964C66.271 73.1611 57.8815 65.8226 49.512 58.5143C43.3824 53.1635 37.1278 47.9835 30.3932 43.4057C21.7487 37.5279 12.3793 32.8247 2.70484 28.9145C2.57485 28.8593 2.44985 28.8392 2.32986 28.8342C1.56491 28.523 0.794952 28.2419 0.0149991 27.9709V30.2045C1.52491 30.7667 3.00982 31.4042 4.45473 32.122C4.42973 32.2977 4.45473 32.4934 4.56473 32.6942C6.88959 37.0511 6.50961 42.3316 1.81989 44.2741C3.42979 41.8848 4.11975 39.1843 1.93988 36.9457C1.33492 36.3233 0.689959 35.9468 0.0199988 35.751V38.1905C0.15999 38.2909 0.299982 38.4013 0.434974 38.5368C1.7399 39.877 1.18993 41.6338 0.0199988 43.2802V47.9985C1.6999 47.4614 3.46479 47.2506 4.9797 47.9935C7.09457 49.0275 5.46967 51.467 4.40474 52.5963C2.92982 52.772 1.46491 53.0431 0.0199988 53.3794V55.4374C0.764954 55.2516 1.51991 55.086 2.27486 54.9455C2.61984 56.9733 2.95982 59.0062 3.3048 61.0341C2.65484 61.1947 2.01488 61.3854 1.38492 61.5912C0.929944 59.8746 0.474972 58.1629 0.0199988 56.4463V64.3067C4.73972 62.4044 9.88441 61.7318 14.9641 62.56C24.2485 64.0759 30.5032 73.1912 28.7633 82.4019C28.4933 83.8224 27.9433 85.1777 27.1384 86.3522C26.6984 86.8391 26.2284 87.316 25.7185 87.7727C21.7387 91.3466 16.179 91.9389 11.5443 89.3639C7.50455 87.1202 4.87471 82.3668 6.19963 77.779C7.52955 73.1711 12.4893 70.1594 16.789 72.9503C18.6139 74.1349 19.1838 76.248 18.8939 78.291C18.7039 79.6111 17.7139 80.7154 16.449 81.0567C16.194 81.127 15.7191 80.9914 15.2341 80.7706C18.3839 78.4867 13.7792 74.4912 11.7793 78.2759C10.9993 79.7516 12.3393 81.6841 13.4442 82.5073C14.8591 83.5664 16.964 83.2452 18.4039 82.4672C22.1237 80.4594 21.8237 75.2341 19.4188 72.3831C16.894 69.3915 12.0143 69.015 8.80947 71.0127C4.69472 73.5727 2.76983 78.6473 4.00476 83.3004C5.18469 87.7426 9.06946 91.0002 13.2792 92.4207C17.9639 94.0019 22.2637 92.9026 25.7485 90.3678C25.9484 90.3577 26.1534 90.2925 26.3484 90.162C27.6833 89.2384 28.7033 88.0739 29.4732 86.7688C32.0631 83.5162 33.793 79.4354 34.3129 75.5102C35.6779 65.1701 31.3081 54.6945 24.6685 46.1865C28.3583 49.404 31.9081 52.7921 35.3979 56.2455C34.038 58.8606 33.038 62.6604 35.8228 64.7133C37.3278 65.8226 39.0277 66.0234 40.6926 65.6971C39.4226 68.247 39.2226 71.1935 41.7225 73.2866C43.4624 74.7422 45.4473 74.7071 47.2672 73.9542C46.5272 76.2029 46.5172 78.5821 48.1521 80.5698C50.147 82.9992 53.3068 82.3919 56.0716 81.0667C54.9367 83.712 54.7317 86.6634 57.3116 88.6009C59.8764 90.5284 62.7812 90.0265 65.2111 88.5256C64.6311 91.5122 65.1061 94.6143 67.9009 96.4363C70.4608 98.1028 73.1056 96.9834 75.1855 95.1212C75.0205 97.9773 75.8755 100.728 78.8053 102.088C81.6951 103.428 84.3099 101.762 86.2348 99.463C86.3398 102.59 87.4048 105.677 90.7146 106.279C93.9794 106.877 96.1092 104.628 97.3992 101.867C98.1691 104.477 99.684 106.726 102.614 106.972L102.589 106.982ZM171.285 85.5642C171.36 85.6796 171.45 85.77 171.545 85.8452C171.46 85.8452 171.375 85.8452 171.29 85.8452C170.135 85.5491 170.13 85.4587 171.285 85.5642ZM114.413 104.227C111.018 105.01 109.973 99.3426 109.763 96.9834C112.418 96.7325 115.038 96.3158 117.613 95.7436C117.818 98.5344 117.723 103.464 114.408 104.227H114.413ZM125.797 101.049C122.633 101.998 120.568 97.646 119.878 95.2015C122.638 94.4837 125.342 93.6003 127.992 92.5512C128.492 95.3923 128.907 100.121 125.797 101.054V101.049ZM114.398 88.3901C115.128 88.2947 115.853 88.1793 116.583 88.0538C116.728 89.9813 116.878 91.9088 117.028 93.8362C116.203 94.0169 115.378 94.1776 114.543 94.3181C114.498 92.3404 114.448 90.3628 114.398 88.3851V88.3901ZM112.323 94.6544C111.398 94.7799 110.468 94.8803 109.533 94.9606C109.638 92.9227 109.738 90.8798 109.843 88.8369C110.623 88.7917 111.403 88.7264 112.178 88.6511C112.228 90.6539 112.278 92.6516 112.323 94.6544ZM118.798 87.6372C119.673 87.4565 120.543 87.2607 121.408 87.0449C121.738 88.8268 122.063 90.6137 122.393 92.3956C121.508 92.6767 120.613 92.9428 119.713 93.1837C119.553 93.2289 119.393 93.259 119.233 93.2991C119.088 91.4118 118.943 89.5195 118.798 87.6322V87.6372ZM93.6894 87.4163C93.2094 89.5847 92.7344 91.7481 92.2595 93.9165C91.3145 93.7208 90.3746 93.4999 89.4396 93.259C90.1696 91.1408 90.8996 89.0226 91.6245 86.9044C92.3095 87.0851 92.9994 87.2557 93.6894 87.4163ZM95.8542 87.8781C96.5992 88.0237 97.3442 88.1542 98.0941 88.2747C97.7041 90.413 97.3092 92.5512 96.9192 94.6946C96.0892 94.5891 95.2593 94.4687 94.4343 94.3281C94.9093 92.1798 95.3793 90.0315 95.8542 87.8832V87.8781ZM100.304 88.5758C101.094 88.6712 101.889 88.7465 102.679 88.8017C102.509 90.9099 102.339 93.0181 102.164 95.1262C101.154 95.0861 100.144 95.0258 99.134 94.9355C99.524 92.8173 99.914 90.694 100.299 88.5758H100.304ZM104.919 88.9172C105.814 88.9423 106.709 88.9473 107.604 88.9322C107.499 90.9902 107.394 93.0482 107.294 95.1062C106.334 95.1513 105.374 95.1764 104.414 95.1764C104.584 93.0883 104.754 91.0053 104.924 88.9172H104.919ZM136.637 96.1151C133.697 98.4441 131.147 94.0772 130.197 91.6277C132.572 90.5987 134.892 89.4442 137.167 88.1743C137.327 88.1743 137.487 88.1391 137.632 88.0839C138.762 90.7392 139.142 94.1274 136.637 96.1151ZM145.441 89.2936C143.261 91.4018 140.642 88.6612 139.537 86.809C140.277 86.3623 141.017 85.9105 141.746 85.4387C143.281 84.4498 144.771 83.3958 146.236 82.3166C146.956 84.6356 147.296 87.4967 145.441 89.2936ZM154.326 80.7254C153.231 83.3807 150.286 81.9301 148.451 80.6501C150.146 79.34 151.806 77.9948 153.451 76.6245C153.711 76.4036 153.976 76.1928 154.241 75.972C154.801 77.523 154.986 79.1091 154.326 80.7204V80.7254ZM156.391 74.2603C157.971 73.0456 159.6 71.9062 161.32 70.9124C161.505 73.9441 159.205 76.0272 156.391 74.2603ZM157.326 69.6976C159.43 68.6235 161.63 67.7601 164.055 67.2783C163.635 67.4289 163.215 67.5945 162.795 67.7752C161.035 68.5381 159.39 69.5119 157.811 70.5911C157.651 70.295 157.486 69.9938 157.326 69.6976ZM155.366 70.7668C155.571 71.1432 155.781 71.5197 155.986 71.9012C155.191 72.4985 154.406 73.1109 153.636 73.7383C153.406 73.2313 153.181 72.7294 152.951 72.2224C153.756 71.7205 154.556 71.2286 155.366 70.7668ZM150.496 73.7835C150.681 73.668 150.861 73.5526 151.041 73.4321C151.311 74.0244 151.576 74.6167 151.846 75.209C151.016 75.8967 150.196 76.5843 149.366 77.257C149.061 76.5241 148.751 75.7963 148.446 75.0634C149.131 74.6368 149.816 74.2101 150.496 73.7785V73.7835ZM146.516 76.2531C146.861 77.0712 147.206 77.8944 147.551 78.7176C146.776 79.32 145.996 79.9173 145.206 80.4945C144.926 79.5057 144.641 78.5219 144.361 77.533C145.086 77.1114 145.801 76.6847 146.521 76.2531H146.516ZM142.351 78.6674C142.626 79.6362 142.901 80.5999 143.181 81.5687C143.211 81.6741 143.261 81.7694 143.311 81.8548C142.716 82.2714 142.121 82.678 141.521 83.0745C141.142 81.9552 140.767 80.8409 140.387 79.7215C141.047 79.3752 141.701 79.0288 142.351 78.6724V78.6674ZM136.487 81.664C137.122 81.3679 137.752 81.0617 138.382 80.7505C138.787 81.9401 139.187 83.1297 139.592 84.3193C138.972 84.7109 138.347 85.0923 137.717 85.4638C137.342 84.2792 136.972 83.0896 136.602 81.905C136.572 81.8146 136.537 81.7393 136.492 81.664H136.487ZM131.967 83.6317C132.807 83.2954 133.637 82.939 134.467 82.5776C134.887 83.9178 135.307 85.263 135.732 86.6082C134.882 87.08 134.032 87.5418 133.167 87.9835C132.837 86.6735 132.507 85.3584 132.177 84.0483C132.137 83.8826 132.062 83.7471 131.967 83.6367V83.6317ZM127.802 85.1726C128.522 84.9267 129.237 84.6757 129.952 84.4047C129.952 84.4147 129.952 84.4247 129.952 84.4348C130.332 85.9507 130.717 87.4716 131.097 88.9874C130.382 89.3237 129.657 89.65 128.932 89.9612C128.552 88.365 128.177 86.7688 127.797 85.1726H127.802ZM123.593 86.4777C124.283 86.287 124.973 86.0812 125.662 85.8703C126.052 87.5218 126.447 89.1782 126.837 90.8296C126.082 91.1257 125.322 91.4118 124.558 91.6829C124.238 89.9462 123.918 88.2144 123.598 86.4777H123.593ZM89.4996 86.3121C88.7697 88.4353 88.0397 90.5585 87.3098 92.6818C86.3748 92.4057 85.4449 92.0995 84.5199 91.7783L87.0598 85.534C87.8697 85.8101 88.6847 86.0711 89.5046 86.3171L89.4996 86.3121ZM84.9849 84.7912C84.145 86.8642 83.3 88.9423 82.455 91.0153C81.4351 90.6188 80.4302 90.1821 79.4352 89.7303L82.2701 83.717C83.17 84.0935 84.075 84.4498 84.9849 84.7912ZM80.2652 82.8436C79.3302 84.8263 78.3953 86.809 77.4604 88.7917C76.5454 88.3349 75.6455 87.853 74.7505 87.3561C75.7205 85.4437 76.6954 83.5313 77.6653 81.6189C78.5253 82.0455 79.3902 82.4521 80.2652 82.8436ZM75.7305 80.63C74.7755 82.5123 73.8206 84.3896 72.8656 86.2719C71.9257 85.7097 71.0007 85.1325 70.0858 84.5352L73.5506 79.4454C74.2705 79.852 75.0005 80.2486 75.7305 80.6351V80.63ZM71.6807 78.3612C70.5508 80.0177 69.4258 81.6741 68.2959 83.3305C67.471 82.7583 66.656 82.171 65.846 81.5737C67.036 80.0327 68.2309 78.4917 69.4208 76.9508C70.1708 77.4226 70.9157 77.9045 71.6757 78.3612H71.6807ZM67.6109 75.7913L64.1361 80.2837C63.3912 79.7065 62.6512 79.1242 61.9163 78.5269C63.0212 77.0712 64.1312 75.6106 65.2361 74.1549C66.021 74.7121 66.806 75.2592 67.6109 75.7913ZM63.4962 72.9001L60.2814 77.1415C60.1714 77.0311 60.0514 76.9307 59.8964 76.8654C59.3164 76.3785 58.7515 75.8716 58.1815 75.3696C59.2164 73.9943 60.2514 72.619 61.2913 71.2436C62.0163 71.8058 62.7562 72.3529 63.4962 72.8951V72.9001ZM59.6114 69.9085L56.5616 73.9542C55.8216 73.2916 55.0967 72.619 54.3717 71.9464C54.4217 71.9012 54.4667 71.861 54.5067 71.8058C55.4717 70.5811 56.4366 69.3563 57.4016 68.1266C58.1315 68.7289 58.8715 69.3212 59.6114 69.9085ZM55.7617 66.7512C54.7767 68.0011 53.7968 69.2509 52.8118 70.4957C52.1069 69.8332 51.4119 69.1656 50.717 68.498C51.7319 67.3485 52.7518 66.2041 53.7668 65.0597C54.4317 65.6269 55.0967 66.189 55.7617 66.7512ZM44.7873 57.2845C44.0224 58.3236 43.2624 59.3626 42.4974 60.4016C41.8775 59.7792 41.2525 59.1568 40.6326 58.5344C40.6476 58.5193 40.6676 58.5043 40.6776 58.4892C41.4125 57.5506 42.1525 56.6119 42.8874 55.6733C43.5224 56.2053 44.1524 56.7424 44.7823 57.2845H44.7873ZM6.84959 46.6935C5.98964 45.9606 4.9797 45.5992 3.89477 45.4838C7.92452 43.0594 9.07946 38.3662 7.45955 33.7583C8.2695 34.2402 9.06946 34.7421 9.84941 35.2742C10.6244 35.7912 11.3743 36.3333 12.1193 36.8905C14.1342 41.5887 12.6992 46.4425 8.01452 48.37C7.81453 47.7676 7.44455 47.1954 6.84959 46.6884V46.6935ZM4.48973 54.6192C5.41967 54.5138 6.34962 54.4435 7.27956 54.4184C7.42955 56.386 7.57455 58.3587 7.72454 60.3313C6.97958 60.3916 6.23463 60.4769 5.50467 60.5924C5.16969 58.6046 4.82971 56.6119 4.49473 54.6192H4.48973ZM9.52943 54.4335C10.4094 54.4736 11.2893 54.5489 12.1643 54.6644C12.1493 56.5316 12.1293 58.3988 12.1143 60.2661C11.3993 60.2209 10.6794 60.2058 9.9594 60.2159C9.81441 58.2884 9.66942 56.3609 9.52443 54.4335H9.52943ZM14.3441 60.497C14.3441 60.497 14.3441 60.4769 14.3441 60.4669L14.3891 55.0559C14.9741 55.1814 15.5541 55.3169 16.129 55.4775C16.334 55.5378 16.529 55.613 16.729 55.6783C16.414 57.3648 16.094 59.0564 15.7791 60.7429C15.3041 60.6476 14.8241 60.5622 14.3391 60.492L14.3441 60.497ZM17.9439 61.3001C18.2439 59.6939 18.5489 58.0826 18.8489 56.4764C19.7088 56.8528 20.5338 57.2644 21.3037 57.7363C20.8138 59.1518 20.3288 60.5672 19.8388 61.9827C19.2188 61.7318 18.5889 61.5009 17.9389 61.3051L17.9439 61.3001ZM21.8437 62.9264C21.8437 62.9264 21.8487 62.9164 21.8537 62.9113C22.2987 61.6163 22.7436 60.3213 23.1936 59.0313C23.8686 59.5583 24.4935 60.1406 25.0835 60.748C24.5935 61.8322 24.0986 62.9214 23.6036 64.0056C23.0386 63.6141 22.4537 63.2577 21.8487 62.9314L21.8437 62.9264ZM25.3685 65.396C25.7985 64.4523 26.2284 63.5036 26.6584 62.56C27.1484 63.2075 27.6083 63.8751 28.0133 64.5778C27.5433 65.2655 27.0684 65.9531 26.5984 66.6358C26.2084 66.1991 25.7985 65.7875 25.3685 65.396ZM30.9481 75.8615C30.6482 74.2001 30.1582 72.5989 29.5182 71.1583C29.0783 70.1695 28.5533 69.271 27.9783 68.4277L29.1083 66.7763C30.3132 69.5571 30.9381 72.6441 30.9431 75.8615H30.9481ZM29.9432 60.4669C30.7632 62.6252 31.3831 64.899 31.7631 67.198C30.0882 62.57 26.9584 58.5745 22.3237 55.8339C21.2437 55.1964 20.1288 54.6593 18.9889 54.2076C18.9839 52.3153 18.3689 50.5133 17.349 48.9673C19.6438 49.409 22.0387 49.3688 23.1386 47.9935C25.9484 51.8133 28.2583 56.0096 29.9432 60.4618V60.4669ZM16.694 53.4195C13.6542 52.5361 10.4694 52.2249 7.27456 52.3504C7.63454 51.7631 7.90953 51.1407 8.05452 50.5083C9.9994 49.8156 11.5793 48.7665 12.7542 47.4564C14.7991 48.7916 16.394 50.97 16.689 53.4195H16.694ZM14.0142 45.6896C15.0491 43.8173 15.4341 41.6238 15.0991 39.2998C17.434 41.3277 19.5888 43.5513 21.5387 45.9456C21.5287 45.9857 21.5187 46.0309 21.5187 46.0761C21.3887 48.5607 15.3741 46.3973 14.0192 45.6896H14.0142ZM20.1738 39.7114C23.5386 41.6338 26.8334 43.6818 30.0482 45.8602C29.7232 46.3321 29.3932 46.8089 29.0683 47.2807C26.1934 44.6455 23.2486 42.0956 20.1738 39.7064V39.7114ZM30.6582 48.7665C31.0431 48.2043 31.4281 47.6472 31.8181 47.09C32.578 47.6221 33.333 48.1642 34.083 48.7113C33.628 49.3839 33.178 50.0565 32.723 50.7241C32.0381 50.0665 31.3531 49.414 30.6582 48.7665ZM34.2929 52.245C34.7979 51.4971 35.3079 50.7442 35.8128 49.9963C36.4678 50.4882 37.1178 50.9901 37.7627 51.4921C37.1278 52.25 36.4878 53.0079 35.8528 53.7709C35.3329 53.2589 34.8129 52.7519 34.2929 52.245ZM37.7977 55.6984C37.7227 55.5428 37.5927 55.4173 37.4228 55.3269C37.3928 55.2968 37.3628 55.2667 37.3278 55.2366C37.4328 55.1663 37.5377 55.091 37.6227 54.9906C38.2277 54.2678 38.8327 53.545 39.4376 52.8272C40.0426 53.3141 40.6376 53.806 41.2325 54.303C40.5226 55.2065 39.8126 56.11 39.1027 57.0135C38.6677 56.5768 38.2327 56.1401 37.7927 55.7034L37.7977 55.6984ZM36.9678 62.8461C35.6429 61.5611 36.2228 59.4981 36.9878 57.8567C38.7177 59.5784 40.4376 61.3152 42.1575 63.0469C40.4876 63.9002 38.4377 64.2716 36.9628 62.8511L36.9678 62.8461ZM44.0124 61.9125C44.0624 61.8673 44.1124 61.8121 44.1523 61.7518C44.9023 60.7279 45.6523 59.7039 46.4072 58.6799C47.1672 59.3425 47.9321 60.0001 48.6921 60.6626C47.8271 61.7719 46.9622 62.8762 46.0972 63.9855C45.4023 63.2978 44.7073 62.6052 44.0124 61.9125ZM50.312 62.0781C50.9219 62.6052 51.5319 63.1372 52.1419 63.6643C51.1519 64.7786 50.167 65.8929 49.177 67.0122C48.6571 66.5053 48.1371 65.9983 47.6221 65.4913C47.6671 65.4512 47.7121 65.411 47.7521 65.3558L50.317 62.0781H50.312ZM42.6824 71.2286C40.8825 69.286 42.3925 66.5103 43.8374 64.7234C45.6223 66.5053 47.4122 68.2771 49.222 70.0239C47.4921 71.9213 44.8073 73.5074 42.6824 71.2236V71.2286ZM49.857 79.2196C47.7771 77.2519 49.452 73.6781 50.8369 71.5649C53.0668 73.6781 55.3317 75.7461 57.6615 77.7388C55.4267 79.3601 52.0669 81.3077 49.857 79.2196ZM58.9715 87.1804C56.0216 85.4186 57.8865 81.6088 59.5314 79.3099C61.7763 81.1671 64.0812 82.949 66.476 84.6305C64.6711 86.8291 61.7863 88.8619 58.9715 87.1804ZM68.8059 94.4837C66.066 92.7018 67.216 88.4253 68.3359 85.9055C69.0709 86.3974 69.8058 86.8793 70.5558 87.3461C72.3857 88.4955 74.2705 89.5396 76.1904 90.5033C74.7155 92.9629 71.9207 96.5166 68.8059 94.4837ZM79.5902 100.151C76.2654 98.9962 77.3154 93.9065 78.1903 91.457C80.9451 92.7219 83.775 93.7911 86.6648 94.6544C85.4849 97.3549 83.07 101.355 79.5902 100.151ZM91.2745 104.292C87.5897 103.996 88.2997 97.8317 88.8347 95.2618C91.3845 95.9243 93.9794 96.4213 96.5992 96.7525C96.1792 99.5333 94.9043 104.578 91.2745 104.292ZM98.8741 96.9985C101.719 97.2495 104.589 97.3047 107.469 97.1441C107.124 99.7492 106.129 104.819 102.829 104.919C99.529 105.025 98.9541 99.443 98.8741 96.9985ZM30.5732 38.8731C35.8628 41.8095 42.1425 42.8737 48.0471 41.4933C58.9915 38.9334 63.9012 27.745 59.1564 17.7613C55.3717 9.80043 44.5323 7.68222 38.1527 13.821C30.6732 21.0189 39.3826 34.9278 48.8071 29.2458C52.5618 26.982 51.7719 20.0853 47.3722 19.1467C45.4473 18.7351 42.6674 19.8695 43.0724 22.1834C43.5574 24.9542 47.1672 24.1762 48.2521 22.4445C48.2871 22.3943 48.3071 22.339 48.3321 22.2888C48.6971 22.856 48.8671 23.5487 48.9621 24.2063C49.407 27.3284 46.2922 28.5732 43.7174 28.3975C40.5076 28.1817 38.2527 25.1399 37.5727 22.2537C36.8128 19.0312 38.4927 16.0045 41.0375 14.1523C44.9823 11.2812 50.677 11.8233 54.2867 14.9253C58.9015 18.8957 60.0464 26.3546 57.6165 31.7455C56.7916 33.5826 55.5567 35.0985 54.0668 36.3082C54.0218 36.3283 53.9768 36.3433 53.9318 36.3684C50.667 38.1754 47.3672 39.2094 43.6174 38.8129C41.8225 38.6222 40.0976 38.0249 38.4577 37.2268C39.5426 32.3177 35.7679 29.1705 31.7831 30.335C32.2931 28.0813 32.0581 25.7222 30.3082 23.9603C28.4633 22.0981 25.9384 22.585 23.7786 23.6893C24.3685 20.6324 24.0186 17.3648 21.1387 15.5728C19.2338 14.3882 17.309 14.8099 15.6841 15.8941C15.929 13.0882 15.0891 10.2923 12.3443 8.82665C9.60942 7.36599 7.25457 8.58572 5.51967 10.5935C5.38968 7.50654 4.34474 4.52498 1.07494 3.88249C0.704958 3.81221 0.349979 3.77708 0.0049997 3.77708V5.83004C0.199988 5.83004 0.394976 5.85011 0.599964 5.89027C3.86977 6.53778 3.53479 11.4167 3.04482 14.343C2.03988 13.9415 1.02494 13.5751 0 13.2237V15.4523C0.629962 15.6782 1.25492 15.9091 1.87989 16.1601C1.48991 17.8115 1.09993 19.4579 0.704958 21.1093C0.469972 21.034 0.234986 20.9687 0 20.8985V23.0568C5.95464 24.9241 11.7043 27.5442 17.114 30.571C21.7137 33.1459 25.9584 36.3233 30.5632 38.8782L30.5732 38.8731ZM46.5672 21.1143C46.5172 21.1645 46.4722 21.2247 46.4322 21.29C46.3172 21.4707 45.9922 21.0842 46.5672 21.1143ZM34.6179 37.5229C36.1228 38.4615 37.6477 39.1894 39.1826 39.7265C36.7578 39.2747 34.5029 38.3812 32.3331 37.2569C32.498 36.9557 32.663 36.6495 32.833 36.3484C33.418 36.7499 34.013 37.1464 34.6179 37.5229ZM27.9783 34.712C28.2033 34.2151 28.4283 33.7182 28.6533 33.2162C29.4482 33.8487 30.2482 34.4711 31.0581 35.0734L30.4382 36.2078C29.6082 35.7259 28.7883 35.224 27.9733 34.707L27.9783 34.712ZM36.3628 36.0823C35.1279 35.3445 33.943 34.5263 32.818 33.7232C32.3531 33.3919 31.8981 33.0506 31.4431 32.7092C34.2379 31.0679 36.5328 33.0154 36.3628 36.0823ZM26.8934 31.8007C26.6334 32.3729 26.3734 32.9452 26.1134 33.5224C25.7385 33.2815 25.3635 33.0405 24.9885 32.7996C24.4885 32.4784 23.9836 32.1671 23.4786 31.8509C23.7736 31.1432 24.0686 30.4404 24.3635 29.7377C25.2035 30.4254 26.0484 31.1131 26.8884 31.8007H26.8934ZM28.9533 25.682C30.2982 27.0373 29.9282 29.2709 29.2932 31.0277C27.3434 29.4566 25.4335 27.8354 23.4686 26.2793C25.1235 25.0696 27.2734 23.9904 28.9483 25.682H28.9533ZM20.1938 17.4953C22.4437 18.8907 21.9987 22.2437 21.2937 24.6129C19.1239 23.0116 16.879 21.5008 14.5691 20.0953C15.7191 18.1227 17.8439 16.0296 20.1938 17.4902V17.4953ZM5.25968 15.2566C6.23963 12.6866 8.2995 9.06759 11.3943 10.719C14.3191 12.28 13.7492 16.2956 12.6842 18.9057C12.5542 18.8355 12.4093 18.7853 12.2643 18.7602C9.9894 17.4802 7.64954 16.3006 5.25968 15.2566ZM2.82983 21.7919C3.20981 20.2008 3.58478 18.6046 3.96476 17.0134C4.70472 17.3346 5.43467 17.6659 6.16463 18.0123C5.77965 19.5332 5.39968 21.0541 5.0197 22.575C4.29474 22.3039 3.56979 22.0429 2.83483 21.7919H2.82983ZM6.93458 23.3229C7.06958 23.1873 7.17457 23.0267 7.22457 22.8209C7.54455 21.551 7.86453 20.2811 8.17951 19.0111C9.05446 19.4579 9.9194 19.9146 10.7794 20.3965C10.3594 21.7367 9.9394 23.0769 9.51943 24.4171C8.66448 24.0406 7.79953 23.6742 6.93458 23.3279V23.3229ZM11.5293 25.3256C11.5443 25.2905 11.5643 25.2604 11.5743 25.2202C11.9593 23.9854 12.3493 22.7557 12.7342 21.5259C13.3742 21.9023 14.0042 22.2939 14.6341 22.6904C14.2341 23.875 13.8342 25.0596 13.4342 26.2442C12.8042 25.933 12.1693 25.6268 11.5293 25.3306V25.3256ZM15.4141 27.2431C15.4141 27.2431 15.4241 27.223 15.4291 27.2079C15.7991 26.1137 16.169 25.0144 16.539 23.9202C17.139 24.3217 17.7389 24.7283 18.3289 25.1399C18.3139 25.1801 18.2939 25.2202 18.2789 25.2604C17.9889 26.2743 17.6989 27.2882 17.409 28.3022C16.749 27.9408 16.079 27.5844 15.4141 27.238V27.2431ZM20.2188 26.4952C21.0237 27.0824 21.8087 27.6948 22.5936 28.3172C22.5936 28.3273 22.5836 28.3373 22.5786 28.3473C22.2487 29.1304 21.9187 29.9184 21.5887 30.7015C20.8587 30.2648 20.1238 29.8331 19.3838 29.4115C19.6638 28.4427 19.9388 27.4689 20.2188 26.5002V26.4952ZM203.753 4.92653C200.788 5.95552 200.028 8.88689 200.203 11.7982C198.228 10.0614 195.773 9.11276 193.098 10.463C190.069 11.9839 189.644 15.3118 190.229 18.4088C187.879 16.9481 185.039 16.3609 182.634 18.1679C179.904 20.2158 179.934 23.1371 181.034 25.8326C178.434 24.6229 175.549 24.1912 173.315 26.2994C171.41 28.1014 171.465 30.6312 172.265 32.9903C170.385 32.2776 168.34 32.3679 166.495 33.9089C164.135 35.8866 164.45 38.7828 165.67 41.2473C164 40.9562 162.295 41.2072 160.78 42.3265C158.056 44.3393 159.06 48.119 160.37 50.704C156.706 54.3381 152.991 57.912 149.106 61.28C153.161 56.0849 156.291 50.1719 158.09 43.8625C160.505 35.4047 159.72 25.6318 153.791 19.232C153.091 18.2683 152.246 17.4099 151.246 16.7172C151.056 16.5867 150.861 16.5315 150.671 16.5265C150.291 16.2655 149.906 16.0095 149.496 15.7686C141.187 10.8395 128.822 16.4813 128.537 26.5654C128.407 31.1783 131.697 35.7611 136.137 36.9557C139.892 37.9646 143.906 36.0472 145.621 32.6189C147.976 27.9006 142.911 21.1193 138.007 24.7835C136.107 26.204 136.042 29.6173 138.557 30.2949C141.177 31.0026 142.131 27.5342 140.207 26.1538C140.567 25.9731 140.877 25.8527 141.012 25.8577C142.211 25.8878 143.066 26.8817 143.571 27.8554C144.631 29.8983 143.681 32.393 142.081 33.7934C137.757 37.5781 132.332 33.1861 131.052 28.7489C129.792 24.387 132.572 20.1857 136.042 17.8316C140.912 14.5338 147.001 15.9292 151.141 19.6486C151.546 20.01 151.916 20.3865 152.276 20.773C155.991 26.1438 153.516 34.8676 149.511 39.35C140.857 49.0225 125.917 44.259 116.888 38.0349C112.168 34.7823 107.739 31.0629 102.509 28.6234C96.9192 26.0133 90.6746 24.8287 84.5099 25.165C73.2906 25.7774 63.5412 31.62 58.1315 41.5485C56.1166 45.2479 54.9767 49.3889 54.3567 53.535C54.2967 53.9516 54.4617 54.2477 54.7267 54.4234C54.7667 54.5037 54.8117 54.5841 54.8767 54.6593C66.076 68.1416 80.9001 78.3763 98.3941 81.2424C108.044 82.8235 118.223 81.8096 127.297 78.1052C127.452 78.1103 127.622 78.0852 127.792 78.0149C140.997 72.6792 153.286 65.7022 164.48 56.883C173.11 50.0766 180.954 42.3165 189.789 35.7711C200.683 27.6998 213.542 21.5259 227.151 20.2961C234.926 19.5934 242.62 20.7429 250 23.0568V20.8985C249.54 20.7629 249.08 20.6174 248.615 20.4869C248.935 18.7551 249.255 17.0234 249.575 15.2917C249.72 15.3419 249.855 15.4021 250 15.4523V13.2237C248.325 12.6465 246.63 12.1345 244.91 11.6978C245.545 9.39887 247.25 5.79992 250 5.83004V3.77708C247.76 3.77708 245.995 5.19758 244.715 7.05478C244.255 4.01801 242.925 1.11174 239.746 0.720225C236.626 0.333727 234.716 2.48206 233.646 5.10221C232.631 2.42684 230.866 0.0927929 227.861 0.00244262C224.867 -0.0879077 223.262 2.34151 222.442 5.08214C221.217 2.47202 219.187 0.39396 216.007 0.644934C212.527 0.926023 211.407 4.20373 211.277 7.4714C209.387 5.27288 206.838 3.86241 203.753 4.93155V4.92653ZM204.683 6.77369C207.908 5.2779 210.597 9.91588 211.682 12.3453C208.807 13.1936 205.988 14.2577 203.238 15.5226C202.228 12.792 201.403 8.29459 204.683 6.77871V6.77369ZM224.187 12.0692C225.186 11.9789 226.191 11.9186 227.196 11.8785C227.366 14.0067 227.541 16.135 227.711 18.2632C226.926 18.3235 226.141 18.4038 225.361 18.4941C224.966 16.3508 224.577 14.2075 224.187 12.0642V12.0692ZM223.132 18.8104C222.392 18.9258 221.657 19.0613 220.927 19.2069C220.447 17.0285 219.967 14.85 219.487 12.6716C220.302 12.536 221.122 12.4156 221.942 12.3102C222.337 14.4786 222.737 16.647 223.132 18.8154V18.8104ZM193.408 12.8322C196.038 9.56953 199.963 14.4033 201.203 16.4914C198.503 17.8516 195.903 19.3776 193.388 21.044C192.193 18.4389 191.454 15.2516 193.403 12.8322H193.408ZM183.689 19.9899C186.214 17.6308 189.724 20.2861 191.474 22.3491C189.104 24.0105 186.809 25.7874 184.574 27.6396C182.919 25.416 181.344 22.1784 183.689 19.9899ZM174.645 28.006C176.354 25.3106 180.334 27.6045 182.659 29.2559C180.344 31.2436 178.094 33.2965 175.884 35.3846C174.47 33.2764 173.175 30.33 174.65 28.006H174.645ZM167.765 35.6406C169.555 33.161 172.655 35.2993 174.225 36.9607C173.33 37.8191 172.435 38.6824 171.555 39.5508C170.66 40.4242 169.77 41.3076 168.88 42.196C167.34 40.3187 166.17 37.8642 167.77 35.6406H167.765ZM162.2 43.8775C163.525 42.5976 165.595 43.1598 167.125 43.9378C165.425 45.6394 163.73 47.346 162.03 49.0476C161.235 47.336 160.735 45.293 162.2 43.8775ZM146.491 61.0039C146.491 61.0491 146.506 61.0843 146.511 61.1244C144.551 63.5036 142.381 65.7172 140.057 67.725C140.417 65.3809 140.052 63.1422 139.012 61.2348C140.767 60.3966 146.361 58.434 146.491 61.009V61.0039ZM110.553 67.5242C110.553 67.5242 110.543 67.4941 110.533 67.479C110.848 67.1126 111.118 66.7211 111.333 66.2894C112.693 66.184 113.968 65.8377 115.133 65.2956C116.443 67.7802 118.998 73.1912 116.313 74.4762C113.498 75.8214 110.983 69.0552 110.548 67.5192L110.553 67.5242ZM109.353 75.3445C107.824 77.779 103.869 77.9647 101.204 77.7137C101.909 75.5905 102.394 73.397 102.574 71.1784C104.624 71.4394 111.168 72.4634 109.353 75.3445ZM109.483 70.9927C108.683 70.576 107.779 70.2347 106.869 69.9687C107.509 69.7027 108.124 69.3915 108.693 69.0351C108.908 69.6475 109.173 70.3201 109.483 70.9927ZM102.639 69.02C102.624 67.9408 102.549 66.8617 102.374 65.7825C102.174 64.5376 101.829 63.3781 101.374 62.2889C104.034 61.6113 109.168 60.6576 109.673 64.0257C110.148 67.203 105.124 68.6134 102.639 69.02ZM117.138 64.111C118.703 62.9465 119.958 61.3955 120.838 59.6386C123.243 61.4306 127.442 65.1651 125.552 68.2671C123.508 71.6151 118.808 66.3296 117.143 64.111H117.138ZM111.883 64.1662C111.893 63.9905 111.893 63.8148 111.883 63.6341C111.788 61.4256 110.283 60.3665 108.343 59.9398C109.868 59.5232 111.298 58.7602 112.503 57.7112C114.743 55.7586 115.538 52.9628 115.293 50.1569C115.528 50.2723 115.763 50.3928 116.003 50.5032C117.228 51.0704 118.483 51.5975 119.763 52.0643C120.783 57.5204 117.393 63.1874 111.878 64.1662H111.883ZM74.2655 58.0475C74.2655 58.0475 74.2456 58.0324 74.2355 58.0224C75.7905 56.6521 77.1204 55.0007 78.1553 53.1786C78.2053 53.2238 78.2603 53.2639 78.3203 53.3041C79.8752 54.2779 85.8349 58.1981 83.085 60.6877C80.6902 62.8511 76.3404 59.8545 74.4505 58.2031C74.4105 58.1679 74.3705 58.1328 74.3305 58.0977C74.3105 58.0776 74.2905 58.0575 74.2705 58.0425L74.2655 58.0475ZM90.3796 52.1145C90.5096 51.8233 90.6196 51.5071 90.6996 51.1558C90.7945 50.7291 90.8195 50.3225 90.7996 49.931C92.1295 48.1742 95.7343 43.7521 97.2242 46.4224C98.5791 48.8418 96.5142 52.6465 95.1793 54.8149C93.6994 53.7558 92.0745 52.8574 90.3846 52.1145H90.3796ZM89.7246 39.1141C89.6646 38.2658 89.3746 37.5882 88.9347 37.036C92.0995 37.6534 95.1943 38.6523 98.1541 39.9222C103.444 42.201 107.864 45.9154 112.793 48.8016C113.423 51.487 113.148 54.1524 111.078 56.1602C109.823 57.3749 108.119 58.0726 106.389 58.193C107.949 56.3509 108.673 54.1976 106.879 52.0944C104.819 49.6851 101.664 50.4681 98.9841 52.0241C100.039 49.3086 100.459 46.2969 98.3991 44.3594C95.6793 41.7995 92.0845 45.0521 89.9196 47.607C88.9047 46.2116 87.1498 45.1575 85.3449 44.4247C87.8097 43.5714 89.9146 41.9601 89.7196 39.1141H89.7246ZM80.6802 43.22C80.6152 41.1821 80.1802 39.1542 79.3402 37.2368C81.7951 36.7951 86.5198 36.2831 87.4498 39.1944C88.4547 42.3617 82.585 43.1096 80.6802 43.22ZM80.6552 45.2629C83.55 45.6595 87.8397 46.9796 88.4797 50.3577C89.2546 54.4485 80.7902 51.9639 79.3852 51.482C79.2652 51.4419 79.1453 51.4268 79.0303 51.4268C79.8952 49.4742 80.4502 47.3811 80.6252 45.2579C80.6352 45.2579 80.6452 45.2679 80.6552 45.2679V45.2629ZM105.149 53.4597C107.639 55.7235 102.329 59.1919 100.369 60.3213C99.444 58.7703 98.2691 57.395 96.9142 56.1953C98.6841 54.3983 102.674 51.216 105.149 53.4647V53.4597ZM134.912 46.8491C135.632 46.8742 136.357 46.8641 137.077 46.829C137.092 48.6761 137.107 50.5233 137.127 52.3705C136.252 52.4859 135.367 52.5512 134.482 52.5813C134.622 50.6689 134.767 48.7615 134.912 46.8491ZM132.242 52.5662C131.307 52.5261 130.372 52.4458 129.442 52.3303C129.782 50.3326 130.122 48.3298 130.462 46.327C131.202 46.4726 131.942 46.5881 132.682 46.6784C132.537 48.641 132.387 50.6036 132.242 52.5662ZM139.312 46.6583C139.312 46.6583 139.312 46.6232 139.307 46.6081C139.792 46.5379 140.277 46.4525 140.762 46.3471C141.072 48.0086 141.382 49.665 141.697 51.3264C141.682 51.3314 141.666 51.3365 141.651 51.3465C140.902 51.6025 140.137 51.8083 139.362 51.979C139.347 50.2021 139.332 48.4302 139.317 46.6583H139.312ZM142.941 45.7649C143.571 45.5641 144.201 45.3332 144.826 45.0722C145.296 46.4425 145.771 47.8128 146.241 49.1831C145.476 49.6549 144.676 50.0866 143.826 50.4731C143.531 48.902 143.236 47.336 142.941 45.7649ZM128.287 45.8151C127.937 47.873 127.587 49.936 127.242 51.994C126.382 51.8384 125.537 51.6527 124.703 51.4469L126.357 45.2278C126.997 45.4436 127.642 45.6394 128.292 45.8151H128.287ZM121.663 57.5506C122.113 56.0447 122.293 54.4485 122.153 52.8523C124.493 53.5651 126.887 54.0821 129.297 54.3632C129.312 54.3833 129.322 54.3983 129.342 54.4184C130.432 55.5478 131.797 57.4803 130.227 58.8155C128.082 60.6425 123.738 58.5695 121.663 57.5506ZM133.012 56.4111C132.847 55.7787 132.567 55.1512 132.227 54.574C135.427 54.6794 138.617 54.3431 141.691 53.4446C141.452 55.8992 139.842 58.1228 137.802 59.5031C136.617 58.1529 135.012 57.0837 133.017 56.4111H133.012ZM153.001 38.577C152.971 38.5318 152.926 38.5017 152.891 38.4615C154.386 36.248 155.426 33.7232 155.916 31.0779C155.931 34.3406 155.316 37.4225 154.101 40.1832C153.736 39.6461 153.366 39.1141 152.996 38.577H153.001ZM156.666 39.877C156.271 42.2061 155.651 44.4799 154.881 46.6131C153.286 51.0303 150.986 55.2065 148.166 59.0062C147.096 57.5656 144.611 57.5405 142.261 58.0073C143.306 56.4312 143.931 54.5941 143.941 52.6666C145.011 52.245 146.061 51.7681 147.091 51.2009C151.806 48.5808 154.961 44.5451 156.666 39.8821V39.877ZM151.506 40.2886C151.996 41.0014 152.481 41.7091 152.971 42.4219C152.566 43.0995 152.111 43.742 151.631 44.3644C151.196 43.4107 150.766 42.457 150.331 41.5033C150.741 41.1118 151.136 40.7103 151.506 40.2836V40.2886ZM146.841 44.0934C147.436 43.7571 148.001 43.3907 148.546 42.9941C149.036 44.0683 149.521 45.1424 150.011 46.2166C149.431 46.8039 148.806 47.356 148.146 47.8781C147.711 46.6182 147.276 45.3583 146.841 44.0984V44.0934ZM124.283 44.4598C123.718 46.5881 123.153 48.7163 122.583 50.8446C121.728 50.5735 120.888 50.2673 120.068 49.936C120.838 47.8329 121.603 45.7297 122.373 43.6316C123.003 43.9227 123.638 44.1988 124.283 44.4598ZM120.388 42.6478C119.608 44.7861 118.828 46.9193 118.043 49.0576C117.218 48.6711 116.408 48.2595 115.608 47.8279C116.688 45.8201 117.773 43.8123 118.853 41.8095C119.358 42.1007 119.868 42.3767 120.383 42.6528L120.388 42.6478ZM114.428 38.9484C115.263 39.5457 116.118 40.128 116.998 40.6852C115.908 42.713 114.813 44.7409 113.723 46.7637C112.873 46.2618 112.033 45.7448 111.198 45.2127C112.268 43.1196 113.338 41.0265 114.413 38.9334C114.418 38.9334 114.428 38.9434 114.433 38.9484H114.428ZM112.628 37.6384C111.538 39.7666 110.448 41.8949 109.363 44.0181C108.598 43.5111 107.839 43.0042 107.074 42.4872C108.129 40.2886 109.188 38.0951 110.243 35.8966C111.043 36.4738 111.838 37.0561 112.628 37.6333V37.6384ZM108.433 34.6217L105.229 41.2875C104.434 40.7856 103.624 40.2936 102.794 39.8369C103.899 37.5831 105.004 35.3244 106.104 33.0706C106.889 33.5726 107.669 34.0896 108.433 34.6217ZM104.234 31.9312C103.109 34.2301 101.984 36.5291 100.859 38.828C100.214 38.5117 99.564 38.2106 98.9041 37.9245C99.734 35.4248 100.569 32.9301 101.399 30.4304C102.369 30.8872 103.309 31.3891 104.234 31.9262V31.9312ZM98.9391 29.3964C99.0841 29.4516 99.219 29.5169 99.364 29.5721C98.5291 32.0818 97.6941 34.5915 96.8592 37.1013C96.0942 36.8101 95.3243 36.5491 94.5443 36.2982C95.1143 33.7081 95.6843 31.1231 96.2542 28.5331C97.1642 28.789 98.0641 29.0752 98.9441 29.3964H98.9391ZM94.1044 27.991C93.5394 30.5509 92.9744 33.1158 92.4095 35.6808C91.7345 35.5051 91.0545 35.3445 90.3746 35.1989C90.3896 35.1487 90.4046 35.0935 90.4096 35.0383C90.7096 32.5235 91.0145 30.0088 91.3145 27.494C92.2495 27.6245 93.1844 27.7902 94.1044 27.991ZM89.0947 27.2481C88.7947 29.7678 88.4897 32.2876 88.1897 34.8024C87.5247 34.702 86.8548 34.6116 86.1848 34.5464C86.1848 34.5263 86.1898 34.5062 86.1898 34.4861C86.1798 32.0417 86.1698 29.5922 86.1648 27.1477C87.1398 27.1477 88.1197 27.1778 89.0947 27.2531V27.2481ZM83.93 27.223C83.94 29.5922 83.945 31.9563 83.955 34.3255C83.955 34.3456 83.96 34.3657 83.96 34.3807C83.205 34.3456 82.4451 34.3356 81.6901 34.3456C81.6951 34.2904 81.7051 34.2352 81.7001 34.1749C81.6051 31.9513 81.5151 29.7227 81.4201 27.494C82.2501 27.3685 83.085 27.2782 83.925 27.218L83.93 27.223ZM79.1203 27.9307C79.1502 27.9257 79.1752 27.9207 79.2052 27.9106C79.2952 30.0891 79.3852 32.2675 79.4752 34.441C78.5753 34.5062 77.6853 34.6116 76.7904 34.7471C76.7904 34.712 76.7904 34.6819 76.7804 34.6417C76.3804 32.7594 75.9804 30.8771 75.5805 28.9948C76.7204 28.5782 77.8903 28.2018 79.1153 27.9207L79.1203 27.9307ZM73.4706 29.8783C73.8356 31.5999 74.2006 33.3216 74.5705 35.0433C74.5805 35.0885 74.5955 35.1286 74.6105 35.1688C74.0106 35.3043 73.4206 35.4599 72.8356 35.6356C72.3057 34.0946 71.7757 32.5587 71.2457 31.0227C71.9657 30.6111 72.7056 30.2296 73.4706 29.8733V29.8783ZM67.316 33.7533C67.9509 33.2212 68.6209 32.7243 69.3058 32.2475C69.7808 33.6228 70.2508 34.9931 70.7258 36.3684C70.1308 36.6043 69.5458 36.8553 68.9759 37.1314C68.9559 37.0611 68.9309 36.9908 68.8959 36.9156C68.3709 35.8615 67.8459 34.8074 67.316 33.7533ZM65.5911 35.3093C66.011 36.1476 66.431 36.9908 66.851 37.8291C66.911 37.9546 66.996 38.05 67.086 38.1303C63.5112 40.2334 60.5214 43.1598 58.3465 46.7035C59.9414 42.3416 62.3913 38.4515 65.5911 35.3043V35.3093ZM57.6615 53.6906C59.6414 46.9595 64.0212 42.0254 69.7308 39.1843C70.8158 42.1659 70.6658 45.4135 69.3208 48.3198C67.226 52.8473 62.2013 54.0269 57.6615 53.6906ZM58.7465 55.8038C63.4862 55.8741 68.0509 54.3532 70.7708 50.1569C73.0306 46.6684 73.2356 42.1157 71.7957 38.2808C73.3456 37.6735 74.9705 37.2117 76.6554 36.8905C81.8551 46.4626 74.6905 60.768 63.1012 59.975C62.9712 59.9649 62.8562 59.98 62.7462 60.0051C61.3663 58.6498 60.0314 57.2494 58.7515 55.8088L58.7465 55.8038ZM64.8711 62.0179C67.6859 61.8372 70.2658 60.8785 72.4907 59.3776C72.5057 59.3877 72.5106 59.4027 72.5256 59.4128C72.7206 59.5885 72.9256 59.7641 73.1456 59.9448C75.5855 62.2036 78.5903 67.6196 74.0506 69.1957C74.0206 69.2057 74.0006 69.2208 73.9706 69.2308C70.7657 67.0675 67.7259 64.6481 64.8711 62.0179ZM76.0304 70.571C79.0903 68.9146 79.0153 65.6469 77.6903 62.6955C80.1252 63.6592 82.745 63.8299 84.7899 61.9827C85.3199 61.5009 85.6599 60.9989 85.8598 60.4819C91.6745 63.8801 93.7794 71.2687 91.1795 77.4979C85.8249 75.9017 80.7602 73.5325 76.0354 70.571H76.0304ZM93.3094 78.0902C96.4992 70.4355 93.2694 61.7167 85.8549 58.1027C85.4499 56.8779 84.5249 55.6733 83.455 54.6091C85.4749 54.8651 87.5347 54.7698 88.9647 53.8111C94.7343 56.2053 99.204 60.3113 100.234 66.7061C100.909 70.8772 99.909 75.2843 98.3341 79.1393C96.6342 78.8732 94.9593 78.5118 93.3094 78.0902ZM129.372 74.9078C121.678 78.7026 113.008 80.1933 104.429 79.7617C107.374 79.4655 110.313 78.3512 111.618 75.7009C111.773 75.3897 111.868 75.0885 111.933 74.8024C113.288 76.233 114.973 77.0662 116.968 76.4187C119.928 75.46 119.978 72.4182 119.173 69.4316C121.508 71.2286 124.248 72.1471 126.732 70.1193C129.242 68.0713 128.507 65.2705 126.807 62.7708C131.397 64.8137 131.867 69.9336 129.487 74.3959C129.387 74.5816 129.357 74.7522 129.372 74.9078ZM134.752 71.7757C133.972 72.3128 133.177 72.8097 132.372 73.2866C134.057 68.6636 132.962 63.7897 128.817 61.3904C129.802 61.265 130.757 60.9487 131.652 60.3665C132.372 59.8997 132.797 59.3124 133.012 58.6649C137.602 60.6676 139.092 65.3357 137.082 70.1092C136.317 70.6815 135.542 71.2386 134.752 71.7707V71.7757ZM144.551 67.73C147.856 65.2103 151.006 62.5048 154.076 59.7039C154.416 60.1958 154.761 60.6927 155.101 61.1846C151.681 63.5237 148.161 65.7122 144.551 67.73ZM156.911 59.9348C156.511 59.3525 156.111 58.7753 155.711 58.193C156.391 57.5606 157.071 56.9231 157.741 56.2756C158.201 56.9583 158.66 57.6359 159.12 58.3185C158.39 58.8606 157.656 59.4027 156.911 59.9298V59.9348ZM160.885 56.9984C160.375 56.2405 159.86 55.4825 159.35 54.7246C159.855 54.2327 160.365 53.7358 160.87 53.2388C160.87 53.2388 160.87 53.2388 160.87 53.2439C161.505 54.0018 162.145 54.7597 162.78 55.5177C162.155 56.0146 161.52 56.5065 160.885 56.9934V56.9984ZM164.49 54.1373C163.86 53.3894 163.235 52.6365 162.605 51.8886C162.545 51.8183 162.485 51.7631 162.42 51.7129C162.99 51.1507 163.555 50.5785 164.125 50.0113C164.83 50.9098 165.535 51.8033 166.24 52.7018C165.66 53.1836 165.08 53.6605 164.495 54.1373H164.49ZM167.925 51.2863C167.18 50.3376 166.435 49.3939 165.69 48.4453C166.295 47.8379 166.9 47.2305 167.505 46.6232C168.26 47.6522 169.015 48.6812 169.77 49.7102C169.155 50.2372 168.54 50.7642 167.925 51.2863ZM171.445 48.2696C170.675 47.2205 169.905 46.1714 169.135 45.1224C169.115 45.0973 169.09 45.0772 169.07 45.0521C169.745 44.3745 170.425 43.6968 171.105 43.0192C171.965 44.1185 172.825 45.2228 173.69 46.327C172.945 46.9745 172.195 47.6271 171.45 48.2746L171.445 48.2696ZM175.354 44.8764C174.48 43.7571 173.605 42.6377 172.73 41.5184C172.715 41.4983 172.69 41.4782 172.675 41.4582C173.175 40.9663 173.67 40.4794 174.175 39.9875C175.164 41.1018 176.154 42.2161 177.139 43.3304C176.544 43.8424 175.949 44.3544 175.359 44.8714L175.354 44.8764ZM178.804 41.9049C177.789 40.7554 176.769 39.606 175.754 38.4615C176.434 37.804 177.119 37.1565 177.804 36.509C178.789 37.7588 179.774 39.0087 180.759 40.2585C180.109 40.8056 179.454 41.3528 178.809 41.9049H178.804ZM184.619 37.1163C183.889 37.6885 183.169 38.2658 182.449 38.8531C181.459 37.5932 180.469 36.3383 179.479 35.0784C179.459 35.0533 179.434 35.0333 179.409 35.0082C180.119 34.3506 180.839 33.7031 181.564 33.0606C182.584 34.4108 183.599 35.7661 184.619 37.1163ZM186.364 35.7711C185.314 34.3807 184.269 32.9903 183.219 31.5999C183.774 31.1131 184.329 30.6262 184.899 30.1543C185.034 30.0791 185.154 29.9736 185.254 29.8532C186.349 31.2938 187.439 32.7343 188.534 34.1699C187.804 34.6969 187.079 35.234 186.364 35.7761V35.7711ZM190.334 32.895C189.209 31.4142 188.084 29.9335 186.959 28.4477C187.679 27.8655 188.404 27.2932 189.134 26.7311C190.314 28.257 191.493 29.7829 192.673 31.3088C191.888 31.8258 191.109 32.3579 190.334 32.895ZM194.538 30.1192C193.323 28.5481 192.108 26.982 190.894 25.411C191.683 24.8237 192.483 24.2464 193.293 23.6843C194.448 25.3758 195.603 27.0724 196.753 28.769C196.008 29.2107 195.268 29.6624 194.533 30.1192H194.538ZM198.673 27.6647C197.488 25.9229 196.303 24.1862 195.118 22.4445C195.723 22.0429 196.333 21.6464 196.948 21.2599C197.243 21.0741 197.548 20.9035 197.848 20.7228C198.828 22.6553 199.808 24.5827 200.793 26.5152C200.083 26.8867 199.378 27.2682 198.673 27.6647ZM202.783 25.5013C201.783 23.5337 200.783 21.566 199.783 19.5984C200.663 19.1065 201.553 18.6447 202.448 18.203C203.408 20.2359 204.368 22.2688 205.323 24.3017C204.468 24.6881 203.623 25.0897 202.783 25.5063V25.5013ZM207.373 23.4032C206.403 21.3502 205.438 19.2972 204.468 17.2393C205.453 16.7976 206.453 16.3809 207.453 15.9944C208.312 18.1076 209.172 20.2258 210.032 22.339C209.137 22.6753 208.252 23.0317 207.373 23.4032ZM214.542 20.8081C213.737 21.0541 212.937 21.3101 212.142 21.5811C211.277 19.4579 210.417 17.3397 209.552 15.2164C210.467 14.9002 211.387 14.6041 212.312 14.333C213.057 16.4914 213.802 18.6497 214.542 20.8081ZM216.687 20.1957C215.947 18.0424 215.202 15.889 214.462 13.7357C215.387 13.4998 216.317 13.289 217.257 13.0982C217.742 15.2967 218.227 17.4902 218.707 19.6888C218.032 19.8444 217.362 20.015 216.687 20.1957ZM247.42 14.589C247.09 16.3659 246.765 18.1478 246.435 19.9247C245.565 19.7088 244.685 19.5131 243.805 19.3274C243.805 19.3073 243.815 19.2872 243.815 19.2671C243.96 17.3999 244.1 15.5327 244.24 13.6704C245.31 13.9465 246.365 14.2577 247.42 14.589ZM242.035 13.1484C241.89 15.0709 241.74 16.9883 241.596 18.9057C240.866 18.7802 240.136 18.6698 239.411 18.5744C239.461 16.6068 239.506 14.6442 239.556 12.6766C240.386 12.8171 241.216 12.9727 242.035 13.1484ZM237.331 12.3503C237.281 14.343 237.231 16.3358 237.186 18.3285C236.406 18.2582 235.631 18.203 234.856 18.1679C234.751 16.135 234.651 14.0971 234.551 12.0592C235.476 12.1345 236.406 12.2298 237.336 12.3503H237.331ZM232.301 11.9086C232.406 13.9766 232.511 16.0396 232.611 18.1076C231.716 18.1026 230.821 18.1076 229.931 18.1478C229.761 16.0497 229.591 13.9515 229.421 11.8534C230.381 11.8534 231.336 11.8684 232.296 11.9136L232.301 11.9086ZM239.131 2.73303C242.61 2.79326 242.79 8.46023 242.63 11.1808C242.14 11.0754 241.65 10.97 241.156 10.8746C239.036 10.4781 236.906 10.202 234.776 10.0213C234.971 7.50654 235.791 2.6728 239.136 2.73805L239.131 2.73303ZM227.536 2.07046C230.881 1.40287 232.136 7.39109 232.481 9.86066C229.611 9.72012 226.741 9.77031 223.892 10.0263C223.962 7.3158 224.382 2.69789 227.531 2.07046H227.536ZM216.002 2.73303C219.652 1.67894 221.202 7.68724 221.612 10.2723C220.457 10.4178 219.307 10.5885 218.162 10.7993C217.977 10.7993 217.792 10.8344 217.627 10.9047C216.372 11.1456 215.117 11.4217 213.877 11.7379C213.282 9.07763 212.572 3.72688 216.007 2.73303H216.002Z" fill="#2A3138"/>
</svg>
