<svg width="32" height="32" viewBox="0 0 32 32" fill="none" xmlns="http://www.w3.org/2000/svg">
<path d="M29.7037 11.061C28.2914 10.1198 26.6736 10.1288 25.3794 11.0541C23.81 9.31331 21.595 8.32395 19.2317 8.32395C18.6603 8.32395 18.0855 8.38383 17.5231 8.50196C17.5194 8.50265 17.5157 8.50334 17.5121 8.50415C16.7656 8.66203 16.005 8.7721 15.2441 8.83416C15.2671 8.63072 15.296 8.42296 15.3326 8.21282C15.7371 5.8896 16.8311 4.31403 18.5843 3.52994C19.2767 3.22024 19.5882 2.40476 19.2787 1.71198C18.969 1.0197 18.1537 0.708379 17.4615 1.01814C15.9159 1.70886 14.6987 2.80866 13.8466 4.26472C13.6829 3.42318 13.3025 2.48064 12.4909 1.66904C11.2816 0.459556 10.0962 -0.0971556 8.96949 0.0138491C8.08889 0.100603 7.59255 0.573998 7.53886 0.627688C7.48517 0.681378 7.01178 1.17765 6.92502 2.05831C6.81396 3.18561 7.37079 4.37041 8.58009 5.57971C9.79983 6.79945 11.3151 7.04521 12.3389 7.04521C12.494 7.04521 12.6375 7.03946 12.7673 7.03071C12.6498 7.51842 12.5283 8.23895 12.4763 8.8461C11.6634 8.78722 10.8491 8.67303 10.0494 8.50409C9.48376 8.38452 8.90542 8.32395 8.33052 8.32395C5.41184 8.32395 2.6766 9.88614 1.19216 12.4009C0.639509 13.3375 0.280869 14.3581 0.126363 15.4344C0.0895488 15.6906 0.267494 15.9282 0.523755 15.965C0.546318 15.9683 0.568756 15.9698 0.590945 15.9698C0.82033 15.9698 1.02084 15.8013 1.0544 15.5676C1.19141 14.6132 1.50948 13.7081 1.99957 12.8775C3.31612 10.6471 5.74204 9.26149 8.33058 9.26149C8.84048 9.26149 9.35356 9.31531 9.85565 9.42137C10.7009 9.59994 11.5618 9.72045 12.4213 9.78214C12.4066 10.3115 12.4208 10.7831 12.4448 11.1673C11.5366 11.0778 10.955 10.9326 10.9424 10.9294C10.6921 10.8653 10.4365 11.016 10.372 11.2666C10.3074 11.5173 10.4583 11.7729 10.7091 11.8374C11.3137 12.1289 15.3203 12.3638 16.8438 11.8397C17.0958 11.7802 17.2518 11.5277 17.1923 11.2758C17.1329 11.0238 16.8807 10.8679 16.6284 10.9273C16.1446 11.0415 15.6663 11.118 15.2046 11.1664C15.1786 10.8207 15.1577 10.338 15.176 9.7802C16.0211 9.71776 16.8668 9.59844 17.696 9.4235C17.6995 9.42281 17.7031 9.42212 17.7067 9.42137C18.2087 9.31531 18.7218 9.26149 19.2317 9.26149C21.4668 9.26149 23.5521 10.2592 24.9531 11.9987C25.0719 12.1515 25.3947 12.2707 25.6326 12.052C26.6605 11.1231 27.988 11.0443 29.1838 11.8412C30.4213 12.6659 31.3599 14.3896 30.7595 16.0886C30.7573 16.0946 30.7553 16.1006 30.7535 16.1067L27.7513 25.8426C27.3818 27.0401 26.7074 28.1304 25.8007 28.9954C24.894 29.8606 23.7732 30.4831 22.5594 30.7958C20.0518 31.4426 17.357 30.707 15.5264 28.8765C13.5892 27.0306 13.2974 24.4759 15.0481 22.6317L24.0936 13.5862C24.2767 13.4031 24.2767 13.1063 24.0936 12.9233C23.9106 12.7402 23.6137 12.7402 23.4307 12.9233L14.3851 21.9688C11.2667 25.314 13.6908 29.3215 16.7805 30.9644C15.8999 30.6765 14.7989 30.3464 13.7808 30.3768C12.9059 30.3768 12.0454 30.5301 11.2228 30.8327C9.55213 31.4933 7.41129 30.6968 6.59307 29.0583L1.83168 20.051C1.43148 19.2936 1.16859 18.4796 1.05028 17.6317C1.01453 17.3752 0.77739 17.1963 0.521254 17.2321C0.264806 17.2679 0.0859861 17.5048 0.121738 17.7612C0.255118 18.7173 0.551506 19.635 1.00284 20.489L5.76423 29.4962C6.82839 31.547 9.33769 32.53 11.547 31.7123C12.2651 31.4481 13.0168 31.3142 13.7809 31.3142C14.545 31.3142 15.2966 31.4481 16.0147 31.7123C16.9031 32.0444 18.0155 32.1098 19.0383 31.7875C21.58 32.3532 24.5326 31.5453 26.4479 29.6735C27.4701 28.6982 28.2306 27.469 28.6472 26.1187L31.6467 16.3917C32.4002 14.2442 31.2407 12.0853 29.7037 11.061ZM9.06143 0.946826C9.88415 0.865948 10.8408 1.34466 11.828 2.33182C12.8161 3.31993 13.0128 4.58992 13.014 5.43977L8.62291 1.04883C8.74485 1.00264 8.89167 0.963577 9.06143 0.946826ZM9.24306 4.91675C7.69512 3.3688 7.75018 2.2712 7.95932 1.71105L12.3509 6.10267C11.5008 6.10148 10.2309 5.9046 9.24306 4.91675ZM14.0523 11.2347C13.8808 11.2375 13.6611 11.2367 13.3884 11.229C13.1062 7.15303 14.434 3.38493 17.8442 1.8738C17.9512 1.82599 18.0703 1.82268 18.1794 1.8643C18.2887 1.90599 18.3751 1.98781 18.4228 2.09437C18.5215 2.3152 18.4222 2.57515 18.2015 2.6739C14.8176 4.10715 14.0261 8.14851 14.2683 11.2296C14.1956 11.232 14.1236 11.2336 14.0523 11.2347Z" fill="#B17C57"/>
<path d="M19.9089 19.5061L19.8863 20.416C19.8799 20.6749 20.0845 20.8899 20.3433 20.8963C20.3473 20.8964 20.3512 20.8964 20.3552 20.8964C20.6087 20.8964 20.8172 20.6942 20.8235 20.4393L20.8462 19.5294C20.8526 19.2706 20.648 19.0556 20.3892 19.0492C20.1288 19.0428 19.9154 19.2474 19.9089 19.5061Z" fill="#B17C57"/>
<path d="M22.0695 17.3455C21.8107 17.352 21.6061 17.567 21.6125 17.8258C21.6188 18.0806 21.8274 18.2829 22.0809 18.2829C22.0849 18.2829 22.0888 18.2828 22.0928 18.2828L23.0027 18.2601C23.2615 18.2537 23.4661 18.0387 23.4597 17.7799C23.4532 17.521 23.2387 17.3173 22.9794 17.3229L22.0695 17.3455Z" fill="#B17C57"/>
</svg>
