<svg width="32" height="32" viewBox="0 0 32 32" fill="none" xmlns="http://www.w3.org/2000/svg">
<path d="M1.13175 22.4516C1.08491 22.5026 1.04917 22.5627 1.0268 22.6283C1.00443 22.6938 0.995924 22.7633 1.00181 22.8323C1.13975 24.4471 1.31738 26.0928 1.52969 27.7237C1.54536 27.8442 1.60431 27.9548 1.69555 28.0349C1.78678 28.1151 1.90407 28.1592 2.0255 28.1593H2.84975C3.00244 29.3039 3.17731 30.4541 3.37344 31.5853C3.39354 31.7014 3.45399 31.8067 3.54413 31.8825C3.63427 31.9584 3.74831 32 3.86613 32H27.7334C27.8512 32 27.9652 31.9584 28.0553 31.8825C28.1454 31.8067 28.2059 31.7014 28.226 31.5854C28.4223 30.4536 28.5971 29.3034 28.7497 28.1593H29.574C29.6954 28.1593 29.8127 28.1151 29.9039 28.035C29.9952 27.9549 30.0541 27.8443 30.0698 27.7239C30.2823 26.0926 30.4598 24.4471 30.5977 22.8324C30.6036 22.7634 30.5951 22.6939 30.5727 22.6284C30.5504 22.5628 30.5146 22.5026 30.4678 22.4516C30.421 22.4006 30.364 22.3599 30.3006 22.3321C30.2372 22.3042 30.1688 22.2898 30.0995 22.2898H29.3357C29.6096 18.1008 29.6005 13.8981 29.3084 9.71025H30.0998C30.169 9.71025 30.2375 9.69587 30.3009 9.66801C30.3643 9.64015 30.4212 9.59943 30.468 9.54842C30.5149 9.49741 30.5506 9.43723 30.573 9.37169C30.5953 9.30615 30.6038 9.23668 30.5979 9.16769C30.46 7.553 30.2824 5.90725 30.0701 4.27619C30.0544 4.15578 29.9954 4.04519 29.9042 3.96506C29.813 3.88494 29.6957 3.84075 29.5743 3.84075H28.7254C28.5789 2.70625 28.4123 1.55838 28.2269 0.419562C28.2078 0.302441 28.1477 0.195928 28.0573 0.119064C27.9668 0.0421999 27.852 -2.99153e-06 27.7334 1.59046e-10L3.86613 1.59046e-10C3.74747 1.18409e-05 3.63269 0.0422214 3.54229 0.119084C3.45189 0.195946 3.39178 0.302452 3.37269 0.419562C3.18706 1.55869 3.02056 2.70706 2.87413 3.84069H2.0255C1.90408 3.84069 1.7868 3.88488 1.69557 3.965C1.60433 4.04513 1.54537 4.15572 1.52969 4.27612C1.31719 5.90737 1.13975 7.55294 1.00181 9.16763C0.99592 9.23662 1.00442 9.30609 1.02678 9.37163C1.04914 9.43717 1.08487 9.49735 1.13171 9.54836C1.17854 9.59937 1.23546 9.64009 1.29886 9.66795C1.36226 9.6958 1.43075 9.71019 1.5 9.71019H2.29119C1.99911 13.898 1.98998 18.1007 2.26388 22.2897H1.49975C1.43055 22.2898 1.36212 22.3042 1.29877 22.332C1.23543 22.3599 1.17856 22.4006 1.13175 22.4516ZM3.85838 28.1593H6.99794C7.12525 29.1044 7.2685 30.0553 7.42475 31H4.288C4.12963 30.0594 3.98638 29.1077 3.85838 28.1593ZM18.9347 28.1593V31H12.6648V28.1593H18.9347ZM23.5924 28.1593C23.4636 29.1052 23.3191 30.0562 23.1607 30.9999H19.9347V28.1593H23.5924ZM11.6648 31H8.43882C8.28044 30.0562 8.13588 29.1052 8.00706 28.1593H11.6648V31ZM27.3116 31H24.1748C24.3316 30.0554 24.4748 29.1046 24.6018 28.1593H27.7414C27.6133 29.1073 27.4699 30.0589 27.3116 31ZM28.3334 22.2898H25.2014C25.4919 18.1017 25.4919 13.8984 25.2014 9.71025H28.306C28.6012 13.8979 28.6104 18.1008 28.3334 22.2897V22.2898ZM19.9347 22.2898V9.71019H24.1991C24.4929 13.8982 24.4929 18.1017 24.1991 22.2897L19.9347 22.2898ZM12.6648 22.2898V9.71019H18.9347V22.2897L12.6648 22.2898ZM7.40063 22.2898C7.10688 18.1018 7.10688 13.8983 7.40063 9.71025H11.665V22.2897L7.40063 22.2898ZM27.7173 3.84069H24.6017C24.4748 2.89563 24.3315 1.94475 24.1748 1H27.3076C27.4577 1.94706 27.5944 2.89844 27.7173 3.84069ZM12.6648 3.84069V1H18.9347V3.84069H12.6648ZM8.00694 3.84069C8.13569 2.89506 8.28031 1.94406 8.43882 1H11.6648V3.84069H8.00694ZM19.9347 1H23.1607C23.3192 1.94375 23.4638 2.89494 23.5926 3.84069H19.9347V1ZM4.29213 1H7.42475C7.26788 1.94488 7.12475 2.89575 6.99763 3.84069H3.88219C4.00506 2.89862 4.14181 1.94725 4.29213 1ZM2.4655 4.84069H29.1343C29.2971 6.13162 29.4378 7.42906 29.5538 8.71019H2.04594C2.16225 7.42906 2.30263 6.13162 2.4655 4.84069ZM3.2935 9.71019H6.39781C6.10732 13.8983 6.10732 18.1016 6.39781 22.2897H3.26619C2.9892 18.1008 2.99833 13.8979 3.2935 9.71019ZM29.5536 23.2897C29.4376 24.571 29.2969 25.8684 29.134 27.1593H2.4655C2.30263 25.8684 2.162 24.5709 2.04594 23.2897H29.5536ZM9.85888 25.2245C9.85888 25.0919 9.91156 24.9647 10.0053 24.8709C10.0991 24.7772 10.2263 24.7245 10.3589 24.7245H10.3831C10.5157 24.7245 10.6428 24.7772 10.7366 24.8709C10.8304 24.9647 10.8831 25.0919 10.8831 25.2245C10.8831 25.3571 10.8304 25.4843 10.7366 25.5781C10.6428 25.6718 10.5157 25.7245 10.3831 25.7245H10.3589C10.2263 25.7245 10.0991 25.6718 10.0053 25.5781C9.91156 25.4843 9.85888 25.3571 9.85888 25.2245ZM15.2877 25.2245C15.2877 25.0919 15.3404 24.9647 15.4341 24.8709C15.5279 24.7772 15.6551 24.7245 15.7877 24.7245H15.8118C15.9444 24.7245 16.0716 24.7772 16.1654 24.8709C16.2591 24.9647 16.3118 25.0919 16.3118 25.2245C16.3118 25.3571 16.2591 25.4843 16.1654 25.5781C16.0716 25.6718 15.9444 25.7245 15.8118 25.7245H15.7877C15.6551 25.7245 15.5279 25.6718 15.4341 25.5781C15.3404 25.4843 15.2877 25.3571 15.2877 25.2245ZM4.43006 25.2245C4.43006 25.0919 4.48274 24.9647 4.57651 24.8709C4.67028 24.7772 4.79746 24.7245 4.93006 24.7245H4.95425C5.08686 24.7245 5.21404 24.7772 5.30781 24.8709C5.40157 24.9647 5.45425 25.0919 5.45425 25.2245C5.45425 25.3571 5.40157 25.4843 5.30781 25.5781C5.21404 25.6718 5.08686 25.7245 4.95425 25.7245H4.93006C4.79746 25.7245 4.67028 25.6718 4.57651 25.5781C4.48274 25.4843 4.43006 25.3571 4.43006 25.2245ZM20.7165 25.2245C20.7165 25.0919 20.7692 24.9647 20.8629 24.8709C20.9567 24.7772 21.0839 24.7245 21.2165 24.7245H21.2406C21.3732 24.7245 21.5004 24.7772 21.5942 24.8709C21.688 24.9647 21.7406 25.0919 21.7406 25.2245C21.7406 25.3571 21.688 25.4843 21.5942 25.5781C21.5004 25.6718 21.3732 25.7245 21.2406 25.7245H21.2165C21.0839 25.7245 20.9567 25.6718 20.8629 25.5781C20.7692 25.4843 20.7165 25.3571 20.7165 25.2245ZM26.1453 25.2245C26.1453 25.0919 26.1979 24.9647 26.2917 24.8709C26.3855 24.7772 26.5126 24.7245 26.6453 24.7245H26.6694C26.802 24.7245 26.9292 24.7772 27.023 24.8709C27.1168 24.9647 27.1694 25.0919 27.1694 25.2245C27.1694 25.3571 27.1168 25.4843 27.023 25.5781C26.9292 25.6718 26.802 25.7245 26.6694 25.7245H26.6453C26.5126 25.7245 26.3855 25.6718 26.2917 25.5781C26.1979 25.4843 26.1453 25.3571 26.1453 25.2245ZM10.8828 6.77544C10.8828 6.90805 10.8301 7.03522 10.7363 7.12899C10.6425 7.22276 10.5154 7.27544 10.3828 7.27544H10.3586C10.226 7.27544 10.0988 7.22276 10.005 7.12899C9.91124 7.03522 9.85856 6.90805 9.85856 6.77544C9.85856 6.64283 9.91124 6.51565 10.005 6.42188C10.0988 6.32812 10.226 6.27544 10.3586 6.27544H10.3828C10.4484 6.2754 10.5135 6.2883 10.5742 6.31341C10.6349 6.33852 10.69 6.37534 10.7365 6.42177C10.783 6.46821 10.8198 6.52334 10.845 6.58402C10.8701 6.64471 10.8831 6.70975 10.8831 6.77544H10.8828ZM15.2874 6.77544C15.2874 6.64283 15.3401 6.51565 15.4338 6.42188C15.5276 6.32812 15.6548 6.27544 15.7874 6.27544H15.8115C15.9441 6.27544 16.0713 6.32812 16.1651 6.42188C16.2588 6.51565 16.3115 6.64283 16.3115 6.77544C16.3115 6.90805 16.2588 7.03522 16.1651 7.12899C16.0713 7.22276 15.9441 7.27544 15.8115 7.27544H15.7874C15.6548 7.27535 15.5277 7.22264 15.434 7.12888C15.3403 7.03512 15.2877 6.90799 15.2877 6.77544H15.2874ZM5.45394 6.77544C5.45394 6.90805 5.40126 7.03522 5.30749 7.12899C5.21373 7.22276 5.08655 7.27544 4.95394 7.27544H4.92975C4.79714 7.27544 4.66997 7.22276 4.5762 7.12899C4.48243 7.03522 4.42975 6.90805 4.42975 6.77544C4.42975 6.64283 4.48243 6.51565 4.5762 6.42188C4.66997 6.32812 4.79714 6.27544 4.92975 6.27544H4.95394C5.01963 6.2754 5.08468 6.2883 5.14538 6.31341C5.20608 6.33852 5.26123 6.37534 5.3077 6.42177C5.35416 6.46821 5.39102 6.52334 5.41616 6.58402C5.44131 6.64471 5.45425 6.70975 5.45425 6.77544H5.45394ZM20.7164 6.77544C20.7164 6.64283 20.7691 6.51565 20.8629 6.42188C20.9567 6.32812 21.0838 6.27544 21.2164 6.27544H21.2406C21.3732 6.27544 21.5004 6.32812 21.5941 6.42188C21.6879 6.51565 21.7406 6.64283 21.7406 6.77544C21.7406 6.90805 21.6879 7.03522 21.5941 7.12899C21.5004 7.22276 21.3732 7.27544 21.2406 7.27544H21.2164C21.0838 7.27542 20.9567 7.22273 20.8629 7.12897C20.7692 7.0352 20.7165 6.90803 20.7165 6.77544H20.7164ZM26.1452 6.77544C26.1452 6.64283 26.1979 6.51565 26.2916 6.42188C26.3854 6.32812 26.5126 6.27544 26.6452 6.27544H26.6694C26.802 6.27544 26.9292 6.32812 27.0229 6.42188C27.1167 6.51565 27.1694 6.64283 27.1694 6.77544C27.1694 6.90805 27.1167 7.03522 27.0229 7.12899C26.9292 7.22276 26.802 7.27544 26.6694 7.27544H26.6452C26.5126 7.27542 26.3854 7.22273 26.2917 7.12897C26.1979 7.0352 26.1453 6.90803 26.1453 6.77544H26.1452Z" fill="#B17C57"/>
</svg>
