<svg width="32" height="32" viewBox="0 0 32 32" fill="none" xmlns="http://www.w3.org/2000/svg">
<path d="M29.2197 12.225C28.9979 11.9682 28.6759 11.8137 28.3362 11.8013C27.9964 11.7896 27.6623 11.9199 27.4213 12.1608L22.8893 16.6927C22.474 11.7093 18.8286 7.50176 13.8923 6.43745C13.4891 5.80664 12.733 5.27571 11.9591 5.14808C12.0702 4.03321 12.3765 2.64634 13.158 1.56809C13.3099 1.35847 13.2632 1.06541 13.0535 0.913472C12.844 0.761535 12.5509 0.808285 12.3989 1.01791C11.473 2.29534 11.1291 3.89146 11.0135 5.14146C10.2855 5.24471 9.4846 5.73858 9.03673 6.43739C3.78937 7.56876 0 12.2524 0 17.6443V19.7099C0 22.8102 1.21812 25.7145 3.42999 27.8878C3.52124 27.9774 3.63987 28.0221 3.75849 28.0221C3.8798 28.0221 4.00112 27.9753 4.09287 27.8819C4.2743 27.6972 4.27168 27.4004 4.08705 27.219C2.056 25.2235 0.937498 22.5567 0.937498 19.7099V17.6443C0.937498 12.6371 4.49605 8.29495 9.39892 7.3197C9.51348 7.29689 9.61535 7.2322 9.68473 7.1382L9.91523 6.82564C10.2149 6.47533 10.4195 6.27752 10.962 6.10983C10.9532 6.72877 10.9933 7.1422 10.9984 7.19151C11.0232 7.43264 11.2267 7.61201 11.464 7.61201C11.48 7.61201 11.4962 7.6112 11.5124 7.60951C11.7698 7.5832 11.9571 7.35308 11.931 7.09564C11.9298 7.08426 11.8923 6.69108 11.9036 6.09327C12.3444 6.19727 12.7418 6.45489 13.0143 6.82577L13.2437 7.13764C13.313 7.23189 13.4151 7.29683 13.5298 7.3197C18.4156 8.29151 21.966 12.6062 21.9913 17.5907L12.9864 26.5957C12.7455 26.8366 12.6145 27.1701 12.6269 27.5107C12.6393 27.8504 12.7937 28.1724 13.0506 28.3943C13.6168 28.8833 14.2245 29.3112 14.8639 29.6759C13.775 30.0479 12.6358 30.2368 11.4645 30.2368C9.41811 30.2368 7.4343 29.6492 5.72749 28.5375C5.51061 28.3963 5.22018 28.4576 5.07886 28.6744C4.93761 28.8914 4.99893 29.1818 5.2158 29.3231C7.07523 30.5341 9.23598 31.1742 11.4645 31.1742C13.0415 31.1742 14.5658 30.8601 15.999 30.2419C17.4181 30.8534 18.9568 31.1745 20.532 31.1744C20.665 31.1744 20.7988 31.1721 20.9323 31.1676C23.8432 31.0673 26.5813 29.8772 28.6423 27.8163C30.703 25.7555 31.8931 23.0175 31.9931 20.1067C32.0927 17.2102 31.1079 14.4112 29.2197 12.225ZM28.0524 20.0922H28.0586L29.1525 20.078C29.0704 22.0175 28.3395 23.9342 26.9595 25.471L21.6538 20.1653L25.8619 20.116C26.1208 20.1129 26.3282 19.9006 26.3251 19.6418C26.3221 19.3848 26.1129 19.1785 25.8566 19.1785C25.8547 19.1785 25.8528 19.1785 25.8509 19.1785L21.6804 19.2275L26.9595 13.9484C28.2919 15.4321 29.0192 17.27 29.1419 19.1405L28.0464 19.1547C27.7875 19.1581 27.5804 19.3707 27.5838 19.6295C27.5871 19.8864 27.7963 20.0922 28.0524 20.0922ZM20.0768 20.8312L19.989 28.3174C18.0429 28.1971 16.2221 27.4356 14.7738 26.1341L20.0768 20.8312ZM21.014 20.8514L26.2966 26.134C24.8099 27.4699 22.9307 28.2373 20.9264 28.3258L21.014 20.8514ZM31.0561 20.0743C30.9642 22.7471 29.8715 25.2611 27.9793 27.1533C26.0869 29.0457 23.5727 30.1386 20.8999 30.2306C20.777 30.2348 20.6547 30.2369 20.5323 30.2369C18.0043 30.2368 15.5775 29.3379 13.6632 27.6847C13.5806 27.6133 13.5654 27.5236 13.5637 27.4765C13.5619 27.4288 13.5707 27.3371 13.6492 27.2586L14.1101 26.7978C15.8708 28.3969 18.1346 29.2722 20.5355 29.2722C23.0936 29.2722 25.4961 28.2786 27.3004 26.4743C29.1928 24.5818 30.1243 22.0872 30.0964 19.6015C30.0964 19.6 30.0966 19.5985 30.0966 19.597C30.0966 19.5955 30.0963 19.5941 30.0963 19.5927C30.0687 17.328 29.2447 15.0715 27.6233 13.2847L28.0843 12.8237C28.1573 12.7507 28.2418 12.738 28.2916 12.738C28.2953 12.738 28.2988 12.7381 28.3021 12.7382C28.3492 12.7399 28.4389 12.7551 28.5103 12.8377C30.2434 14.8447 31.1476 17.4147 31.0561 20.0743Z" fill="#B17C57"/>
<path d="M10.2619 9.28488C10.5207 9.28488 10.7306 9.07502 10.7306 8.81613C10.7306 8.55725 10.5207 8.34738 10.2619 8.34738C10.003 8.34738 9.79311 8.55725 9.79311 8.81613C9.79311 9.07502 10.003 9.28488 10.2619 9.28488Z" fill="#B17C57"/>
<path d="M12.6675 9.28488C12.9264 9.28488 13.1362 9.07502 13.1362 8.81613C13.1362 8.55725 12.9264 8.34738 12.6675 8.34738C12.4086 8.34738 12.1987 8.55725 12.1987 8.81613C12.1987 9.07502 12.4086 9.28488 12.6675 9.28488Z" fill="#B17C57"/>
<path d="M9.05905 10.9743C9.31793 10.9743 9.5278 10.7645 9.5278 10.5056C9.5278 10.2467 9.31793 10.0368 9.05905 10.0368C8.80016 10.0368 8.5903 10.2467 8.5903 10.5056C8.5903 10.7645 8.80016 10.9743 9.05905 10.9743Z" fill="#B17C57"/>
<path d="M11.4647 10.9743C11.7235 10.9743 11.9334 10.7645 11.9334 10.5056C11.9334 10.2467 11.7235 10.0368 11.4647 10.0368C11.2058 10.0368 10.9959 10.2467 10.9959 10.5056C10.9959 10.7645 11.2058 10.9743 11.4647 10.9743Z" fill="#B17C57"/>
</svg>
