<svg width="33" height="32" viewBox="0 0 33 32" fill="none" xmlns="http://www.w3.org/2000/svg">
<path d="M11.3393 28.2997C11.5982 28.2997 11.8081 28.0898 11.8081 27.8309C11.8081 27.572 11.5982 27.3622 11.3393 27.3622C11.0804 27.3622 10.8706 27.572 10.8706 27.8309C10.8706 28.0898 11.0804 28.2997 11.3393 28.2997Z" fill="#B17C57"/>
<path d="M23.786 6.59212C24.0449 6.59212 24.2547 6.38225 24.2547 6.12337C24.2547 5.86448 24.0449 5.65462 23.786 5.65462C23.5271 5.65462 23.3172 5.86448 23.3172 6.12337C23.3172 6.38225 23.5271 6.59212 23.786 6.59212Z" fill="#B17C57"/>
<path d="M11.8864 25.6265C12.1453 25.6265 12.3551 25.4167 12.3551 25.1578C12.3551 24.8989 12.1453 24.689 11.8864 24.689C11.6275 24.689 11.4176 24.8989 11.4176 25.1578C11.4176 25.4167 11.6275 25.6265 11.8864 25.6265Z" fill="#B17C57"/>
<path d="M30.266 14.8269C30.5249 14.8269 30.7348 14.6171 30.7348 14.3582C30.7348 14.0993 30.5249 13.8894 30.266 13.8894C30.0072 13.8894 29.7973 14.0993 29.7973 14.3582C29.7973 14.6171 30.0072 14.8269 30.266 14.8269Z" fill="#B17C57"/>
<path d="M6.10625 15.6151C6.36514 15.6151 6.575 15.4052 6.575 15.1463C6.575 14.8874 6.36514 14.6776 6.10625 14.6776C5.84737 14.6776 5.6375 14.8874 5.6375 15.1463C5.6375 15.4052 5.84737 15.6151 6.10625 15.6151Z" fill="#B17C57"/>
<path d="M32.6873 11.8449C32.581 11.7444 32.4359 11.6913 32.2902 11.6996L27.721 11.9534C27.4625 11.9678 27.2647 12.189 27.279 12.4474C27.2934 12.7059 27.515 12.9038 27.773 12.8894L31.9171 12.6592V15.9237H26.4168C25.8949 15.9237 25.386 15.7761 24.9452 15.4967L24.5353 15.237C23.5382 14.6052 22.2885 14.4896 21.1927 14.9281L20.9318 15.0325C21.3083 14.4184 21.6914 13.8091 22.0806 13.2056C22.2322 13.1974 25.4762 13.0171 25.5872 13.0109C25.8457 12.9966 26.0436 12.7753 26.0292 12.5169C26.0149 12.2584 25.7944 12.0609 25.5352 12.0749L22.7152 12.2316L27.9635 4.20505C28.0435 4.08261 28.0699 3.93074 28.036 3.78849C28.002 3.64624 27.9099 3.52267 27.7833 3.44961L24.2383 1.40286C23.9831 1.2558 23.6557 1.34361 23.5082 1.59873L23.3441 1.88292L21.5361 0.839045C21.4093 0.76592 21.2563 0.747857 21.116 0.789732C20.9757 0.831545 20.8575 0.93042 20.7917 1.06086L19.0669 4.47193C18.9501 4.70293 19.0427 4.98493 19.2738 5.10174C19.5048 5.21855 19.7868 5.12587 19.9036 4.89487L21.436 1.8638L22.8752 2.69467L20.5565 6.71081C20.2066 7.31687 20.0369 8.00681 20.0657 8.70606L20.0857 9.19087C20.1219 10.0704 19.7305 10.9204 19.0388 11.4648L17.875 12.3806C17.0176 13.0552 16.4249 14.0154 16.2062 15.0843C16.0656 15.7713 15.7336 16.4009 15.2462 16.9051L13.9683 18.2266C13.7061 18.4979 13.4775 18.801 13.2888 19.1278L8.17007 27.9938L6.76338 27.1817L12.0834 19.0457C13.9765 16.1505 15.7898 13.0319 17.4399 9.76794L18.9059 6.86831C19.0227 6.63731 18.9301 6.35531 18.699 6.23849C18.468 6.12181 18.186 6.21431 18.0692 6.44537L16.6032 9.345C16.0864 10.3673 15.549 11.3838 14.9928 12.3916C13.8475 12.3692 12.6907 12.3259 11.5499 12.2625L1.41893 11.6996C1.27287 11.6916 1.12812 11.7444 1.02181 11.8449C0.915492 11.9455 0.854492 12.0871 0.854492 12.2334V18.9968C0.854492 19.1431 0.915492 19.2846 1.02174 19.3852C1.12812 19.4858 1.27299 19.5388 1.41881 19.5306L6.38807 19.2545C6.64657 19.2402 6.84444 19.019 6.83007 18.7605C6.81575 18.502 6.59432 18.3046 6.33607 18.3185L1.79199 18.571V16.9466H12.0294C12.126 16.9466 12.2226 16.9436 12.319 16.9375C12.091 17.3018 11.8608 17.6642 11.6285 18.0246C11.4776 18.0328 8.66907 18.1889 8.55869 18.195C8.30019 18.2093 8.10232 18.4306 8.11669 18.689C8.13057 18.9386 8.33732 19.1318 8.58426 19.1318C8.60688 19.1318 8.46026 19.1394 10.9939 18.9986L5.74575 27.025C5.66569 27.1473 5.63919 27.2992 5.67306 27.4414C5.70694 27.5837 5.799 27.7073 5.92588 27.7807C8.37263 29.1933 6.42519 28.069 11.7832 31.1624C11.865 31.2096 11.9578 31.2339 12.051 31.2339C12.2569 31.2339 12.439 31.1159 12.5276 30.9406L17.1058 21.8853C17.6226 20.863 18.16 19.8466 18.7161 18.8388C19.8613 18.8611 21.018 18.9045 22.159 18.9678L31.4272 19.4827C31.5733 19.4909 31.7181 19.4378 31.8244 19.3373C31.9307 19.2368 31.9916 19.0952 31.9916 18.9489V16.8613H32.3198C32.6146 16.8613 32.8545 16.6214 32.8545 16.3266V12.2334C32.8546 12.0871 32.7936 11.9455 32.6873 11.8449ZM12.9222 15.8993C12.6305 15.9722 12.3301 16.0091 12.0294 16.0091H1.79199V12.6591L11.4979 13.1983C12.4842 13.2531 13.4824 13.2931 14.475 13.3176C13.9853 14.1823 13.4821 15.0398 12.9662 15.8882L12.9222 15.8993ZM16.2691 21.4623L11.8831 30.1375L8.98201 28.4625L14.1007 19.5966C14.2511 19.3362 14.4333 19.0946 14.6423 18.8784L15.9201 17.5568C16.5317 16.9243 16.9482 16.1343 17.1246 15.2723C17.299 14.4204 17.7713 13.6551 18.4547 13.1174L19.6185 12.2016C20.5461 11.4716 21.0709 10.3317 21.0223 9.15231L21.0023 8.6675C20.9808 8.14606 21.1074 7.63156 21.3683 7.17956L23.9213 2.75761C23.9215 2.75736 23.9215 2.7573 23.9215 2.7573L24.1185 2.41617L26.9456 4.04843C21.9197 11.7349 19.3243 15.4194 16.2691 21.4623ZM31.0542 18.523L22.211 18.0318C21.2246 17.977 20.2265 17.937 19.234 17.9125C19.5282 17.393 19.8273 16.8761 20.1311 16.3622C20.1622 16.3501 19.9888 16.4193 21.5408 15.7985C22.3581 15.4716 23.2899 15.5576 24.0335 16.0289L24.4434 16.2886C25.0345 16.6631 25.7169 16.8611 26.4168 16.8611H31.0542V18.523H31.0542Z" fill="#B17C57"/>
</svg>
