<svg width="39" height="20" viewBox="0 0 39 20" fill="none" xmlns="http://www.w3.org/2000/svg">
<path d="M12.1175 16.7325C11.0087 15.6198 10.2733 14.1965 9.9282 12.4908C7.57485 12.2649 7.20148 10.8698 7.20148 10.0113C7.20148 9.15279 7.57485 7.75773 9.93386 7.53181C10.2846 5.8261 11.0087 4.40279 12.1231 3.29013C13.9674 1.43757 16.8242 0.499999 20.6201 0.499999C23.9634 0.499999 28.0535 2.05321 32.7772 5.11445C36.2733 7.37931 38.8359 9.67806 38.8642 9.70065C38.8699 9.7063 38.8755 9.7176 38.8812 9.72324C38.8925 9.73454 38.8982 9.74019 38.9038 9.75149C38.9151 9.76843 38.9265 9.77973 38.9378 9.79667C38.9434 9.80797 38.9491 9.81926 38.9547 9.82491C38.9661 9.84185 38.9717 9.86445 38.9774 9.88139C38.9774 9.89269 38.983 9.89833 38.9887 9.90963C38.9943 9.93787 39 9.97176 39 10C39 10.0282 39 10.0621 38.9887 10.0904C38.9887 10.1017 38.983 10.1073 38.9774 10.1186C38.9717 10.1412 38.9661 10.1581 38.9547 10.1751C38.9547 10.1864 38.9434 10.1977 38.9378 10.2033C38.9265 10.2203 38.9151 10.2372 38.9038 10.2485C38.8982 10.2598 38.8869 10.2655 38.8812 10.2768C38.8755 10.2824 38.8699 10.2937 38.8642 10.2993C38.8359 10.3219 36.2733 12.6207 32.7772 14.8856C28.0535 17.9468 23.9634 19.5 20.6201 19.5C16.8299 19.5 13.9674 18.5624 12.1175 16.7155L12.1175 16.7325ZM8.02741 10.0056C8.02741 11.124 8.89861 11.6944 10.6184 11.6944C12.1741 11.6944 14.1144 10.5817 15.0083 10.0056C14.1144 9.42955 12.1741 8.31688 10.6184 8.31688C8.89861 8.31688 8.02741 8.88169 8.02741 10.0056ZM21.4064 14.1287C21.3499 13.9084 21.4856 13.6825 21.7119 13.626L34.8986 10.401L18.3573 10.401C18.131 10.401 17.9443 10.2146 17.9443 9.9887C17.9443 9.76278 18.131 9.5764 18.3573 9.5764L34.7798 9.5764L21.7063 6.37961C21.4856 6.32313 21.3499 6.10285 21.4008 5.87693C21.4574 5.65666 21.678 5.5211 21.9043 5.57194L36.4487 9.12455C33.4221 7.29459 27.3351 4.03567 22.3512 4.03567C17.933 4.03567 15.0762 5.32342 15.0762 7.31153C15.0762 8.05707 15.4835 8.88734 16.2472 9.71195C16.3943 9.87009 16.3943 10.113 16.2472 10.2711C15.4948 11.0788 15.0988 11.9034 15.0988 12.6433C15.0988 14.6483 17.9443 15.9474 22.3512 15.9474C27.3351 15.9474 33.4221 12.6885 36.4487 10.8585L21.9043 14.4111C21.6836 14.4676 21.4574 14.332 21.4008 14.1061L21.4064 14.1287ZM20.6201 1.32461C15.0648 1.32461 11.7102 3.44828 10.7824 7.49792C12.1062 7.54875 13.5714 8.22087 14.6123 8.80262C14.3747 8.29994 14.2502 7.80291 14.2502 7.32283C14.2502 5.34037 16.3773 3.22235 22.3568 3.22235C25.9321 3.22235 29.9487 4.76427 33.1223 6.34007C29.5583 3.93401 24.7441 1.32461 20.6201 1.32461ZM33.1223 13.6712C29.9487 15.247 25.9321 16.7889 22.3568 16.7889C16.3999 16.7889 14.2728 14.654 14.2728 12.6602C14.2728 12.1858 14.3916 11.6944 14.6236 11.203C13.5827 11.7904 12.1118 12.4625 10.7881 12.5134C11.7158 16.563 15.0648 18.6867 20.6201 18.6867C24.7441 18.6867 29.5583 16.0773 33.1223 13.6712Z" fill="#B17C57"/>
<path d="M6.8564 10.0113C6.8564 10.1581 6.7772 10.2993 6.64708 10.3728C6.55657 10.4236 4.39556 11.6266 2.64186 11.6266C0.345083 11.6266 4.42165e-07 10.6156 4.15749e-07 10.0113C3.89333e-07 9.40696 0.345083 8.39596 2.64186 8.39596C4.39556 8.39596 6.55657 9.59899 6.64708 9.64982C6.7772 9.72325 6.8564 9.8588 6.8564 10.0113ZM0.831593 10.0113C0.831593 10.6608 1.81593 10.7964 2.64186 10.7964C3.60923 10.7964 4.77459 10.3445 5.51567 10.0113C4.78024 9.67241 3.60923 9.22622 2.64186 9.22622C1.81593 9.22622 0.831593 9.36177 0.831593 10.0113Z" fill="#B17C57"/>
</svg>
