<svg width="32" height="33" viewBox="0 0 32 33" fill="none" xmlns="http://www.w3.org/2000/svg">
<path d="M26.8181 11.1309V6.88794L30.4131 3.29294C30.8753 2.82679 31.0192 2.03084 30.4 1.41151C29.7809 0.792301 28.9849 0.936099 28.517 1.39963L26.6198 3.29675C26.4367 3.47994 26.4367 3.77679 26.6198 3.95991C26.8029 4.14297 27.0999 4.14297 27.2829 3.95991L29.1785 2.06428C29.4338 1.81126 29.6703 2.0082 29.7367 2.0746C29.8031 2.141 30.0001 2.37751 29.7485 2.63122L26.0177 6.36195C26.0176 6.36208 26.0175 6.3622 26.0174 6.36233L24.0278 8.35192C23.5748 8.80495 23.3254 9.40715 23.3254 10.0476V11.3041C23.3254 12.1594 22.9924 12.9634 22.3876 13.5683L19.4806 16.4753C18.8758 17.0801 18.0719 17.4131 17.2167 17.4131L14.9857 17.4132C14.8784 17.4132 14.7774 17.3713 14.7015 17.2954C14.6976 17.2915 14.6936 17.2877 14.6896 17.2839C14.5608 17.1639 14.5712 16.9855 14.6237 16.8584C14.6487 16.7978 14.7479 16.6018 14.9693 16.6088C14.9749 16.609 14.9803 16.6092 14.9858 16.6092H17.2165C17.8571 16.6092 18.4593 16.3598 18.9122 15.9069L21.8192 12.9998C22.2721 12.5469 22.5216 11.9446 22.5216 11.304V10.0475C22.5216 9.1922 22.8547 8.38812 23.4594 7.78336L25.7321 5.51074C25.9152 5.32755 25.9152 5.0307 25.7321 4.84764C25.549 4.66446 25.2521 4.66452 25.069 4.84758L22.7963 7.1202C22.5717 7.34484 22.377 7.59136 22.2123 7.85401L20.5879 7.79161C20.71 6.32075 19.5327 4.97468 18.0224 4.98037H13.5947C12.3784 4.98037 11.1989 5.33455 10.1837 6.00465L8.95811 6.81366C8.46651 7.13815 8.15704 7.66107 8.10908 8.24814C8.06119 8.83527 8.2817 9.40133 8.71422 9.80128C9.86185 10.8627 11.3548 11.4472 12.9181 11.4472H18.0224C19.4735 11.4561 20.6625 10.195 20.5879 8.72999L21.7829 8.77588C21.6525 9.18151 21.5838 9.60909 21.5838 10.0475V11.304C21.5838 11.694 21.4319 12.0607 21.1561 12.3366L18.2491 15.2436C17.9732 15.5194 17.6065 15.6713 17.2165 15.6713H15.98C15.7335 14.5054 14.7076 13.6462 13.4719 13.6462H9.04414C7.82805 13.6462 6.64847 14.0004 5.63283 14.6704L4.40748 15.4793C3.9157 15.8039 3.60622 16.3269 3.55833 16.9141C3.51044 17.5013 3.73114 18.0673 4.16365 18.4671C4.73409 18.9943 5.389 19.4048 6.11017 19.6872C6.83191 19.9699 7.59116 20.1134 8.36692 20.1134H13.0795L10.5394 22.6535L10.2338 22.3479C9.23352 21.3477 7.60592 21.3477 6.60565 22.3479L2.99639 25.9571C1.89103 27.0625 1.24863 28.5315 1.18761 30.0935C1.13121 31.2519 2.24039 32.2995 3.47261 32.0337L4.91134 31.7391C6.10305 31.4951 7.18747 30.9115 8.04756 30.0515L11.1784 26.9206C11.6629 26.436 11.9298 25.7918 11.9298 25.1065C11.9298 24.4327 11.6713 23.7988 11.202 23.3172L14.7351 19.7841C15.2834 19.4757 15.7073 18.9701 15.9086 18.3507H16.7312L16.6567 20.5263C15.213 20.4367 13.9222 21.6177 13.9266 23.0917V23.8123C13.9266 24.0714 14.1366 24.2812 14.3955 24.2812C14.6545 24.2812 14.8644 24.0714 14.8644 23.8123V23.0917C14.8644 22.1942 15.5946 21.4641 16.4922 21.4641H17.828C18.7255 21.4641 19.4557 22.1942 19.4557 23.0917V27.5194C19.4557 28.5515 19.1552 29.5524 18.5865 30.4137L17.7775 31.6393C17.4873 32.0983 16.7064 32.2514 16.2611 31.7631C15.3605 30.7892 14.8645 29.5224 14.8645 28.1959V26.0101C14.8645 25.7511 14.6546 25.5412 14.3956 25.5412C14.1366 25.5412 13.9267 25.7511 13.9267 26.0101V28.1959C13.9267 29.7591 14.5112 31.2521 15.5726 32.3997C16.3246 33.2634 17.9013 33.2005 18.5603 32.1559L19.3693 30.9303C20.0394 29.9152 20.3936 28.7357 20.3936 27.5193V23.0917C20.405 21.6042 19.0868 20.4183 17.5952 20.5262L17.6705 18.3254C18.6045 18.2242 19.47 17.812 20.1437 17.1382L21.5563 15.7255V20.5662C21.5563 22.1294 22.1408 23.6224 23.2023 24.77C23.9543 25.6336 25.5309 25.5707 26.1899 24.5262L26.9989 23.3006C27.669 22.2855 28.0232 21.1059 28.0232 19.8895V15.462C28.0232 14.1662 27.0574 13.0924 25.8081 12.9209L26.3152 12.3883C26.6395 12.0479 26.8181 11.6013 26.8181 11.1309ZM19.6501 8.88172C19.6501 9.77921 18.9199 10.5094 18.0224 10.5094H12.9181C11.5916 10.5094 10.3248 10.0134 9.35099 9.11286C9.13148 8.90986 9.01951 8.62245 9.04383 8.32448C9.06815 8.0265 9.2252 7.76104 9.47478 7.59636L10.7004 6.78741C11.5618 6.21878 12.5626 5.91824 13.5947 5.91824H18.0224C18.9198 5.91824 19.6501 6.64842 19.6501 7.54591V8.88172ZM6.45229 18.8141C5.84027 18.5744 5.28446 18.226 4.80024 17.7785C4.58073 17.5757 4.46882 17.2884 4.49308 16.9905C4.5174 16.6924 4.67445 16.4269 4.92416 16.2622L6.14944 15.4533C7.01122 14.8846 8.01218 14.5842 9.04414 14.5842H13.4719C14.1844 14.5842 14.787 15.0343 15.0084 15.6714H14.9932C14.9812 15.6711 14.9693 15.6709 14.9575 15.6709C14.4352 15.6709 13.9675 15.9923 13.7573 16.4997C13.7521 16.5122 13.7481 16.5248 13.7433 16.5374H11.1577C10.8987 16.5374 10.6887 16.7473 10.6887 17.0063C10.6887 17.2653 10.8987 17.4752 11.1577 17.4752H13.7244C13.79 17.6582 13.8975 17.8258 14.0443 17.9644C14.2743 18.1916 14.5723 18.3245 14.8919 18.3465C14.7431 18.6134 14.5218 18.8302 14.2561 18.9754C14.2449 18.9808 14.2339 18.9866 14.2231 18.9929C13.9977 19.1094 13.7424 19.1757 13.4718 19.1757H8.36698C7.70883 19.1756 7.06468 19.054 6.45229 18.8141ZM10.5154 26.2576L7.38453 29.3884C6.65473 30.1182 5.73449 30.6135 4.72334 30.8205L4.05674 30.957L4.29814 30.1638C4.38792 29.8687 4.55059 29.5975 4.76867 29.3796L6.10423 28.044C6.28736 27.8608 6.28736 27.564 6.10423 27.3808C5.92111 27.1978 5.6242 27.1978 5.44114 27.3808L4.10564 28.7164C3.77909 29.0429 3.53545 29.449 3.40096 29.8907L3.0234 31.1314C2.59451 31.1153 2.09535 30.6812 2.12479 30.1302C2.17662 28.8048 2.72162 27.5583 3.65961 26.6204L7.26887 23.0111C7.58622 22.6938 8.00299 22.5352 8.41981 22.5352C8.83657 22.5352 9.25346 22.6938 9.57075 23.0111L10.5153 23.9556C10.8227 24.2631 10.992 24.6719 10.992 25.1066C10.992 25.5414 10.8228 25.9502 10.5154 26.2576ZM27.0854 15.4622V19.8898C27.0854 20.922 26.7849 21.9228 26.2163 22.7842L25.8299 23.3694L24.9496 21.8089C24.7374 21.4329 24.6253 21.0059 24.6253 20.5741V16.1703C24.6253 15.9112 24.4153 15.7014 24.1564 15.7014C23.8974 15.7014 23.6875 15.9112 23.6875 16.1703V20.5741C23.6875 21.167 23.8415 21.7533 24.1328 22.2698L25.228 24.2111C24.9121 24.4992 24.2577 24.5411 23.8907 24.1336C22.9901 23.1597 22.4941 21.8928 22.4941 20.5664V15.4621C22.4941 14.5647 23.2243 13.8344 24.1218 13.8344H25.4576C26.3552 13.8345 27.0854 14.5647 27.0854 15.4622ZM25.636 11.7419L24.5365 12.8967C24.2456 12.9007 24.2872 12.8876 23.9439 12.9036C24.1533 12.4036 24.2634 11.8623 24.2634 11.3041V10.0476C24.2634 9.65761 24.4153 9.29086 24.6911 9.01502L25.8803 7.82575V11.131C25.8803 11.3594 25.7936 11.5764 25.636 11.7419Z" fill="#B17C57"/>
<path d="M17.2162 28.6414C17.3868 28.6414 17.5513 28.5479 17.6342 28.3855L18.1215 27.431C18.2829 27.1146 18.3682 26.7598 18.3682 26.4048V23.8125C18.3682 23.5534 18.1582 23.3436 17.8993 23.3436C17.6403 23.3436 17.4304 23.5534 17.4304 23.8125V26.4048C17.4304 26.6123 17.3805 26.8198 17.2861 27.0046L16.7989 27.9592C16.6812 28.1898 16.7727 28.4723 17.0033 28.59C17.0716 28.6248 17.1444 28.6414 17.2162 28.6414Z" fill="#B17C57"/>
<path d="M17.2405 7.53046C16.8961 7.1384 16.3993 6.91345 15.8775 6.91345H13.4587C13.1997 6.91345 12.9898 7.12333 12.9898 7.38235C12.9898 7.64138 13.1997 7.85126 13.4587 7.85126H15.8775C16.1295 7.85126 16.3695 7.95986 16.5358 8.14936L16.8642 8.52329C16.9569 8.62883 17.0864 8.68278 17.2167 8.68278C17.3266 8.68278 17.4369 8.64439 17.5259 8.56624C17.7205 8.39538 17.7398 8.09909 17.5689 7.90446L17.2405 7.53046Z" fill="#B17C57"/>
</svg>
