<svg width="52" height="25" viewBox="0 0 52 25" fill="none" xmlns="http://www.w3.org/2000/svg">
<path d="M35.8433 21.3585C37.3217 19.8945 38.3023 18.0217 38.7624 15.7773C41.9002 15.4801 42.398 13.6445 42.398 12.5149C42.398 11.3853 41.9002 9.54964 38.7549 9.25238C38.2872 7.00803 37.3217 5.13526 35.8358 3.67122C33.3769 1.23365 29.5677 -9.80552e-07 24.5065 -1.20179e-06C20.0487 -1.39664e-06 14.5953 2.0437 8.29707 6.07164C3.63563 9.05172 0.218742 12.0764 0.18103 12.1061C0.173488 12.1136 0.165939 12.1284 0.158397 12.1358C0.14331 12.1507 0.135772 12.1581 0.128231 12.173C0.113143 12.1953 0.0980563 12.2102 0.0829691 12.2325C0.0754275 12.2473 0.0678858 12.2622 0.0603403 12.2696C0.045257 12.2919 0.0377116 12.3216 0.0301699 12.3439C0.0301699 12.3588 0.0226282 12.3662 0.0150866 12.3811C0.00754493 12.4182 -5.44764e-07 12.4628 -5.46389e-07 12.5C-5.48013e-07 12.5372 -5.49962e-07 12.5817 0.0150866 12.6189C0.0150866 12.6338 0.0226282 12.6412 0.0301699 12.6561C0.0377115 12.6858 0.045257 12.7081 0.0603403 12.7304C0.0603403 12.7452 0.0754275 12.7601 0.0829691 12.7675C0.0980562 12.7898 0.113143 12.8121 0.12823 12.827C0.135772 12.8419 0.150852 12.8493 0.158397 12.8641C0.165939 12.8716 0.173488 12.8864 0.18103 12.8939C0.218742 12.9236 3.63563 15.9483 8.29707 18.9284C14.5953 22.9563 20.0487 25 24.5065 25C29.5602 25 33.3768 23.7663 35.8433 21.3362L35.8433 21.3585ZM41.2968 12.5074C41.2968 13.9789 40.1352 14.7295 37.8422 14.7295C35.7679 14.7295 33.1807 13.2655 31.989 12.5074C33.1807 11.7494 35.7679 10.2854 37.8422 10.2854C40.1352 10.2854 41.2968 11.0285 41.2968 12.5074ZM23.4581 17.9325C23.5335 17.6427 23.3525 17.3454 23.0508 17.2711L5.46852 13.0276L27.5236 13.0276C27.8254 13.0276 28.0743 12.7824 28.0743 12.4851C28.0743 12.1879 27.8254 11.9426 27.5236 11.9426L5.62692 11.9426L23.0583 7.73632C23.3525 7.66201 23.5335 7.37218 23.4656 7.07491C23.3902 6.78508 23.096 6.60672 22.7943 6.6736L3.4018 11.3481C7.43719 8.94025 15.5532 4.6522 22.1984 4.6522C28.0894 4.6522 31.8985 6.34661 31.8985 8.96254C31.8985 9.94352 31.3554 11.036 30.3371 12.121C30.141 12.3291 30.141 12.6486 30.3371 12.8567C31.3403 13.9194 31.8683 15.0045 31.8683 15.978C31.8683 18.6162 28.0743 20.3255 22.1984 20.3255C15.5532 20.3255 7.43719 16.0375 3.4018 13.6296L22.7943 18.3041C23.0885 18.3784 23.3902 18.2001 23.4656 17.9028L23.4581 17.9325ZM24.5065 1.08502C31.9135 1.08502 36.3864 3.87931 37.6234 9.20779C35.8584 9.27467 33.9048 10.159 32.517 10.9245C32.8338 10.2631 32.9997 9.6091 32.9997 8.97741C32.9997 6.36891 30.1636 3.58204 22.1909 3.58204C17.4238 3.58204 12.0685 5.61088 7.83696 7.6843C12.5889 4.51843 19.0078 1.08502 24.5065 1.08502ZM7.83696 17.3306C12.0685 19.404 17.4238 21.4328 22.1909 21.4328C30.1334 21.4328 32.9695 18.6237 32.9695 16.0003C32.9695 15.376 32.8111 14.7295 32.5019 14.0829C33.8898 14.8558 35.8509 15.7402 37.6159 15.8071C36.3789 21.1356 31.9135 23.9298 24.5065 23.9298C19.0078 23.9298 12.5889 20.4964 7.83696 17.3306Z" fill="#2A3138"/>
<path d="M42.8581 12.5149C42.8581 12.7081 42.9637 12.8939 43.1372 12.9905C43.2579 13.0574 46.1393 14.6403 48.4775 14.6403C51.5399 14.6403 52 13.31 52 12.5149C52 11.7197 51.5399 10.3894 48.4775 10.3894C46.1393 10.3894 43.2579 11.9724 43.1372 12.0392C42.9637 12.1359 42.8581 12.3142 42.8581 12.5149ZM50.8912 12.5149C50.8912 13.3695 49.5788 13.5479 48.4775 13.5479C47.1877 13.5479 45.6339 12.9533 44.6458 12.5149C45.6263 12.069 47.1877 11.4819 48.4775 11.4819C49.5788 11.4819 50.8912 11.6602 50.8912 12.5149Z" fill="#2A3138"/>
</svg>
