<svg width="32" height="32" viewBox="0 0 32 32" fill="none" xmlns="http://www.w3.org/2000/svg">
<path d="M14.3329 25.1986C14.2166 25.0823 14.0554 25.0155 13.891 25.0155C13.7266 25.0155 13.5654 25.0823 13.4491 25.1986C13.3329 25.3148 13.266 25.4761 13.266 25.6405C13.266 25.8048 13.3329 25.9661 13.4491 26.0823C13.5654 26.1985 13.7266 26.2655 13.891 26.2655C14.0554 26.2655 14.2166 26.1986 14.3329 26.0823C14.4491 25.9661 14.516 25.8048 14.516 25.6405C14.516 25.4761 14.4491 25.3148 14.3329 25.1986Z" fill="#B17C57"/>
<path d="M25.6805 26.1094L25.6679 26.1021C25.6635 26.0995 25.6595 26.0964 25.6551 26.0938C25.6463 26.0888 25.6373 26.0843 25.6285 26.0794L22.3043 24.1602C22.7663 23.2416 22.7731 22.1155 22.2217 21.1604C21.8015 20.4326 21.1239 19.9116 20.313 19.6922C20.8169 18.9979 21.1152 18.1451 21.1152 17.2234C21.1152 16.6526 21.0026 16.0985 20.7808 15.5764C20.7792 15.5724 20.7775 15.5684 20.7757 15.5646C20.6716 15.3218 20.5432 15.0869 20.3938 14.8659C20.2655 14.6456 20.1312 14.4243 20.0012 14.2101C19.2385 12.9536 18.5182 11.7668 18.8037 10.537C18.8561 10.311 18.7791 10.0747 18.6036 9.9229C18.4282 9.77122 18.1831 9.72915 17.967 9.81365C17.1155 10.1468 16.3554 10.8145 15.8264 11.6933C15.7314 11.8513 15.6473 12.0102 15.5748 12.168C14.8822 11.5458 14.1482 11.457 14.1025 11.4521C13.8814 11.4279 13.6641 11.5237 13.5321 11.7028C13.4002 11.882 13.3734 12.1178 13.4619 12.322C13.4673 12.3345 13.9966 13.5906 13.3317 14.9862C13.2452 15.1237 13.1671 15.2653 13.0989 15.4079C13.0919 15.4213 13.0856 15.435 13.0796 15.4488C12.8197 16.0074 12.6879 16.6043 12.6879 17.2234C12.6879 18.0977 12.9557 18.9104 13.4134 19.5844C13.1793 19.5935 12.9446 19.6279 12.7129 19.6901C11.8986 19.9082 11.2181 20.4305 10.7965 21.1605C10.2581 22.093 10.2419 23.2256 10.7126 24.161L7.34308 26.1064C7.34239 26.1068 7.34164 26.1071 7.34096 26.1076C7.34064 26.1078 7.34033 26.108 7.33996 26.1082L7.33764 26.1095C5.83059 26.9797 5.31234 28.9136 6.18252 30.4207C6.60402 31.1508 7.28458 31.6729 8.09889 31.8911C8.37083 31.964 8.6467 32 8.92089 32C9.46776 32 10.0074 31.8566 10.4938 31.5758L16.5092 28.1028L22.5246 31.5758C23.011 31.8566 23.5506 32 24.0975 32C24.3716 32 24.6476 31.964 24.9194 31.8911C25.7338 31.6729 26.4143 31.1507 26.8358 30.4207C27.7058 28.9134 27.1876 26.9795 25.6805 26.1094ZM14.2199 15.9607C14.2209 15.9587 14.2218 15.9567 14.2227 15.9546C14.275 15.8445 14.3362 15.7345 14.4049 15.6274C14.4179 15.6071 14.4297 15.5861 14.4403 15.5644C14.8493 14.7266 14.9394 13.9216 14.9083 13.2742C15.0616 13.4535 15.2066 13.6871 15.319 13.9914C15.4351 14.3059 15.7787 14.4727 16.0976 14.3696C16.4166 14.2664 16.5974 13.93 16.5074 13.6071C16.4086 13.2528 16.7786 12.2643 17.5182 11.5647C17.6621 12.7655 18.3273 13.8613 18.9327 14.8586C19.0633 15.0739 19.1985 15.2966 19.3241 15.5129C19.3318 15.5262 19.3401 15.5393 19.3488 15.552C19.4595 15.7139 19.5541 15.8862 19.6298 16.0641C19.6305 16.0657 19.6312 16.0674 19.6319 16.069C19.7867 16.4345 19.8651 16.8228 19.8651 17.2232C19.8651 18.3061 19.281 19.2546 18.4118 19.7718C18.24 19.8346 18.0721 19.9118 17.9104 20.0052L17.8909 20.0165C17.5812 20.1265 17.2483 20.1869 16.9014 20.1869C15.2673 20.1869 13.9377 18.8575 13.9377 17.2232C13.9379 16.7822 14.0328 16.3574 14.2199 15.9607ZM11.8789 21.7853C12.1335 21.3444 12.5446 21.0289 13.0363 20.8972C13.2005 20.8532 13.3671 20.8314 13.5327 20.8314C13.8631 20.8314 14.189 20.918 14.4827 21.0876L15.2592 21.5359L11.7978 23.5342C11.5451 22.9821 11.5658 22.3277 11.8789 21.7853ZM9.87188 30.4912C9.87163 30.4913 9.87138 30.4915 9.87113 30.4917L9.86857 30.4932C9.4277 30.7478 8.91401 30.8154 8.42233 30.6836C7.93052 30.5519 7.51952 30.2364 7.26496 29.7955C7.01033 29.3546 6.94277 28.8409 7.07452 28.3491C7.20627 27.8574 7.52171 27.4463 7.96264 27.1918L7.96802 27.1886C8.40851 26.9351 8.92132 26.8678 9.4122 26.9994C9.90401 27.1311 10.3151 27.4466 10.5696 27.8875C11.095 28.7976 10.782 29.9658 9.87188 30.4912ZM12.0484 29.2347C12.1324 28.5742 12.0099 27.8824 11.6521 27.2626C11.3033 26.6584 10.7767 26.1973 10.1442 25.9323L18.4291 21.149C18.6002 21.0822 18.7662 21.0053 18.9257 20.9175C19.1073 20.861 19.2956 20.8314 19.4855 20.8314C19.651 20.8314 19.8177 20.8532 19.9819 20.8972C20.1613 20.9453 20.3299 21.0181 20.4842 21.1123L15.5909 23.9374C15.292 24.11 15.1895 24.4922 15.3622 24.7912C15.4779 24.9917 15.688 25.1038 15.904 25.1038C16.01 25.1038 16.1175 25.0767 16.2159 25.0199L21.2822 22.0949C21.5878 22.9455 21.2513 23.9216 20.4415 24.3891L12.0484 29.2347ZM21.3438 27.2491C20.9858 27.8691 20.8633 28.5613 20.9475 29.222L17.759 27.3811L21.0665 25.4715C21.2307 25.3767 21.3824 25.2686 21.5226 25.1505L21.5224 25.152L22.8526 25.9201C22.239 26.1777 21.7015 26.6296 21.3438 27.2491ZM25.7532 29.7956C25.4986 30.2365 25.0876 30.5519 24.5958 30.6837C24.1041 30.8154 23.5905 30.7478 23.1495 30.4933L23.1357 30.4853C23.1317 30.4829 23.1281 30.4801 23.1241 30.4778C22.2139 29.9522 21.901 28.7842 22.4264 27.874C22.9468 26.9725 24.0973 26.6575 25.0035 27.1618L25.0556 27.1918C25.9656 27.7173 26.2786 28.8854 25.7532 29.7956Z" fill="#B17C57"/>
<path d="M11.2493 0.0843195L11.1404 0.0421947C10.9245 -0.0414299 10.6801 0.00125739 10.5052 0.153069C10.3303 0.304819 10.2537 0.540818 10.306 0.766379C10.3905 1.13025 10.1418 1.53994 9.85388 2.01425C9.79982 2.10337 9.74582 2.19237 9.69382 2.28131C9.62226 2.38856 9.56051 2.50218 9.51014 2.61962C9.50907 2.622 9.50807 2.62437 9.50707 2.62675C9.39489 2.89081 9.33851 3.17081 9.33945 3.45912C9.34345 4.60343 10.2773 5.54692 11.421 5.56248C11.4309 5.56261 11.4408 5.56267 11.4508 5.56267C12.0092 5.56267 12.5343 5.34749 12.9325 4.95467C13.3378 4.55486 13.561 4.02112 13.561 3.45193C13.561 3.45156 13.561 3.45118 13.561 3.45074C13.5583 1.94781 12.6508 0.62638 11.2493 0.0843195ZM12.0547 4.06487C11.8894 4.22774 11.6708 4.31718 11.438 4.31268C10.9717 4.3063 10.591 3.92155 10.5894 3.45493C10.5891 3.33912 10.6111 3.22693 10.6551 3.12137C10.6559 3.11937 10.6568 3.11737 10.6577 3.11524C10.6795 3.06393 10.7069 3.01399 10.7392 2.96693C10.7479 2.95412 10.7562 2.94106 10.764 2.92762C10.8153 2.83937 10.8688 2.75118 10.9224 2.66281C11.1086 2.35612 11.3186 2.01031 11.4484 1.6275C11.9859 2.0665 12.3094 2.72706 12.3111 3.45206C12.3111 3.68418 12.22 3.90174 12.0547 4.06487Z" fill="#B17C57"/>
<path d="M28.4471 3.86824C28.4984 3.70312 28.4791 3.52412 28.3936 3.37381C28.3082 3.22349 28.1642 3.11531 27.9961 3.07499C27.9368 3.06068 26.5238 2.73193 24.8645 3.21712C23.6633 3.56843 22.15 4.40811 21.0603 6.38073C20.8264 5.67298 20.4688 4.85992 19.9224 4.02274C18.7222 2.18412 16.9494 0.805692 14.7957 0.0365072C14.5727 -0.0433049 14.3239 0.0100698 14.1529 0.173882C13.9821 0.337756 13.9184 0.58413 13.9886 0.810317C14.7239 3.17924 14.3983 5.45074 13.0209 7.56154C12.2844 8.69016 11.4254 9.47622 10.9725 9.84878C10.4503 9.44934 9.44676 8.36922 9.67082 6.07111C9.69476 5.8258 9.57232 5.58942 9.3582 5.46742C9.14414 5.34536 8.87833 5.36061 8.67951 5.50623C7.29302 6.52161 6.22227 8.0676 5.49709 10.1012C4.8729 11.8515 4.54297 13.8829 4.54297 15.9758C4.54297 18.9417 5.63603 21.787 7.62083 23.9876C7.74421 24.1244 7.91433 24.194 8.08514 24.194C8.23433 24.194 8.38408 24.1409 8.50358 24.0332C8.75989 23.802 8.78026 23.4068 8.54908 23.1505C6.77183 21.1799 5.79296 18.6319 5.79296 15.9758C5.79296 13.1316 6.5044 9.59803 8.42358 7.42773C8.71126 10.2058 10.654 11.1333 10.7494 11.1771C10.9496 11.269 11.1833 11.2488 11.3647 11.1238C11.4249 11.0824 12.8534 10.0874 14.0412 8.2851C15.388 6.24129 15.8773 3.98262 15.4832 1.68769C18.9282 3.42668 20.1037 6.71379 20.2428 8.52353C20.266 8.8236 20.4995 9.06453 20.7987 9.09697C21.0979 9.12997 21.3776 8.94416 21.4644 8.65597C22.7253 4.47205 25.6934 4.13124 27.0334 4.20505L26.1625 7.00592C25.4831 9.19091 25.5479 11.5755 26.3452 13.7205C27.3699 16.4771 27.0192 19.5533 25.4074 21.9494C25.2147 22.2358 25.2907 22.6242 25.5771 22.8168C25.8636 23.0095 26.2519 22.9334 26.4446 22.6471C28.2806 19.9178 28.6814 16.4179 27.5169 13.285C26.8154 11.3978 26.7583 9.29959 27.3561 7.3771L28.4471 3.86824Z" fill="#B17C57"/>
<path d="M9.87407 20.8229C9.27764 20.0076 8.84158 19.1003 8.57795 18.126C8.48777 17.7928 8.14477 17.5958 7.81139 17.6859C7.47821 17.7761 7.28121 18.1192 7.37133 18.4524C7.67521 19.5755 8.17789 20.6214 8.86526 21.5609C8.9877 21.7283 9.17764 21.817 9.3702 21.817C9.49826 21.817 9.62745 21.7777 9.7387 21.6963C10.0172 21.4925 10.0778 21.1015 9.87407 20.8229Z" fill="#B17C57"/>
<path d="M7.66777 15.3509C7.32258 15.3509 7.04277 15.6308 7.04277 15.9759V15.9827C7.04277 16.3278 7.32258 16.6077 7.66777 16.6077C8.01295 16.6077 8.29277 16.3278 8.29277 15.9827V15.9759C8.2927 15.6308 8.01295 15.3509 7.66777 15.3509Z" fill="#B17C57"/>
</svg>
