<svg width="18" height="18" viewBox="0 0 18 18" fill="none" xmlns="http://www.w3.org/2000/svg">
<path d="M7.28 14.5434C8.31 13.2934 8.42 12.4034 8.51 11.6934C8.56 11.3134 8.59 11.0534 8.75 10.7834C8.91 11.0534 8.95 11.3134 8.99 11.6934C9.08 12.4034 9.18 13.2934 10.22 14.5434C11.83 16.4934 13.98 17.4334 15.4 17.5034C16.1 17.5334 16.66 17.3734 17.01 17.0134C17.36 16.6634 17.53 16.1034 17.5 15.4034C17.43 13.9834 16.49 11.8334 14.54 10.2234C13.29 9.19338 12.4 9.08338 11.69 8.99338C11.31 8.94338 11.05 8.91338 10.78 8.75338C11.05 8.59338 11.31 8.55338 11.69 8.51338C12.4 8.42338 13.29 8.32338 14.54 7.28338C16.49 5.67338 17.43 3.52338 17.5 2.10338C17.53 1.40338 17.37 0.843383 17.01 0.493383C16.66 0.143384 16.1 -0.0266165 15.4 0.00338348C13.98 0.0733835 11.83 1.01338 10.22 2.96338C9.19 4.21338 9.08 5.10338 8.99 5.81338C8.94 6.19338 8.91 6.45338 8.75 6.72338C8.59 6.45338 8.55 6.19338 8.51 5.81338C8.42 5.10338 8.32 4.21338 7.28 2.96338C5.67 1.01338 3.52 0.0733835 2.1 0.00338348C1.4 -0.0266165 0.84 0.143384 0.49 0.493383C0.17 0.813383 0 1.31338 0 1.93338C0 1.99338 0 2.04338 0 2.10338C0.07 3.52338 1.01 5.67338 2.96 7.28338C4.21 8.31338 5.1 8.42338 5.81 8.51338C6.19 8.56338 6.45 8.59338 6.72 8.75338C6.45 8.91338 6.19 8.95338 5.81 8.99338C5.1 9.08338 4.21 9.18338 2.96 10.2234C1.01 11.8334 0.07 13.9934 0 15.4034C0 15.4634 0 15.5234 0 15.5734C0 16.1934 0.17 16.6934 0.49 17.0134C0.84 17.3634 1.4 17.5334 2.1 17.5034C3.52 17.4334 5.67 16.4934 7.28 14.5434ZM8.17 8.75338C8.17 8.43338 8.43 8.17338 8.75 8.17338C9.07 8.17338 9.33 8.43338 9.33 8.75338C9.33 9.07338 9.07 9.33338 8.75 9.33338C8.43 9.33338 8.17 9.07338 8.17 8.75338ZM13.83 11.0734C15.51 12.4634 16.33 14.3234 16.39 15.4534C16.41 15.8834 16.32 16.1334 16.23 16.2234C16.14 16.3134 15.89 16.4034 15.46 16.3834C14.32 16.3334 12.47 15.5034 11.08 13.8234C10.25 12.8234 10.17 12.1734 10.1 11.5434C10.05 11.0934 9.99 10.6334 9.67 10.1434C9.87 10.0134 10.04 9.84338 10.17 9.64338C10.65 9.95338 11.12 10.0134 11.57 10.0734C12.2 10.1534 12.84 10.2234 13.85 11.0534L13.83 11.0734ZM11.07 3.66338C12.46 1.98338 14.32 1.16338 15.45 1.10338C15.88 1.08338 16.13 1.17338 16.22 1.26338C16.31 1.35338 16.4 1.60338 16.38 2.03338C16.33 3.17338 15.5 5.02338 13.82 6.41338C12.82 7.24338 12.17 7.32338 11.54 7.39338C11.09 7.44338 10.63 7.50338 10.14 7.82338C10.01 7.62338 9.84 7.45338 9.64 7.32338C9.95 6.84338 10.01 6.37338 10.07 5.92338C10.15 5.29338 10.22 4.65338 11.05 3.64338L11.07 3.66338ZM3.66 6.42338C1.99 5.04338 1.16 3.18338 1.11 2.05338C1.09 1.62338 1.18 1.37338 1.27 1.28338C1.36 1.19338 1.61 1.10338 2.04 1.12338C3.18 1.17338 5.03 2.00338 6.42 3.68338C7.25 4.68338 7.33 5.33338 7.4 5.96338C7.45 6.41338 7.51 6.87338 7.83 7.36338C7.63 7.49338 7.46 7.66338 7.33 7.86338C6.85 7.55338 6.38 7.49338 5.93 7.43338C5.3 7.35338 4.66 7.28338 3.65 6.45338L3.66 6.42338ZM1.11 15.4634C1.16 14.3234 1.99 12.4734 3.67 11.0834C4.67 10.2534 5.32 10.1734 5.95 10.1034C6.4 10.0534 6.86 9.99338 7.35 9.67338C7.48 9.87338 7.65 10.0434 7.85 10.1734C7.54 10.6534 7.48 11.1234 7.42 11.5734C7.34 12.2034 7.27 12.8434 6.44 13.8534C5.05 15.5334 3.19 16.3534 2.06 16.4134C1.63 16.4334 1.38 16.3434 1.29 16.2534C1.2 16.1634 1.11 15.9134 1.13 15.4834L1.11 15.4634Z" fill="#A7B0B9"/>
</svg>
