<svg width="32" height="32" viewBox="0 0 32 32" fill="none" xmlns="http://www.w3.org/2000/svg">
<path d="M30.1239 4.17222C31.0263 4.29222 31.8615 3.65584 31.9843 2.75359C32.0441 2.31509 31.9295 1.87953 31.6617 1.52722C31.394 1.17491 31.005 0.947969 30.5663 0.888219C30.319 0.854469 24.5454 0.127906 19.6841 4.46459C19.1501 4.20203 18.5635 4.06466 17.9525 4.06228C17.9458 2.40678 16.9 0.912656 15.3451 0.340906C14.9051 0.179469 14.443 0.0976562 13.9715 0.0976562H13.0675C10.8725 0.0976562 9.08677 1.88341 9.08677 4.07834C9.08677 4.38597 9.12252 4.68772 9.19014 4.97916C7.05833 5.05159 5.34608 6.80728 5.34608 8.95641C5.34608 9.91147 5.6777 10.8051 6.2672 11.5086C4.20658 11.6575 2.57514 13.3804 2.57514 15.4783C2.57514 17.6733 4.36114 19.459 6.55652 19.459C7.0577 19.4517 7.64308 19.4917 8.18864 19.3918C8.89402 19.9957 9.31883 20.9606 9.23652 21.9395C8.22727 22.205 7.28064 22.9422 6.76302 23.928C5.62102 23.1973 4.18527 23.1071 2.9707 23.6578C2.50752 23.1105 2.25552 22.4259 2.25552 21.698C2.25552 21.0243 2.47108 20.3862 2.87895 19.8525C3.03614 19.6468 2.99683 19.3526 2.79108 19.1953C2.58539 19.0382 2.29127 19.0775 2.13395 19.2832C1.60014 19.9818 1.31795 20.8168 1.31795 21.698C1.31795 22.6012 1.61483 23.4531 2.16233 24.1493C1.98214 24.2716 1.34433 24.9272 1.16414 25.1055C-0.388047 26.6577 -0.388047 29.1833 1.16414 30.7356C1.94027 31.5117 2.9597 31.8997 3.97914 31.8997C4.99858 31.8997 6.01802 31.5117 6.79414 30.7356L7.43339 30.0963C7.54508 29.9847 7.64777 29.8675 7.74333 29.7464C8.45333 30.3355 9.35227 30.6656 10.2856 30.6656C11.8429 30.6656 13.2231 29.7698 13.8742 28.411C14.5763 29.031 15.4973 29.4084 16.5053 29.4084C18.605 29.4084 20.329 27.7743 20.4754 25.7113C21.1905 26.31 22.0855 26.6375 23.0272 26.6375C25.1764 26.6375 26.932 24.9253 27.0045 22.7935C29.5188 23.3796 31.8866 21.4318 31.886 18.9161V18.012C31.886 15.822 30.109 14.0398 27.9213 14.031C27.9195 13.5589 27.836 13.097 27.6724 12.6578C27.5821 12.4152 27.3125 12.2918 27.0695 12.3822C26.8269 12.4725 26.7035 12.7424 26.7938 12.9851C26.9201 13.3242 26.9841 13.6815 26.9841 14.0471V14.9512C26.9841 16.6295 25.6187 17.995 23.9403 17.995C22.783 17.995 21.7201 17.3238 21.2118 16.2992C21.9815 15.4 22.2859 14.2371 22.1231 13.1293C22.3155 13.1576 22.5088 13.1724 22.7015 13.1724C23.7411 13.1724 24.7635 12.7662 25.5223 12.0073L26.1616 11.368C27.7138 9.81578 27.7138 7.29016 26.1616 5.73797C25.842 5.41834 25.4772 5.16041 25.0821 4.96872C27.7588 3.90228 30.101 4.16947 30.1239 4.17222ZM17.8586 22.824C17.2888 23.582 16.396 24.0362 15.4265 24.0362C13.7484 24.0362 12.3833 22.6707 12.3833 20.9923V20.4117C13.8491 20.2002 15.0743 19.1869 15.5638 17.8045C15.6025 17.8268 15.6411 17.8492 15.6804 17.8701C15.6383 18.0879 15.6511 19.0029 15.6498 19.2608C15.6498 20.8195 16.5507 22.171 17.8586 22.824ZM11.8995 19.5148C11.926 19.5177 10.904 19.516 10.9067 19.5164C9.2287 19.5164 7.86352 18.1513 7.86352 16.4726C7.86352 15.4853 8.32977 14.584 9.1077 14.017C9.73908 15.383 11.1215 16.3337 12.7226 16.3337C13.1226 16.3275 13.6642 16.3531 14.0803 16.3071C14.214 16.5437 14.4727 16.9173 14.7669 17.2C14.4453 18.5158 13.2775 19.4746 11.8995 19.5148ZM13.7072 15.3941C11.431 15.6118 9.77983 14.5295 9.67945 12.353C9.67945 10.6746 11.0446 9.30916 12.7226 9.30916H13.2569C13.5421 10.1622 14.1108 10.899 14.8778 11.3918C13.7656 12.3917 13.3225 14.0154 13.7072 15.3941ZM15.5704 10.7135C13.8754 9.85009 13.4332 7.30591 14.85 5.92284C15.4273 5.32741 16.2023 4.99947 17.0323 4.99947H17.9365C18.7874 5.01228 19.6186 5.34503 20.2275 6.04203L19.8922 6.37728C18.9955 7.27416 18.591 8.54478 18.7699 9.77416C17.721 9.59678 16.3948 9.95934 15.5704 10.7135ZM13.0674 1.03516H13.9715C14.3325 1.03516 14.6859 1.09772 15.0218 1.22091C16.2091 1.65753 17.0083 2.79809 17.015 4.06234C15.9356 4.06691 14.9283 4.49522 14.1775 5.26953C13.6698 5.79103 13.3222 6.42934 13.1585 7.12216C11.5094 7.20684 9.99283 5.74934 10.0242 4.07834C10.0242 2.40028 11.3893 1.03516 13.0674 1.03516ZM9.32664 5.91322H9.53452C10.165 7.15459 11.5625 8.07128 13.0512 8.05928C13.0516 8.16416 13.0563 8.26828 13.0648 8.37159H12.7226C10.7408 8.37159 9.0932 9.82759 8.79164 11.7261C8.42864 11.5975 8.04727 11.5218 7.66027 11.5025C6.79658 10.9372 6.28345 9.99459 6.28345 8.95641C6.28352 7.27834 7.64864 5.91322 9.32664 5.91322ZM6.55639 18.5215C4.87808 18.5215 3.51258 17.1563 3.51258 15.4783C3.51258 13.7999 4.87802 12.4345 6.55639 12.4345C7.26083 12.4291 8.06708 12.3849 8.75995 12.7264C8.77139 12.8487 8.78877 12.9692 8.81102 13.088C7.63964 13.8105 6.92595 15.0757 6.92595 16.4732C6.92595 17.2214 7.13377 17.9218 7.4942 18.5204C7.46827 18.5232 6.62602 18.5206 6.55639 18.5215ZM9.94095 20.3348C10.2503 20.4122 10.5737 20.4539 10.9067 20.4539H11.4457C11.4393 20.9477 11.4363 21.484 11.5791 22.0137C11.2295 21.8958 10.6774 21.7816 10.1816 21.802C10.196 21.3894 10.1222 20.8364 9.94095 20.3348ZM6.77033 29.4334L6.13108 30.0727C4.94452 31.2593 3.01364 31.2593 1.82689 30.0727C0.640266 28.886 0.640266 26.9551 1.82689 25.7685L2.46614 25.1292C3.63708 23.9512 5.59202 23.9503 6.77033 25.1292C7.95695 26.3159 7.95695 28.2468 6.77033 29.4334ZM10.2855 29.7281C9.52614 29.7281 8.79608 29.4426 8.2387 28.9362C8.89427 27.498 8.64952 25.7478 7.50583 24.5426C7.9412 23.5175 9.09395 22.7161 10.2855 22.737C11.1825 22.737 12.0115 23.1201 12.5913 23.7942C12.5076 24.1259 12.5242 25.0496 12.5245 25.427C12.5245 26.2355 12.7673 26.988 13.183 27.6167C12.782 28.8695 11.6188 29.7281 10.2855 29.7281ZM16.5052 28.4709C14.8272 28.4709 13.462 27.1055 13.462 25.4271C13.4636 25.3086 13.4586 24.5464 13.4642 24.4543C14.0438 24.7842 14.7133 24.9737 15.4265 24.9737C16.794 24.9737 18.0447 24.2827 18.7746 23.1479C18.8763 23.1703 18.9793 23.1887 19.0836 23.2031C19.154 23.873 19.6906 24.6847 19.5491 25.4271C19.549 27.1054 18.1836 28.4709 16.5052 28.4709ZM23.0271 25.7C21.5464 25.6934 20.3169 24.6672 20.0351 23.2211C22.0411 23.0178 23.6119 21.3193 23.6119 19.2608V18.9183C23.7061 18.9229 23.8303 18.9406 24.1557 18.9265C25.8951 19.6682 26.1546 21.1798 26.0703 22.6568C26.0703 24.3348 24.7051 25.7 23.0271 25.7ZM27.9211 14.9687C29.5918 14.9773 30.9483 16.339 30.9483 18.012V18.9162C30.9707 20.9173 28.9487 22.4325 27.0078 21.8253C27.04 20.607 26.4328 19.3621 25.4831 18.6213C26.9093 18.0195 27.914 16.6097 27.9211 14.9687ZM22.6743 18.7223V19.2609C22.6743 20.9389 21.3088 22.3041 19.6305 22.3041C17.9525 22.3041 16.5873 20.939 16.5873 19.2609C16.5901 18.919 16.5816 18.5245 16.5911 18.2178C17.9362 18.5795 19.5758 18.0844 20.5287 17.0009C21.0186 17.8114 21.7858 18.421 22.6743 18.7223ZM20.3388 15.8649L20.3355 15.8683L20.3332 15.8705L19.6995 16.5041C18.5753 17.6597 16.6023 17.7016 15.3954 16.5041C14.2088 15.3175 14.2088 13.3866 15.3954 12.1999C15.6878 11.9043 15.768 11.8322 16.0486 11.5473C16.6219 10.9812 17.3802 10.6693 18.1867 10.6692C18.9997 10.6692 19.764 10.9858 20.3388 11.5607C21.5255 12.7474 21.5255 14.6783 20.3388 15.8649ZM25.4986 10.7051L24.8593 11.3443C24.0653 12.1383 22.8946 12.427 21.8281 12.1064C21.6352 11.6677 21.3605 11.2566 21.0018 10.8979C20.6475 10.5436 20.2377 10.2654 19.7926 10.0691C19.4737 9.00397 19.7638 7.83172 20.5552 7.04028L21.1945 6.40103C22.2888 5.25547 24.3493 5.20216 25.4986 6.40103C26.6853 7.58759 26.6853 9.51847 25.4986 10.7051ZM23.3465 4.57203C22.4541 4.57203 21.6072 4.86466 20.9133 5.40284C20.8388 5.32628 20.7856 5.24541 20.4976 4.99816C24.9977 1.13009 30.2136 1.78641 30.4398 1.81722C30.6302 1.84316 30.799 1.94166 30.9153 2.09466C31.0316 2.24759 31.0813 2.43666 31.0553 2.62709C31.002 3.01884 30.64 3.29541 30.2436 3.24247C30.1109 3.22591 26.9917 2.86216 23.6663 4.58584C23.5605 4.57734 23.4539 4.57203 23.3465 4.57203Z" fill="#B17C57"/>
</svg>
