<svg width="32" height="33" viewBox="0 0 32 33" fill="none" xmlns="http://www.w3.org/2000/svg">
<path d="M29.0089 19.5078C30.6583 19.5078 32 18.1661 32 16.5167C32 14.8672 30.6583 13.5266 29.0089 13.5266C27.3594 13.5266 26.0845 14.8036 26.0219 16.3978L23.2081 16.7942C22.4215 15.1218 20.7209 13.9617 18.7533 13.9617C18.7021 13.9617 18.651 13.9627 18.5999 13.9648L18.0751 11.2877C19.8059 10.79 21.085 9.21153 21.1299 7.33359L24.4194 5.77282C24.4997 5.85837 24.5863 5.9387 24.6792 6.01278C25.1341 6.37898 25.6881 6.57303 26.264 6.57303C26.3558 6.57303 26.4486 6.56781 26.5415 6.55842C27.2154 6.48539 27.8206 6.15467 28.2452 5.62676C28.6698 5.09885 28.8628 4.43636 28.7908 3.76343C28.7178 3.08946 28.386 2.48435 27.8581 2.05973C27.3302 1.63511 26.6698 1.4421 25.9948 1.51513C25.3219 1.58816 24.7167 1.91888 24.2921 2.44679C23.8675 2.9747 23.6745 3.63615 23.7475 4.31012C23.7611 4.43427 23.783 4.55529 23.8132 4.67423L20.9567 6.02947C20.4382 4.28508 18.82 3.01017 16.9108 3.01017C14.5832 3.01017 12.6896 4.90375 12.6896 7.23135C12.6896 9.55894 14.5394 11.4066 16.8305 11.4504H16.8315L17.3636 14.162C15.7632 14.6335 14.4997 15.8991 14.0313 17.5005L8.85029 16.4249C8.87533 16.2329 8.88889 16.0378 8.88889 15.8385C8.88889 13.3878 6.89515 11.3941 4.44444 11.3941C1.99374 11.3941 0 13.3878 0 15.8385C0 18.2893 1.99374 20.283 4.44444 20.283C6.25665 20.283 7.81951 19.1927 8.51017 17.633L13.8362 18.7389C13.8352 18.7869 13.8341 18.8349 13.8341 18.8818C13.8341 20.3299 14.4632 21.6341 15.4627 22.5344L13.108 26.5918C12.8868 26.5334 12.6552 26.5031 12.4152 26.5031C10.8899 26.5031 9.64945 27.7436 9.64945 29.27C9.64945 30.7963 10.8899 32.0357 12.4152 32.0357C13.9405 32.0357 15.1821 30.7952 15.1821 29.27C15.1821 28.4322 14.8086 27.681 14.2191 27.174L16.4966 23.2512C17.1727 23.6028 17.9405 23.801 18.7543 23.801C20.0751 23.801 21.278 23.2773 22.1617 22.4259L23.6046 24.0295C23.0235 24.6784 22.6698 25.5349 22.6698 26.4729C22.6698 28.4948 24.3151 30.1401 26.337 30.1401C28.3589 30.1401 30.0042 28.4948 30.0042 26.4729C30.0042 24.451 28.3589 22.8057 26.337 22.8057C25.7047 22.8057 25.108 22.9664 24.5884 23.2501L22.9567 21.4369C23.4126 20.692 23.6745 19.8166 23.6745 18.8818C23.6745 18.5824 23.6474 18.2893 23.5962 18.0044L26.2368 17.633C26.6781 18.7316 27.7559 19.5089 29.0099 19.5089L29.0089 19.5078ZM29.0089 14.7786C29.9677 14.7786 30.748 15.5589 30.748 16.5167C30.748 17.4744 29.9677 18.2559 29.0089 18.2559C28.0501 18.2559 27.2707 17.4755 27.2707 16.5167C27.2707 15.5579 28.0511 14.7786 29.0089 14.7786ZM16.9108 3.95957C17.0746 3.95957 17.2071 4.09207 17.2071 4.25587C17.2071 4.41966 17.0746 4.55216 16.9108 4.55216C15.4324 4.55216 14.2306 5.75404 14.2306 7.23239C14.2306 7.39619 14.0981 7.52869 13.9343 7.52869C13.7705 7.52869 13.638 7.39619 13.638 7.23239C13.638 5.42749 15.1059 3.95957 16.9108 3.95957ZM25.2676 3.23239C25.4825 2.96531 25.7893 2.79734 26.1304 2.76082C26.1774 2.75561 26.2243 2.75248 26.2713 2.75248C26.5623 2.75248 26.843 2.85159 27.0736 3.03625C27.3406 3.25222 27.5086 3.5579 27.5451 3.89906C27.5827 4.24022 27.4846 4.57512 27.2697 4.8422C27.0548 5.11033 26.748 5.27725 26.4069 5.31481C26.0657 5.35133 25.7308 5.25326 25.4637 5.03834C25.1967 4.82342 25.0287 4.51669 24.9922 4.17553C24.9546 3.83437 25.0527 3.49948 25.2676 3.23239ZM12.4142 27.1395C12.5216 27.1395 12.6072 27.2261 12.6072 27.3325C12.6072 27.439 12.5216 27.5256 12.4142 27.5256C11.4523 27.5256 10.6698 28.308 10.6698 29.271C10.6698 29.3774 10.5832 29.464 10.4768 29.464C10.3704 29.464 10.2838 29.3774 10.2838 29.271C10.2838 28.0952 11.2394 27.1395 12.4142 27.1395ZM26.3359 23.6361C26.4778 23.6361 26.5926 23.7509 26.5926 23.8928C26.5926 24.0347 26.4778 24.1505 26.3359 24.1505C26.0522 24.1505 25.7788 24.2016 25.5274 24.2955C25.1236 24.4457 24.772 24.7055 24.5112 25.0383C24.1993 25.4337 24.0125 25.9324 24.0125 26.4739C24.0125 26.6158 23.8967 26.7306 23.7548 26.7306C23.6129 26.7306 23.4982 26.6158 23.4982 26.4739C23.4982 25.7801 23.7486 25.1437 24.1628 24.6513C24.434 24.3279 24.7752 24.067 25.1633 23.8907C25.5201 23.7269 25.9176 23.6361 26.3359 23.6361ZM15.6244 18.8829C15.6244 19.0738 15.469 19.2293 15.278 19.2293C15.0871 19.2293 14.9317 19.0738 14.9317 18.8829C14.9317 17.1854 16.0428 15.7436 17.5764 15.247C17.9468 15.126 18.3432 15.0613 18.7533 15.0613C18.7752 15.0613 18.796 15.0634 18.8159 15.0676C18.9776 15.0968 19.0996 15.2366 19.0996 15.4066C19.0996 15.5986 18.9452 15.753 18.7533 15.753C17.0287 15.753 15.6244 17.1573 15.6244 18.8829ZM4.44444 19.0321C2.6844 19.0321 1.25196 17.5996 1.25196 15.8396C1.25196 14.0795 2.6844 12.6471 4.44444 12.6471C6.20449 12.6471 7.63693 14.0795 7.63693 15.8396C7.63693 17.5996 6.20449 19.0321 4.44444 19.0321Z" fill="#B17C57"/>
</svg>
