<svg width="24" height="25" viewBox="0 0 24 25" fill="none" xmlns="http://www.w3.org/2000/svg">
<path d="M12 0.5C5.37234 0.5 0 5.87234 0 12.5C0 19.1277 5.37234 24.5 12 24.5C18.6272 24.5 24 19.1277 24 12.5C24 5.87234 18.6277 0.5 12 0.5ZM18.0637 12.8647H17.5697V17.8958C17.5697 18.4264 17.1394 18.8572 16.6083 18.8572H13.8539V15.6078C13.8539 15.0959 13.6462 14.6323 13.3106 14.2967C12.9755 13.9616 12.5119 13.7539 12 13.7539C10.9762 13.7539 10.1461 14.5836 10.1461 15.6078V18.8572H7.39172C6.86063 18.8572 6.43031 18.4264 6.43031 17.8958V12.8647H5.93625C5.03438 12.8647 4.62469 11.7378 5.31609 11.1584L10.7648 6.59188C11.4797 5.99328 12.5203 5.99328 13.2352 6.59188L18.6839 11.1584C19.3753 11.7378 18.9656 12.8647 18.0637 12.8647Z" fill="#F7C187"/>
</svg>
