<svg width="29" height="32" viewBox="0 0 29 32" fill="none" xmlns="http://www.w3.org/2000/svg">
<path d="M18.4633 26.3699C17.9164 25.753 17.3176 25.1726 16.6836 24.6448C16.0914 24.1517 15.6931 23.462 15.5622 22.7026C15.4222 21.8899 15.219 21.0812 14.9582 20.2989L14.9139 20.1661C14.8502 19.9747 14.6711 19.8455 14.4693 19.8455C14.2676 19.8455 14.0884 19.9745 14.0246 20.166L13.9802 20.2988C13.7377 21.0266 13.5446 21.7782 13.4064 22.5329C13.3597 22.7875 13.5284 23.0317 13.783 23.0784C14.0376 23.1251 14.2819 22.9564 14.3286 22.7017C14.3702 22.4743 14.4171 22.2472 14.4692 22.0209C14.5334 22.3 14.5899 22.5806 14.6383 22.8617C14.807 23.8407 15.3204 24.7298 16.0837 25.3653C16.303 25.5479 16.5178 25.7371 16.7274 25.9322C16.4536 25.8483 16.1823 25.7569 15.9146 25.6583C14.9825 25.3149 13.9559 25.3149 13.0238 25.6583C12.7561 25.7569 12.4847 25.8483 12.211 25.9322C12.4206 25.7371 12.6353 25.5479 12.8546 25.3654C13.0169 25.2303 13.1702 25.0815 13.3102 24.9232C13.4818 24.7292 13.4636 24.433 13.2697 24.2615C13.0757 24.09 12.7795 24.1081 12.6081 24.3021C12.4995 24.4248 12.3807 24.5401 12.2548 24.6448C11.6209 25.1726 11.0221 25.7529 10.4752 26.3697L10.3823 26.4745C10.2484 26.6254 10.2261 26.8452 10.327 27.0199C10.4279 27.1947 10.6291 27.2852 10.8269 27.2449L10.9641 27.2168C11.7717 27.0516 12.5737 26.8232 13.3479 26.5381C14.071 26.2717 14.8675 26.2717 15.5906 26.5381C16.3647 26.8232 17.1667 27.0516 17.9743 27.2168L18.1115 27.2449C18.3094 27.2852 18.5107 27.1946 18.6114 27.0199C18.7123 26.8452 18.69 26.6254 18.5561 26.4745L18.4633 26.3699Z" fill="#B17C57"/>
<path d="M4.85068 9.26525L4.72543 9.20263C4.54493 9.11238 4.32699 9.14775 4.18436 9.29037C4.04168 9.43306 4.0063 9.65106 4.09655 9.8315L4.15918 9.95675C4.52786 10.6942 4.95605 11.4097 5.43174 12.0835C5.87618 12.7131 6.08236 13.4824 6.01224 14.2498C5.93718 15.0711 5.92411 15.9048 5.97355 16.7279L5.98193 16.8677C5.99399 17.0691 6.13361 17.2402 6.32849 17.2924C6.52368 17.3448 6.72999 17.2661 6.84099 17.0979L6.91818 16.9811C7.37255 16.2929 7.77818 15.5644 8.1238 14.8156C8.44674 14.1159 9.00993 13.5527 9.70968 13.2298C10.4583 12.8842 11.1869 12.4786 11.8751 12.0242L11.992 11.9471C12.1604 11.8359 12.2387 11.6294 12.1865 11.4346C12.1342 11.2396 11.9632 11.1 11.7617 11.088L11.6221 11.0796C10.7991 11.0303 9.9653 11.0431 9.14392 11.1182C8.3763 11.1882 7.60718 10.9823 6.97761 10.5378C6.30374 10.0621 5.58818 9.63394 4.85068 9.26525ZM9.22924 12.0519C9.5133 12.0259 9.79905 12.0078 10.0852 11.9976C9.8323 12.1319 9.5758 12.2591 9.3168 12.3787C8.41493 12.7949 7.68899 13.5209 7.27268 14.4228C7.15311 14.6818 7.02593 14.9382 6.89168 15.1912C6.90186 14.9051 6.91999 14.6193 6.94593 14.3352C7.03636 13.3461 6.77061 12.3544 6.19774 11.5429C6.03317 11.3099 5.87468 11.0714 5.72274 10.8287C5.96543 10.9807 6.2038 11.1392 6.43686 11.3038C7.2483 11.8766 8.23986 12.1422 9.22924 12.0519Z" fill="#B17C57"/>
<path d="M16.7521 13.9104C16.8043 14.1054 16.9754 14.245 17.1768 14.257L17.3164 14.2654C18.1395 14.3148 18.9734 14.3019 19.7946 14.2267C20.5624 14.1567 21.3314 14.3627 21.9609 14.8072C22.6343 15.2826 23.3499 15.7108 24.0877 16.0798L24.213 16.1424C24.3942 16.233 24.6121 16.1966 24.7541 16.0546C24.8967 15.9119 24.9321 15.6939 24.8419 15.5135L24.7792 15.3882C24.4106 14.6508 23.9824 13.9352 23.5067 13.2614C23.0622 12.632 22.8561 11.8626 22.9262 11.0952C23.0012 10.2739 23.0143 9.44025 22.9649 8.61706L22.9565 8.47731C22.9444 8.27587 22.8048 8.10481 22.6099 8.05262C22.415 8.00025 22.2086 8.07869 22.0974 8.24706L22.0202 8.36387C21.5658 9.05212 21.1602 9.78069 20.8146 10.5294C20.4917 11.2291 19.9284 11.7922 19.2287 12.1152C18.4801 12.4608 17.7514 12.8664 17.0633 13.3208L16.9464 13.3979C16.7781 13.5091 16.6998 13.7156 16.7521 13.9104ZM19.6217 12.9664C20.5236 12.5501 21.2496 11.8242 21.6659 10.9222C21.7855 10.6632 21.9127 10.4068 22.0469 10.1538C22.0367 10.4401 22.0186 10.7257 21.9927 11.0098C21.9022 11.9991 22.168 12.9907 22.7409 13.8021C22.9054 14.0352 23.0639 14.2736 23.2159 14.5163C22.9731 14.3644 22.7347 14.2059 22.5017 14.0413C21.6628 13.4491 20.6642 13.2057 19.7094 13.2931C19.4252 13.3191 19.1395 13.3372 18.8533 13.3474C19.1063 13.2131 19.3627 13.0859 19.6217 12.9664Z" fill="#B17C57"/>
<path d="M28.6039 23.8629C27.8063 22.9634 26.9709 22.076 26.1208 21.2253C25.9378 21.0421 25.6411 21.0421 25.4579 21.2251C25.2748 21.4081 25.2747 21.7049 25.4577 21.888C26.0838 22.5145 26.7019 23.1614 27.3024 23.8184C25.3237 23.3821 23.3543 22.8421 21.4329 22.2086C21.1427 21.376 20.7072 20.6109 20.1569 19.9439C21.1599 20.111 22.2259 20.0735 23.2614 19.7987C23.4589 19.9773 23.6559 20.1577 23.8493 20.3374C24.039 20.5136 24.3356 20.5025 24.5117 20.3128C24.6879 20.1231 24.6769 19.8266 24.4872 19.6503C24.4155 19.5837 24.3432 19.5169 24.2707 19.4502C26.8986 18.3221 28.7437 15.7087 28.7437 12.6724C28.7437 8.60775 25.4368 5.30094 21.3722 5.30094C19.6639 5.30094 18.0895 5.88506 16.8381 6.864C16.3709 4.69694 15.7812 2.54006 15.0816 0.441125C14.9934 0.177313 14.7474 0 14.4692 0C14.1911 0 13.9451 0.177313 13.857 0.44125C13.1579 2.53844 12.5686 4.6935 12.1016 6.85875C11.5217 6.40581 10.8744 6.04075 10.1759 5.77625C9.93374 5.68488 9.66317 5.80656 9.57155 6.04869C9.47993 6.29081 9.60186 6.56138 9.84399 6.65306C12.3301 7.59425 14.0005 10.0133 14.0005 12.6725C14.0005 16.2203 11.1142 19.1066 7.56649 19.1066C4.0188 19.1066 1.13243 16.2202 1.13243 12.6725C1.13243 9.12475 4.01874 6.2385 7.56642 6.2385C7.66167 6.2385 7.75861 6.24062 7.85461 6.24494C8.11305 6.25687 8.33218 6.05594 8.34355 5.79725C8.35499 5.53862 8.15455 5.31969 7.89593 5.30831C7.78624 5.3035 7.67536 5.30106 7.56642 5.30106C3.50174 5.30106 0.194925 8.60787 0.194925 12.6726C0.194925 15.7088 2.04011 18.3222 4.66799 19.4503C3.15286 20.8442 1.69761 22.3258 0.33455 23.8629C0.149988 24.0711 0.119425 24.3728 0.258488 24.6138C0.3968 24.8534 0.672363 24.9794 0.9468 24.9234C3.05693 24.4916 5.16324 23.9419 7.22011 23.2867C7.13974 23.7219 7.09774 24.1704 7.09774 24.6286C7.09774 28.6932 10.4046 32 14.4692 32C18.5339 32 21.8408 28.6932 21.8408 24.6285C21.8408 24.1704 21.7988 23.7219 21.7184 23.2866C23.7754 23.9418 25.8817 24.4915 27.9919 24.9233C28.2611 24.9786 28.5395 24.8571 28.68 24.6137C28.8191 24.3727 28.7885 24.071 28.6039 23.8629ZM27.8061 12.6725C27.8061 16.2203 24.9197 19.1066 21.3721 19.1066C17.8243 19.1066 14.938 16.2202 14.938 12.6725C14.938 9.12475 17.8243 6.2385 21.3721 6.2385C24.9197 6.23844 27.8061 9.12475 27.8061 12.6725ZM12.9058 7.58875C13.3217 5.57069 13.8464 3.55806 14.4692 1.59069C15.0927 3.55981 15.6177 5.57412 16.0337 7.59394C15.3581 8.30387 14.8221 9.14794 14.4704 10.0816C14.1134 9.13075 13.5678 8.28537 12.9058 7.58875ZM14.4692 15.2602C14.758 16.0279 15.1713 16.7352 15.6845 17.3571C14.9019 17.2267 14.0747 17.2204 13.2539 17.3571C13.7672 16.7351 14.1805 16.0279 14.4692 15.2602ZM1.63618 23.8184C2.91655 22.4177 4.27218 21.0693 5.67724 19.7987C6.71043 20.0729 7.77643 20.1114 8.78174 19.9439C8.23136 20.6109 7.79586 21.376 7.50574 22.2086C5.58424 22.8421 3.6148 23.3821 1.63618 23.8184ZM14.4692 31.0625C10.9215 31.0625 8.03524 28.1762 8.03524 24.6285C8.03524 21.0808 10.9215 18.1944 14.4692 18.1944C18.017 18.1944 20.9033 21.0807 20.9033 24.6284C20.9033 28.1761 18.017 31.0625 14.4692 31.0625Z" fill="#B17C57"/>
</svg>
