<svg width="32" height="32" viewBox="0 0 32 32" fill="none" xmlns="http://www.w3.org/2000/svg">
<path d="M14.918 8.625H14.0761L14.8695 3.67806C14.9259 3.32619 14.6862 2.98969 14.3354 2.92794L12.6515 2.631V0.65625C12.6515 0.294375 12.3572 0 11.9953 0H9.76255C9.40067 0 9.1063 0.294375 9.1063 0.65625V1.58119C8.99442 1.55044 8.87518 1.54862 8.76193 1.579L6.60561 2.15675C6.26343 2.24844 6.05693 2.59069 6.13549 2.93613L7.12893 7.30694L6.00593 7.71575C5.66836 7.8385 5.49374 8.20138 5.60836 8.54181L9.10636 18.932V28.3616C8.93849 28.5979 8.84774 28.8798 8.84774 29.1733V30.5938C8.84774 31.3691 9.47855 32 10.254 32H11.504C12.2794 32 12.9102 31.3691 12.9102 30.5938V29.1733C12.9102 28.8797 12.8195 28.5979 12.6516 28.3615V18.9254L13.6569 15.6419C13.7327 15.3944 13.5935 15.1323 13.3459 15.0565C13.0981 14.9808 12.8362 15.1199 12.7605 15.3676L11.8361 18.3866H10.2119L12.9582 9.5625H14.5377L13.4008 13.2758C13.325 13.5233 13.4642 13.7854 13.7118 13.8612C13.9595 13.9368 14.2214 13.7977 14.2972 13.5502L15.5455 9.47338C15.6061 9.27525 15.5688 9.05762 15.4456 8.89106C15.3224 8.72444 15.1252 8.625 14.918 8.625ZM10.0438 0.9375H11.714V2.60794C11.6895 2.62112 11.6653 2.63538 11.6422 2.65181C11.4978 2.75463 11.4028 2.90756 11.3748 3.08256L10.7243 7.13863L10.0438 4.14469V0.9375ZM11.8431 28.8509C11.9267 28.9388 11.9727 29.0532 11.9727 29.1733V30.5938C11.9727 30.8522 11.7624 31.0625 11.5039 31.0625H10.2539C9.99542 31.0625 9.78517 30.8522 9.78517 30.5938V29.1733C9.78517 29.0532 9.83118 28.9388 9.91474 28.8509C9.99761 28.7637 10.0438 28.6481 10.0438 28.5279V25.75H11.714V28.5279C11.714 28.6481 11.7602 28.7638 11.8431 28.8509ZM11.714 19.3241V24.8125H10.0437V19.3241H11.714ZM9.55755 17.3341L6.58436 8.50275L7.99805 7.98825L10.3294 14.8544L9.55755 17.3341ZM10.8028 13.3331L8.79336 7.41481C8.73618 7.24625 8.6163 7.111 8.45586 7.03394C8.31755 6.96763 8.16449 6.95219 8.01774 6.98794L7.10961 2.99225L8.72224 2.56019L11.0155 12.6498L10.8028 13.3331ZM13.1266 8.625H12.7511C12.4622 8.625 12.2104 8.81038 12.1246 9.08625L11.5711 10.8646L11.2809 9.58794L12.2552 3.51312L13.8999 3.80319L13.1266 8.625Z" fill="#B17C57"/>
<path d="M25.996 5.90325C25.9799 5.89738 25.9635 5.89244 25.9469 5.88837L23.9394 5.39813C23.7785 5.34894 23.6027 5.36331 23.4519 5.43925C23.291 5.52019 23.1692 5.66563 23.1179 5.83813L22.8055 6.88656V5.625C22.8055 5.36606 22.5956 5.15625 22.3367 5.15625C22.0779 5.15625 21.868 5.36606 21.868 5.625V10.0335L21.1972 12.2853L20.1978 8.23825V2H21.8681V3.4375C21.8681 3.69644 22.0779 3.90625 22.3368 3.90625C22.5957 3.90625 22.8056 3.69644 22.8056 3.4375V1.71875C22.8056 1.35687 22.5112 1.0625 22.1493 1.0625H19.9166C19.5547 1.0625 19.2603 1.35687 19.2603 1.71875V4.44175L18.8522 2.78919C18.8521 2.78831 18.8518 2.7875 18.8516 2.78662C18.8062 2.60706 18.6863 2.45438 18.5226 2.36769C18.3659 2.28456 18.1815 2.26888 18.0133 2.32319L15.9557 2.89713C15.9441 2.90037 15.9327 2.904 15.9214 2.90812C15.6056 3.023 15.4281 3.35563 15.5086 3.68181L19.2603 18.9121V28.3615C19.0924 28.5979 19.0017 28.8797 19.0017 29.1733V30.5938C19.0017 31.3691 19.6325 32 20.4079 32H21.6579C22.4334 32 23.0642 31.3691 23.0642 30.5938V29.1733C23.0642 28.8797 22.9734 28.5979 22.8056 28.3615V23.6875C22.8056 23.4286 22.5957 23.2188 22.3368 23.2188C22.0779 23.2188 21.8681 23.4286 21.8681 23.6875V24.8125H20.1978V19.3241H21.8681V21.5C21.8681 21.7589 22.0779 21.9688 22.3368 21.9688C22.5957 21.9688 22.8056 21.7589 22.8056 21.5V18.9228L26.4012 6.70494C26.4012 6.70512 26.4013 6.70475 26.4012 6.70494C26.4982 6.37381 26.3203 6.02131 25.996 5.90325ZM21.8681 25.75V28.5279C21.8681 28.6481 21.9142 28.7637 21.9971 28.8509C22.0807 28.9388 22.1267 29.0532 22.1267 29.1733V30.5938C22.1267 30.8522 21.9164 31.0625 21.6579 31.0625H20.4079C20.1494 31.0625 19.9392 30.8522 19.9392 30.5938V29.1733C19.9392 29.0532 19.9852 28.9388 20.0687 28.8509C20.1516 28.7637 20.1978 28.6481 20.1978 28.5279V25.75H21.8681ZM20.0964 18.3866L16.4842 3.723L18.0119 3.29694L21.7382 18.3866H20.0964ZM22.3764 17.0604L21.6406 14.0808L23.9397 6.36331L25.4182 6.72431L22.3764 17.0604Z" fill="#B17C57"/>
</svg>
