<svg width="32" height="32" viewBox="0 0 32 32" fill="none" xmlns="http://www.w3.org/2000/svg">
<path d="M28.2046 27.3907C29.1649 27.297 30.0728 26.8314 30.7058 26.0631C31.6235 24.9491 31.8083 23.3897 31.1764 22.0906C31.0969 21.9273 30.9505 21.8066 30.7751 21.7599C29.3791 21.3884 27.8839 21.8681 26.9661 22.9821C26.7002 23.3049 26.4962 23.6653 26.3554 24.0457C25.9142 23.1319 25.5135 22.201 25.1553 21.2547C25.356 21.2878 25.5589 21.3046 25.7617 21.3046C26.4871 21.3046 27.2116 21.0928 27.8344 20.6716C29.03 19.863 29.6486 18.4198 29.4104 16.9949C29.3804 16.8159 29.2741 16.6587 29.1191 16.5643C27.8853 15.8126 26.3156 15.8494 25.1199 16.6581C24.6789 16.9563 24.3167 17.3411 24.0467 17.7794C23.8334 16.9651 23.6494 16.1424 23.4955 15.3123C23.6201 15.3249 23.7448 15.3319 23.8693 15.3319C24.8354 15.3319 25.7852 14.9546 26.49 14.2498C27.5106 13.2292 27.8444 11.6949 27.3403 10.3409C27.2769 10.1708 27.1428 10.0366 26.9727 9.97331C25.6187 9.46931 24.0845 9.803 23.0638 10.8236C23.0303 10.8572 22.9975 10.8914 22.9654 10.9261C22.9341 10.3793 22.9168 9.83031 22.9108 9.27969C25.4696 7.94144 27.1021 5.27225 27.1021 2.36675C27.1021 2.02156 26.8223 1.74175 26.4771 1.74175C26.1319 1.74175 25.8521 2.02156 25.8521 2.36675C25.8521 3.70994 25.4362 4.99294 24.7043 6.06281C24.6924 4.77094 24.0015 3.58125 22.9072 2.92375V0.625C22.9072 0.279813 22.6274 0 22.2822 0C21.937 0 21.6572 0.279813 21.6572 0.625V2.92369C20.5629 3.58119 19.872 4.77094 19.8602 6.06281C19.1282 4.99294 18.7123 3.70994 18.7123 2.36675C18.7123 2.02156 18.4325 1.74175 18.0873 1.74175C17.7421 1.74175 17.4623 2.02156 17.4623 2.36675C17.4623 5.275 19.0979 7.9465 21.6609 9.2835C21.666 9.76856 21.6805 10.2522 21.7046 10.7345C20.6063 9.91719 19.1286 9.77063 17.8858 10.3703C17.7223 10.4492 17.6011 10.5953 17.5539 10.7706C17.1779 12.1655 17.653 13.6621 18.7642 14.5833C19.4397 15.1433 20.2805 15.433 21.1284 15.433C21.4943 15.433 21.8613 15.3777 22.2171 15.2683C22.3268 15.8868 22.4516 16.5016 22.5931 17.1119C22.5159 17.0733 22.4372 17.0372 22.3568 17.0039C21.0232 16.4513 19.4779 16.7301 18.42 17.7138C18.2871 17.8374 18.2144 18.0127 18.2209 18.1941C18.2733 19.6379 19.1687 20.9277 20.5022 21.4802C20.9571 21.6687 21.4368 21.7604 21.9133 21.7604C22.5789 21.7604 23.2381 21.5805 23.8159 21.2361C24.1678 22.2055 24.5607 23.1605 24.996 24.0981C24.8097 24.0496 24.6184 24.0149 24.4233 23.996C22.9866 23.8572 21.5901 24.5752 20.8657 25.8251C20.7746 25.9822 20.7564 26.1711 20.8157 26.3427C21.2876 27.7082 22.5208 28.6801 23.9574 28.8189C24.0756 28.8303 24.1936 28.8359 24.3109 28.8359C25.3054 28.8359 26.2549 28.4316 26.9453 27.7341C27.3085 28.3274 27.6896 28.9119 28.0888 29.4867C28.2102 29.6616 28.4048 29.7553 28.6027 29.7553C28.7257 29.7553 28.8499 29.719 28.9586 29.6436C29.2422 29.4467 29.3124 29.0573 29.1155 28.7738C28.7998 28.3189 28.497 27.8574 28.2046 27.3907ZM27.9308 23.7769C28.4756 23.1156 29.3281 22.7923 30.1649 22.9094C30.4404 23.7085 30.2858 24.6069 29.7409 25.2682C29.1961 25.9295 28.3438 26.2531 27.5069 26.1357C27.2314 25.3368 27.386 24.4382 27.9308 23.7769ZM25.8202 17.6934C26.5299 17.2134 27.4389 17.1443 28.2084 17.4939C28.2464 18.3383 27.8438 19.1562 27.1341 19.6362C26.4243 20.1162 25.5154 20.1853 24.7458 19.8357C24.7078 18.9914 25.1104 18.1734 25.8202 17.6934ZM23.9478 11.7075C24.5536 11.1017 25.4331 10.8613 26.2548 11.0588C26.4523 11.8806 26.212 12.7601 25.6061 13.3659C25.0003 13.9718 24.1208 14.2121 23.299 14.0146C23.1016 13.1928 23.3418 12.3134 23.9478 11.7075ZM21.9194 14.0522C21.1197 14.3253 20.2216 14.1678 19.562 13.6209C18.9024 13.0741 18.5814 12.2208 18.7014 11.3842C19.5013 11.1112 20.3993 11.2685 21.0589 11.8154C21.7184 12.3623 22.0395 13.2156 21.9194 14.0522ZM20.9806 20.3253C20.189 19.9973 19.6305 19.2768 19.4985 18.4419C20.1823 17.9451 21.0867 17.8306 21.8783 18.1586C22.6698 18.4865 23.2283 19.2071 23.3603 20.0419C22.6766 20.5388 21.7721 20.6532 20.9806 20.3253ZM24.0776 27.5746C23.2247 27.4922 22.4801 26.9662 22.1099 26.2064C22.6186 25.5315 23.4502 25.1579 24.303 25.2401C25.1559 25.3225 25.9005 25.8484 26.2707 26.6082C25.7619 27.2832 24.9303 27.6569 24.0776 27.5746ZM22.2822 4.00631C23.0029 4.44781 23.4549 5.23956 23.4549 6.09637C23.4549 6.95319 23.0029 7.74494 22.2822 8.18644C21.5615 7.74494 21.1096 6.95319 21.1096 6.09637C21.1096 5.23956 21.5616 4.44781 22.2822 4.00631Z" fill="#B17C57"/>
<path d="M15.3335 26.0631C16.2513 24.9491 16.436 23.3898 15.8041 22.0906C15.7248 21.9273 15.5783 21.8066 15.4028 21.7599C14.0068 21.3884 12.5116 21.8681 11.5938 22.9821C11.3311 23.301 11.1288 23.6565 10.9881 24.0318C10.5521 23.1243 10.1558 22.1985 9.79975 21.2572C9.99507 21.2886 10.1922 21.3046 10.3894 21.3046C11.1148 21.3046 11.8393 21.0928 12.4621 20.6716C13.6577 19.863 14.2763 18.4198 14.0381 16.9949C14.0081 16.8159 13.9018 16.6587 13.7468 16.5643C12.5129 15.8126 10.9431 15.8494 9.74757 16.6581C9.31138 16.953 8.95244 17.3327 8.68344 17.7649C8.47069 16.9553 8.287 16.1375 8.13257 15.3132C8.254 15.3252 8.37557 15.3318 8.49694 15.3318C9.46307 15.3318 10.4129 14.9546 11.1176 14.2498C12.1383 13.2291 12.4721 11.6948 11.968 10.3409C11.9046 10.1707 11.7704 10.0366 11.6004 9.97325C10.2464 9.46925 8.71219 9.80294 7.6915 10.8236C7.65857 10.8565 7.62638 10.8901 7.59482 10.9241C7.56282 10.3774 7.54325 9.82944 7.53713 9.28031C10.0967 7.94225 11.7298 5.27262 11.7298 2.36663C11.7298 2.02144 11.45 1.74162 11.1048 1.74162C10.7596 1.74162 10.4798 2.02144 10.4798 2.36663C10.4798 3.70981 10.0639 4.99281 9.332 6.06269C9.32019 4.77087 8.62925 3.58113 7.53494 2.92362V0.625C7.53494 0.279813 7.25513 0 6.90994 0C6.56475 0 6.28494 0.279813 6.28494 0.625V2.92369C5.19069 3.58119 4.49975 4.77087 4.48794 6.06275C3.75594 4.99288 3.34013 3.70988 3.34013 2.36669C3.34013 2.0215 3.06032 1.74169 2.71513 1.74169C2.36994 1.74169 2.09013 2.0215 2.09013 2.36669C2.09013 5.27437 3.72507 7.94538 6.28713 9.28263C6.29219 9.76762 6.30725 10.2513 6.33138 10.7337C5.23313 9.91706 3.756 9.77075 2.5135 10.3702C2.35 10.4491 2.22888 10.5953 2.18163 10.7705C1.80575 12.1654 2.28082 13.6621 3.392 14.5833C4.06744 15.1433 4.90825 15.4329 5.75613 15.4329C6.12188 15.4329 6.48869 15.3777 6.84432 15.2683C6.95413 15.8864 7.07975 16.5012 7.22169 17.1122C7.14425 17.0734 7.06519 17.0372 6.98444 17.0037C5.651 16.4513 4.10569 16.7299 3.04769 17.7136C2.91475 17.8372 2.84207 18.0126 2.84863 18.194C2.90094 19.6378 3.79638 20.9276 5.12988 21.4801C5.58482 21.6686 6.06444 21.7603 6.54094 21.7603C7.20694 21.7603 7.86644 21.5802 8.4445 21.2354C8.44669 21.2414 8.44875 21.2475 8.45094 21.2535C8.80244 22.2204 9.19425 23.1692 9.62506 24.0984C9.43831 24.0497 9.24663 24.0148 9.05094 23.9959C7.61457 23.8571 6.21781 24.5751 5.49338 25.825C5.40231 25.9821 5.38407 26.1709 5.44338 26.3426C5.91519 27.7081 7.14844 28.68 8.58513 28.8188C8.70332 28.8302 8.82125 28.8358 8.93857 28.8358C9.93282 28.8358 10.8819 28.4318 11.5723 27.7347C12.4315 29.1386 13.3888 30.4863 14.4404 31.7709C14.564 31.9218 14.7434 32 14.9244 32C15.0637 32 15.2038 31.9537 15.32 31.8586C15.5871 31.6399 15.6264 31.2461 15.4077 30.9791C14.4717 29.8357 13.6135 28.6363 12.8358 27.3904C13.7948 27.2959 14.7013 26.8304 15.3335 26.0631ZM10.4479 17.6934C11.1576 17.2134 12.0667 17.1442 12.8362 17.4939C12.8742 18.3383 12.4716 19.1562 11.7619 19.6362C11.0522 20.1162 10.1431 20.1853 9.37363 19.8357C9.3355 18.9914 9.73813 18.1735 10.4479 17.6934ZM8.5755 11.7075C9.18138 11.1016 10.0609 10.8613 10.8826 11.0588C11.0801 11.8806 10.8398 12.7601 10.2339 13.3659C9.628 13.9717 8.74863 14.2121 7.92682 14.0146C7.72938 13.1928 7.96963 12.3134 8.5755 11.7075ZM6.54719 14.0522C5.74732 14.3253 4.84932 14.1678 4.18975 13.6209C3.53013 13.0741 3.20913 12.2208 3.32919 11.3842C4.12894 11.1112 5.027 11.2685 5.68663 11.8154C6.34625 12.3623 6.66725 13.2156 6.54719 14.0522ZM5.60832 20.3253C4.81675 19.9973 4.25825 19.2768 4.12625 18.4419C4.81 17.9451 5.7145 17.8306 6.506 18.1586C7.29763 18.4865 7.85607 19.2071 7.98807 20.0419C7.30444 20.5387 6.4 20.6532 5.60832 20.3253ZM8.70532 27.5746C7.85244 27.4922 7.10782 26.9662 6.73763 26.2064C7.24638 25.5315 8.07813 25.1579 8.93075 25.2401C9.78363 25.3225 10.5283 25.8484 10.8984 26.6082C10.3896 27.2832 9.55825 27.6569 8.70532 27.5746ZM6.91 4.00631C7.63069 4.44781 8.08269 5.23956 8.08269 6.09637C8.08269 6.95319 7.63075 7.74494 6.91 8.18644C6.18932 7.74494 5.73731 6.95319 5.73731 6.09637C5.73731 5.23956 6.18925 4.44781 6.91 4.00631ZM14.3688 25.2682C13.8239 25.9295 12.9715 26.2531 12.1347 26.1357C11.8592 25.3367 12.0138 24.4382 12.5586 23.7769C13.1034 23.1157 13.9556 22.7922 14.7927 22.9094C15.0681 23.7085 14.9135 24.6069 14.3688 25.2682Z" fill="#B17C57"/>
<path d="M30.2962 30.75C30.1318 30.75 29.9706 30.8169 29.8543 30.9331C29.7381 31.0494 29.6712 31.2106 29.6712 31.375C29.6712 31.5394 29.7381 31.7006 29.8543 31.8169C29.9706 31.9331 30.1318 32 30.2962 32C30.4606 32 30.6218 31.9331 30.7381 31.8169C30.8543 31.7006 30.9212 31.5394 30.9212 31.375C30.9212 31.2106 30.8543 31.0494 30.7381 30.9331C30.6218 30.8169 30.4606 30.75 30.2962 30.75Z" fill="#B17C57"/>
</svg>
