<svg width="32" height="32" viewBox="0 0 32 32" fill="none" xmlns="http://www.w3.org/2000/svg">
<path d="M13.3531 21.1422C15.7526 21.223 19.1462 18.9061 18.0456 16.2262C17.8734 15.8077 17.5991 15.439 17.2477 15.1537C16.8964 14.8684 16.4792 14.6757 16.0342 14.5931L14.0494 14.2262C13.7987 14.1801 13.5615 14.0788 13.3549 13.9295C13.1483 13.7803 12.9776 13.5869 12.8551 13.3634L11.8397 11.5746C11.6447 11.2286 11.3769 10.9289 11.0549 10.6963C10.7669 10.4891 10.4406 10.3414 10.0949 10.2618C9.74929 10.1822 9.39123 10.1723 9.04169 10.2326C8.70577 10.2919 8.38527 10.4183 8.0994 10.6044C7.81353 10.7905 7.56819 11.0324 7.37807 11.3156C5.99485 13.3506 6.12598 16.1409 7.69618 18.1004C8.55601 19.2584 9.71637 20.1808 11.067 20.6666C11.794 20.9523 12.5777 21.1536 13.3531 21.1422ZM11.8376 13.5351C12.2546 14.3847 12.9375 15.0177 13.8755 15.1801L14.2419 15.248C13.0519 16.4975 11.1508 15.028 11.8378 13.5351H11.8376ZM8.72311 17.8316C7.21313 16.1933 6.93004 13.6743 8.18018 11.8604C8.32486 11.6446 8.52069 11.4679 8.7502 11.346C8.97972 11.2242 9.23581 11.161 9.49565 11.1622C9.80237 11.1644 10.103 11.2481 10.3667 11.4047C10.6305 11.5612 10.8479 11.7851 10.9967 12.0533L11.3056 12.5973C9.95183 14.139 11.1382 16.7013 13.1945 16.6835C14.0519 16.6882 14.8851 16.2085 15.2774 15.4392L15.8591 15.547C16.1454 15.6007 16.4137 15.7254 16.6394 15.9096C16.8652 16.0937 17.0412 16.3315 17.1514 16.6012C17.8114 18.1337 15.9893 19.5481 14.6951 19.9638C13.7487 20.2684 12.7274 20.2454 11.7957 19.8986C10.5999 19.5191 9.51579 18.8268 8.72311 17.8316ZM3.51559 10.388C5.79643 11.1912 8.64242 9.69642 9.2973 7.3986C10.1205 4.67681 8.23157 1.77908 5.54062 0.606803C2.50536 -0.743017 0.798637 0.147321 0.14619 3.39636C-0.454262 6.26842 0.819517 9.48729 3.51559 10.388ZM1.09856 3.57505C1.17343 3.17003 1.28932 2.77368 1.44442 2.39213C1.40124 3.3542 1.49156 4.54068 1.99941 5.55677C2.05899 5.66812 2.15966 5.75183 2.28 5.7901C2.40035 5.82838 2.53088 5.81819 2.64384 5.76172C2.75679 5.70525 2.84326 5.60694 2.88486 5.4877C2.92645 5.36846 2.91989 5.2377 2.86657 5.12322C2.41672 4.22339 2.36708 3.11678 2.42528 2.24887L3.27561 3.89363C3.30487 3.95021 3.34499 4.00047 3.39368 4.04154C3.44237 4.08262 3.49867 4.1137 3.55937 4.13302C3.62007 4.15234 3.68399 4.15951 3.74746 4.15412C3.81093 4.14874 3.87272 4.13091 3.9293 4.10164C3.98588 4.07238 4.03615 4.03226 4.07722 3.98357C4.1183 3.93488 4.14938 3.87858 4.1687 3.81788C4.18801 3.75718 4.19518 3.69327 4.1898 3.62979C4.18442 3.56632 4.16659 3.50453 4.13732 3.44795L3.24348 1.71967C4.01487 2.1471 4.9562 2.81187 5.47913 3.71703C5.52176 3.79074 5.58306 3.85193 5.65685 3.89443C5.73064 3.93694 5.81432 3.95926 5.89948 3.95916C6.26029 3.96805 6.5103 3.54292 6.31888 3.23175C5.79144 2.31898 4.94401 1.62686 4.16399 1.13707C5.72496 1.54038 7.33632 2.74438 7.97617 4.03076C8.72897 5.50127 8.73881 6.99388 7.7894 8.20556C7.9206 7.56786 7.96546 6.83196 7.73996 6.15594C7.51938 5.55421 6.63679 5.84827 6.82073 6.46267C7.03478 7.10548 6.90425 7.86953 6.72832 8.45955L5.98138 7.01476C5.92098 6.90299 5.81913 6.81938 5.69773 6.78192C5.57633 6.74446 5.44508 6.75614 5.3322 6.81444C5.21932 6.87274 5.13383 6.97301 5.09411 7.09369C5.05439 7.21437 5.06362 7.34581 5.1198 7.45976L5.86647 8.90401C5.28374 8.70592 4.58562 8.37017 4.18541 7.82353C3.79153 7.31839 3.04075 7.86745 3.40338 8.39603C3.82501 8.97183 4.45233 9.36147 5.04908 9.62361C2.05753 9.75623 0.485379 6.37093 1.09856 3.57505ZM30.0873 19.1652C33.0285 16.0189 32.5036 10.7875 28.6743 9.03218C26.2735 8.07826 22.941 9.66267 21.6576 12.3792C20.8959 13.9945 20.7586 15.0531 20.6483 15.9039C20.4624 17.333 20.3633 17.4058 19.3532 18.1912C14.3707 21.792 13.3841 29.0105 20.2385 31.5794C21.8998 32.2045 23.7031 32.1384 25.2622 31.3025C28.1705 29.85 29.9554 25.3355 29.2138 22.4898C28.9236 21.0821 29.1599 20.1709 30.0875 19.1652H30.0873ZM28.257 22.6447C29.0656 25.9596 26.4705 31.0911 22.5256 31.0254C22.9234 30.5293 22.2293 29.9288 21.7942 30.3915C21.6451 30.5604 21.4876 30.7257 21.3306 30.8912C20.5627 30.7207 19.8392 30.3908 19.1541 29.9777C19.15 29.7476 19.1451 29.5174 19.15 29.29C19.1432 28.6419 18.207 28.6423 18.1805 29.2717C14.463 26.2293 16.9227 21.0127 19.9486 18.9564C21.134 18.0347 21.3847 17.7643 21.61 16.0282C21.711 15.245 21.8377 14.2703 22.5345 12.7925C23.4501 10.8881 25.5508 9.59801 27.4258 9.72908C27.3777 9.77098 27.3383 9.82195 27.3099 9.87908C27.2816 9.93622 27.2647 9.99839 27.2604 10.062C27.2561 10.1257 27.2644 10.1896 27.2848 10.25C27.3052 10.3104 27.3374 10.3663 27.3794 10.4143C27.6562 10.728 27.9384 10.564 28.2229 10.321C28.2679 10.6276 28.398 10.8983 28.7415 10.9037C28.8594 10.9033 28.973 10.8596 29.0609 10.7809C29.1487 10.7023 29.2046 10.5942 29.2179 10.477C31.7088 12.5246 31.4707 16.2792 29.3488 18.5366C28.0691 20.0406 27.9901 20.9945 28.257 22.6447ZM28.6509 16.4675C28.3989 17.1063 28.1031 17.7271 27.7657 18.3252C27.4367 18.8757 26.6217 18.4144 26.9203 17.8508C27.2357 17.2919 27.5122 16.7119 27.7477 16.1148C27.9984 15.5267 28.8657 15.8627 28.6509 16.4677V16.4675ZM26.9425 19.8402C26.9244 20.522 26.8685 21.2024 26.7749 21.8781C26.6663 22.5112 25.7458 22.3804 25.8149 21.7445C25.9034 21.1046 25.9563 20.4602 25.9731 19.8144C26.0103 19.1743 26.94 19.1997 26.9425 19.8404V19.8402ZM29.4438 12.4053C29.4447 13.1016 29.3762 13.7963 29.2393 14.4791C29.0928 15.1049 28.1818 14.919 28.2887 14.2888C28.411 13.6818 28.4732 13.0642 28.4743 12.445C28.4865 11.8076 29.4118 11.7611 29.4438 12.4055V12.4053ZM24.871 27.6898C24.545 28.2899 24.1841 28.8706 23.7904 29.4287C23.4073 29.9422 22.6431 29.4008 22.998 28.8701C23.3699 28.343 23.7108 27.7946 24.019 27.2278C24.341 26.6741 25.1594 27.1169 24.871 27.6898ZM26.3759 23.8863C26.2026 24.5476 25.9898 25.198 25.7388 25.8339C25.4824 26.424 24.62 26.0777 24.8374 25.4769C25.0744 24.8775 25.2748 24.2642 25.4377 23.6405C25.6195 23.0256 26.5187 23.2614 26.3759 23.8863ZM24.7763 12.8246C25.1411 12.2493 25.5463 11.7006 25.9887 11.1827C26.4192 10.7081 27.127 11.3132 26.7252 11.8128C26.3127 12.2956 25.9351 12.8073 25.5953 13.3438C25.5515 13.4129 25.491 13.4698 25.4193 13.5091C25.3476 13.5485 25.2671 13.5691 25.1854 13.5689C24.8166 13.5784 24.5669 13.1344 24.7763 12.8246ZM21.1381 21.9819C20.8164 22.531 20.5317 23.1009 20.286 23.6879C20.0221 24.2731 19.1599 23.9079 19.3913 23.314C19.6538 22.6868 19.9581 22.078 20.302 21.4915C20.6418 20.9485 21.4455 21.4189 21.1381 21.9819ZM23.068 16.5061C23.2757 15.8615 23.5216 15.2299 23.8044 14.6145C24.0908 14.042 24.935 14.4296 24.6848 15.0206C24.418 15.6012 24.1859 16.1972 23.9899 16.8054C23.972 16.868 23.9417 16.9264 23.9008 16.977C23.8598 17.0276 23.8091 17.0694 23.7517 17.1C23.6942 17.1306 23.6312 17.1494 23.5664 17.1551C23.5015 17.1608 23.4362 17.1534 23.3743 17.1334C23.3123 17.1133 23.2551 17.081 23.2059 17.0383C23.1567 16.9957 23.1167 16.9436 23.0881 16.8851C23.0595 16.8266 23.0429 16.763 23.0395 16.698C23.036 16.633 23.0456 16.5679 23.0678 16.5067L23.068 16.5061ZM19.6707 25.4931C19.5065 26.1094 19.3813 26.7354 19.2957 27.3674C19.1879 28.0005 18.2679 27.8725 18.3348 27.2363C18.4262 26.5639 18.5596 25.8979 18.7343 25.2422C18.7712 25.1222 18.8532 25.0212 18.9631 24.9604C19.0729 24.8996 19.2021 24.8838 19.3234 24.9163C19.4447 24.9488 19.5486 25.0271 19.6134 25.1346C19.6781 25.2422 19.6986 25.3707 19.6705 25.4931H19.6707ZM23.3269 19.1031C22.9323 19.5156 22.5594 19.9483 22.2098 20.3995C22.1646 20.4583 22.1064 20.5059 22.0398 20.5386C21.9733 20.5713 21.9001 20.5882 21.8259 20.5881C21.4383 20.6 21.192 20.1103 21.4429 19.8068C21.7762 19.3751 22.1416 18.9476 22.5303 18.5344C22.6194 17.845 23.6022 17.9821 23.4934 18.6641C23.463 18.807 23.4411 18.9985 23.3269 19.1031ZM17.5353 11.2969C18.4623 11.3104 19.4006 11.0297 20.2368 10.5864C21.3829 10.0261 22.3469 9.15279 23.0174 8.06742C23.7828 6.93677 24.1848 5.60857 24.0441 4.23436C23.859 2.26584 22.5017 -0.330885 20.2031 0.0443384C19.7665 0.117481 19.3562 0.302168 19.012 0.580502C18.6677 0.858836 18.4012 1.22138 18.2383 1.63299C18.0508 2.09348 17.4725 3.51847 17.4756 3.51032C17.1273 4.40483 16.3491 4.47697 15.4298 4.74914C15.2786 4.87785 14.2498 4.89119 13.4908 5.57799C10.8457 8.35178 14.7086 11.4053 17.5353 11.2971V11.2969ZM14.1417 6.29631C14.6595 5.82739 16.1391 5.61126 15.9389 5.61126C16.6313 5.41412 17.8522 5.21549 18.3765 3.86958C18.4761 3.62307 19.0254 2.27076 19.1367 1.9965C19.5789 0.846242 21.1151 0.632531 21.9021 1.56598C23.2501 3.07616 23.5069 5.47655 22.4119 7.19971C21.8103 8.27655 20.9213 9.18581 19.8141 9.71373C19.8208 9.71992 16.5428 11.5979 14.0334 8.71899C13.4094 8.00289 13.4582 6.91609 14.1417 6.29644V6.29631ZM20.7816 3.27553C20.4241 2.74506 21.1784 2.20017 21.5693 2.70976C22.2833 3.70362 22.4967 4.9017 22.2031 6.27091C22.1903 6.33362 22.1651 6.39316 22.1292 6.4461C22.0932 6.49903 22.0471 6.54432 21.9935 6.57933C21.9399 6.61435 21.8799 6.6384 21.817 6.6501C21.7541 6.66181 21.6894 6.66093 21.6268 6.64752C21.5643 6.63411 21.5049 6.60843 21.4523 6.57197C21.3997 6.53551 21.3549 6.48898 21.3203 6.43509C21.2858 6.38119 21.2623 6.32099 21.2512 6.25796C21.24 6.19492 21.2415 6.13031 21.2555 6.06784C21.4921 4.96225 21.3374 4.04854 20.7816 3.27566V3.27553ZM7.56478 32C7.65094 31.9999 7.73555 31.977 7.80994 31.9335C11.8652 29.5659 12.4687 26.3477 9.62174 22.6404C9.77729 22.368 9.9095 22.0828 10.017 21.7881C10.0414 21.7199 10.0504 21.6471 10.0432 21.575C10.036 21.5029 10.0128 21.4333 9.97539 21.3712C9.93794 21.3092 9.88715 21.2563 9.8267 21.2164C9.76625 21.1764 9.69766 21.1504 9.62591 21.1403C9.52367 21.1268 7.25415 20.8356 5.00483 21.3803C4.47449 19.645 2.75039 19.0489 1.44475 18.7528C1.38174 18.7361 1.316 18.7322 1.25146 18.7415C1.18692 18.7507 1.12491 18.7729 1.06913 18.8066C1.01335 18.8404 0.964955 18.885 0.926829 18.9379C0.888704 18.9908 0.861635 19.0508 0.847241 19.1144C0.832846 19.178 0.831423 19.2439 0.843054 19.308C0.854686 19.3722 0.879134 19.4333 0.914938 19.4878C0.950741 19.5423 0.997164 19.589 1.05143 19.6251C1.1057 19.6613 1.16669 19.6861 1.23077 19.6981C2.90234 20.0773 3.779 20.6767 4.07886 21.6615C1.85446 22.5059 0.196435 24.457 0.123088 24.5447C0.076452 24.601 0.0430886 24.6671 0.0254692 24.7381C0.00784992 24.8091 0.00642637 24.8831 0.0213039 24.9547C0.0361814 25.0263 0.0669787 25.0936 0.111414 25.1517C0.155849 25.2098 0.212784 25.2571 0.277999 25.2902C0.462075 25.3819 0.640425 25.4581 0.815812 25.526C0.848209 29.6941 3.12198 31.8777 7.56478 32ZM4.78755 22.4426C6.30184 21.9854 7.95859 21.9948 8.84617 22.0462C8.39315 22.8985 7.76926 23.2585 6.80598 23.2585C6.71609 23.2539 6.62667 23.2742 6.54757 23.3171C6.46846 23.36 6.40275 23.424 6.35768 23.5019C6.00293 24.1434 7.51723 24.6919 6.15414 27.0716C4.96408 26.6063 4.40882 25.8494 4.3154 24.5968C4.30822 24.5044 4.2747 24.4159 4.21883 24.3419C4.16295 24.2679 4.08705 24.2115 4.0001 24.1793C3.91315 24.1471 3.8188 24.1404 3.72819 24.1602C3.63759 24.1799 3.55453 24.2251 3.48885 24.2906C2.91325 24.8676 2.22935 24.9964 1.32278 24.6835C1.98237 24.0297 3.28645 22.896 4.78755 22.4426ZM1.7867 25.7853C2.41262 25.8726 2.97757 25.7831 3.484 25.504C3.81632 26.8039 4.8283 27.7735 6.363 28.1428C6.44384 28.1428 6.5234 28.1225 6.59442 28.0839C6.66545 28.0453 6.72569 27.9895 6.76968 27.9217C7.66244 26.5442 7.90794 25.309 7.51002 24.1684C8.07032 24.0756 8.59031 23.8181 9.00377 23.4287C11.3025 26.5761 10.8021 28.994 7.43943 31.0261C3.70788 30.8784 1.89918 29.2042 1.7867 25.7853Z" fill="#B17C57"/>
</svg>
