<svg width="32" height="32" viewBox="0 0 32 32" fill="none" xmlns="http://www.w3.org/2000/svg">
<path d="M19.0647 26.3651C20.5428 26.0438 21.5942 24.7327 21.5872 23.2203C21.5847 21.5968 20.3764 20.2279 18.7657 20.0241L17.0787 19.8133C16.8006 19.7784 16.5466 19.9759 16.5117 20.254C16.4768 20.5321 16.6742 20.786 16.9523 20.821L18.6393 21.0317C19.7422 21.1708 20.5695 22.1086 20.5707 23.2197C20.5758 24.2546 19.8558 25.1524 18.8444 25.3721L15.793 26.0502C13.2355 26.6057 11.4158 28.8743 11.4285 31.4914C11.4285 31.7721 11.6558 31.9994 11.9364 31.9994C12.2171 31.9994 12.4444 31.7721 12.4444 31.4914C12.4342 29.3517 13.9225 27.4965 16.0133 27.0425L19.0647 26.3644V26.3651Z" fill="#B17C57"/>
<path d="M17.3345 24.3448C17.5949 24.4489 17.8907 24.3225 17.9949 24.0616C18.099 23.8013 17.9726 23.5054 17.7117 23.4013C15.9745 22.7048 14.1199 22.3473 12.2482 22.3486H4.8247C2.86406 22.3486 1.26914 20.753 1.26914 18.793C1.26914 16.833 2.86406 15.2375 4.8247 15.2375C6.27676 15.2343 7.6501 15.894 8.55422 17.0298L8.9993 17.5867C9.17454 17.8057 9.49454 17.8413 9.71359 17.666C9.93264 17.4908 9.96819 17.1708 9.79295 16.9517L9.34787 16.3949C8.25137 15.0178 6.58534 14.2171 4.8247 14.2216C2.3047 14.2222 0.253906 16.273 0.253906 18.7937C0.253906 21.3143 2.3047 23.3651 4.82534 23.3651H12.2488C13.9993 23.3651 15.7104 23.694 17.3345 24.3448Z" fill="#B17C57"/>
<path d="M4.77708 17.9905L5.49391 17.7517C5.75994 17.6629 5.90407 17.3752 5.81518 17.1092C5.72629 16.8432 5.43867 16.699 5.17264 16.7879L4.45581 17.0273C3.76565 17.2565 3.30026 17.9022 3.30153 18.6292C3.3028 19.5613 4.05835 20.3168 4.99041 20.3175H11.4285C11.7091 20.3175 11.9364 20.0902 11.9364 19.8095C11.9364 19.5289 11.7091 19.3016 11.4285 19.3016H4.99041C4.61835 19.299 4.31867 18.9962 4.32121 18.6241C4.32311 18.3371 4.50597 18.0832 4.77708 17.9905Z" fill="#B17C57"/>
<path d="M7.48629 12.8775L12.4107 13.2057C12.6907 13.2241 12.9326 13.0127 12.9517 12.7327C12.9701 12.4527 12.7587 12.2108 12.4787 12.1917L7.55422 11.8635C6.30597 11.7771 5.33645 10.7416 5.33327 9.49016C5.33454 8.17714 6.39867 7.11238 7.71168 7.11111H9.39676C9.6774 7.11111 9.9047 6.88381 9.9047 6.60318C9.9047 6.32254 9.6774 6.09524 9.39676 6.09524H7.71168C5.8374 6.09714 4.31867 7.61587 4.3174 9.49016C4.3174 11.2705 5.70915 12.7581 7.48629 12.8768V12.8775Z" fill="#B17C57"/>
<path d="M30.7301 21.3333V21.581C30.7301 23.6851 29.0177 25.3968 26.9142 25.3968C26.2171 25.3962 25.652 24.8311 25.6507 24.1333C25.6507 23.5886 25.998 23.1073 26.5142 22.9359L26.8272 22.8317C27.0933 22.7429 27.2374 22.4552 27.1485 22.1892C27.0596 21.9232 26.772 21.779 26.506 21.8679L26.193 21.9727C25.2615 22.2813 24.6336 23.153 24.6349 24.134C24.6361 25.3924 25.6558 26.4114 26.9142 26.4133C29.5784 26.4133 31.746 24.2457 31.746 21.5816V21.334H30.7301V21.3333Z" fill="#B17C57"/>
<path d="M25.1428 19.8095C25.1428 19.5289 24.9155 19.3016 24.6349 19.3016C24.0749 19.3016 23.619 18.8457 23.619 18.2857C23.619 17.7257 24.0749 17.2698 24.6349 17.2698C25.8095 17.2698 26.9136 17.727 27.7441 18.5568L27.8311 18.6444C28.0291 18.8432 28.3504 18.8438 28.5491 18.6457C28.7479 18.4476 28.7485 18.1263 28.5504 17.9276L28.4628 17.84C27.4495 16.8216 26.0717 16.2508 24.6349 16.2546C23.5142 16.2546 22.6031 17.1657 22.6031 18.2864C22.6031 19.407 23.5142 20.3181 24.6349 20.3181C24.9155 20.3181 25.1428 20.0908 25.1428 19.8102V19.8095Z" fill="#B17C57"/>
<path d="M21.7364 27.0692L20.9555 27.8489C20.5758 28.2311 20.0584 28.4457 19.5193 28.4444H17.5237C15.8431 28.4444 14.4761 29.8114 14.4761 31.4921C14.4761 31.7727 14.7034 32 14.9841 32C15.2647 32 15.492 31.7727 15.492 31.4921C15.492 30.3714 16.4031 29.4603 17.5237 29.4603H19.5193C20.3339 29.4603 21.099 29.1435 21.6742 28.5676L22.4545 27.7879C22.6526 27.5898 22.6526 27.2679 22.4545 27.0698C22.2564 26.8717 21.9345 26.8717 21.7364 27.0698V27.0692Z" fill="#B17C57"/>
<path d="M15.4133 11.1644L18.9688 11.6705C19.2463 11.7098 19.5034 11.5168 19.5434 11.2394C19.5834 10.9619 19.3898 10.7048 19.1123 10.6648L15.5568 10.1581C15.2787 10.1187 15.0215 10.3117 14.9822 10.5898C14.9428 10.8679 15.1358 11.1251 15.4139 11.1644H15.4133Z" fill="#B17C57"/>
<path d="M24.132 8.56254C24.092 8.84 24.285 9.09778 24.5625 9.13778L25.8749 9.32508C26.9098 9.47683 27.6774 10.3625 27.6818 11.4083C27.6806 12.4692 26.8907 13.3632 25.8387 13.4965L17.2228 14.5733C16.2342 14.6984 15.4933 15.5384 15.492 16.5346C15.4895 17.501 16.1891 18.327 17.1428 18.4838L18.9637 18.7873C19.2406 18.8337 19.5022 18.6464 19.5485 18.3695C19.5949 18.0927 19.4076 17.8311 19.1307 17.7848L17.3098 17.4813C16.8463 17.4051 16.5066 17.0038 16.5079 16.5346C16.5079 16.0514 16.8698 15.6419 17.3491 15.5816L25.965 14.5048C27.525 14.3073 28.6958 12.981 28.6984 11.4083C28.6984 9.8654 27.5466 8.53841 26.0196 8.31937L24.7072 8.13206C24.4298 8.09206 24.172 8.28508 24.132 8.56254Z" fill="#B17C57"/>
<path d="M18.0317 6.60318C18.3123 6.60318 18.5396 6.37587 18.5396 6.09524V5.5873C18.5396 4.18667 17.4006 3.04762 15.9999 3.04762C14.5993 3.04762 13.4603 4.18667 13.4603 5.5873V5.80064C13.459 7.09524 14.433 8.18286 15.7193 8.32508L23.0552 9.13968C23.3339 9.17079 23.5853 8.96952 23.6164 8.69079C23.6476 8.41206 23.4463 8.16063 23.1676 8.12952L15.8323 7.31492C15.0603 7.22984 14.4755 6.57714 14.4761 5.8V5.58667C14.4761 4.74667 15.1599 4.06286 15.9999 4.06286C16.8399 4.06286 17.5237 4.74667 17.5237 5.58667V6.0946C17.5237 6.37524 17.7511 6.60254 18.0317 6.60254V6.60318Z" fill="#B17C57"/>
<path d="M9.67867 5.49397C9.92629 5.6273 10.2355 5.53397 10.3682 5.28635C10.379 5.26667 10.3872 5.24698 10.3949 5.22667L10.3987 5.21778C11.5352 2.66413 14.0679 1.01841 16.8634 1.01651H17.3193C20.5009 1.01651 23.3072 3.16063 24.1447 6.22921C24.2184 6.49968 24.4977 6.65968 24.7682 6.58603C25.0387 6.51238 25.1987 6.23302 25.125 5.96254C24.1676 2.45143 20.958 0 17.3193 0H16.8634C13.6672 0.00190476 10.7707 1.88381 9.47042 4.80381C9.45962 4.82413 9.45073 4.84508 9.44248 4.86667L9.43994 4.87238C9.35549 5.10603 9.452 5.3727 9.6774 5.49333L9.67867 5.49397Z" fill="#B17C57"/>
<path d="M12.2539 19.8095C12.2539 20.0902 12.4812 20.3175 12.7618 20.3175H14.4761C14.7568 20.3175 14.9841 20.0902 14.9841 19.8095C14.9841 19.5289 14.7568 19.3016 14.4761 19.3016H12.7618C12.4812 19.3016 12.2539 19.5289 12.2539 19.8095Z" fill="#B17C57"/>
</svg>
