<svg width="32" height="32" viewBox="0 0 32 32" fill="none" xmlns="http://www.w3.org/2000/svg">
<path d="M17.4366 7.3715V3.05725C17.4366 2.79831 17.2267 2.5885 16.9678 2.5885C16.7089 2.5885 16.4991 2.79831 16.4991 3.05725V7.3715C16.4991 7.63044 16.7089 7.84025 16.9678 7.84025C17.2267 7.84025 17.4366 7.63044 17.4366 7.3715Z" fill="#B17C57"/>
<path d="M9.90131 20.0798C9.77193 19.8556 9.48512 19.7789 9.26099 19.9083L5.52474 22.0654C5.30056 22.1948 5.22374 22.4815 5.35318 22.7057C5.48318 22.931 5.77037 23.0061 5.99349 22.8773L9.72974 20.7201C9.95393 20.5907 10.0307 20.304 9.90131 20.0798Z" fill="#B17C57"/>
<path d="M28.4109 22.0654L24.6747 19.9083C24.4503 19.7788 24.1637 19.8556 24.0344 20.0798C23.9049 20.304 23.9817 20.5907 24.2059 20.7201L27.9421 22.8773C28.1661 23.0064 28.4529 22.9302 28.5824 22.7057C28.7119 22.4815 28.6351 22.1948 28.4109 22.0654Z" fill="#B17C57"/>
<path d="M30.6118 19.2458C30.3301 18.4197 29.7922 17.1689 28.8486 15.9997C29.4298 15.2812 29.9205 14.4566 30.3098 13.5429C30.4113 13.3047 30.3006 13.0293 30.0624 12.9279C29.8239 12.8262 29.5488 12.9372 29.4474 13.1753C29.1132 13.9593 28.6991 14.6694 28.213 15.2925C28.0296 15.1096 27.8346 14.9317 27.6271 14.7611C28.2786 13.9107 28.6808 13.0204 28.9116 12.3869C29.0002 12.1436 28.8749 11.8746 28.6317 11.786C28.3885 11.6974 28.1194 11.8227 28.0308 12.0659C27.8217 12.6399 27.4572 13.4473 26.8686 14.2096C26.7725 14.1482 26.6742 14.0884 26.5737 14.0304C25.3079 13.2995 23.7122 13.1698 22.2786 13.2683C22.3913 13.1669 22.5274 13.0643 22.6975 12.9581C23.2829 12.5922 23.6534 12.5689 24.0824 12.5421C24.5681 12.5116 25.1187 12.477 25.9054 11.9854C26.692 11.4939 26.9644 11.0142 27.2048 10.5909C27.4171 10.2172 27.6004 9.89437 28.1858 9.52856C28.4054 9.39137 28.4721 9.10219 28.3349 8.88262C28.1977 8.66313 27.9086 8.59631 27.689 8.7335C26.9024 9.22506 26.6299 9.70475 26.3896 10.128C26.1773 10.5017 25.994 10.8246 25.4086 11.1904C24.8232 11.5562 24.4526 11.5795 24.0237 11.6064C23.5923 11.6335 23.1098 11.6637 22.4562 12.0145C23.0401 10.9888 23.4766 9.832 23.4766 8.66575C23.4766 8.54969 23.4739 8.43469 23.4687 8.32075C24.4234 8.19213 25.3047 8.28025 25.9062 8.38625C26.1615 8.43056 26.4044 8.26075 26.4492 8.00587C26.4941 7.75087 26.3238 7.50781 26.0689 7.46287C25.4049 7.34594 24.4327 7.249 23.3704 7.38812C23.3264 7.12325 23.2699 6.86556 23.2033 6.6155C26.3042 6.18669 29.4664 7.523 30.0124 8.46875C30.2345 8.85344 30.3379 9.84206 30.0682 11.1835C30.0172 11.4374 30.1816 11.6844 30.4354 11.7354C30.688 11.7864 30.9361 11.6231 30.9873 11.3683C31.2754 9.935 31.2145 8.67587 30.8243 8C30.4056 7.27481 29.2016 6.53775 27.6821 6.07644C26.1096 5.599 24.431 5.4725 22.9087 5.71138C22.3679 4.30944 21.5536 3.21806 20.9791 2.56106C19.6394 1.02919 18.0274 0 16.9678 0C16.2642 0 15.2866 0.464875 14.2857 1.2755C14.0845 1.43837 14.0535 1.73356 14.2165 1.93481C14.3794 2.13594 14.6744 2.16706 14.8758 2.004C15.8478 1.21681 16.6102 0.9375 16.9678 0.9375C18.2862 0.9375 22.539 4.24506 22.539 8.66575C22.539 10.2114 21.5982 11.7976 20.6755 12.9815C20.0634 12.2291 19.2248 11.6617 18.2515 11.3913C18.2072 10.8731 18.1331 10.3963 18.0327 9.99438C17.9482 9.6565 17.6912 8.62844 16.9679 8.62844C16.2445 8.62844 15.9874 9.6565 15.903 9.99438C15.8025 10.3963 15.7284 10.8731 15.6842 11.3913C14.7526 11.6501 13.9445 12.1809 13.3402 12.8856C13.2858 12.8821 13.2327 12.8798 13.1806 12.8784C12.2842 11.7064 11.3967 10.1669 11.3967 8.66569C11.3967 6.92844 12.1072 5.09163 13.3974 3.49356C13.56 3.29212 13.5286 2.99706 13.3271 2.83437C13.1257 2.67169 12.8306 2.70319 12.6679 2.90469C11.9566 3.78575 11.4049 4.73712 11.0307 5.71181C9.50756 5.47219 7.82762 5.5985 6.25374 6.07631C4.73412 6.53775 3.53012 7.27481 3.11137 8C2.69274 8.72519 2.65643 10.1365 3.01662 11.6831C3.38943 13.2836 4.11912 14.8007 5.08718 15.9994C4.14343 17.1687 3.60543 18.4196 3.32374 19.2458C2.66699 21.1718 2.58162 23.0824 3.11137 24C3.64112 24.9176 5.33849 25.799 7.33487 26.1932C7.88306 26.3014 8.63462 26.4058 9.49412 26.4058C9.97699 26.4058 10.4939 26.3728 11.0279 26.2891C11.5821 27.7269 12.5311 29.1173 13.7308 30.2405C14.8901 31.3258 16.1305 32 16.9678 32C17.8051 32 19.0455 31.3258 20.2048 30.2405C21.4045 29.1173 22.3534 27.7269 22.9076 26.2892C23.4416 26.3729 23.9586 26.4058 24.4415 26.4058C25.3008 26.4058 26.0526 26.3014 26.6007 26.1932C28.5971 25.799 30.2945 24.9176 30.8242 24C31.354 23.0824 31.2686 21.1718 30.6118 19.2458ZM19.7597 18.0669C18.9789 17.6161 18.3694 17.0362 17.9639 16.5751C18.566 16.6957 19.3731 16.9336 20.1539 17.3844C20.8506 17.7866 21.9198 18.5019 22.3924 19.1318C22.0309 19.0883 20.4574 18.4698 19.7597 18.0669ZM11.5432 19.1318C12.0154 18.5026 13.092 17.7826 13.7818 17.3844C14.5626 16.9336 15.3696 16.6956 15.9717 16.5751C15.5662 17.0362 14.9567 17.6161 14.1759 18.0669C13.4766 18.4707 12.3236 19.0378 11.5432 19.1318ZM13.746 13.9031C13.9096 13.9506 14.0891 14.0229 14.296 14.133C14.9054 14.4571 15.1108 14.7663 15.3486 15.1243C15.4632 15.2968 15.5842 15.479 15.7486 15.6651C15.1316 15.7911 14.2174 16.0503 13.3131 16.5725C13.2675 16.5988 13.2222 16.6252 13.1773 16.6519C13.0143 15.6966 13.2147 14.7188 13.746 13.9031ZM14.6446 18.8789C15.1538 18.5849 15.5923 18.2466 15.9529 17.9229C15.8243 18.2617 15.729 18.6802 15.75 19.2801C15.7547 19.4148 15.7646 19.54 15.7789 19.6569C15.3168 19.5066 14.8854 19.2694 14.5089 18.9563C14.5541 18.9307 14.5993 18.905 14.6446 18.8789ZM20.6226 16.5725C20.1134 16.2785 19.6012 16.0679 19.1406 15.9175C19.4982 15.8594 19.9084 15.7327 20.4174 15.4147C20.5317 15.3432 20.6352 15.272 20.7293 15.2012C20.8316 15.6818 20.8394 16.1764 20.7583 16.6519C20.7134 16.6252 20.6681 16.5988 20.6226 16.5725ZM20.3949 14.258C20.2719 14.3761 20.1194 14.4954 19.9206 14.6196C19.3352 14.9854 18.9647 15.0087 18.5358 15.0356C18.3292 15.0485 18.1108 15.0623 17.8675 15.1116C18.0667 14.5141 18.2994 13.5929 18.2994 12.5486C18.2994 12.4958 18.2991 12.4432 18.2985 12.3907C19.2174 12.7294 19.9609 13.4062 20.3949 14.258ZM17.3619 12.5486C17.3619 13.4501 17.1644 14.2681 16.9678 14.8497C16.7712 14.268 16.5737 13.4501 16.5737 12.5486C16.5737 11.7411 16.6591 10.4591 16.9678 9.73625C17.1108 10.0711 17.3619 11.7561 17.3619 12.5486ZM15.6371 12.3907C15.6366 12.4432 15.6362 12.4958 15.6362 12.5486C15.6362 13.1365 15.71 13.6854 15.8101 14.1595C15.5809 13.8788 15.2661 13.587 14.7362 13.3052C14.6173 13.242 14.5041 13.1881 14.3959 13.142C14.7533 12.8193 15.1728 12.5619 15.6371 12.3907ZM3.92331 8.46875C4.46962 7.52256 7.63437 6.18563 10.7366 6.61613C10.6678 6.87331 10.6116 7.13106 10.5681 7.38856C9.50481 7.249 8.53156 7.346 7.86699 7.46294C7.61206 7.50781 7.44168 7.75087 7.48656 8.00587C7.53143 8.26087 7.77468 8.43112 8.02949 8.38631C8.63118 8.28044 9.51274 8.19231 10.4673 8.32094C10.4619 8.43619 10.4592 8.55119 10.4592 8.66588C10.4592 10.1274 11.1447 11.5742 11.9467 12.7666C11.8026 12.7197 11.6457 12.6531 11.4687 12.559C10.8592 12.2349 10.6537 11.9257 10.4159 11.5677C10.1466 11.1622 9.84143 10.7028 9.02237 10.2673C8.20331 9.83175 7.65131 9.83606 7.16499 9.83912C6.73518 9.84137 6.36399 9.84481 5.75449 9.52069C5.52581 9.39906 5.24199 9.48588 5.12049 9.7145C4.99899 9.94306 5.08568 10.2269 5.31431 10.3485C6.13337 10.784 6.68537 10.7802 7.17168 10.7766C7.60131 10.7739 7.97274 10.771 8.58218 11.0951C9.19174 11.4192 9.39712 11.7284 9.63499 12.0864C9.87412 12.4464 10.1416 12.8491 10.7721 13.2397C9.59193 13.2469 8.37193 13.4474 7.36193 14.0306C7.26143 14.0886 7.16318 14.1484 7.06706 14.2098C6.47843 13.4474 6.11399 12.6401 5.90493 12.0661C5.81631 11.8229 5.54756 11.6974 5.30406 11.7862C5.06081 11.8748 4.93549 12.1438 5.02412 12.3871C5.25481 13.0205 5.65693 13.9107 6.30862 14.7612C6.10118 14.9317 5.90624 15.1096 5.72293 15.2923C3.80106 12.8209 3.37724 9.4145 3.92331 8.46875ZM3.92331 23.5312C3.25599 22.3754 4.01881 17.0432 7.83068 14.8423C9.16899 14.0696 11.0125 14.0911 12.4989 14.2981C12.1349 15.2503 12.0969 16.2661 12.3349 17.1926C11.9082 17.49 11.5323 17.7926 11.2344 18.0806C10.9841 18.3227 10.2223 19.0593 10.5839 19.6858C10.7584 19.9881 11.0858 20.0766 11.4156 20.0766C11.7694 20.0766 12.1261 19.9746 12.2994 19.9251C12.6981 19.811 13.1484 19.6366 13.6197 19.4156C14.2991 20.0814 15.1589 20.5269 16.0859 20.701C16.1097 20.7491 16.1339 20.7955 16.1584 20.8406C15.5917 22.2029 14.7021 23.7413 13.4019 24.492C9.70331 26.6273 4.63868 24.7703 3.92331 23.5312ZM16.9678 31.0625C15.8757 31.0625 13.1376 28.9923 11.9583 26.0922C12.2082 26.0249 12.4596 25.9449 12.7109 25.8506C13.1216 26.8401 13.6916 27.6334 14.1248 28.1501C14.2907 28.3479 14.5862 28.3749 14.7852 28.2081C14.9836 28.0418 15.0095 27.7461 14.8432 27.5478C14.4507 27.0797 13.9337 26.3604 13.5678 25.4695C13.6691 25.417 13.7699 25.3617 13.8704 25.3037C15.1363 24.5729 16.0464 23.2558 16.6781 21.965C16.7094 22.1133 16.7302 22.2825 16.7372 22.4829C16.7613 23.1728 16.5962 23.5052 16.4051 23.8903C16.1887 24.3263 15.9433 24.8204 15.9757 25.7474C16.0081 26.6744 16.2872 27.1502 16.5336 27.5699C16.7512 27.9407 16.9391 28.2609 16.9632 28.9508C16.9721 29.2039 17.18 29.4031 17.4313 29.4031C17.6975 29.4031 17.9093 29.1826 17.9001 28.918C17.8677 27.9909 17.5886 27.5152 17.3422 27.0954C17.1246 26.7247 16.9367 26.4045 16.9126 25.7146C16.8886 25.0247 17.0536 24.6923 17.2447 24.3072C17.4369 23.9201 17.6519 23.487 17.675 22.7457C18.2714 23.7642 19.0549 24.7206 20.0649 25.3037C20.1654 25.3617 20.2663 25.4169 20.3676 25.4695C20.0017 26.3603 19.4847 27.0797 19.0922 27.5477C18.9259 27.7461 18.9518 28.0417 19.1502 28.2081C19.3495 28.3751 19.6449 28.3476 19.8106 28.1501C20.2437 27.6334 20.8137 26.84 21.2244 25.8506C21.4758 25.9449 21.7272 26.0249 21.9771 26.0922C20.7979 28.9923 18.0599 31.0625 16.9678 31.0625ZM30.0123 23.5312C29.3494 24.6794 24.3544 26.6978 20.5338 24.4919C19.1959 23.7194 18.2929 22.1131 17.7289 20.7226C17.8251 20.7072 17.9206 20.6889 18.0154 20.6677C18.2681 20.6113 18.4271 20.3607 18.3706 20.1081C18.3142 19.8554 18.0637 19.6967 17.8109 19.7528C17.4615 19.8309 17.1054 19.8582 16.7632 19.8399C16.7223 19.6742 16.6951 19.4822 16.6869 19.2472C16.6628 18.5574 16.8279 18.225 17.0191 17.84C17.1111 17.6546 17.2084 17.4586 17.2874 17.2232C17.7051 17.6944 18.3866 18.3566 19.291 18.8787C19.34 18.9071 19.389 18.9349 19.438 18.9624C19.3092 19.1361 19.3142 19.3819 19.4627 19.5509C19.6329 19.7444 19.9289 19.7651 20.1243 19.5934C20.1896 19.536 20.2536 19.4765 20.316 19.4153C20.7874 19.6364 21.2377 19.8107 21.6363 19.9248C21.8096 19.9744 22.1662 20.0764 22.5201 20.0764C22.8498 20.0764 23.1772 19.9877 23.3517 19.6856C23.7135 19.0591 22.9516 18.3224 22.7012 18.0804C22.4034 17.7924 22.0275 17.4898 21.6007 17.1923C21.8307 16.2969 21.8012 15.3257 21.4794 14.4139C21.5094 14.369 21.5377 14.3246 21.5647 14.2806C23.0278 14.0902 24.8048 14.0913 26.105 14.8421C29.9036 17.0355 30.6842 22.3674 30.0123 23.5312Z" fill="#B17C57"/>
<path d="M20.2381 11.4921C20.3161 11.5418 20.4033 11.5655 20.4894 11.5655C20.6444 11.5655 20.7959 11.4888 20.8853 11.3484C21.3347 10.6424 21.7506 9.82887 21.7506 8.66594C21.7506 6.48844 20.5354 4.71375 19.811 3.84956C19.6445 3.65112 19.349 3.62525 19.1506 3.79144C18.9522 3.95775 18.9262 4.25344 19.0925 4.45181C19.7351 5.21837 20.8131 6.78506 20.8131 8.66588C20.8131 9.54031 20.5381 10.1479 20.0944 10.8449C19.9554 11.0634 20.0197 11.3531 20.2381 11.4921Z" fill="#B17C57"/>
<path d="M14.7851 3.7915C14.5867 3.62538 14.2911 3.65125 14.1247 3.84963C13.4004 4.71375 12.1852 6.4885 12.1852 8.666C12.1852 9.82875 12.601 10.6424 13.0504 11.3484C13.1898 11.5674 13.4797 11.6308 13.6976 11.4922C13.9159 11.3531 13.9802 11.0634 13.8413 10.8451C13.3976 10.1481 13.1227 9.54037 13.1227 8.66606C13.1227 6.78525 14.2007 5.21856 14.8432 4.452C15.0095 4.2535 14.9834 3.95781 14.7851 3.7915Z" fill="#B17C57"/>
<path d="M5.90462 19.9338C6.24731 18.9939 7.06537 17.2767 8.69374 16.3365C9.45024 15.8997 10.1126 15.834 10.9369 15.8694C11.1937 15.8814 11.4142 15.6799 11.4253 15.4213C11.4364 15.1626 11.2358 14.9439 10.9771 14.9328C10.1424 14.8971 9.23112 14.9437 8.22499 15.5246C6.33974 16.6131 5.41018 18.5531 5.02387 19.6126C4.93518 19.8559 5.06043 20.1249 5.30368 20.2136C5.54574 20.3019 5.81556 20.1781 5.90462 19.9338Z" fill="#B17C57"/>
<path d="M14.8971 21.7208C15.0168 21.4912 14.9278 21.2081 14.6983 21.0884C14.4688 20.9686 14.1856 21.0575 14.0659 21.2871C13.684 22.0191 13.2953 22.5605 12.5389 22.9974C10.9107 23.9375 9.01468 23.7871 8.02931 23.6136C7.77387 23.5686 7.53124 23.7391 7.48637 23.9941C7.44149 24.2491 7.61187 24.4921 7.86681 24.537C8.28431 24.6104 8.84762 24.6796 9.48849 24.6796C10.5529 24.6796 11.8309 24.4886 13.0077 23.8092C14.0137 23.2282 14.5102 22.4621 14.8971 21.7208Z" fill="#B17C57"/>
<path d="M25.9063 23.6136C24.9209 23.7868 23.0248 23.9374 21.3969 22.9975C20.6404 22.5605 20.2517 22.0191 19.8697 21.2871C19.75 21.0576 19.4668 20.9686 19.2373 21.0884C19.0078 21.2081 18.9188 21.4912 19.0386 21.7208C19.4253 22.4621 19.9219 23.2282 20.9279 23.8093C22.1047 24.4888 23.3825 24.6796 24.4471 24.6796C25.0877 24.6796 25.6514 24.6104 26.0687 24.537C26.3237 24.4921 26.4941 24.2491 26.4492 23.9941C26.4043 23.739 26.1611 23.5691 25.9063 23.6136Z" fill="#B17C57"/>
<path d="M25.7106 15.5247C24.7044 14.9438 23.7929 14.8971 22.9586 14.9329C22.6999 14.9441 22.4992 15.1628 22.5104 15.4213C22.5216 15.6801 22.7429 15.8807 22.9988 15.8695C23.8226 15.8343 24.4854 15.8997 25.2419 16.3366C26.8702 17.2768 27.6883 18.9939 28.031 19.9339C28.1197 20.1772 28.389 20.3024 28.6319 20.2137C28.8752 20.125 29.0004 19.8559 28.9117 19.6127C28.5254 18.5532 27.5959 16.6132 25.7106 15.5247Z" fill="#B17C57"/>
</svg>
