<svg xmlns="http://www.w3.org/2000/svg" xmlns:xlink="http://www.w3.org/1999/xlink"><defs><symbol viewBox="0 0 32 32" id="ic-apple"><path d="M29.704 11.061c-1.413-.941-3.03-.932-4.325-.007a8.242 8.242 0 00-6.147-2.73 8.328 8.328 0 00-1.72.18c-.746.158-1.507.268-2.268.33.023-.203.052-.411.089-.621.404-2.323 1.498-3.899 3.251-4.683a1.378 1.378 0 00.695-1.818 1.377 1.377 0 00-1.817-.694 7.813 7.813 0 00-3.615 3.247c-.164-.842-.544-1.784-1.356-2.596C11.28.459 10.096-.097 8.969.014 8.09.1 7.593.574 7.54.628c-.054.053-.527.55-.614 1.43-.111 1.128.446 2.312 1.655 3.522C9.8 6.8 11.315 7.045 12.34 7.045c.155 0 .298-.006.428-.014a13.471 13.471 0 00-.29 1.815 18.088 18.088 0 01-2.428-.342 8.328 8.328 0 00-1.718-.18A8.324 8.324 0 001.192 12.4a8.246 8.246 0 00-1.066 3.033.469.469 0 00.928.134c.137-.955.455-1.86.946-2.69A7.382 7.382 0 018.33 9.26c.51 0 1.024.054 1.526.16.845.179 1.706.3 2.565.361-.014.53 0 1.001.024 1.385-.908-.09-1.49-.234-1.503-.238a.469.469 0 00-.233.908c.605.292 4.611.527 6.135.003a.469.469 0 10-.216-.913c-.483.114-.962.191-1.423.24a13.005 13.005 0 01-.029-1.387c.845-.062 1.69-.182 2.52-.356l.01-.003a7.392 7.392 0 011.526-.16c2.235 0 4.32.998 5.721 2.738.119.152.442.272.68.053 1.027-.929 2.355-1.008 3.55-.21 1.238.824 2.177 2.548 1.576 4.247a.295.295 0 00-.006.018l-3.002 9.736a7.37 7.37 0 01-1.95 3.152 7.368 7.368 0 01-3.242 1.8 7.38 7.38 0 01-7.033-1.919c-1.937-1.845-2.229-4.4-.478-6.244l9.046-9.046a.469.469 0 10-.663-.663l-9.046 9.046c-3.118 3.345-.694 7.352 2.396 8.995-.881-.287-1.982-.618-3-.587-.875 0-1.736.153-2.558.456-1.67.66-3.812-.136-4.63-1.775l-4.761-9.007a7.333 7.333 0 01-.782-2.42.469.469 0 00-.928.13c.133.956.43 1.874.88 2.728l4.762 9.007c1.064 2.051 3.574 3.034 5.783 2.216a6.45 6.45 0 014.468 0c.888.332 2 .398 3.023.076 2.542.565 5.495-.243 7.41-2.114a8.31 8.31 0 002.2-3.555l2.999-9.727c.753-2.148-.406-4.307-1.943-5.331zM9.06.947c.823-.081 1.78.398 2.767 1.385.988.988 1.185 2.258 1.186 3.108L8.623 1.049A1.71 1.71 0 019.06.947zm.182 3.97C7.695 3.369 7.75 2.27 7.96 1.71l4.392 4.392c-.85-.002-2.12-.198-3.108-1.186zm4.81 6.318c-.172.003-.392.002-.665-.006-.282-4.076 1.046-7.844 4.456-9.355a.436.436 0 01.579.22.44.44 0 01-.221.58c-3.384 1.433-4.176 5.475-3.934 8.556l-.216.005z" /><path d="M19.909 19.506l-.023.91a.469.469 0 00.457.48h.012a.469.469 0 00.468-.457l.023-.91a.469.469 0 00-.937-.023zM22.07 17.346a.469.469 0 00.01.937h.013l.91-.023a.469.469 0 10-.024-.937l-.91.023z" /></symbol><symbol viewBox="0 0 32 32" id="ic-barrel"><path d="M1.132 22.452a.5.5 0 00-.13.38c.138 1.615.315 3.26.528 4.892a.5.5 0 00.496.435h.824c.152 1.145.327 2.295.523 3.426a.5.5 0 00.493.415h23.867a.5.5 0 00.493-.415c.196-1.131.371-2.282.524-3.426h.824a.5.5 0 00.496-.435c.212-1.631.39-3.277.528-4.892a.5.5 0 00-.498-.542h-.764a93.301 93.301 0 00-.028-12.58h.792a.5.5 0 00.498-.542c-.138-1.615-.316-3.26-.528-4.892a.5.5 0 00-.496-.435h-.849A105.215 105.215 0 0028.227.42a.5.5 0 00-.494-.42H3.866a.5.5 0 00-.493.42c-.186 1.139-.352 2.287-.499 3.42h-.849a.5.5 0 00-.495.436c-.213 1.631-.39 3.277-.528 4.892a.5.5 0 00.498.542h.791a93.304 93.304 0 00-.027 12.58H1.5a.502.502 0 00-.368.162zm2.726 5.707h3.14c.127.945.27 1.896.427 2.841H4.288a88.206 88.206 0 01-.43-2.84zm15.077 0V31h-6.27v-2.84h6.27zm4.657 0a92.989 92.989 0 01-.431 2.84h-3.226v-2.84h3.657zM11.665 31H8.439a93.167 93.167 0 01-.432-2.84h3.658V31zm15.647 0h-3.137c.157-.945.3-1.895.427-2.84h3.14a89.07 89.07 0 01-.43 2.84zm1.021-8.71h-3.132c.29-4.188.29-8.392 0-12.58h3.105c.295 4.188.304 8.39.027 12.58zm-8.398 0V9.71h4.264a89.879 89.879 0 010 12.58h-4.264zm-7.27 0V9.71h6.27v12.58h-6.27zm-5.264 0a89.895 89.895 0 010-12.58h4.264v12.58H7.401zM27.717 3.84h-3.115A93.198 93.198 0 0024.175 1h3.133c.15.947.286 1.898.41 2.84zm-15.052 0V1h6.27v2.84h-6.27zm-4.658 0c.129-.945.273-1.896.432-2.84h3.226v2.84H8.007zM19.935 1h3.226c.158.944.303 1.895.432 2.84h-3.658V1zM4.292 1h3.133c-.157.945-.3 1.896-.427 2.84H3.882c.123-.941.26-1.893.41-2.84zM2.466 4.84h26.668c.163 1.292.304 2.59.42 3.87H2.046c.116-1.28.257-2.578.42-3.87zm.827 4.87h3.105a90.9 90.9 0 000 12.58H3.266a92.299 92.299 0 01.027-12.58zm26.26 13.58a110.772 110.772 0 01-.419 3.87H2.465c-.162-1.292-.303-2.59-.42-3.87h27.509zM9.86 25.224a.5.5 0 01.5-.5h.024a.5.5 0 010 1h-.024a.5.5 0 01-.5-.5zm5.429 0a.5.5 0 01.5-.5h.024a.5.5 0 010 1h-.024a.5.5 0 01-.5-.5zm-10.858 0a.5.5 0 01.5-.5h.024a.5.5 0 010 1H4.93a.5.5 0 01-.5-.5zm16.286 0a.5.5 0 01.5-.5h.025a.5.5 0 010 1h-.024a.5.5 0 01-.5-.5zm5.43 0a.5.5 0 01.5-.5h.023a.5.5 0 010 1h-.024a.5.5 0 01-.5-.5zM10.882 6.775a.5.5 0 01-.5.5h-.024a.5.5 0 010-1h.024a.5.5 0 01.5.5zm4.404 0a.5.5 0 01.5-.5h.024a.5.5 0 010 1h-.024a.5.5 0 01-.5-.5zm-9.833 0a.5.5 0 01-.5.5H4.93a.5.5 0 010-1h.024a.5.5 0 01.5.5zm15.262 0a.5.5 0 01.5-.5h.025a.5.5 0 110 1h-.025a.5.5 0 01-.5-.5zm5.43 0a.5.5 0 01.5-.5h.023a.5.5 0 110 1h-.024a.5.5 0 01-.5-.5z" /></symbol><symbol viewBox="0 0 33 32" id="ic-cinnamon"><path d="M11.34 28.3a.469.469 0 100-.938.469.469 0 000 .938zM23.786 6.592a.469.469 0 100-.937.469.469 0 000 .937zM11.886 25.627a.469.469 0 100-.938.469.469 0 000 .938zM30.266 14.827a.469.469 0 100-.938.469.469 0 000 .938zM6.106 15.615a.469.469 0 100-.937.469.469 0 000 .937z" /><path d="M32.687 11.845a.537.537 0 00-.397-.145l-4.569.253a.469.469 0 00.052.936l4.144-.23v3.265h-5.5c-.522 0-1.031-.148-1.472-.427l-.41-.26a3.696 3.696 0 00-3.342-.309l-.261.104a94.7 94.7 0 011.149-1.826l3.506-.195a.469.469 0 10-.052-.936l-2.82.157 5.248-8.027a.537.537 0 00-.18-.755l-3.545-2.047a.536.536 0 00-.73.196l-.164.284L21.536.839a.537.537 0 00-.744.222l-1.725 3.41a.469.469 0 10.837.424l1.532-3.031 1.44.83-2.32 4.017a3.682 3.682 0 00-.49 1.995l.02.485c.036.88-.355 1.73-1.047 2.274l-1.164.916a4.624 4.624 0 00-1.669 2.703 3.676 3.676 0 01-.96 1.821l-1.278 1.322c-.262.27-.49.574-.68.9L8.17 27.995l-1.407-.812 5.32-8.136a96.95 96.95 0 005.357-9.278l1.466-2.9a.469.469 0 10-.837-.423l-1.466 2.9a95.14 95.14 0 01-1.61 3.047 96.186 96.186 0 01-3.443-.13L1.419 11.7a.537.537 0 00-.565.533v6.764a.537.537 0 00.565.534l4.97-.276a.469.469 0 10-.053-.936l-4.544.252v-1.624h10.237c.097 0 .194-.003.29-.01-.228.365-.458.727-.69 1.088l-3.07.17a.469.469 0 00.025.937c.023 0-.124.007 2.41-.133l-5.248 8.026a.537.537 0 00.18.756l5.857 3.381a.537.537 0 00.745-.221l4.578-9.056a95.335 95.335 0 011.61-3.046c1.145.022 2.302.066 3.443.129l9.268.515a.537.537 0 00.565-.534V16.86h.328c.295 0 .535-.24.535-.534v-4.094a.537.537 0 00-.168-.388zm-19.765 4.054c-.292.073-.592.11-.893.11H1.792v-3.35l9.706.54c.986.054 1.984.094 2.977.119-.49.864-.993 1.722-1.509 2.57l-.044.011zm3.347 5.563l-4.386 8.675-2.901-1.675 5.119-8.865c.15-.26.332-.502.541-.719l1.278-1.321a4.611 4.611 0 001.205-2.285 3.686 3.686 0 011.33-2.155l1.164-.915a3.697 3.697 0 001.403-3.05l-.02-.484a2.746 2.746 0 01.366-1.488l2.553-4.422.198-.342 2.827 1.632c-5.026 7.687-7.622 11.371-10.677 17.414zm14.785-2.939l-8.843-.491a96.956 96.956 0 00-2.977-.12c.294-.519.593-1.036.897-1.55l1.41-.563a2.756 2.756 0 012.492.23l.41.26a3.682 3.682 0 001.974.572h4.637v1.662z" /></symbol><symbol viewBox="0 0 58 70" id="ic-circle-arrow"><style>#ic-circle-arrow .st0{fill:#b17c57}</style><path class="st0" d="M40.9 22c-2-2-4.5-3.3-7.5-3.9-.4-4.2-2.9-4.8-4.4-4.8-1.5 0-4 .7-4.4 4.8-3 .6-5.5 1.9-7.5 3.9-3.3 3.3-4.9 8.3-4.9 15 0 5.9 2.8 13.1 8.2 21.5 4 6.2 8.1 10.7 8.1 10.8h.1l.1.1h.6s.1 0 .1-.1h.1c0-.1 4.1-4.6 8.1-10.8 5.4-8.4 8.2-15.6 8.2-21.5 0-6.7-1.6-11.8-4.9-15zM29 14.7c2 0 3 1.5 3 4.6 0 2.8-2 6.2-3 7.8-1-1.6-3-5-3-7.8 0-3 1-4.6 3-4.6zm7.3 23.7c-.4-.1-.8.1-.9.5l-5.7 23.3V33c0-.4-.3-.7-.7-.7s-.7.3-.7.7v29l-5.7-23.1c-.1-.4-.5-.6-.9-.5-.4.1-.6.5-.5.9L27.4 65c-3.2-5.3-9-16.1-9-24.9 0-7.8 2.3-12.9 5.8-12.9 1.3 0 2.8.7 4.3 2.1.3.3.7.3 1 0 1.4-1.3 2.9-2 4.2-2 3.5 0 5.8 5 5.8 12.8 0 8.8-5.8 19.6-9 24.9l6.3-25.7c.1-.4-.1-.8-.5-.9zM13.6 37c0-9.8 3.8-15.7 10.9-17.4.1 2.3 1.3 4.9 2.3 6.8-.9-.4-1.8-.6-2.6-.6-3.5 0-7.3 3.8-7.3 14.3 0 6.3 2.7 13.4 5.5 19-4.1-6.3-8.8-14.8-8.8-22.1zm21.9 22.1c2.8-5.6 5.5-12.7 5.5-19 0-10.5-3.8-14.3-7.3-14.3-.8 0-1.7.2-2.6.6 1-1.8 2.2-4.4 2.3-6.8 7.2 1.6 10.9 7.6 10.9 17.4.1 7.3-4.5 15.8-8.8 22.1zM29 12.7c.3 0 .5-.1.6-.4.1-.2 2.2-4 2.2-7.1 0-4.1-1.8-4.7-2.9-4.7S26 1.1 26 5.2c0 3.1 2.1 6.9 2.2 7.1.3.2.5.4.8.4zM29 2c1.2 0 1.4 1.7 1.4 3.2 0 1.7-.8 3.8-1.4 5.1-.6-1.3-1.4-3.4-1.4-5.1 0-1.5.3-3.2 1.4-3.2z" /><path class="st0" d="M29 64C13 64 0 51 0 35S13 6 29 6s29 13 29 29-13 29-29 29zm0-57C13.6 7 1 19.6 1 35s12.6 28 28 28 28-12.6 28-28S44.4 7 29 7z" /></symbol><symbol viewBox="0 0 32 32" id="ic-citrus"><path d="M29.22 12.225a1.23 1.23 0 00-1.799-.064l-4.532 4.532c-.415-4.984-4.06-9.191-8.997-10.256-.403-.63-1.159-1.161-1.933-1.289.111-1.115.418-2.502 1.199-3.58a.469.469 0 10-.76-.55c-.925 1.277-1.269 2.873-1.384 4.123-.728.104-1.53.598-1.977 1.296C3.789 7.57 0 12.252 0 17.644v2.066c0 3.1 1.218 6.005 3.43 8.178a.467.467 0 00.663-.006.469.469 0 00-.006-.663 10.45 10.45 0 01-3.15-7.51v-2.065c0-5.007 3.559-9.349 8.462-10.324a.469.469 0 00.286-.182l.23-.312c.3-.35.505-.548 1.047-.716a9.987 9.987 0 00.036 1.082.468.468 0 00.933-.096 9.503 9.503 0 01-.027-1.003c.44.104.838.362 1.11.733l.23.312c.069.094.171.159.286.182 4.886.972 8.436 5.286 8.461 10.27l-9.005 9.006a1.23 1.23 0 00.064 1.799 11.46 11.46 0 001.814 1.28c-1.089.373-2.228.562-3.4.562-2.046 0-4.03-.588-5.737-1.7a.469.469 0 00-.511.786 11.42 11.42 0 006.248 1.851c1.577 0 3.102-.314 4.535-.932a11.44 11.44 0 004.933.926c2.911-.1 5.65-1.29 7.71-3.352a11.423 11.423 0 003.351-7.71 11.42 11.42 0 00-2.773-7.881zm-1.168 7.867h.007l1.093-.014a8.596 8.596 0 01-2.193 5.393l-5.305-5.306 4.208-.049a.469.469 0 00-.005-.938h-.006l-4.17.05 5.278-5.28a8.594 8.594 0 012.183 5.192l-1.096.015a.469.469 0 00.006.937zm-7.975.74l-.088 7.485a8.553 8.553 0 01-5.215-2.183l5.303-5.303zm.937.02l5.283 5.282a8.557 8.557 0 01-5.37 2.192l.087-7.475zm10.042-.778a10.489 10.489 0 01-3.077 7.08 10.49 10.49 0 01-7.447 3.083c-2.528 0-4.954-.9-6.869-2.552a.29.29 0 01-.014-.426l.461-.461a9.498 9.498 0 006.425 2.474c2.559 0 4.961-.993 6.765-2.798a9.538 9.538 0 002.796-6.872v-.005-.004a9.537 9.537 0 00-2.473-6.308l.461-.461a.29.29 0 01.426.014 10.487 10.487 0 012.546 7.236z" /><path d="M10.262 9.285a.469.469 0 100-.938.469.469 0 000 .938zM12.668 9.285a.469.469 0 100-.938.469.469 0 000 .938zM9.059 10.974a.469.469 0 100-.937.469.469 0 000 .937zM11.465 10.974a.469.469 0 100-.937.469.469 0 000 .937z" /></symbol><symbol viewBox="0 0 32 33" id="ic-date-fruit"><path d="M26.818 11.13V6.889l3.595-3.595c.462-.466.606-1.262-.013-1.881-.62-.62-1.415-.476-1.883-.012L26.62 3.297a.469.469 0 00.663.663l1.895-1.896c.256-.253.492-.056.559.01.066.067.263.304.012.557l-3.731 3.731-1.99 1.99a2.382 2.382 0 00-.703 1.696v1.256c0 .855-.333 1.66-.937 2.264l-2.907 2.907a3.18 3.18 0 01-2.264.938h-2.231a.4.4 0 01-.285-.118l-.011-.011c-.13-.12-.119-.299-.066-.426.025-.06.124-.256.345-.25l.017.001h2.23c.641 0 1.243-.25 1.696-.702L21.82 13a2.383 2.383 0 00.703-1.696v-1.257c0-.855.333-1.659.937-2.264l2.273-2.272a.469.469 0 00-.663-.663L22.796 7.12a4.17 4.17 0 00-.584.734l-1.624-.062c.122-1.471-1.055-2.817-2.566-2.812h-4.427a6.174 6.174 0 00-3.411 1.025l-1.226.809a1.893 1.893 0 00-.849 1.434 1.893 1.893 0 00.605 1.553 6.174 6.174 0 004.204 1.646h5.104c1.452.01 2.64-1.252 2.566-2.717l1.195.046c-.13.406-.2.833-.2 1.271v1.257c0 .39-.151.757-.427 1.033l-2.907 2.907a1.451 1.451 0 01-1.032.427H15.98a2.553 2.553 0 00-2.508-2.025H9.044a6.178 6.178 0 00-3.411 1.024l-1.226.81a1.893 1.893 0 00-.849 1.434 1.893 1.893 0 00.606 1.553 6.173 6.173 0 004.203 1.646h4.712l-2.54 2.54-.305-.305c-1-1-2.628-1-3.628 0l-3.61 3.61a6.174 6.174 0 00-1.808 4.136c-.057 1.158 1.052 2.206 2.285 1.94l1.438-.295a6.175 6.175 0 003.137-1.688l3.13-3.13a2.549 2.549 0 00.752-1.814c0-.674-.259-1.308-.728-1.79l3.533-3.533a2.544 2.544 0 001.174-1.433h.822l-.074 2.175c-1.444-.09-2.735 1.092-2.73 2.566v.72a.469.469 0 10.937 0v-.72c0-.898.73-1.628 1.628-1.628h1.336c.898 0 1.628.73 1.628 1.628v4.427c0 1.033-.3 2.033-.87 2.895l-.808 1.225c-.29.46-1.072.612-1.517.124a5.24 5.24 0 01-1.396-3.567V26.01a.469.469 0 10-.938 0v2.186c0 1.563.584 3.056 1.646 4.204.752.863 2.328.8 2.987-.244l.81-1.226a6.174 6.174 0 001.024-3.41v-4.428c.011-1.488-1.307-2.674-2.799-2.566l.076-2.2a4.107 4.107 0 002.473-1.188l1.412-1.413v4.841c0 1.563.585 3.056 1.646 4.204.752.864 2.329.8 2.988-.244l.809-1.225a6.174 6.174 0 001.024-3.411v-4.428a2.57 2.57 0 00-2.215-2.541l.507-.533c.325-.34.503-.787.503-1.257zM19.65 8.883a1.63 1.63 0 01-1.628 1.627h-5.104a5.24 5.24 0 01-3.567-1.396.961.961 0 01-.307-.789.96.96 0 01.43-.728l1.226-.809a5.239 5.239 0 012.895-.869h4.427c.898 0 1.628.73 1.628 1.628v1.336zM6.452 18.814A5.24 5.24 0 014.8 17.78a.96.96 0 01-.307-.788.96.96 0 01.431-.729l1.225-.809a5.24 5.24 0 012.895-.869h4.428c.712 0 1.315.45 1.536 1.087h-.051c-.522 0-.99.321-1.2.829l-.014.037h-2.585a.469.469 0 100 .938h2.566c.066.183.174.35.32.49.23.227.528.36.848.381a1.612 1.612 0 01-.669.647c-.225.116-.48.183-.751.183H8.367a5.23 5.23 0 01-1.915-.362zm4.063 7.444l-3.13 3.13a5.239 5.239 0 01-2.662 1.432l-.666.137.241-.793a1.89 1.89 0 01.47-.784l1.336-1.336a.469.469 0 00-.663-.663l-1.335 1.335c-.327.327-.57.733-.705 1.175l-.378 1.24c-.428-.016-.928-.45-.898-1a5.239 5.239 0 011.535-3.51l3.609-3.61a1.623 1.623 0 011.15-.476c.418 0 .834.159 1.152.476l.944.945c.308.307.477.716.477 1.15 0 .435-.17.844-.477 1.152zm16.57-10.796v4.428c0 1.032-.3 2.033-.869 2.894l-.386.585-.88-1.56a2.517 2.517 0 01-.325-1.235V16.17a.469.469 0 10-.938 0v4.404c0 .593.154 1.18.446 1.696l1.095 1.941c-.316.288-.97.33-1.337-.077a5.24 5.24 0 01-1.397-3.568v-5.104c0-.897.73-1.628 1.628-1.628h1.336c.897 0 1.627.73 1.627 1.628zm-1.449-3.72l-1.1 1.155c-.29.004-.249-.01-.592.007.21-.5.32-1.042.32-1.6v-1.256c0-.39.151-.757.427-1.033l1.19-1.19v3.306a.882.882 0 01-.245.61z" /><path d="M17.216 28.641c.17 0 .335-.093.418-.255l.488-.955c.16-.316.246-.671.246-1.026v-2.593a.469.469 0 10-.938 0v2.593c0 .207-.05.415-.144.6l-.487.954a.469.469 0 00.417.682zM17.24 7.53a1.815 1.815 0 00-1.362-.617h-2.42a.469.469 0 100 .938h2.42c.252 0 .491.109.658.298l.328.374a.468.468 0 00.662.043.469.469 0 00.043-.662l-.328-.374z" /></symbol><symbol viewBox="0 0 52 25" id="ic-decor-arrow-left"><path d="M35.843 21.358c1.479-1.463 2.46-3.336 2.92-5.58 3.137-.298 3.635-2.133 3.635-3.263S41.9 9.55 38.755 9.252c-.468-2.244-1.433-4.117-2.92-5.58C33.378 1.233 29.569 0 24.507 0c-4.457 0-9.91 2.044-16.209 6.072C3.636 9.052.22 12.076.181 12.106c-.008.008-.015.022-.023.03-.015.015-.022.022-.03.037-.015.022-.03.037-.045.06-.008.014-.015.03-.023.037-.015.022-.022.052-.03.074 0 .015-.007.022-.015.037A.64.64 0 000 12.5c0 .037 0 .082.015.119 0 .015.008.022.015.037a.22.22 0 00.03.074c0 .015.015.03.023.037.015.023.03.045.045.06.008.015.023.022.03.037.008.008.015.022.023.03.038.03 3.455 3.054 8.116 6.034C14.595 22.956 20.05 25 24.507 25c5.053 0 8.87-1.234 11.336-3.664v.023zm5.454-8.85c0 1.47-1.162 2.222-3.455 2.222-2.074 0-4.661-1.465-5.853-2.223 1.192-.758 3.779-2.222 5.853-2.222 2.293 0 3.455.743 3.455 2.222zm-17.839 5.425a.545.545 0 00-.407-.662L5.469 13.028h22.055a.55.55 0 00.55-.543.55.55 0 00-.55-.542H5.627l17.431-4.207a.553.553 0 00.408-.661.562.562 0 00-.672-.401L3.402 11.348C7.437 8.94 15.553 4.652 22.198 4.652c5.891 0 9.7 1.695 9.7 4.31 0 .982-.543 2.074-1.56 3.159a.534.534 0 000 .736c1.002 1.062 1.53 2.148 1.53 3.121 0 2.638-3.794 4.348-9.67 4.348-6.645 0-14.76-4.288-18.796-6.696l19.392 4.674a.554.554 0 00.672-.401l-.008.03zm1.049-16.848c7.406 0 11.88 2.794 13.116 8.123-1.765.067-3.718.951-5.106 1.716.317-.66.483-1.315.483-1.947 0-2.608-2.836-5.395-10.81-5.395-4.766 0-10.122 2.029-14.353 4.102 4.752-3.166 11.17-6.599 16.67-6.599zM7.836 17.331c4.232 2.073 9.587 4.102 14.354 4.102 7.942 0 10.778-2.81 10.778-5.433 0-.624-.158-1.27-.467-1.917 1.388.773 3.349 1.657 5.114 1.724-1.237 5.329-5.703 8.123-13.11 8.123-5.498 0-11.917-3.434-16.669-6.6zM42.858 12.515c0 .193.106.379.28.476.12.066 3.001 1.65 5.34 1.65C51.54 14.64 52 13.31 52 12.514c0-.795-.46-2.126-3.523-2.126-2.338 0-5.22 1.583-5.34 1.65a.54.54 0 00-.279.476zm8.033 0c0 .854-1.312 1.033-2.413 1.033-1.29 0-2.844-.595-3.832-1.033.98-.446 2.542-1.033 3.831-1.033 1.102 0 2.414.178 2.414 1.033z" /></symbol><symbol viewBox="0 0 39 20" id="ic-decor-arrow-right"><path d="M12.117 16.733c-1.108-1.113-1.844-2.537-2.189-4.242-2.353-.226-2.727-1.621-2.727-2.48 0-.858.374-2.253 2.733-2.48.35-1.705 1.075-3.128 2.19-4.24C13.966 1.437 16.823.5 20.62.5c3.343 0 7.433 1.553 12.157 4.614 3.496 2.265 6.059 4.564 6.087 4.587.006.005.012.017.017.022.011.012.017.017.023.028.011.017.022.029.034.046a.123.123 0 00.017.028c.011.017.017.04.022.056 0 .012.006.017.012.029A.499.499 0 0139 10c0 .028 0 .062-.011.09 0 .012-.006.017-.012.029a.169.169 0 01-.022.056c0 .011-.012.023-.017.028a.31.31 0 01-.034.046c-.006.01-.017.016-.023.028-.005.005-.011.017-.017.022-.028.023-2.59 2.322-6.087 4.587-4.724 3.06-8.814 4.614-12.157 4.614-3.79 0-6.653-.938-8.503-2.785v.018zm-4.09-6.727c0 1.118.872 1.688 2.591 1.688 1.556 0 3.496-1.112 4.39-1.688-.894-.576-2.834-1.69-4.39-1.69-1.72 0-2.59.566-2.59 1.69zm13.38 4.123a.414.414 0 01.305-.503l13.187-3.225H18.357a.415.415 0 01-.413-.412c0-.226.187-.413.413-.413H34.78L21.706 6.38a.42.42 0 01-.305-.503.421.421 0 01.503-.305L36.45 9.125c-3.027-1.83-9.114-5.09-14.098-5.09-4.418 0-7.275 1.288-7.275 3.277 0 .745.407 1.575 1.171 2.4a.41.41 0 010 .56c-.752.807-1.148 1.631-1.148 2.371 0 2.005 2.845 3.304 7.252 3.304 4.984 0 11.071-3.258 14.098-5.088L21.904 14.41a.415.415 0 01-.503-.305l.005.023zM20.62 1.325c-5.555 0-8.91 2.123-9.838 6.173 1.324.05 2.79.723 3.83 1.305-.237-.503-.362-1-.362-1.48 0-1.983 2.127-4.1 8.107-4.1 3.575 0 7.592 1.541 10.765 3.117-3.564-2.406-8.378-5.015-12.502-5.015zM33.122 13.67c-3.173 1.576-7.19 3.118-10.765 3.118-5.957 0-8.084-2.135-8.084-4.129 0-.474.119-.966.35-1.457-1.04.587-2.511 1.26-3.835 1.31.928 4.05 4.277 6.174 9.832 6.174 4.124 0 8.938-2.61 12.502-5.016zM6.856 10.011c0 .147-.079.288-.209.362-.09.05-2.251 1.254-4.005 1.254C.345 11.627 0 10.616 0 10.01c0-.604.345-1.615 2.642-1.615 1.754 0 3.915 1.203 4.005 1.254a.41.41 0 01.21.361zm-6.024 0c0 .65.984.785 1.81.785.967 0 2.133-.451 2.874-.785-.736-.339-1.907-.785-2.874-.785-.826 0-1.81.136-1.81.785z" /></symbol><symbol viewBox="0 0 32 32" id="ic-fire"><path d="M14.333 25.199a.63.63 0 00-.442-.184.63.63 0 00-.442.184.63.63 0 00-.183.441.63.63 0 00.183.442.63.63 0 00.442.183.63.63 0 00.442-.183.63.63 0 00.183-.442.63.63 0 00-.183-.441z" /><path d="M25.68 26.11l-.012-.008-.013-.008-.027-.015-3.324-1.919a3.155 3.155 0 00-1.991-4.468 4.19 4.19 0 00.802-2.469 4.189 4.189 0 00-.721-2.357A42.41 42.41 0 0020 14.21c-.763-1.256-1.483-2.443-1.197-3.673a.625.625 0 00-.837-.723c-.851.333-1.612 1-2.14 1.88-.096.157-.18.316-.252.474-.693-.622-1.427-.711-1.473-.716a.625.625 0 00-.64.87c.005.013.535 1.269-.13 2.664a4.187 4.187 0 00-.644 2.237c0 .875.268 1.687.725 2.361-.234.01-.468.044-.7.106a3.135 3.135 0 00-1.916 1.47 3.166 3.166 0 00-.084 3.001l-3.37 1.945-.002.002H7.34l-.002.002a3.16 3.16 0 00-1.155 4.31A3.172 3.172 0 008.92 32c.547 0 1.086-.143 1.573-.424l6.015-3.473 6.016 3.473a3.137 3.137 0 002.394.315 3.135 3.135 0 001.917-1.47 3.16 3.16 0 00-1.155-4.312zM14.22 15.96a4.673 4.673 0 00.688-2.686c.154.18.299.413.411.717a.625.625 0 001.188-.384c-.098-.354.272-1.343 1.011-2.042.144 1.2.81 2.296 1.415 3.294.13.215.265.438.391.654a2.97 2.97 0 01.306.551l.002.005a2.965 2.965 0 01-1.22 3.703c-.172.063-.34.14-.502.233l-.02.012a2.967 2.967 0 01-3.671-4.056zm-2.341 5.825a1.916 1.916 0 011.654-.954c.33 0 .656.087.95.257l.776.448-3.461 1.998a1.912 1.912 0 01.08-1.749zm-2.007 8.706l-.003.002c-.441.255-.955.322-1.447.19a1.893 1.893 0 01-1.157-.887 1.893 1.893 0 01-.19-1.447c.131-.492.447-.903.888-1.157l.005-.003c.44-.254.953-.321 1.444-.19a1.908 1.908 0 01.46 3.492zm2.176-1.256a3.14 3.14 0 00-.396-1.972 3.132 3.132 0 00-1.508-1.33l8.285-4.784c.171-.067.337-.144.497-.232a1.883 1.883 0 011.056-.02c.18.048.348.121.502.215l-4.893 2.825a.625.625 0 10.625 1.083l5.066-2.925c.306.85-.03 1.827-.84 2.294l-8.394 4.846zm9.296-1.986a3.139 3.139 0 00-.396 1.973l-3.189-1.84 3.308-1.91a3.16 3.16 0 00.456-.322v.002l1.33.768a3.14 3.14 0 00-1.51 1.33zm4.41 2.547c-.255.44-.666.756-1.158.888a1.894 1.894 0 01-1.447-.19l-.013-.009-.012-.007a1.908 1.908 0 01-.698-2.604 1.908 1.908 0 012.578-.712l.052.03a1.909 1.909 0 01.697 2.604zM11.25.084l-.11-.042a.625.625 0 00-.834.724c.085.364-.164.774-.452 1.248-.054.09-.108.178-.16.267a2.108 2.108 0 00-.355 1.178 2.12 2.12 0 002.112 2.104c.558 0 1.083-.216 1.481-.608.406-.4.629-.934.629-1.503V3.45A3.594 3.594 0 0011.249.084zm.805 3.98a.85.85 0 01-.617.249.865.865 0 01-.783-1.192l.003-.006a.85.85 0 01.081-.148.656.656 0 00.025-.04c.051-.088.105-.176.158-.264.187-.307.397-.653.526-1.035.538.439.861 1.1.863 1.824 0 .232-.091.45-.256.613z" /><path d="M28.447 3.868a.625.625 0 00-.45-.793c-.06-.014-1.473-.343-3.133.142-1.2.351-2.714 1.191-3.804 3.164a10.136 10.136 0 00-1.138-2.358C18.722 2.184 16.95.806 14.796.037a.625.625 0 00-.807.773c.735 2.37.41 4.64-.968 6.752a10.417 10.417 0 01-2.049 2.287c-.522-.4-1.525-1.48-1.301-3.778a.625.625 0 00-.991-.565c-1.387 1.016-2.458 2.562-3.183 4.595-.624 1.75-.954 3.782-.954 5.875 0 2.966 1.093 5.811 3.078 8.012a.623.623 0 00.883.045.625.625 0 00.045-.883 10.694 10.694 0 01-2.756-7.174c0-2.844.711-6.378 2.63-8.548.288 2.778 2.231 3.705 2.326 3.75.2.091.434.07.616-.054.06-.042 1.488-1.037 2.676-2.839 1.347-2.044 1.836-4.302 1.442-6.597 3.445 1.739 4.62 5.026 4.76 6.836a.625.625 0 001.221.132c1.261-4.184 4.23-4.525 5.57-4.451l-.871 2.8c-.68 2.186-.615 4.57.182 6.715 1.025 2.757.674 5.833-.938 8.23a.625.625 0 101.038.697c1.836-2.73 2.236-6.23 1.072-9.362a9.201 9.201 0 01-.16-5.908l1.09-3.509z" /><path d="M9.874 20.823a8.16 8.16 0 01-1.296-2.697.625.625 0 00-1.207.326 9.405 9.405 0 001.494 3.109.624.624 0 101.01-.738zM7.668 15.35a.625.625 0 00-.625.626v.007a.625.625 0 001.25 0v-.007a.625.625 0 00-.625-.625z" /></symbol><symbol viewBox="0 0 18 18" id="ic-flower"><path d="M7.28 14.543c1.03-1.25 1.14-2.14 1.23-2.85.05-.38.08-.64.24-.91.16.27.2.53.24.91.09.71.19 1.6 1.23 2.85 1.61 1.95 3.76 2.89 5.18 2.96.7.03 1.26-.13 1.61-.49.35-.35.52-.91.49-1.61-.07-1.42-1.01-3.57-2.96-5.18-1.25-1.03-2.14-1.14-2.85-1.23-.38-.05-.64-.08-.91-.24.27-.16.53-.2.91-.24.71-.09 1.6-.19 2.85-1.23 1.95-1.61 2.89-3.76 2.96-5.18.03-.7-.13-1.26-.49-1.61-.35-.35-.91-.52-1.61-.49-1.42.07-3.57 1.01-5.18 2.96-1.03 1.25-1.14 2.14-1.23 2.85-.05.38-.08.64-.24.91-.16-.27-.2-.53-.24-.91-.09-.71-.19-1.6-1.23-2.85C5.67 1.013 3.52.073 2.1.003 1.4-.027.84.143.49.493c-.32.32-.49.82-.49 1.44v.17c.07 1.42 1.01 3.57 2.96 5.18 1.25 1.03 2.14 1.14 2.85 1.23.38.05.64.08.91.24-.27.16-.53.2-.91.24-.71.09-1.6.19-2.85 1.23-1.95 1.61-2.89 3.77-2.96 5.18v.17c0 .62.17 1.12.49 1.44.35.35.91.52 1.61.49 1.42-.07 3.57-1.01 5.18-2.96zm.89-5.79a.58.58 0 111.16.001.58.58 0 01-1.16 0zm5.66 2.32c1.68 1.39 2.5 3.25 2.56 4.38.02.43-.07.68-.16.77-.09.09-.34.18-.77.16-1.14-.05-2.99-.88-4.38-2.56-.83-1-.91-1.65-.98-2.28-.05-.45-.11-.91-.43-1.4.2-.13.37-.3.5-.5.48.31.95.37 1.4.43.63.08 1.27.15 2.28.98l-.02.02zm-2.76-7.41c1.39-1.68 3.25-2.5 4.38-2.56.43-.02.68.07.77.16.09.09.18.34.16.77-.05 1.14-.88 2.99-2.56 4.38-1 .83-1.65.91-2.28.98-.45.05-.91.11-1.4.43-.13-.2-.3-.37-.5-.5.31-.48.37-.95.43-1.4.08-.63.15-1.27.98-2.28l.02.02zm-7.41 2.76c-1.67-1.38-2.5-3.24-2.55-4.37-.02-.43.07-.68.16-.77.09-.09.34-.18.77-.16 1.14.05 2.99.88 4.38 2.56.83 1 .91 1.65.98 2.28.05.45.11.91.43 1.4-.2.13-.37.3-.5.5-.48-.31-.95-.37-1.4-.43-.63-.08-1.27-.15-2.28-.98l.01-.03zm-2.55 9.04c.05-1.14.88-2.99 2.56-4.38 1-.83 1.65-.91 2.28-.98.45-.05.91-.11 1.4-.43.13.2.3.37.5.5-.31.48-.37.95-.43 1.4-.08.63-.15 1.27-.98 2.28-1.39 1.68-3.25 2.5-4.38 2.56-.43.02-.68-.07-.77-.16-.09-.09-.18-.34-.16-.77l-.02-.02z" /></symbol><symbol viewBox="0 0 32 33" id="ic-gold"><path d="M29.009 19.508A2.994 2.994 0 0032 16.517c0-1.65-1.342-2.99-2.991-2.99a2.966 2.966 0 00-2.987 2.87l-2.814.397a4.925 4.925 0 00-4.608-2.83l-.525-2.676a4.23 4.23 0 003.055-3.954l3.29-1.561a2.515 2.515 0 002.122.786 2.52 2.52 0 001.703-.932c.425-.528.618-1.19.546-1.864a2.521 2.521 0 00-.933-1.703 2.518 2.518 0 00-1.863-.545 2.52 2.52 0 00-1.703.932 2.52 2.52 0 00-.479 2.227L20.957 6.03A4.228 4.228 0 0016.91 3.01a4.226 4.226 0 00-4.221 4.221 4.208 4.208 0 004.14 4.22h.002l.532 2.711A4.937 4.937 0 0014.03 17.5l-5.18-1.075a4.45 4.45 0 00-4.406-5.03A4.45 4.45 0 000 15.838a4.45 4.45 0 004.444 4.444 4.45 4.45 0 004.066-2.65l5.326 1.106-.002.143c0 1.448.63 2.752 1.629 3.652l-2.355 4.058a2.769 2.769 0 00-3.459 2.678 2.768 2.768 0 002.766 2.766 2.77 2.77 0 002.767-2.766c0-.838-.373-1.589-.963-2.096l2.278-3.923c.676.352 1.444.55 2.257.55a4.9 4.9 0 003.408-1.375l1.443 1.604a3.651 3.651 0 00-.935 2.443 3.672 3.672 0 003.667 3.667 3.672 3.672 0 003.667-3.667 3.672 3.672 0 00-3.667-3.667 3.64 3.64 0 00-1.749.444l-1.631-1.813a4.88 4.88 0 00.717-2.555c0-.3-.027-.593-.078-.878l2.64-.371a2.992 2.992 0 002.774 1.876l-.001-.001zm0-4.73c.959 0 1.739.78 1.739 1.739 0 .957-.78 1.739-1.74 1.739a1.74 1.74 0 01-1.737-1.74c0-.958.78-1.737 1.738-1.737zM16.91 3.96a.296.296 0 110 .592 2.683 2.683 0 00-2.68 2.68.296.296 0 11-.593 0 3.276 3.276 0 013.273-3.272zm8.357-.728a1.275 1.275 0 011.003-.48c.291 0 .572.1.803.284.267.216.435.522.471.863.038.341-.06.676-.275.943a1.277 1.277 0 01-.863.473 1.278 1.278 0 01-.943-.277 1.275 1.275 0 01-.472-.862c-.037-.342.06-.677.276-.944zM12.414 27.14a.193.193 0 110 .386c-.962 0-1.744.782-1.744 1.745a.193.193 0 01-.386 0c0-1.176.955-2.131 2.13-2.131zm13.922-3.504a.257.257 0 010 .514 2.31 2.31 0 00-1.825.888 2.31 2.31 0 00-.498 1.436.257.257 0 01-.515 0 2.838 2.838 0 012.838-2.838zm-10.712-4.753a.347.347 0 01-.692 0 3.826 3.826 0 013.821-3.822.344.344 0 01.346.345.346.346 0 01-.346.347 3.134 3.134 0 00-3.129 3.13zm-11.18.15a3.197 3.197 0 01-3.192-3.193 3.196 3.196 0 013.192-3.193 3.196 3.196 0 013.193 3.193 3.197 3.197 0 01-3.193 3.192z" /></symbol><symbol viewBox="0 0 32 32" id="ic-grape"><path d="M30.124 4.172a1.66 1.66 0 001.86-1.418 1.646 1.646 0 00-.322-1.227 1.645 1.645 0 00-1.096-.639c-.247-.034-6.02-.76-10.882 3.577a3.94 3.94 0 00-1.732-.403A3.996 3.996 0 0015.346.341a3.975 3.975 0 00-1.373-.243h-.904A3.985 3.985 0 009.19 4.979a3.985 3.985 0 00-2.923 6.53 3.986 3.986 0 00-3.692 3.97 3.986 3.986 0 003.982 3.98c.5-.007 1.086.033 1.632-.067a3.067 3.067 0 011.048 2.547c-1.01.266-1.956 1.003-2.474 1.989a3.995 3.995 0 00-3.792-.27 3.012 3.012 0 01-.715-1.96c0-.674.215-1.312.623-1.846a.469.469 0 00-.745-.569 3.945 3.945 0 00-.816 2.415c0 .903.297 1.755.844 2.451-.18.123-.818.778-.998.956a3.986 3.986 0 000 5.63A3.969 3.969 0 003.98 31.9c1.02 0 2.039-.388 2.815-1.164l.64-.64c.111-.111.214-.229.31-.35.71.59 1.608.92 2.542.92a3.973 3.973 0 003.588-2.255c.702.62 1.623.997 2.631.997 2.1 0 3.824-1.634 3.97-3.697.715.599 1.61.927 2.552.927a3.985 3.985 0 003.977-3.845c2.515.587 4.883-1.361 4.882-3.877v-.904a3.985 3.985 0 00-3.965-3.981 3.964 3.964 0 00-.249-1.373.469.469 0 10-.878.327c.126.34.19.697.19 1.062v.904a3.047 3.047 0 01-3.044 3.044 3.064 3.064 0 01-2.728-1.696 3.98 3.98 0 00.911-3.17 3.991 3.991 0 003.4-1.122l.639-.639a3.986 3.986 0 00-1.08-6.4c2.677-1.066 5.019-.799 5.042-.796zM17.859 22.824a3.034 3.034 0 01-2.433 1.212 3.047 3.047 0 01-3.043-3.044v-.58a3.984 3.984 0 003.18-2.607l.117.065c-.042.218-.029 1.133-.03 1.39 0 1.56.9 2.911 2.209 3.564zm-5.96-3.31c.027.004-.995.002-.992.002a3.047 3.047 0 01-3.043-3.043c0-.988.466-1.889 1.244-2.456a3.985 3.985 0 003.615 2.317c.4-.006.941.02 1.357-.027.134.237.393.61.687.893a3.044 3.044 0 01-2.867 2.315zm1.808-4.12c-2.276.218-3.927-.864-4.028-3.041a3.047 3.047 0 013.044-3.044h.534c.285.853.854 1.59 1.62 2.083-1.111 1-1.555 2.623-1.17 4.002zm1.863-4.68c-1.695-.864-2.137-3.408-.72-4.791a3.015 3.015 0 012.182-.924h.904c.851.013 1.683.346 2.291 1.043l-.335.335a4.001 4.001 0 00-1.122 3.397c-1.049-.177-2.375.185-3.2.94zm-2.503-9.679h.905c.36 0 .714.063 1.05.186a3.055 3.055 0 011.993 2.841 3.944 3.944 0 00-2.838 1.208 3.953 3.953 0 00-1.018 1.852c-1.65.085-3.166-1.373-3.135-3.044a3.047 3.047 0 013.043-3.043zm-3.74 4.878h.208c.63 1.242 2.027 2.158 3.516 2.146 0 .105.005.21.014.313h-.342a3.987 3.987 0 00-3.931 3.354 3.984 3.984 0 00-1.132-.224 3.02 3.02 0 01-1.377-2.546 3.047 3.047 0 013.044-3.043zm-2.77 12.608a3.047 3.047 0 01-3.044-3.043 3.047 3.047 0 013.043-3.043c.705-.006 1.511-.05 2.204.291.011.123.029.243.051.362a3.955 3.955 0 00-1.885 3.385c0 .748.208 1.449.568 2.047-.026.003-.868 0-.938.002zm3.384 1.814c.31.077.633.119.966.119h.539c-.007.494-.01 1.03.133 1.56a4.21 4.21 0 00-1.397-.212 4.143 4.143 0 00-.241-1.467zm-3.17 9.098l-.64.64a3.047 3.047 0 01-4.304 0 3.047 3.047 0 010-4.305l.64-.639c1.17-1.178 3.125-1.179 4.303 0a3.047 3.047 0 010 4.304zm3.515.295c-.76 0-1.49-.285-2.047-.792a3.987 3.987 0 00-.733-4.393c.435-1.026 1.588-1.827 2.78-1.806.896 0 1.726.383 2.305 1.057-.083.332-.067 1.256-.066 1.633 0 .808.242 1.561.658 2.19a3.037 3.037 0 01-2.897 2.111zm6.22-1.257a3.047 3.047 0 01-3.044-3.044c.002-.118-.003-.88.002-.973.58.33 1.25.52 1.963.52a3.969 3.969 0 003.348-1.826c.101.022.204.04.309.055.07.67.607 1.482.465 2.224a3.047 3.047 0 01-3.044 3.044zm6.521-2.771a3.038 3.038 0 01-2.992-2.479 3.987 3.987 0 003.577-3.96v-.343c.094.005.218.023.544.009 1.74.741 1.999 2.253 1.914 3.73a3.047 3.047 0 01-3.043 3.043zm4.894-10.731a3.047 3.047 0 013.027 3.043v.904c.023 2.001-2 3.517-3.94 2.91.032-1.219-.575-2.464-1.525-3.205a3.987 3.987 0 002.438-3.652zm-5.247 3.753v.539a3.047 3.047 0 01-3.043 3.043 3.047 3.047 0 01-3.044-3.043c.003-.342-.005-.736.004-1.043 1.345.361 2.985-.134 3.938-1.217.49.81 1.257 1.42 2.145 1.721zm-2.335-2.857l-.003.003-.003.002-.633.634c-1.125 1.156-3.098 1.198-4.305 0a3.047 3.047 0 010-4.304c.293-.296.373-.368.654-.653a3.024 3.024 0 012.138-.878c.813 0 1.577.317 2.152.892a3.047 3.047 0 010 4.304zm5.16-5.16l-.64.64a3.053 3.053 0 01-3.03.761 3.977 3.977 0 00-2.035-2.037 3.058 3.058 0 01.761-3.029l.64-.639c1.094-1.146 3.154-1.199 4.304 0a3.047 3.047 0 010 4.304zm-2.152-6.133a3.95 3.95 0 00-2.434.83c-.074-.076-.127-.157-.415-.404 4.5-3.868 9.716-3.212 9.942-3.18.19.025.359.124.475.277a.721.721 0 01-.672 1.148c-.132-.017-3.251-.38-6.577 1.343a3.991 3.991 0 00-.32-.014z" /></symbol><symbol viewBox="0 0 24 25" id="ic-home"><path d="M12 .5C5.372.5 0 5.872 0 12.5s5.372 12 12 12c6.627 0 12-5.372 12-12S18.628.5 12 .5zm6.064 12.365h-.494v5.03c0 .531-.43.962-.962.962h-2.754v-3.25c0-.511-.208-.975-.543-1.31a1.854 1.854 0 00-3.165 1.311v3.25H7.392a.962.962 0 01-.962-.962v-5.031h-.494c-.902 0-1.311-1.127-.62-1.707l5.449-4.566a1.924 1.924 0 012.47 0l5.449 4.566c.691.58.282 1.707-.62 1.707z" /></symbol><symbol viewBox="0 0 29 32" id="ic-juniper"><path d="M18.463 26.37a16.458 16.458 0 00-1.78-1.725 3.247 3.247 0 01-1.12-1.942 16.46 16.46 0 00-.605-2.404l-.044-.133a.469.469 0 00-.89 0l-.044.133c-.242.728-.435 1.48-.574 2.234a.469.469 0 10.923.169c.041-.228.088-.455.14-.681.064.279.12.56.17.84a4.186 4.186 0 001.445 2.504c.219.183.434.372.643.567a15.447 15.447 0 01-.812-.274 4.185 4.185 0 00-2.891 0c-.268.099-.54.19-.813.274.21-.195.424-.384.644-.567.162-.135.315-.284.455-.442a.469.469 0 10-.702-.62 3.24 3.24 0 01-.353.342 16.474 16.474 0 00-1.78 1.725l-.093.104a.469.469 0 00.445.77l.137-.027c.808-.165 1.61-.394 2.384-.679a3.247 3.247 0 012.243 0 16.47 16.47 0 002.383.679l.137.028a.469.469 0 00.445-.77l-.093-.105zM4.85 9.265l-.125-.062a.469.469 0 00-.628.629l.062.125c.369.737.797 1.453 1.273 2.127.444.63.65 1.398.58 2.166a16.467 16.467 0 00-.038 2.478l.008.14a.469.469 0 00.859.23l.077-.117a16.47 16.47 0 001.206-2.165c.323-.7.886-1.263 1.586-1.586a16.476 16.476 0 002.165-1.206l.117-.077a.469.469 0 00-.23-.859l-.14-.008a16.482 16.482 0 00-2.478.038 3.247 3.247 0 01-2.166-.58A16.471 16.471 0 004.85 9.265zm4.38 2.787c.283-.026.569-.044.855-.054-.253.134-.51.261-.768.38a4.185 4.185 0 00-2.044 2.045c-.12.259-.247.515-.381.768.01-.286.028-.572.054-.856.09-.989-.175-1.98-.748-2.792a15.438 15.438 0 01-.475-.714c.242.152.48.31.714.475a4.186 4.186 0 002.792.748zM16.752 13.91a.469.469 0 00.425.347l.14.008c.823.05 1.656.037 2.478-.038a3.247 3.247 0 012.166.58c.673.476 1.389.904 2.127 1.273l.125.062a.469.469 0 00.629-.628l-.063-.126a16.461 16.461 0 00-1.272-2.127 3.247 3.247 0 01-.58-2.166 16.48 16.48 0 00.038-2.478l-.009-.14a.469.469 0 00-.859-.23l-.077.117c-.454.688-.86 1.417-1.205 2.165a3.247 3.247 0 01-1.586 1.586 16.47 16.47 0 00-2.166 1.206l-.117.077a.469.469 0 00-.194.512zm2.87-.944a4.185 4.185 0 002.044-2.044c.12-.259.247-.515.38-.768-.01.286-.027.572-.053.856-.09.99.175 1.98.748 2.792.164.233.323.472.475.714-.243-.152-.481-.31-.714-.475a4.186 4.186 0 00-2.793-.748c-.284.026-.57.044-.856.054a15.4 15.4 0 01.769-.38z" /><path d="M28.604 23.863a61.041 61.041 0 00-2.483-2.638.469.469 0 10-.663.663 60.05 60.05 0 011.844 1.93 60.173 60.173 0 01-5.87-1.61 7.373 7.373 0 00-1.275-2.264 7.4 7.4 0 003.104-.145c.198.178.395.359.588.538a.469.469 0 10.638-.687 61.698 61.698 0 00-.216-.2 7.383 7.383 0 004.473-6.778c0-4.064-3.307-7.371-7.372-7.371a7.335 7.335 0 00-4.534 1.563A61.083 61.083 0 0015.082.441a.645.645 0 00-1.225 0 61.06 61.06 0 00-1.755 6.418 7.357 7.357 0 00-1.926-1.083.469.469 0 00-.332.877 6.469 6.469 0 014.157 6.02 6.441 6.441 0 01-6.435 6.434 6.441 6.441 0 01-6.434-6.434 6.441 6.441 0 016.723-6.428.468.468 0 10.04-.937 7.557 7.557 0 00-.329-.007c-4.064 0-7.371 3.307-7.371 7.372a7.383 7.383 0 004.473 6.777 61.092 61.092 0 00-4.333 4.413.645.645 0 00.612 1.06 61.064 61.064 0 006.273-1.636c-.08.435-.122.883-.122 1.342 0 4.064 3.307 7.371 7.371 7.371 4.065 0 7.372-3.307 7.372-7.372 0-.458-.042-.906-.123-1.341a61.072 61.072 0 006.274 1.636.645.645 0 00.612-1.06zm-.798-11.19a6.441 6.441 0 01-6.434 6.434 6.441 6.441 0 01-6.434-6.434 6.441 6.441 0 016.434-6.434 6.441 6.441 0 016.434 6.433zm-14.9-5.084c.416-2.018.94-4.03 1.563-5.998a60.106 60.106 0 011.565 6.003 7.39 7.39 0 00-1.564 2.488 7.41 7.41 0 00-1.564-2.493zm1.563 7.671a7.376 7.376 0 001.216 2.097 7.422 7.422 0 00-2.431 0 7.373 7.373 0 001.215-2.097zM1.636 23.818a60.14 60.14 0 014.041-4.02 7.4 7.4 0 003.105.146 7.37 7.37 0 00-1.276 2.265 60.188 60.188 0 01-5.87 1.61zm12.833 7.244a6.441 6.441 0 01-6.434-6.434 6.441 6.441 0 016.434-6.434 6.441 6.441 0 016.434 6.434 6.441 6.441 0 01-6.434 6.434z" /></symbol><symbol viewBox="0 0 32 32" id="ic-lemongrass"><path d="M14.918 8.625h-.842l.793-4.947a.66.66 0 00-.534-.75l-1.684-.297V.656A.657.657 0 0011.995 0H9.763a.657.657 0 00-.657.656v.925a.658.658 0 00-.344-.002l-2.156.578a.654.654 0 00-.47.78l.993 4.37-1.123.409a.652.652 0 00-.398.826l3.498 10.39v9.43a1.398 1.398 0 00-.258.811v1.42c0 .776.63 1.407 1.406 1.407h1.25c.775 0 1.406-.63 1.406-1.406v-1.42c0-.294-.09-.576-.258-.813v-9.436l1.005-3.283a.469.469 0 10-.896-.274l-.925 3.019h-1.624l2.746-8.825h1.58L13.4 13.277a.469.469 0 10.896.274l1.248-4.077a.659.659 0 00-.627-.848zM10.044.937h1.67v1.67a.651.651 0 00-.34.475l-.65 4.057-.68-2.994V.938zm1.8 27.914c.083.088.129.202.129.322v1.42a.47.47 0 01-.47.47h-1.25a.47.47 0 01-.468-.47v-1.42c0-.12.046-.234.13-.322a.469.469 0 00.129-.323V25.75h1.67v2.778c0 .12.046.236.13.323zm-.13-9.527v5.488h-1.67v-5.488h1.67zm-2.156-1.99L6.584 8.503l1.414-.515 2.331 6.866-.771 2.48zm1.245-4l-2.01-5.92a.652.652 0 00-.775-.426L7.11 2.992l1.612-.432 2.293 10.09-.212.683zm2.324-4.709h-.376a.653.653 0 00-.626.461l-.554 1.779-.29-1.277.974-6.075 1.645.29-.773 4.822zM25.996 5.903a.47.47 0 00-.05-.015l-2.007-.49a.66.66 0 00-.821.44l-.313 1.049V5.625a.469.469 0 10-.937 0v4.409l-.67 2.251-1-4.047V2h1.67v1.438a.469.469 0 10.938 0v-1.72a.657.657 0 00-.657-.655h-2.232a.657.657 0 00-.657.656v2.723l-.408-1.653v-.002a.657.657 0 00-.839-.464l-2.057.574a.655.655 0 00-.447.785l3.751 15.23v9.45a1.398 1.398 0 00-.258.811v1.42c0 .776.63 1.407 1.406 1.407h1.25c.775 0 1.406-.63 1.406-1.406v-1.42c0-.294-.09-.576-.258-.813v-4.674a.469.469 0 00-.938 0v1.125h-1.67v-5.488h1.67V21.5a.469.469 0 10.938 0v-2.577L26.4 6.705a.658.658 0 00-.405-.802zM21.868 25.75v2.778c0 .12.046.236.13.323.083.088.129.202.129.322v1.42a.47.47 0 01-.47.47h-1.25a.47.47 0 01-.468-.47v-1.42c0-.12.046-.234.13-.322a.469.469 0 00.129-.323V25.75h1.67zm-1.772-7.363L16.484 3.723l1.528-.426 3.726 15.09h-1.642zm2.28-1.327l-.735-2.98 2.299-7.717 1.478.361-3.042 10.336z" /></symbol><symbol viewBox="0 0 32 32" id="ic-malt"><path d="M28.205 27.39a3.707 3.707 0 002.5-1.327 3.71 3.71 0 00.471-3.972.625.625 0 00-.4-.331 3.71 3.71 0 00-3.81 1.222 3.68 3.68 0 00-.61 1.064 34.552 34.552 0 01-1.2-2.791 3.698 3.698 0 002.68-.583 3.71 3.71 0 001.574-3.677.625.625 0 00-.29-.43 3.71 3.71 0 00-4 .093 3.684 3.684 0 00-1.073 1.121 34.695 34.695 0 01-.552-2.467 3.708 3.708 0 002.994-1.063 3.71 3.71 0 00.851-3.908.625.625 0 00-.367-.368 3.71 3.71 0 00-4.008.953 35.6 35.6 0 01-.054-1.646 7.823 7.823 0 004.191-6.913.625.625 0 10-1.25 0 6.547 6.547 0 01-1.148 3.696 3.711 3.711 0 00-1.797-3.14V.626a.625.625 0 10-1.25 0v2.299a3.711 3.711 0 00-1.797 3.139 6.546 6.546 0 01-1.148-3.696.625.625 0 10-1.25 0 7.823 7.823 0 004.199 6.917c.005.485.02.968.044 1.45a3.711 3.711 0 00-3.82-.364.625.625 0 00-.331.4 3.71 3.71 0 001.21 3.813 3.704 3.704 0 003.453.685c.11.619.235 1.234.376 1.844a3.71 3.71 0 00-4.173.602.625.625 0 00-.2.48 3.71 3.71 0 002.282 3.286 3.72 3.72 0 003.314-.244c.352.97.745 1.924 1.18 2.862a3.71 3.71 0 00-4.13 1.727.625.625 0 00-.05.518 3.71 3.71 0 003.495 2.493c.994 0 1.944-.404 2.634-1.102.363.593.745 1.178 1.144 1.753a.624.624 0 101.027-.713 35.236 35.236 0 01-.911-1.383zm-.274-3.613a2.459 2.459 0 012.234-.868c.275.8.12 1.698-.424 2.36a2.458 2.458 0 01-2.234.867 2.458 2.458 0 01.424-2.36zm-2.11-6.084c.709-.48 1.618-.549 2.387-.2a2.458 2.458 0 01-1.074 2.143c-.71.48-1.619.55-2.388.2a2.458 2.458 0 011.074-2.143zm-1.873-5.986a2.458 2.458 0 012.307-.648 2.457 2.457 0 01-.649 2.307 2.457 2.457 0 01-2.307.649 2.458 2.458 0 01.649-2.308zm-2.029 2.345c-.8.273-1.697.116-2.357-.431-.66-.547-.98-1.4-.86-2.237a2.458 2.458 0 012.357.431c.66.547.98 1.4.86 2.237zm-.938 6.273a2.458 2.458 0 01-1.483-1.883 2.458 2.458 0 012.38-.283 2.458 2.458 0 011.482 1.883 2.458 2.458 0 01-2.38.283zm3.097 7.25a2.458 2.458 0 01-1.968-1.369 2.458 2.458 0 012.193-.966 2.458 2.458 0 011.968 1.368 2.458 2.458 0 01-2.193.967zM22.282 4.006a2.458 2.458 0 011.173 2.09c0 .857-.452 1.649-1.173 2.09a2.458 2.458 0 01-1.172-2.09c0-.856.452-1.648 1.172-2.09zM15.334 26.063a3.71 3.71 0 00.47-3.972.625.625 0 00-.401-.331 3.71 3.71 0 00-3.81 1.222 3.682 3.682 0 00-.605 1.05A35.003 35.003 0 019.8 21.257a3.715 3.715 0 002.662-.585 3.71 3.71 0 001.576-3.677.625.625 0 00-.291-.43 3.71 3.71 0 00-4 .093 3.684 3.684 0 00-1.064 1.107 35.018 35.018 0 01-.55-2.452 3.706 3.706 0 002.985-1.063 3.71 3.71 0 00.85-3.91.625.625 0 00-.368-.367 3.71 3.71 0 00-4.005.951 34.757 34.757 0 01-.058-1.644 7.823 7.823 0 004.193-6.913.625.625 0 10-1.25 0 6.547 6.547 0 01-1.148 3.696 3.711 3.711 0 00-1.797-3.14V.626a.625.625 0 10-1.25 0v2.299a3.711 3.711 0 00-1.797 3.139A6.546 6.546 0 013.34 2.367a.625.625 0 10-1.25 0 7.823 7.823 0 004.197 6.916c.005.485.02.968.044 1.45a3.711 3.711 0 00-3.818-.363.625.625 0 00-.331.4 3.71 3.71 0 001.21 3.813 3.704 3.704 0 003.452.685c.11.618.236 1.233.378 1.844a3.71 3.71 0 00-4.174.601.625.625 0 00-.2.481A3.71 3.71 0 005.13 21.48c.455.189.934.28 1.41.28a3.72 3.72 0 001.904-.525l.007.018a36.02 36.02 0 001.174 2.845 3.71 3.71 0 00-4.132 1.727.625.625 0 00-.05.518 3.71 3.71 0 003.496 2.493c.994 0 1.943-.404 2.633-1.101a36.213 36.213 0 002.868 4.036.624.624 0 10.968-.792 34.529 34.529 0 01-2.572-3.589 3.708 3.708 0 002.498-1.327zm-4.886-8.37c.71-.48 1.619-.549 2.388-.2a2.458 2.458 0 01-1.074 2.143c-.71.48-1.619.55-2.388.2a2.458 2.458 0 011.074-2.143zm-1.873-5.986a2.458 2.458 0 012.308-.648 2.457 2.457 0 01-.65 2.307 2.458 2.458 0 01-2.306.649 2.458 2.458 0 01.649-2.308zm-2.028 2.345c-.8.273-1.698.116-2.357-.431-.66-.547-.98-1.4-.86-2.237a2.458 2.458 0 012.357.431c.66.547.98 1.4.86 2.237zm-.939 6.273a2.458 2.458 0 01-1.482-1.883 2.458 2.458 0 012.38-.283 2.457 2.457 0 011.482 1.883 2.458 2.458 0 01-2.38.283zm3.097 7.25a2.458 2.458 0 01-1.967-1.369 2.458 2.458 0 012.193-.966 2.458 2.458 0 011.967 1.368 2.458 2.458 0 01-2.193.967zM6.91 4.006a2.458 2.458 0 011.173 2.09c0 .857-.452 1.649-1.173 2.09a2.458 2.458 0 01-1.173-2.09c0-.856.452-1.648 1.173-2.09zm7.459 21.262a2.458 2.458 0 01-2.234.868 2.458 2.458 0 01.424-2.36 2.459 2.459 0 012.234-.867c.275.8.12 1.698-.424 2.36zM30.296 30.75a.63.63 0 00-.442.183.63.63 0 00-.183.442.63.63 0 00.183.442.63.63 0 00.442.183.63.63 0 00.442-.183.63.63 0 00.183-.442.63.63 0 00-.183-.442.63.63 0 00-.442-.183z" /></symbol><symbol viewBox="0 0 32 32" id="ic-nuts"><path d="M13.353 21.142c2.4.081 5.793-2.236 4.693-4.916a2.71 2.71 0 00-2.012-1.633l-1.985-.367a1.715 1.715 0 01-1.194-.863l-1.015-1.788a2.748 2.748 0 00-.785-.879 2.67 2.67 0 00-2.013-.463 2.535 2.535 0 00-1.664 1.083c-1.383 2.035-1.252 4.825.318 6.784.86 1.158 2.02 2.08 3.371 2.567.727.285 1.51.487 2.286.475zm-1.515-7.607c.417.85 1.1 1.483 2.038 1.645l.366.068c-1.19 1.25-3.091-.22-2.404-1.713zm-3.115 4.297c-1.51-1.639-1.793-4.158-.543-5.972a1.577 1.577 0 011.316-.698 1.73 1.73 0 011.5.891l.31.544c-1.354 1.542-.168 4.104 1.889 4.086.857.005 1.69-.474 2.082-1.244l.582.108a1.742 1.742 0 011.292 1.054c.66 1.533-1.162 2.947-2.456 3.363a4.425 4.425 0 01-2.9-.065c-1.195-.38-2.28-1.072-3.072-2.067zm-5.207-7.444c2.28.803 5.126-.692 5.781-2.99C10.12 4.678 8.232 1.78 5.541.608 2.505-.743.799.147.146 3.397c-.6 2.871.674 6.09 3.37 6.991zM1.099 3.575c.074-.405.19-.801.345-1.183-.043.962.048 2.149.555 3.165a.485.485 0 00.868-.434c-.45-.9-.5-2.006-.442-2.874l.85 1.645a.485.485 0 10.862-.446L3.243 1.72c.772.427 1.713 1.092 2.236 1.997a.485.485 0 00.42.242c.361.009.611-.416.42-.727-.528-.913-1.375-1.605-2.155-2.095 1.561.403 3.172 1.607 3.812 2.894.753 1.47.763 2.963-.187 4.175.132-.638.176-1.374-.049-2.05-.22-.602-1.103-.308-.92.307.215.642.084 1.407-.092 1.997l-.747-1.445a.485.485 0 00-.861.445l.746 1.444c-.582-.198-1.28-.534-1.68-1.08-.394-.506-1.145.043-.783.572.422.576 1.05.965 1.646 1.228C2.058 9.756.485 6.37 1.1 3.575zm28.988 15.59c2.942-3.146 2.417-8.377-1.413-10.133-2.4-.954-5.733.63-7.016 3.347-.762 1.616-.9 2.674-1.01 3.525-.186 1.429-.285 1.502-1.295 2.287-4.982 3.601-5.969 10.82.885 13.388 1.662.626 3.465.56 5.024-.277 2.909-1.452 4.693-5.966 3.952-8.812-.29-1.408-.054-2.32.873-3.325zm-1.83 3.48c.809 3.315-1.787 8.446-5.731 8.38.397-.496-.297-1.096-.732-.633-.149.168-.306.334-.463.5-.768-.171-1.492-.501-2.177-.914-.004-.23-.009-.46-.004-.688-.007-.648-.943-.648-.97-.018-3.717-3.043-1.257-8.26 1.769-10.316 1.185-.921 1.436-1.192 1.661-2.928.101-.783.228-1.758.925-3.235.915-1.905 3.016-3.195 4.89-3.064a.486.486 0 00-.046.685c.277.314.56.15.844-.093.045.307.175.577.518.583a.481.481 0 00.477-.427c2.49 2.048 2.253 5.802.13 8.06-1.279 1.504-1.358 2.457-1.091 4.108zm.394-6.177c-.252.638-.548 1.26-.885 1.857-.33.55-1.144.09-.846-.474.316-.56.592-1.14.828-1.736.25-.588 1.118-.252.903.353zm-1.709 3.372a18.414 18.414 0 01-.167 2.038c-.109.633-1.03.502-.96-.134.088-.64.141-1.284.158-1.93.037-.64.967-.614.97.026zm2.502-7.435c0 .697-.068 1.391-.205 2.074-.146.626-1.057.44-.95-.19a9.42 9.42 0 00.185-1.844c.012-.637.938-.684.97-.04zM24.87 27.69c-.326.6-.687 1.18-1.08 1.739-.384.513-1.148-.028-.793-.559.372-.527.713-1.075 1.021-1.642.322-.554 1.14-.111.852.462zm1.505-3.804a17.138 17.138 0 01-.637 1.948c-.257.59-1.119.244-.902-.357.237-.6.438-1.213.6-1.837.182-.614 1.082-.379.939.246zm-1.6-11.061c.365-.576.77-1.124 1.213-1.642.43-.475 1.138.13.736.63-.412.483-.79.994-1.13 1.53a.484.484 0 01-.41.226c-.368.01-.618-.435-.409-.744zm-3.638 9.157a14.29 14.29 0 00-.852 1.706c-.264.585-1.126.22-.895-.374a15.22 15.22 0 01.911-1.823c.34-.543 1.143-.072.836.49zm1.93-5.476a17.06 17.06 0 01.736-1.892c.287-.572 1.131-.184.88.407-.266.58-.498 1.176-.694 1.784a.485.485 0 11-.922-.298zm-3.397 8.987a15.21 15.21 0 00-.375 1.874c-.108.633-1.028.505-.961-.13.091-.673.225-1.34.4-1.995a.485.485 0 01.936.251zm3.656-6.39c-.395.413-.768.845-1.117 1.296a.483.483 0 01-.384.19c-.388.011-.634-.479-.383-.782.333-.432.699-.86 1.087-1.273.09-.689 1.072-.552.963.13-.03.143-.052.334-.166.44zm-5.792-7.806c.927.013 1.866-.267 2.702-.71a6.756 6.756 0 002.78-2.52c.766-1.13 1.168-2.458 1.027-3.833-.185-1.968-1.542-4.565-3.84-4.19a2.57 2.57 0 00-1.966 1.589l-.762 1.877c-.349.895-1.127.967-2.046 1.24-.151.128-1.18.141-1.94.828-2.644 2.774 1.219 5.827 4.045 5.72v-.001zm-3.393-5c.518-.47 1.997-.686 1.797-.686.692-.197 1.913-.396 2.438-1.741l.76-1.874c.442-1.15 1.978-1.363 2.765-.43 1.348 1.51 1.605 3.91.51 5.634-.602 1.077-1.49 1.986-2.598 2.514.007.006-3.271 1.884-5.78-.995-.625-.716-.576-1.803.108-2.423zm6.64-3.021c-.358-.53.396-1.076.787-.566.714.994.928 2.192.634 3.56a.485.485 0 11-.947-.202c.236-1.106.081-2.02-.474-2.792zM7.565 32c.086 0 .17-.023.245-.067 4.055-2.367 4.659-5.585 1.812-9.293.155-.272.287-.557.395-.852a.489.489 0 00-.391-.648c-.102-.013-2.372-.304-4.621.24-.53-1.735-2.255-2.331-3.56-2.627a.485.485 0 10-.214.945c1.671.38 2.548.979 2.848 1.963-2.225.845-3.883 2.796-3.956 2.884a.487.487 0 00.155.745c.184.092.362.168.538.236.032 4.168 2.306 6.352 6.749 6.474zm-2.777-9.557c1.514-.458 3.17-.448 4.058-.397-.453.852-1.077 1.213-2.04 1.213a.49.49 0 00-.448.243c-.355.641 1.16 1.19-.204 3.57-1.19-.466-1.745-1.223-1.839-2.475a.486.486 0 00-.826-.306c-.576.577-1.26.705-2.166.392.66-.653 1.963-1.787 3.465-2.24zm-3.001 3.342c.626.088 1.19-.002 1.697-.281.332 1.3 1.344 2.27 2.879 2.639a.485.485 0 00.407-.221c.892-1.378 1.138-2.613.74-3.754a2.86 2.86 0 001.494-.74c2.299 3.148 1.798 5.566-1.565 7.598-3.731-.148-5.54-1.822-5.652-5.24z" /></symbol><symbol viewBox="0 0 32 32" id="ic-smoke"><path d="M19.065 26.365a3.203 3.203 0 002.522-3.145 3.227 3.227 0 00-2.821-3.196l-1.687-.21a.508.508 0 00-.127 1.007l1.687.21a2.208 2.208 0 011.932 2.189 2.192 2.192 0 01-1.727 2.152l-3.051.678a5.54 5.54 0 00-4.364 5.441.508.508 0 101.015 0 4.53 4.53 0 013.57-4.448l3.05-.679v.001z" /><path d="M17.334 24.345a.508.508 0 10.378-.944 14.654 14.654 0 00-5.464-1.052H4.825a3.56 3.56 0 01-3.556-3.556 3.56 3.56 0 013.556-3.555 4.752 4.752 0 013.73 1.792l.444.557a.508.508 0 00.794-.635l-.445-.557a5.763 5.763 0 00-4.523-2.173 4.577 4.577 0 00-4.571 4.572c0 2.52 2.05 4.571 4.571 4.571h7.424c1.75 0 3.461.329 5.085.98z" /><path d="M4.777 17.99l.717-.238a.508.508 0 00-.321-.964l-.717.24c-.69.229-1.156.874-1.154 1.601a1.69 1.69 0 001.688 1.688h6.438a.508.508 0 100-1.015H4.99a.673.673 0 01-.213-1.311zM7.486 12.877l4.925.329a.509.509 0 00.068-1.014l-4.925-.329a2.385 2.385 0 01-2.22-2.373 2.381 2.381 0 012.378-2.379h1.685a.508.508 0 100-1.016H7.712A3.397 3.397 0 004.317 9.49a3.403 3.403 0 003.17 3.387zM30.73 21.333v.248a3.82 3.82 0 01-3.816 3.816 1.265 1.265 0 01-1.263-1.264c0-.544.347-1.026.863-1.197l.313-.104a.508.508 0 10-.321-.964l-.313.105a2.273 2.273 0 00-1.558 2.161 2.282 2.282 0 002.28 2.28 4.837 4.837 0 004.831-4.832v-.248H30.73zM25.143 19.81a.508.508 0 00-.508-.508c-.56 0-1.016-.456-1.016-1.016s.456-1.016 1.016-1.016a4.37 4.37 0 013.11 1.287l.086.087a.507.507 0 10.72-.716l-.088-.088a5.379 5.379 0 00-3.828-1.585c-1.12 0-2.032.91-2.032 2.031s.911 2.032 2.032 2.032c.28 0 .508-.227.508-.508zM21.736 27.07l-.78.779c-.38.382-.898.597-1.437.595h-1.995a3.05 3.05 0 00-3.048 3.048.508.508 0 101.016 0c0-1.12.911-2.032 2.032-2.032h1.995c.815 0 1.58-.317 2.155-.892l.78-.78a.508.508 0 00-.718-.718zM15.413 11.164l3.556.507a.509.509 0 00.143-1.006l-3.555-.507a.508.508 0 10-.143 1.006zM24.132 8.563a.508.508 0 00.43.575l1.313.187a2.114 2.114 0 011.807 2.083 2.108 2.108 0 01-1.843 2.088l-8.616 1.077a1.98 1.98 0 00-1.731 1.962 1.97 1.97 0 001.65 1.949l1.822.303a.508.508 0 10.167-1.002l-1.821-.304a.957.957 0 01-.802-.946c0-.484.362-.893.841-.953l8.616-1.077a3.127 3.127 0 002.733-3.097A3.136 3.136 0 0026.02 8.32l-1.313-.187a.508.508 0 00-.575.43z" /><path d="M18.032 6.603c.28 0 .508-.227.508-.508v-.508c0-1.4-1.14-2.54-2.54-2.54-1.4 0-2.54 1.14-2.54 2.54v.214a2.538 2.538 0 002.26 2.524l7.335.815a.508.508 0 00.113-1.01l-7.336-.815A1.523 1.523 0 0114.476 5.8v-.213c0-.84.684-1.524 1.524-1.524s1.524.684 1.524 1.524v.508c0 .28.227.508.508.508z" /><path d="M9.679 5.494a.509.509 0 00.716-.267l.004-.01a7.08 7.08 0 016.464-4.2h.456a7.091 7.091 0 016.826 5.212.508.508 0 00.98-.266A8.108 8.108 0 0017.319 0h-.456a8.098 8.098 0 00-7.42 4.867l-.003.005c-.085.234.012.5.237.621l.002.001zM12.254 19.81c0 .28.227.508.508.508h1.714a.508.508 0 100-1.016h-1.714a.508.508 0 00-.508.508z" /></symbol><symbol viewBox="0 0 32 32" id="ic-spices"><path d="M17.437 7.372V3.056a.469.469 0 10-.938 0v4.315a.469.469 0 10.938 0zM9.901 20.08a.469.469 0 00-.64-.172l-3.736 2.157a.469.469 0 00.468.812L9.73 20.72a.469.469 0 00.171-.64zM28.41 22.065l-3.735-2.157a.469.469 0 10-.47.812l3.737 2.157a.469.469 0 00.469-.812z" /><path d="M30.612 19.246c-.282-.826-.82-2.077-1.763-3.246a10.335 10.335 0 001.46-2.457.469.469 0 10-.862-.368 9.468 9.468 0 01-1.234 2.117 8.247 8.247 0 00-.586-.53 9.047 9.047 0 001.285-2.375.469.469 0 00-.881-.321 8.082 8.082 0 01-1.162 2.144 7.648 7.648 0 00-.295-.18c-1.266-.73-2.862-.86-4.295-.762a2.98 2.98 0 01.419-.31c.585-.366.955-.39 1.384-.416.486-.03 1.037-.065 1.823-.557.787-.491 1.06-.97 1.3-1.394.212-.374.395-.697.98-1.062a.469.469 0 10-.496-.796c-.787.492-1.06.972-1.3 1.395-.212.374-.395.697-.98 1.062-.586.366-.956.39-1.385.416-.432.027-.914.058-1.568.409.584-1.026 1.02-2.183 1.02-3.35 0-.115-.002-.23-.007-.344a8.076 8.076 0 012.437.065.47.47 0 00.163-.923 9.042 9.042 0 00-2.699-.075 8.263 8.263 0 00-.167-.772c3.101-.43 6.263.907 6.81 1.853.221.384.325 1.373.055 2.715a.469.469 0 00.92.184c.287-1.433.227-2.692-.164-3.368-.418-.725-1.622-1.462-3.142-1.924-1.572-.477-3.251-.603-4.773-.365-.541-1.402-1.355-2.493-1.93-3.15C19.64 1.03 18.027 0 16.968 0c-.704 0-1.681.465-2.682 1.276a.469.469 0 10.59.728c.972-.787 1.734-1.067 2.092-1.067 1.318 0 5.571 3.308 5.571 7.729 0 1.545-.94 3.132-1.864 4.316a4.773 4.773 0 00-2.424-1.59 9.062 9.062 0 00-.218-1.398c-.085-.338-.342-1.366-1.065-1.366-.724 0-.98 1.028-1.065 1.366-.1.402-.175.88-.219 1.397a4.77 4.77 0 00-2.344 1.495 4.266 4.266 0 00-.16-.008c-.896-1.172-1.783-2.711-1.783-4.212 0-1.738.71-3.574 2-5.172a.469.469 0 10-.73-.59 10.462 10.462 0 00-1.636 2.808c-1.523-.24-3.203-.114-4.777.364C4.734 6.538 3.53 7.275 3.11 8c-.418.725-.455 2.136-.094 3.683.372 1.6 1.102 3.118 2.07 4.316-.944 1.17-1.482 2.42-1.763 3.247-.657 1.926-.742 3.836-.213 4.754.53.918 2.227 1.799 4.224 2.193.548.108 1.3.213 2.16.213.482 0 .999-.033 1.533-.117.554 1.438 1.503 2.828 2.703 3.951 1.16 1.086 2.4 1.76 3.237 1.76.837 0 2.078-.674 3.237-1.76 1.2-1.123 2.148-2.513 2.703-3.95a9.919 9.919 0 001.534.116c.859 0 1.61-.105 2.159-.213 1.996-.394 3.694-1.275 4.223-2.193.53-.918.445-2.828-.212-4.754zm-10.852-1.18a7.32 7.32 0 01-1.796-1.49 7.32 7.32 0 012.19.808c.697.403 1.766 1.118 2.238 1.748-.361-.044-1.935-.662-2.632-1.065zm-8.217 1.066c.472-.63 1.549-1.35 2.239-1.748a7.317 7.317 0 012.19-.809 7.32 7.32 0 01-1.796 1.492c-.7.404-1.852.97-2.633 1.065zm2.203-5.229c.164.048.343.12.55.23.61.324.815.633 1.053.991.114.173.235.355.4.541a8.247 8.247 0 00-2.572.987 3.841 3.841 0 01.569-2.749zm.899 4.976c.509-.294.947-.632 1.308-.956-.129.339-.224.757-.203 1.357.005.135.015.26.029.377a3.848 3.848 0 01-1.27-.7l.136-.078zm5.978-2.306a7.838 7.838 0 00-1.482-.655c.357-.059.767-.185 1.276-.503.115-.072.218-.143.312-.214.103.48.11.975.03 1.45a12.71 12.71 0 00-.136-.078zm-.228-2.315a2.874 2.874 0 01-.474.362c-.586.365-.956.389-1.385.416a4.706 4.706 0 00-.669.076 8.256 8.256 0 00.431-2.721 3.855 3.855 0 012.097 1.867zm-3.033-1.71a7.32 7.32 0 01-.394 2.302 7.32 7.32 0 01-.394-2.301c0-.808.085-2.09.394-2.813.143.335.394 2.02.394 2.813zm-1.725-.157v.158c0 .588.073 1.136.173 1.61-.23-.28-.544-.572-1.074-.854a4.397 4.397 0 00-.34-.163c.357-.323.777-.58 1.241-.751zM3.923 8.469c.547-.946 3.711-2.283 6.814-1.853a8.41 8.41 0 00-.169.773 9.046 9.046 0 00-2.701.074.469.469 0 00.162.923 8.083 8.083 0 012.438-.065 7.37 7.37 0 00-.008.345c0 1.461.686 2.908 1.488 4.1a2.99 2.99 0 01-.478-.207c-.61-.324-.815-.633-1.053-.991-.27-.406-.575-.865-1.394-1.3-.819-.436-1.37-.432-1.857-.429-.43.002-.801.006-1.41-.318a.469.469 0 10-.44.827c.818.436 1.37.432 1.857.429.43-.003.8-.006 1.41.318.61.324.815.633 1.053.991.24.36.507.763 1.137 1.154-1.18.007-2.4.207-3.41.79-.1.059-.199.118-.295.18a8.08 8.08 0 01-1.162-2.144.468.468 0 10-.88.321c.23.633.632 1.524 1.284 2.374-.208.17-.403.349-.586.531-1.922-2.471-2.346-5.877-1.8-6.823zm0 15.062c-.667-1.156.096-6.488 3.908-8.689 1.338-.772 3.181-.75 4.668-.544a4.784 4.784 0 00-.164 2.895c-.427.297-.803.6-1.1.888-.25.242-1.013.978-.651 1.605.174.302.502.39.832.39.353 0 .71-.101.883-.15a9.056 9.056 0 001.32-.51 4.787 4.787 0 002.467 1.285l.072.14c-.566 1.362-1.456 2.9-2.756 3.651-3.699 2.135-8.763.278-9.479-.96zm13.045 7.532c-1.092 0-3.83-2.07-5.01-4.97.25-.068.502-.148.753-.242.41.99.98 1.782 1.414 2.3a.469.469 0 00.718-.603 8.084 8.084 0 01-1.275-2.078c.101-.053.202-.108.302-.166 1.266-.731 2.176-2.048 2.808-3.339.031.148.052.317.06.518.023.69-.142 1.022-.333 1.407-.216.436-.462.93-.43 1.857.033.927.312 1.403.559 1.823.217.37.405.69.43 1.38a.469.469 0 00.936-.032c-.032-.927-.311-1.403-.558-1.823-.217-.37-.405-.69-.43-1.38-.023-.69.142-1.023.333-1.408.192-.387.407-.82.43-1.561.596 1.018 1.38 1.975 2.39 2.558.1.058.201.113.303.166a8.083 8.083 0 01-1.276 2.078.469.469 0 00.719.602 9.052 9.052 0 001.413-2.3c.252.095.503.175.753.242-1.18 2.9-3.917 4.97-5.01 4.97zm13.044-7.532c-.663 1.148-5.658 3.167-9.478.96-1.338-.772-2.241-2.378-2.805-3.768a4.76 4.76 0 00.286-.055.469.469 0 10-.204-.915c-.35.078-.706.105-1.048.087a2.873 2.873 0 01-.076-.593c-.024-.69.14-1.022.332-1.407.092-.185.19-.381.268-.617a8.253 8.253 0 002.151 1.74.47.47 0 00.686.63c.066-.057.13-.116.192-.178.471.221.922.396 1.32.51.174.05.53.151.884.151.33 0 .657-.088.832-.39.361-.627-.4-1.364-.65-1.606a9.04 9.04 0 00-1.101-.888c.23-.895.2-1.866-.122-2.778l.086-.133c1.463-.19 3.24-.19 4.54.561 3.799 2.193 4.58 7.525 3.907 8.69z" /><path d="M20.238 11.492a.466.466 0 00.647-.144c.45-.706.866-1.52.866-2.682 0-2.178-1.216-3.952-1.94-4.816a.469.469 0 00-.718.602c.642.766 1.72 2.333 1.72 4.214 0 .874-.275 1.482-.719 2.179a.469.469 0 00.144.647zM14.785 3.792a.469.469 0 00-.66.058c-.725.864-1.94 2.639-1.94 4.816 0 1.163.416 1.976.865 2.682a.469.469 0 00.791-.503c-.443-.697-.718-1.305-.718-2.179 0-1.88 1.078-3.447 1.72-4.214a.469.469 0 00-.058-.66zM5.905 19.934c.342-.94 1.16-2.657 2.789-3.598.756-.436 1.419-.502 2.243-.467a.47.47 0 00.04-.936c-.835-.036-1.746.01-2.752.592-1.885 1.088-2.815 3.028-3.201 4.088a.469.469 0 10.88.32zM14.897 21.72a.469.469 0 00-.831-.433c-.382.732-.77 1.274-1.527 1.71-1.628.94-3.524.79-4.51.617a.468.468 0 10-.162.923c.417.073.98.143 1.621.143 1.065 0 2.343-.191 3.52-.87 1.006-.582 1.502-1.348 1.89-2.09zM25.906 23.614c-.985.173-2.881.323-4.51-.617-.756-.436-1.144-.978-1.526-1.71a.469.469 0 10-.831.434c.386.741.883 1.507 1.889 2.088 1.177.68 2.454.87 3.52.87.64 0 1.203-.069 1.62-.142a.469.469 0 10-.162-.923zM25.71 15.525c-1.006-.581-1.917-.628-2.751-.592a.469.469 0 00.04.937c.824-.036 1.486.03 2.243.467 1.628.94 2.446 2.657 2.789 3.597a.469.469 0 10.88-.321c-.386-1.06-1.315-3-3.2-4.088z" /></symbol></defs></svg>