<svg width="126" height="101" viewBox="0 0 126 101" fill="none" xmlns="http://www.w3.org/2000/svg">
<path fill-rule="evenodd" clip-rule="evenodd" d="M34.5414 69.1866C33.0192 71.5182 30.736 71.6338 27.4062 71.5952C30.5838 69.7647 32.3723 68.6278 32.8099 64.4657C32.0488 66.6045 30.4125 67.6451 28.6049 67.7414C31.9537 63.1939 32.0679 60.9973 32.6006 54.7734C32.905 59.263 33.7232 60.7275 34.6936 62.1727C36.5582 64.9281 37.8711 68.1268 38.1375 71.5952C37.1861 69.9574 35.702 69.3022 34.5033 69.1866H34.5414ZM76.1914 53.7328C74.1365 53.6943 72.6143 54.1953 71.5298 54.8312C72.2908 55.1973 73.128 56.2956 73.3754 57.1242C68.4855 55.7368 65.0225 57.9913 59.2193 58.8006C56.2511 59.3209 49.5917 59.3209 44.7969 56.1222C48.2217 57.1434 51.2661 56.5846 54.3675 54.6963C54.3675 55.6019 54.0059 56.4498 53.4542 56.9122C56.3272 56.7195 57.8304 56.2956 59.6569 53.7714C59.9614 54.4072 60.1707 55.4092 59.8282 56.1993C62.7964 55.6405 64.0331 54.0989 64.7181 52.4033C65.1938 52.8465 65.4221 53.5594 65.4792 54.3687C68.2762 52.596 72.6714 51.883 76.1914 53.7521V53.7328ZM59.4667 30.9761C57.2786 32.2093 56.194 33.693 55.6232 35.2345C55.0524 36.7375 54.9953 38.6452 55.1476 40.3986C53.9679 40.0518 53.2829 38.6837 53.5112 37.8551C52.6741 38.4717 49.2111 38.5488 47.2514 36.5063C50.9807 36.0631 52.4648 35.0226 54.3484 33.5774C55.8896 32.4213 57.2786 31.3807 59.4667 30.9761ZM49.7439 45.3701L51.9891 46.3721L51.5515 47.4318L50.3908 46.9501L50.9236 48.1833L50.2767 48.4531L49.801 47.2006L49.3063 48.376L48.2598 47.9328L49.1541 45.6013L48.6023 44.2332L47.727 45.4086L47.9934 47.8943L46.8708 48.0292L46.7186 46.7574L45.9195 47.8365L45.3677 47.3933L46.2049 46.3528L44.9681 46.5069L44.8159 45.3508L47.2323 44.9847L48.1076 43.8093L46.6806 43.6166L44.7208 45.1003L44.0168 44.1754L45.0252 43.3853L43.7124 43.2312L43.8075 42.5182L45.1013 42.7302L44.3402 41.7089L45.2535 40.996L46.7567 42.9614L48.1837 43.1541L47.6509 41.786L45.4058 40.7648L45.8434 39.705L46.985 40.206L46.4713 38.9727L47.1182 38.703L47.5939 39.9555L48.0886 38.78L49.135 39.2232L48.2408 41.5355L48.7926 42.9036L49.6678 41.7475L49.4014 39.2618L50.524 39.1076L50.6762 40.3794L51.4563 39.3003L52.0081 39.7435L51.1709 40.784L52.4267 40.6299L52.5789 41.786L50.1435 42.1521L49.2873 43.3275L50.7143 43.5202L52.6931 42.0365L53.378 42.9807L52.3696 43.7515L53.6825 43.9056L53.5873 44.6186L52.2745 44.4066L53.0356 45.4279L52.1413 46.1216L50.6191 44.1561L49.1921 43.9634L49.7249 45.3508L49.7439 45.3701ZM43.5792 19.299L43.6743 18.9522L45.2345 14.0193L46.3 14.3662L45.7102 16.1775L47.3465 15.6379V16.6784L45.3867 17.218L44.5876 19.6073L47.004 19.0293L47.7461 17.0831L48.7545 17.1987L48.0695 18.798L49.8771 18.3741L50.1435 19.5303L48.2979 19.8964L49.5727 21.0718L48.6974 21.5921L47.2514 20.1276L44.8159 20.6093L46.5093 22.4592L48.5262 22.1316L48.9257 23.0758L47.2133 23.2685L48.4691 24.6751L47.6129 25.4651L46.3761 24.02L46.0336 25.7349L45.1584 25.2532L45.6912 23.2299L44.0739 21.3223L43.3508 23.7502L44.6256 25.3881L44.0358 26.1974L43.0274 24.7907L42.4756 26.5827L41.4481 26.2744L43.6362 19.2798L43.5792 19.299ZM38.9176 34.5409C50.2386 36.7568 58.4773 31.901 59.7331 23.095C60.0185 21.0333 59.9614 18.9522 59.5808 16.9097C59.8853 16.9289 61.4074 17.218 62.9296 17.006C64.4708 16.7748 65.4982 16.0426 65.4982 16.0426C63.1008 15.503 60.0185 14.1927 59.0291 12.632C59.0291 12.632 60.9888 12.5741 62.6442 11.3409C64.2995 10.1077 65.1367 8.23861 65.1367 8.23861C65.1367 8.23861 61.4074 9.89575 58.9149 8.72033C56.4224 7.54492 56.0418 6.42732 56.0418 6.42732C56.0418 6.42732 57.564 6.69708 59.1432 5.92632C60.7225 5.15556 61.1601 3.49842 61.1601 3.49842C55.7374 5.23264 52.7502 3.20939 49.5917 0.665871C49.5536 0.627333 49.4966 0.588795 49.4585 0.550257C49.4585 0.530988 50.524 3.20939 49.7629 6.09974C49.0019 8.9901 45.9385 11.7648 45.9385 11.7648C45.9385 11.7648 47.8793 11.5722 49.4014 10.6858C50.9236 9.7994 52.1413 8.39276 52.1413 8.39276C51.8559 11.1868 49.9913 12.7861 47.4226 14.3276C47.4226 14.3276 50.2767 14.2698 52.0462 13.21C53.8347 12.1502 54.5006 11.418 54.5006 11.418C54.5006 11.418 54.3865 13.5569 53.378 15.0213C52.3696 16.4858 50.0864 17.4877 50.0864 17.4877C51.2851 17.7575 53.2258 17.5648 55.1095 16.6592C55.1095 16.6592 54.8431 18.3163 53.1307 20.5323C51.4183 22.7482 49.3063 24.0007 49.3063 24.0007C51.5515 24.4824 53.5303 23.7887 54.786 22.9409C54.786 22.9409 52.8833 25.7156 49.5346 27.3728C47.1943 28.5289 43.3128 28.9914 41.1057 28.8179C40.8773 28.8179 40.7632 28.7216 40.7632 28.7216C41.9238 30.3402 44.4544 31.3229 46.3952 30.9568C46.3952 30.9568 45.6912 32.3056 43.6362 33.2884C41.5813 34.2711 38.9176 34.5409 38.9176 34.5409ZM46.3571 36.5834C46.3571 36.5834 44.0929 36.0438 42.2853 37.1229C40.4778 38.202 39.907 40.1867 39.907 40.1867C38.9176 38.7222 38.7653 37.0458 38.7653 35.0804C38.7653 35.0804 37.6618 37.6432 37.4715 39.6086C37.3003 41.4199 37.7379 43.4046 38.9176 44.7727C38.9176 44.7727 38.8795 44.7727 38.8224 44.7535C37.6237 44.4066 36.9007 43.79 36.0825 42.8458C37.0149 45.7747 39.907 48.5109 44.6447 48.9156C39.241 44.3873 42.742 38.279 46.3571 36.5834ZM35.5117 45.6206C37.9282 49.4358 42.5137 50.7654 46.9089 50.4378C59.2003 49.5322 67.7434 36.1016 79.7494 37.5661C86.7323 38.4139 88.9585 41.4006 88.9585 41.4006L84.5252 41.285C84.5252 41.285 84.6774 42.1136 85.077 43.0385C85.4765 43.9827 86.2186 44.8113 86.2186 44.8113C82.3561 44.8691 79.1786 43.8478 75.9631 41.7089C75.9631 41.7089 75.8869 42.6917 76.2294 43.6744C76.5719 44.6571 77.0286 45.1196 77.0286 45.1196C77.0286 45.1196 74.8024 45.4471 73.0139 45.2352C71.2253 45.0232 69.9505 44.1754 69.9505 44.1754C69.9505 44.1754 69.9505 44.8498 70.5023 45.5435C71.0541 46.2372 71.9484 46.5262 71.9484 46.5262C71.7391 46.6996 71.3585 46.9694 71.0921 47.1235C68.866 48.376 66.7159 48.6843 64.1854 48.7036C62.8154 48.7036 61.5216 48.4916 61.5216 48.4916C62.511 49.6478 63.3482 50.0139 64.5278 50.1681C64.5278 50.1681 63.4814 50.6112 62.1305 51.0159C59.9994 51.6518 57.8494 51.883 55.6613 51.3627C55.3188 51.2857 55.1285 51.2086 55.1285 51.2086C55.8516 52.0757 57.1454 52.6152 58.0587 52.6152C58.0587 52.6152 57.8113 52.7308 57.3927 52.885C54.3865 54.0411 51.7608 54.5614 48.2408 53.8099C47.004 53.5401 46.2429 53.174 46.2429 53.174C46.4903 53.6172 46.7376 53.8677 47.1753 54.1375C47.6509 54.4265 48.6784 54.6963 48.6784 54.6963C41.7906 55.7946 36.9578 52.3455 35.4927 45.6206H35.5117ZM34.5604 48.6073C36.0255 51.9601 38.1375 54.4843 41.372 56.2571C49.4966 60.7082 55.9467 60.1109 55.2046 71.576C55.2046 71.576 53.9869 70.3427 52.3696 69.5142C50.7523 68.6856 49.3253 68.5315 49.3253 68.5315C48.431 70.2464 47.3275 71.0942 45.3487 71.6916C45.3487 71.6916 45.9956 70.3813 45.9575 68.9168C45.9195 67.4524 45.3677 66.4118 45.3677 66.4118C44.5686 69.1095 41.9048 71.0942 39.1459 71.6338C39.1459 71.6338 40.7061 69.6298 41.372 67.568C42.019 65.5062 41.9428 63.6178 41.9428 63.6178C41.0866 64.9667 40.1924 65.7182 38.499 66.2384C38.499 66.2384 39.0888 64.1767 38.8034 62.0185C38.499 59.8604 37.3954 58.6464 37.3954 58.6464C36.5582 59.6292 36.1016 60.5541 35.702 61.9607C35.702 61.9607 33.552 57.6252 33.8183 53.675C34.1037 49.7249 34.5604 48.6265 34.5604 48.6265V48.6073ZM52.2555 0.530988C52.2555 0.530988 54.6909 2.66985 57.7162 2.61204C60.7415 2.55424 63.0057 2.0147 63.0057 2.0147C63.0057 2.0147 63.196 4.03795 62.1875 5.34825C61.1791 6.65854 59.8853 7.08246 59.8853 7.08246C59.8853 7.08246 61.2552 7.71834 63.1769 7.14027C65.0796 6.54293 67.5722 3.98015 67.5722 3.98015C67.8576 4.65456 68.0288 6.71635 67.6483 8.14226C67.6483 8.14226 70.5594 7.15954 72.2528 4.65456C73.9652 2.16886 74.3458 0.530988 74.3458 0.530988H52.2555ZM81.538 18.3356C81.538 18.3356 80.4534 24.1356 75.4683 27.2957C71.2634 29.9548 66.1451 30.6678 66.1451 30.6678C69.1324 31.901 70.293 34.0591 70.9209 37.1422C70.9209 37.1422 71.6059 36.0631 71.6439 34.5794C71.663 33.0764 71.1492 32.2286 71.1492 32.2286C72.8617 33.0186 73.5847 34.0591 74.3458 35.8704C74.3458 35.8704 74.8595 34.9262 74.8595 33.192C74.8595 31.4578 74.4409 30.4173 74.4409 30.4173C75.6206 30.5136 76.4197 31.9203 76.7051 33.2306C76.8002 33.6545 83.1743 28.6445 81.576 18.3549L81.538 18.3356ZM83.1172 23.3455C83.3075 26.2744 82.2419 30.9375 76.7622 35.8319C76.7622 35.8319 79.8826 35.5621 83.0221 36.198C86.1615 36.8339 87.893 38.0478 87.893 38.0478C87.1319 36.0824 84.3539 33.6159 83.2884 33.2113C84.5062 30.5907 84.1637 26.6984 83.1362 23.3455H83.1172ZM66.9633 28.7216C65.7836 24.5017 65.6314 19.1642 66.2403 14.713C64.9084 14.5396 63.5004 14.0771 62.3968 13.2293C62.3968 13.2293 62.549 13.21 62.7203 13.1715C64.7752 12.7283 66.4686 11.0519 67.2487 9.12498C67.2487 10.8977 67.6863 12.9788 68.9611 14.2891C70.5975 15.9848 74.0033 16.2545 74.0033 16.2545C73.3183 17.3143 72.4621 18.008 71.4537 18.7402C71.3585 18.8173 70.8448 19.1642 70.8448 19.1642C75.24 20.224 77.3901 18.9522 80.7578 16.1004C80.7578 16.1004 80.7198 21.1874 76.5529 24.7329C72.405 28.2784 66.9633 28.7216 66.9633 28.7216ZM75.7157 0.530988C75.7157 0.530988 77.7706 7.10173 78.5127 9.43329C79.2547 11.7648 79.426 14.0964 78.2273 15.8691C77.0286 17.6419 73.5276 18.2007 73.5276 18.2007C74.8975 16.9868 76.0772 15.715 76.3246 13.8266C76.3246 13.8266 75.221 14.5781 72.5762 14.1542C69.9505 13.7303 68.6186 10.4353 68.6186 10.4353C68.6186 10.4353 71.8342 9.08644 73.6037 6.50439C75.3732 3.92234 75.6967 0.511719 75.6967 0.511719L75.7157 0.530988ZM81.2716 71.6145C76.9715 71.8072 74.2697 71.4411 72.5953 69.8996C72.1577 70.651 71.663 71.0942 70.8638 71.5374V60.6119C72.0245 66.5467 74.1745 70.863 81.2716 71.6145ZM98.5861 71.6145C96.4931 71.2098 95.1232 69.4564 94.8188 68.069C94.1909 69.6298 93.1824 70.8437 90.9753 71.6145C91.6032 70.574 91.9837 69.7261 91.9457 67.4909C88.6731 71.4796 87.2841 71.1906 82.6986 71.6145C90.6899 69.4949 92.193 61.4983 89.9098 55.9102C89.6434 57.5096 88.8443 58.2418 88.8443 58.2418C88.8063 54.6385 87.4173 51.7867 85.5336 50.5149C86.3137 52.8079 85.7619 54.5807 85.781 54.9082C84.7155 51.9023 83.0982 49.7056 80.6056 49.0312C81.3287 50.9774 81.0052 52.3455 80.6437 53.3282C79.3498 50.3993 77.5613 49.0697 75.24 48.9926C75.8489 49.6092 76.2675 50.6498 76.3626 51.4591C74.2126 50.0139 71.8342 49.8597 69.2656 50.8232C73.4705 47.3933 78.3034 46.5455 82.1468 46.9501C83.8212 47.1235 86.2757 47.6631 87.3792 45.8711C88.2164 44.503 87.912 42.6917 87.912 42.6917C87.912 42.6917 89.8527 43.9827 89.7386 46.9116C89.6815 48.2026 89.3961 49.1275 89.1107 49.7634C94.267 54.2338 95.656 63.2517 98.548 71.6338L98.5861 71.6145ZM77.4091 63.56L76.5909 65.9494L75.3732 65.8531L76.1533 63.8876L73.9842 64.4657L73.6227 63.0783L75.8299 62.558L74.2506 61.2092L75.2781 60.5348L77.0856 62.2497L80.0348 61.5753L77.9228 59.3979L75.5064 59.8604L74.9927 58.7428L77.0286 58.4537L75.4303 56.7966L76.4387 55.8332L77.9799 57.4903L78.3414 55.4092L79.426 55.9873L78.8742 58.4345L80.9291 60.6889L81.7092 57.7408L80.0919 55.8332L80.7769 54.7926L82.0517 56.469L82.6415 54.2338L83.9924 54.6385L83.3455 56.8544L85.2863 56.1222L85.3433 57.3747L82.984 58.1069L82.1088 61.0358L85.0009 60.2265L85.819 57.8564L87.0367 57.9527L86.2757 59.9182L88.4257 59.3401L88.7872 60.7275L86.5801 61.2478L88.1593 62.5966L87.1319 63.271L85.3243 61.5561L82.4132 62.2305L84.5442 64.3886L86.9606 63.9262L87.4744 65.0438L85.4194 65.3521L86.9987 66.9899L85.9903 67.9726L84.4491 66.2962L84.0876 68.3773L83.003 67.8185L83.5548 65.3521L81.5189 63.1168L80.7388 66.0843L82.3561 68.0112L81.6711 69.0132L80.3963 67.356L79.7875 69.5334L78.4366 69.1673L79.0835 66.9707L77.1427 67.6836L77.0856 66.4504L79.445 65.6989L80.3202 62.77L77.4281 63.5408L77.4091 63.56Z" fill="#B17C57"/>
<path d="M26.3498 80.9723H30.4187V82.0963H27.6428V86.9484H26.3498V80.9723ZM64.2059 80.9723V86.9297H62.894V84.5692H62.1144L61.7912 85.0188L60.4032 86.9297H58.806L60.6123 84.4942C60.4602 84.4568 60.3271 84.3818 60.194 84.3069C59.9278 84.157 59.7187 83.951 59.5666 83.6887C59.3955 83.4077 59.3004 83.1079 59.3004 82.7707C59.3004 82.2274 59.4905 81.7591 59.9278 81.4219C60.4032 81.0659 61.0116 80.9535 61.582 80.9535H61.7912H64.2059V80.9723ZM62.894 82.0776H61.582C61.0687 82.0776 60.6694 82.2087 60.6694 82.7707C60.6694 83.3327 61.0687 83.4826 61.582 83.4826H62.894V82.0776ZM36.0848 82.4335C36.2939 82.9206 36.389 83.4264 36.389 83.951C36.389 84.4755 36.2939 84.9813 36.0848 85.4684C35.8756 85.9368 35.5524 86.3489 35.1341 86.6487C34.6778 86.9671 34.1264 87.0983 33.556 87.0983C32.9856 87.0983 32.4532 86.9671 31.9779 86.6299C31.5405 86.3302 31.2173 85.9368 31.0082 85.4497C30.799 84.9626 30.7039 84.4568 30.7039 83.9322C30.7039 83.4077 30.799 82.9019 31.0082 82.4148C31.2173 81.9277 31.5405 81.5343 31.9779 81.2345C32.4342 80.916 32.9856 80.7849 33.556 80.7849C34.1264 80.7849 34.6588 80.916 35.1341 81.2345C35.5714 81.5343 35.8947 81.9277 36.0848 82.4148V82.4335ZM35.0581 83.9322C35.0581 83.6325 35.001 83.314 34.925 83.0143C34.8299 82.7145 34.6778 82.4522 34.4496 82.2462C34.2024 82.0214 33.8982 81.9464 33.556 81.9464C33.2328 81.9464 32.9095 82.0214 32.6623 82.2649C32.4342 82.471 32.2821 82.7333 32.187 83.033C32.111 83.3327 32.0539 83.6325 32.0539 83.951C32.0539 84.2694 32.111 84.5692 32.187 84.8689C32.2821 85.1687 32.4342 85.4309 32.6623 85.637C32.9095 85.8618 33.2328 85.9555 33.556 85.9555C33.8792 85.9555 34.2024 85.8806 34.4496 85.6558C34.6778 85.4497 34.8299 85.1874 34.925 84.8877C35.02 84.5879 35.0581 84.2882 35.0581 83.9697V83.9322ZM47.1127 85.0937C47.1127 85.4122 47.0366 85.7307 46.8655 86.0117C46.6944 86.3114 46.4092 86.5363 46.0859 86.6674C45.6867 86.8547 45.2303 86.9109 44.793 86.9109H44.755H42.4163V80.9348H43.7092V83.314H44.755H44.793C46.0289 83.314 47.1127 83.7074 47.1127 85.0937ZM45.8007 85.0937C45.8007 84.9064 45.7627 84.7003 45.5916 84.5879C45.3824 84.438 45.0402 84.4193 44.793 84.4193H44.755H43.7092V85.8056H44.774C45.0022 85.8056 45.3824 85.7869 45.5916 85.637C45.7627 85.5059 45.8007 85.2811 45.8007 85.075V85.0937ZM25.3992 82.4335C25.6083 82.9206 25.7034 83.4264 25.7034 83.951C25.7034 84.4755 25.6083 84.9813 25.3992 85.4684C25.19 85.9368 24.8668 86.3489 24.4485 86.6487C23.9921 86.9671 23.4408 87.0983 22.8703 87.0983C22.2999 87.0983 21.7676 86.9671 21.2922 86.6299C20.8549 86.3302 20.5317 85.9368 20.3225 85.4497C20.1134 84.9626 20.0183 84.4568 20.0183 83.9322C20.0183 83.4077 20.1134 82.9019 20.3225 82.4148C20.5317 81.9277 20.8549 81.5343 21.2922 81.2345C21.7485 80.916 22.2999 80.7849 22.8703 80.7849C23.4408 80.7849 23.9731 80.916 24.4485 81.2345C24.8858 81.5343 25.209 81.9277 25.3992 82.4148V82.4335ZM24.3724 83.9322C24.3724 83.6325 24.3154 83.314 24.2393 83.0143C24.1443 82.7145 23.9921 82.4522 23.764 82.2462C23.5168 82.0214 23.2126 81.9464 22.8703 81.9464C22.5471 81.9464 22.2239 82.0214 21.9767 82.2649C21.7485 82.471 21.5964 82.7333 21.5014 83.033C21.4063 83.3327 21.3683 83.6325 21.3683 83.951C21.3683 84.2694 21.4253 84.5692 21.5014 84.8689C21.5964 85.1687 21.7485 85.4309 21.9767 85.637C22.2239 85.8618 22.5471 85.9555 22.8703 85.9555C23.1936 85.9555 23.5168 85.8806 23.764 85.6558C23.9921 85.4497 24.1443 85.1874 24.2393 84.8877C24.3344 84.5879 24.3724 84.2882 24.3724 83.9697V83.9322ZM37.2446 85.2436C37.2446 86.274 36.5791 87.0046 36.5791 87.0233H36.7503C37.8721 87.0233 38.4995 86.3302 38.4995 85.2436V82.0776H40.4009V86.9297H41.6938V80.9535H37.2446V85.2436ZM51.3337 86.9297H52.6266V80.9535H51.3337V83.2953H48.976V80.9535H47.6831V86.9297H48.976V84.3818H51.3337V86.9297ZM5.43488 78.8553L8.42001 86.9297H6.89892L6.11936 84.6816H3.19127L2.35467 86.9297H0.890625L3.98984 78.8553H5.43488ZM5.606 83.4264L4.65532 80.6538L4.61729 80.7662L3.62858 83.4451H4.61729H5.606V83.4264ZM19.9803 80.9723H18.25L16.0064 83.1267V80.9723H14.7325V86.9484H16.0064V84.7191L16.2916 84.4193L18.3451 86.9671H20.0183L17.2423 83.5013L19.9613 81.0097L19.9803 80.9723ZM55.8209 83.2953L56.7336 83.1829C57.0188 83.1641 57.0948 82.9393 57.0948 82.677C57.0948 82.0214 56.4484 81.9277 55.916 81.9277H55.8399C55.5737 81.9277 55.2315 81.9839 55.0604 82.19C54.8892 82.396 54.7942 82.6208 54.7752 82.8831V83.033H53.5393V82.8644C53.5583 82.2649 53.7484 81.6841 54.2618 81.3095C54.7181 80.9723 55.2885 80.8599 55.8399 80.8224C55.916 80.8224 56.011 80.8224 56.0871 80.8224C56.3913 80.8224 56.6955 80.8786 56.9807 80.9348C57.342 81.0097 57.6652 81.1971 57.9314 81.4406C58.2546 81.7216 58.3687 82.1338 58.3877 82.5459V87.0608H58.2166C57.9314 87.0608 57.6272 86.9859 57.4371 86.7798C57.323 86.6674 57.2659 86.5175 57.2089 86.3676C57.0188 86.555 56.7906 86.7049 56.5434 86.836C56.3343 86.9484 56.0871 87.0233 55.8399 87.0608C55.6308 87.0983 55.4406 87.117 55.2315 87.117C54.8702 87.117 54.528 87.0421 54.2238 86.8922C53.9195 86.7423 53.6914 86.5362 53.5203 86.2552C53.3491 85.9742 53.2731 85.6558 53.2731 85.3185C53.2731 84.8877 53.4062 84.4755 53.6534 84.1196C53.9766 83.6325 54.6231 83.4451 55.1744 83.3889L55.8589 83.2953H55.8209ZM55.8209 84.4006L55.6688 84.4193C55.4787 84.438 55.2885 84.4755 55.0984 84.5317C54.9463 84.5692 54.8322 84.6629 54.7181 84.7565C54.604 84.8689 54.566 85.0188 54.566 85.1687C54.566 85.7494 54.8702 85.993 55.4406 85.993C55.5737 85.993 55.6878 85.993 55.8019 85.9555C55.954 85.918 56.0871 85.8806 56.2202 85.8244C56.4484 85.7307 56.6575 85.5808 56.8286 85.3935C56.9617 85.2249 57.0378 85.0375 57.0378 84.8315V84.1758C57.0378 84.1758 56.8667 84.232 56.7906 84.2507C56.4674 84.3256 56.1251 84.3818 55.7829 84.4193L55.8209 84.4006ZM9.54181 85.2623C9.54181 86.2927 8.87634 87.0233 8.87634 87.0421H9.04746C10.1693 87.0421 10.7967 86.3489 10.7967 85.2623V82.0963H12.6981V86.9484H13.991V80.9723H9.54181V85.2623ZM119.079 82.5459V87.0608H118.908C118.623 87.0421 118.3 86.9859 118.109 86.7798C118.014 86.6487 117.938 86.5175 117.9 86.3676C117.691 86.555 117.463 86.7049 117.235 86.836C117.026 86.9484 116.778 87.0233 116.531 87.0608C116.322 87.0983 116.113 87.117 115.923 87.117C115.562 87.117 115.219 87.0421 114.915 86.8922C114.611 86.7423 114.383 86.5362 114.212 86.2552C114.079 86.0492 114.003 85.8244 113.964 85.5996C113.964 85.5059 113.945 85.4122 113.945 85.3185C113.945 85.2249 113.964 85.1312 113.964 85.0375C114.022 84.7191 114.155 84.4006 114.326 84.1196C114.649 83.6325 115.295 83.4639 115.847 83.3889L116.531 83.2953L117.444 83.2016C117.748 83.1641 117.805 82.9581 117.805 82.6958C117.805 82.0214 117.159 81.9277 116.607 81.9277H116.531C116.265 81.9464 115.923 81.9839 115.752 82.19C115.581 82.396 115.505 82.6208 115.467 82.8831V83.033H114.231V82.8644C114.25 82.2462 114.44 81.6841 114.953 81.3095C115.41 80.9723 115.98 80.8599 116.531 80.8224H116.778C117.083 80.8224 117.387 80.8598 117.672 80.9348C118.033 81.0097 118.357 81.1971 118.623 81.4406C118.946 81.7216 119.079 82.115 119.079 82.5459ZM117.767 84.1758C117.767 84.1758 117.615 84.232 117.539 84.2507C117.216 84.3069 116.874 84.3631 116.531 84.4006H116.379C116.189 84.4568 115.999 84.4942 115.809 84.5504C115.657 84.5879 115.543 84.6629 115.429 84.7753C115.314 84.8877 115.295 85.0375 115.295 85.1874C115.295 85.7682 115.581 85.993 116.17 85.993C116.284 85.993 116.417 85.993 116.531 85.9555C116.683 85.9368 116.817 85.8993 116.969 85.8244C117.197 85.7307 117.406 85.5996 117.558 85.4122C117.691 85.2436 117.767 85.0563 117.767 84.8315V84.1758ZM125.106 80.991V86.9671H123.814V84.5879H123.015L122.692 85.0375L121.304 86.9671H119.707L121.513 84.5317C121.361 84.4942 121.228 84.4193 121.095 84.3444C120.828 84.1945 120.638 83.9697 120.467 83.7262C120.296 83.4451 120.201 83.1454 120.201 82.8082C120.201 82.2649 120.391 81.7966 120.828 81.4593C121.285 81.1034 121.893 80.991 122.464 80.991H122.673H125.087H125.106ZM123.814 82.115H122.502C121.988 82.115 121.589 82.2462 121.589 82.8082C121.589 83.3702 121.988 83.5013 122.502 83.5013H123.814V82.115ZM77.0781 86.0679C77.6295 85.5059 77.8767 84.7378 77.9908 83.9884L78.0288 83.8011H76.6598L76.6218 83.9322C76.5457 84.3631 76.3936 84.8127 76.1084 85.1687C75.9183 85.4309 75.6521 85.6558 75.3479 85.7682C75.1007 85.8618 74.8155 85.9368 74.5493 85.9368C73.8268 85.9368 73.1233 85.7494 72.686 85.1312C72.2296 84.4755 72.0965 83.6512 72.0965 82.8644C72.0965 82.3211 72.1726 81.7591 72.4198 81.2533C72.6099 80.8598 72.8951 80.5039 73.2754 80.2791C73.6557 80.0543 74.074 79.9606 74.5113 79.9606C74.9676 79.9606 75.4049 80.073 75.8042 80.2791C76.2415 80.5226 76.4507 80.9535 76.5647 81.4219V81.553H77.9527V81.3657C77.8767 80.8786 77.7056 80.4477 77.4394 80.0356C77.1542 79.6047 76.7359 79.2862 76.2795 79.0427C75.7281 78.7804 75.1387 78.668 74.5303 78.668C73.9789 78.668 73.4275 78.7616 72.9331 78.9677C72.4578 79.1738 72.0585 79.4548 71.7163 79.8482C71.374 80.2416 71.1078 80.6912 70.9557 81.1783C70.7656 81.7216 70.6895 82.3024 70.6895 82.8644C70.6895 83.5013 70.7656 84.1758 70.9938 84.794C71.1839 85.2998 71.4311 85.7682 71.8304 86.1428C72.1726 86.4801 72.5719 86.7423 73.0282 86.9109C73.4655 87.0795 73.9409 87.1545 74.4162 87.1545C74.8535 87.1545 75.2908 87.0795 75.6901 86.9671C76.2415 86.8173 76.7169 86.4613 77.1161 86.0492L77.0781 86.0679ZM106.777 84.7753C106.72 85.1125 106.587 85.4309 106.321 85.6745C106.112 85.8806 105.865 85.9742 105.56 85.9742C104.382 85.9742 104.153 84.9439 104.153 83.9697C104.153 83.4826 104.249 82.9768 104.515 82.5459C104.743 82.1525 105.123 82.0026 105.579 82.0026C106.302 82.0026 106.663 82.3773 106.777 83.0705V83.2203H108.051V83.0517C108.013 82.677 107.918 82.3211 107.747 81.9839C107.576 81.6467 107.31 81.3657 106.986 81.1596C106.606 80.9161 106.169 80.8411 105.713 80.8411C105.142 80.8411 104.572 80.9535 104.077 81.272C103.621 81.5717 103.298 81.9839 103.089 82.471C102.861 82.9955 102.784 83.5763 102.784 84.1383C102.784 84.6629 102.88 85.1874 103.108 85.6745C103.317 86.1241 103.64 86.4801 104.058 86.7423C104.496 87.0233 105.009 87.1357 105.522 87.1357C106.207 87.1357 106.891 86.9484 107.348 86.4238C107.747 85.9742 107.975 85.4309 108.032 84.8315V84.6441H106.796V84.7753H106.777ZM102.138 83.8198C102.138 84.3444 102.043 84.8502 101.872 85.356C101.72 85.8431 101.435 86.274 101.016 86.6112C100.579 86.9859 100.008 87.1357 99.4381 87.1357H99.4001C99.0578 87.1357 98.7156 87.0608 98.4114 86.8922C98.2783 86.8173 98.1642 86.7423 98.0501 86.6299V89.1965H96.7382V80.991H97.9931V81.5155C98.1262 81.3844 98.2592 81.2533 98.4114 81.1409C98.6966 80.9348 99.0578 80.8598 99.4001 80.8411H99.5712C100.066 80.8411 100.541 80.9535 100.94 81.2345C101.339 81.5155 101.644 81.8715 101.834 82.3211C102.043 82.7895 102.138 83.2953 102.138 83.8198ZM100.788 83.9697C100.788 83.67 100.769 83.3515 100.693 83.033C100.636 82.752 100.503 82.5272 100.294 82.3211C100.066 82.0776 99.7233 82.0214 99.4001 82.0214H99.3811C98.1642 82.0214 98.0121 83.314 98.0121 84.2507C98.0121 84.7003 98.0881 85.2623 98.4304 85.5808C98.7156 85.8244 99.0198 85.993 99.4001 85.993H99.4191C99.6853 85.993 99.9324 85.918 100.161 85.7494C100.389 85.5621 100.541 85.3185 100.636 85.0563C100.75 84.7003 100.788 84.3256 100.788 83.9697ZM80.1773 84.8127V80.991H78.8844V86.9671H80.2724L82.554 83.1454V86.9671H83.8469V80.991H82.4019L80.1773 84.8127ZM113.964 80.991H112.234L109.991 83.1454V80.991H108.717V86.9671H109.991V84.7378L110.276 84.4193L112.329 86.9671H113.983V86.9484L111.227 83.5013L113.945 81.0097L113.964 80.991ZM114.003 86.9297L114.022 86.9484H114.003V86.9297ZM90.0074 82.5834C90.2165 83.0517 90.3116 83.5388 90.3116 84.0446C90.3116 84.5504 90.2165 85.0563 90.0074 85.5246C89.7982 85.993 89.456 86.3864 89.0186 86.6674C88.5623 86.9671 88.0299 87.0983 87.4785 87.0983H87.3835C87.0412 87.0983 86.718 87.0233 86.4138 86.9109C86.0715 86.7798 85.7673 86.555 85.5201 86.2927C85.2159 85.9742 85.0068 85.5808 84.8737 85.1874C84.6835 84.6628 84.6265 84.1008 84.6265 83.5575C84.6265 82.7895 84.6835 82.0401 84.9117 81.3095C85.1209 80.635 85.4821 80.0543 86.0905 79.6609C86.5279 79.3986 87.0032 79.2487 87.4785 79.1738C87.9349 79.0989 88.4292 79.0988 88.9046 79.0988C89.0947 79.0988 89.2848 79.0988 89.475 79.0988H89.6461V79.2675C89.6461 79.7733 89.1708 80.1667 88.6764 80.1667C88.2771 80.1667 87.8588 80.1667 87.4785 80.2791C87.1743 80.354 86.9081 80.4664 86.6419 80.6538C86.3377 80.8786 86.1286 81.1783 85.9765 81.5155C86.0145 81.4781 86.0335 81.4593 86.0715 81.4406C86.2617 81.2907 86.4898 81.1783 86.718 81.1221C86.9652 81.0472 87.2314 81.0285 87.4785 81.0097H87.6307C88.163 81.0097 88.6574 81.1409 89.0757 81.4593C89.494 81.7591 89.7982 82.1525 90.0074 82.6021V82.5834ZM88.9806 84.0446C88.9806 83.7636 88.9236 83.4826 88.8475 83.2203C88.7524 82.9206 88.6003 82.6583 88.3722 82.4522C88.125 82.2087 87.8018 82.1338 87.4785 82.1338C87.1363 82.1338 86.8131 82.2087 86.5849 82.4522C86.3567 82.677 86.2046 82.9393 86.1096 83.2203C86.0335 83.4826 85.9765 83.7636 85.9765 84.0446C85.9765 84.3256 86.0335 84.6067 86.1096 84.8689C86.2046 85.1687 86.3567 85.4309 86.5849 85.637C86.8321 85.8806 87.1553 85.9555 87.4785 85.9555C87.8208 85.9555 88.125 85.8806 88.3722 85.637C88.6003 85.4122 88.7524 85.1499 88.8475 84.8689C88.9236 84.6067 88.9806 84.3256 88.9806 84.0446ZM92.251 84.794V80.9723H90.958V86.9484H92.346L94.6277 83.1267V86.9484H95.9206V80.9723H94.4755L92.251 84.794ZM79.4358 93.243C79.759 93.524 79.8731 93.9362 79.8921 94.3483V98.8632H79.721C79.4358 98.8632 79.1316 98.7883 78.9414 98.5822C78.8464 98.4698 78.7703 98.3199 78.7133 98.1701C78.5231 98.3574 78.295 98.5073 78.0478 98.6384C77.6485 98.8445 77.1922 98.9194 76.7359 98.9194C76.3936 98.9194 76.0324 98.8445 75.7281 98.6946C75.4239 98.5448 75.1958 98.3387 75.0246 98.0577C74.8535 97.7767 74.7775 97.4582 74.7775 97.121C74.7775 96.6901 74.9106 96.2779 75.1577 95.922C75.481 95.4349 76.1274 95.2476 76.6788 95.1914L78.276 95.004C78.5612 94.9853 78.6372 94.7605 78.6372 94.4982C78.6372 93.8425 78.0098 93.7488 77.4584 93.7488C77.1922 93.7488 76.7929 93.7863 76.6028 94.0111C76.4316 94.2172 76.3366 94.4607 76.2985 94.7043V94.8541H75.0627V94.6855C75.0817 94.0861 75.2718 93.5053 75.7852 93.1306C76.2985 92.7559 76.983 92.6435 77.6105 92.6435C77.9147 92.6435 78.2189 92.6997 78.5041 92.7559C78.8654 92.8309 79.1886 93.0182 79.4548 93.2618L79.4358 93.243ZM78.5802 95.9782C78.5802 95.9782 78.4091 96.0344 78.333 96.0531C77.9717 96.1468 77.5534 96.1843 77.1732 96.2405C76.983 96.2592 76.7929 96.2967 76.6218 96.3529C76.4697 96.3903 76.3366 96.484 76.2415 96.5777C76.1274 96.6901 76.0894 96.84 76.0894 96.9898C76.0894 97.5706 76.3936 97.8141 76.964 97.8141C77.2492 97.8141 77.4964 97.7579 77.7626 97.6455C77.9908 97.5518 78.1999 97.402 78.371 97.2146C78.5041 97.046 78.5802 96.8587 78.5802 96.6526V95.9969V95.9782ZM56.2962 94.1048C56.5054 94.5731 56.6005 95.079 56.6005 95.6035C56.6005 96.1281 56.5244 96.6339 56.3533 97.1397C56.1822 97.6455 55.897 98.0577 55.4977 98.4136C55.0413 98.7883 54.49 98.9382 53.9005 98.9382C53.5393 98.9382 53.197 98.8632 52.8928 98.6946C52.7597 98.6197 52.6266 98.526 52.5125 98.4323V100.999H51.2196V92.7934H52.4555V93.318C52.5886 93.1868 52.7217 93.0557 52.8738 92.9433C53.197 92.6997 53.6153 92.6435 54.0146 92.6435C54.509 92.6435 54.9843 92.7559 55.4026 93.037C55.8019 93.318 56.0871 93.6739 56.2962 94.1235V94.1048ZM55.2505 95.7534C55.2505 95.4349 55.2315 95.1164 55.1554 94.8167C55.0984 94.5357 54.9653 94.2921 54.7561 94.1048C54.528 93.8612 54.1667 93.805 53.8435 93.805C52.6266 93.805 52.4555 95.0977 52.4555 96.0344C52.4555 96.484 52.5316 97.046 52.8928 97.3645C53.178 97.608 53.4822 97.7579 53.8625 97.7579C54.1477 97.7579 54.3949 97.683 54.6231 97.5144C54.8512 97.327 55.0033 97.0835 55.0984 96.8212C55.2125 96.484 55.2695 96.1093 55.2695 95.7534H55.2505ZM59.6617 97.0273L58.2546 92.7934H56.7906L58.9772 98.7508L57.8934 100.999H59.3574L59.3955 100.905C60.5743 98.3761 61.487 95.641 62.4376 93.0182L62.5137 92.7934H61.0877L59.6426 97.0273H59.6617ZM69.0924 98.7696H70.3853V93.9174H72.743V98.7696H74.0359V92.7934H69.0734V98.7696H69.0924ZM63.2172 98.7696H64.5101V93.9174H66.8678V98.7696H68.1607V92.7934H63.1982V98.7696H63.2172ZM51.1436 91.763V90.639H46.219V98.7696H47.512V91.763H51.1245H51.1436Z" fill="#A7B0B9"/>
</svg>
