<svg width="288" height="94" viewBox="0 0 288 94" fill="none" xmlns="http://www.w3.org/2000/svg">
<path d="M61.918 10C61.858 10 61.807 9.979 61.765 9.937C61.723 9.895 61.702 9.844 61.702 9.784V3.925C61.702 3.859 61.723 3.805 61.765 3.763C61.807 3.721 61.858 3.7 61.918 3.7H65.878C65.944 3.7 65.998 3.721 66.04 3.763C66.082 3.805 66.103 3.859 66.103 3.925V4.519C66.103 4.579 66.082 4.63 66.04 4.672C65.998 4.714 65.944 4.735 65.878 4.735H62.917V6.328H65.68C65.746 6.328 65.8 6.349 65.842 6.391C65.884 6.427 65.905 6.478 65.905 6.544V7.102C65.905 7.168 65.884 7.222 65.842 7.264C65.8 7.3 65.746 7.318 65.68 7.318H62.917V8.965H65.95C66.016 8.965 66.07 8.986 66.112 9.028C66.154 9.07 66.175 9.124 66.175 9.19V9.784C66.175 9.844 66.154 9.895 66.112 9.937C66.07 9.979 66.016 10 65.95 10H61.918ZM66.8146 10C66.7606 10 66.7126 9.982 66.6706 9.946C66.6346 9.904 66.6166 9.856 66.6166 9.802C66.6166 9.784 66.6196 9.763 66.6256 9.739C66.6376 9.715 66.6556 9.685 66.6796 9.649L68.2096 7.597L66.7876 5.671C66.7696 5.641 66.7546 5.614 66.7426 5.59C66.7366 5.566 66.7336 5.542 66.7336 5.518C66.7336 5.464 66.7516 5.419 66.7876 5.383C66.8296 5.341 66.8776 5.32 66.9316 5.32H67.7146C67.7866 5.32 67.8406 5.338 67.8766 5.374C67.9126 5.41 67.9396 5.443 67.9576 5.473L68.9746 6.823L69.9916 5.473C70.0156 5.443 70.0426 5.41 70.0726 5.374C70.1086 5.338 70.1626 5.32 70.2346 5.32H70.9816C71.0356 5.32 71.0806 5.341 71.1166 5.383C71.1586 5.419 71.1796 5.461 71.1796 5.509C71.1796 5.539 71.1736 5.566 71.1616 5.59C71.1556 5.614 71.1436 5.641 71.1256 5.671L69.6856 7.615L71.2246 9.649C71.2486 9.685 71.2636 9.715 71.2696 9.739C71.2816 9.763 71.2876 9.784 71.2876 9.802C71.2876 9.856 71.2666 9.904 71.2246 9.946C71.1886 9.982 71.1436 10 71.0896 10H70.2706C70.2046 10 70.1536 9.985 70.1176 9.955C70.0816 9.919 70.0516 9.886 70.0276 9.856L68.9476 8.425L67.8496 9.856C67.8256 9.886 67.7956 9.919 67.7596 9.955C67.7296 9.985 67.6786 10 67.6066 10H66.8146ZM72.1377 11.71C72.0777 11.71 72.0267 11.689 71.9847 11.647C71.9427 11.605 71.9217 11.554 71.9217 11.494V5.536C71.9217 5.476 71.9427 5.425 71.9847 5.383C72.0267 5.341 72.0777 5.32 72.1377 5.32H72.8487C72.9147 5.32 72.9657 5.341 73.0017 5.383C73.0437 5.425 73.0647 5.476 73.0647 5.536V5.896C73.2087 5.704 73.3977 5.545 73.6317 5.419C73.8657 5.293 74.1567 5.23 74.5047 5.23C74.8227 5.23 75.0987 5.281 75.3327 5.383C75.5667 5.485 75.7617 5.632 75.9177 5.824C76.0737 6.01 76.1937 6.232 76.2777 6.49C76.3617 6.748 76.4097 7.033 76.4217 7.345C76.4277 7.447 76.4307 7.552 76.4307 7.66C76.4307 7.768 76.4277 7.876 76.4217 7.984C76.4157 8.284 76.3707 8.563 76.2867 8.821C76.2027 9.073 76.0797 9.295 75.9177 9.487C75.7617 9.673 75.5667 9.82 75.3327 9.928C75.0987 10.036 74.8227 10.09 74.5047 10.09C74.1807 10.09 73.9047 10.033 73.6767 9.919C73.4487 9.799 73.2627 9.643 73.1187 9.451V11.494C73.1187 11.554 73.0977 11.605 73.0557 11.647C73.0197 11.689 72.9687 11.71 72.9027 11.71H72.1377ZM74.1717 9.127C74.4297 9.127 74.6307 9.073 74.7747 8.965C74.9187 8.851 75.0207 8.704 75.0807 8.524C75.1467 8.344 75.1857 8.146 75.1977 7.93C75.2097 7.75 75.2097 7.57 75.1977 7.39C75.1857 7.174 75.1467 6.976 75.0807 6.796C75.0207 6.616 74.9187 6.472 74.7747 6.364C74.6307 6.25 74.4297 6.193 74.1717 6.193C73.9257 6.193 73.7247 6.25 73.5687 6.364C73.4187 6.478 73.3077 6.625 73.2357 6.805C73.1697 6.979 73.1307 7.159 73.1187 7.345C73.1127 7.453 73.1097 7.567 73.1097 7.687C73.1097 7.807 73.1127 7.924 73.1187 8.038C73.1247 8.218 73.1667 8.392 73.2447 8.56C73.3227 8.722 73.4367 8.857 73.5867 8.965C73.7367 9.073 73.9317 9.127 74.1717 9.127ZM77.486 10C77.426 10 77.375 9.979 77.333 9.937C77.291 9.895 77.27 9.844 77.27 9.784V3.826C77.27 3.766 77.291 3.715 77.333 3.673C77.375 3.631 77.426 3.61 77.486 3.61H78.233C78.293 3.61 78.344 3.631 78.386 3.673C78.428 3.715 78.449 3.766 78.449 3.826V9.784C78.449 9.844 78.428 9.895 78.386 9.937C78.344 9.979 78.293 10 78.233 10H77.486ZM81.5329 10.09C81.0529 10.09 80.6479 10.006 80.3179 9.838C79.9939 9.67 79.7449 9.433 79.5709 9.127C79.4029 8.821 79.3069 8.464 79.2829 8.056C79.2769 7.948 79.2739 7.816 79.2739 7.66C79.2739 7.504 79.2769 7.372 79.2829 7.264C79.3069 6.85 79.4059 6.493 79.5799 6.193C79.7599 5.887 80.0119 5.65 80.3359 5.482C80.6659 5.314 81.0649 5.23 81.5329 5.23C82.0009 5.23 82.3969 5.314 82.7209 5.482C83.0509 5.65 83.3029 5.887 83.4769 6.193C83.6569 6.493 83.7589 6.85 83.7829 7.264C83.7889 7.372 83.7919 7.504 83.7919 7.66C83.7919 7.816 83.7889 7.948 83.7829 8.056C83.7589 8.464 83.6599 8.821 83.4859 9.127C83.3179 9.433 83.0689 9.67 82.7389 9.838C82.4149 10.006 82.0129 10.09 81.5329 10.09ZM81.5329 9.199C81.8509 9.199 82.0969 9.1 82.2709 8.902C82.4449 8.698 82.5409 8.401 82.5589 8.011C82.5649 7.921 82.5679 7.804 82.5679 7.66C82.5679 7.516 82.5649 7.399 82.5589 7.309C82.5409 6.925 82.4449 6.631 82.2709 6.427C82.0969 6.223 81.8509 6.121 81.5329 6.121C81.2149 6.121 80.9689 6.223 80.7949 6.427C80.6209 6.631 80.5249 6.925 80.5069 7.309C80.5009 7.399 80.4979 7.516 80.4979 7.66C80.4979 7.804 80.5009 7.921 80.5069 8.011C80.5249 8.401 80.6209 8.698 80.7949 8.902C80.9689 9.1 81.2149 9.199 81.5329 9.199ZM84.825 10C84.765 10 84.714 9.979 84.672 9.937C84.63 9.895 84.609 9.844 84.609 9.784V5.545C84.609 5.479 84.63 5.425 84.672 5.383C84.714 5.341 84.765 5.32 84.825 5.32H85.554C85.614 5.32 85.665 5.341 85.707 5.383C85.755 5.425 85.779 5.479 85.779 5.545V5.914C85.917 5.722 86.094 5.575 86.31 5.473C86.532 5.371 86.787 5.32 87.075 5.32H87.444C87.51 5.32 87.561 5.341 87.597 5.383C87.639 5.425 87.66 5.476 87.66 5.536V6.184C87.66 6.244 87.639 6.295 87.597 6.337C87.561 6.379 87.51 6.4 87.444 6.4H86.742C86.454 6.4 86.229 6.481 86.067 6.643C85.911 6.805 85.833 7.027 85.833 7.309V9.784C85.833 9.844 85.812 9.895 85.77 9.937C85.728 9.979 85.674 10 85.608 10H84.825ZM90.1364 10.09C89.4704 10.09 88.9424 9.898 88.5524 9.514C88.1624 9.13 87.9524 8.584 87.9224 7.876C87.9164 7.816 87.9134 7.741 87.9134 7.651C87.9134 7.555 87.9164 7.48 87.9224 7.426C87.9464 6.976 88.0484 6.586 88.2284 6.256C88.4144 5.926 88.6694 5.674 88.9934 5.5C89.3174 5.32 89.6984 5.23 90.1364 5.23C90.6224 5.23 91.0304 5.332 91.3604 5.536C91.6904 5.734 91.9394 6.013 92.1074 6.373C92.2754 6.727 92.3594 7.138 92.3594 7.606V7.795C92.3594 7.855 92.3384 7.906 92.2964 7.948C92.2544 7.99 92.2004 8.011 92.1344 8.011H89.1464C89.1464 8.011 89.1464 8.02 89.1464 8.038C89.1464 8.056 89.1464 8.071 89.1464 8.083C89.1524 8.293 89.1914 8.488 89.2634 8.668C89.3414 8.842 89.4524 8.983 89.5964 9.091C89.7464 9.199 89.9234 9.253 90.1274 9.253C90.2954 9.253 90.4364 9.229 90.5504 9.181C90.6644 9.127 90.7574 9.067 90.8294 9.001C90.9014 8.935 90.9524 8.881 90.9824 8.839C91.0364 8.767 91.0784 8.725 91.1084 8.713C91.1444 8.695 91.1954 8.686 91.2614 8.686H92.0354C92.0954 8.686 92.1434 8.704 92.1794 8.74C92.2214 8.776 92.2394 8.821 92.2334 8.875C92.2274 8.971 92.1764 9.088 92.0804 9.226C91.9904 9.364 91.8584 9.499 91.6844 9.631C91.5104 9.763 91.2914 9.874 91.0274 9.964C90.7694 10.048 90.4724 10.09 90.1364 10.09ZM89.1464 7.255H91.1354V7.228C91.1354 6.994 91.0964 6.79 91.0184 6.616C90.9404 6.442 90.8264 6.304 90.6764 6.202C90.5264 6.1 90.3464 6.049 90.1364 6.049C89.9264 6.049 89.7464 6.1 89.5964 6.202C89.4464 6.304 89.3324 6.442 89.2544 6.616C89.1824 6.79 89.1464 6.994 89.1464 7.228V7.255ZM62.428 23C62.3347 23 62.2553 22.9673 62.19 22.902C62.1247 22.8367 62.092 22.7573 62.092 22.664V13.536C62.092 13.4427 62.1247 13.3633 62.19 13.298C62.2553 13.2327 62.3347 13.2 62.428 13.2H63.744C63.8467 13.2 63.926 13.2327 63.982 13.298C64.0473 13.3633 64.08 13.4427 64.08 13.536V22.664C64.08 22.7573 64.0473 22.8367 63.982 22.902C63.926 22.9673 63.8467 23 63.744 23H62.428ZM66.1636 23C66.0703 23 65.9909 22.9673 65.9256 22.902C65.8603 22.8367 65.8276 22.7573 65.8276 22.664V16.056C65.8276 15.9627 65.8603 15.8833 65.9256 15.818C65.9909 15.7527 66.0703 15.72 66.1636 15.72H67.3116C67.4049 15.72 67.4843 15.7527 67.5496 15.818C67.6149 15.8833 67.6476 15.9627 67.6476 16.056V16.63C67.8903 16.3313 68.1983 16.084 68.5716 15.888C68.9543 15.6827 69.4256 15.58 69.9856 15.58C70.5549 15.58 71.0496 15.7107 71.4696 15.972C71.8896 16.224 72.2116 16.5833 72.4356 17.05C72.6689 17.5167 72.7856 18.0767 72.7856 18.73V22.664C72.7856 22.7573 72.7529 22.8367 72.6876 22.902C72.6223 22.9673 72.5429 23 72.4496 23H71.2176C71.1243 23 71.0449 22.9673 70.9796 22.902C70.9143 22.8367 70.8816 22.7573 70.8816 22.664V18.814C70.8816 18.2727 70.7463 17.848 70.4756 17.54C70.2143 17.232 69.8316 17.078 69.3276 17.078C68.8423 17.078 68.4549 17.232 68.1656 17.54C67.8763 17.848 67.7316 18.2727 67.7316 18.814V22.664C67.7316 22.7573 67.6989 22.8367 67.6336 22.902C67.5683 22.9673 67.4889 23 67.3956 23H66.1636ZM76.9859 23.14C76.5006 23.14 76.0713 23.0607 75.6979 22.902C75.3339 22.734 75.0306 22.5007 74.7879 22.202C74.5453 21.9033 74.3586 21.5533 74.2279 21.152C74.0973 20.7413 74.0226 20.2933 74.0039 19.808C73.9946 19.64 73.9899 19.4907 73.9899 19.36C73.9899 19.22 73.9946 19.066 74.0039 18.898C74.0226 18.4313 74.0926 17.9973 74.2139 17.596C74.3446 17.1947 74.5313 16.8447 74.7739 16.546C75.0259 16.238 75.3339 16 75.6979 15.832C76.0713 15.664 76.5006 15.58 76.9859 15.58C77.4899 15.58 77.9146 15.6687 78.2599 15.846C78.6146 16.014 78.9086 16.2333 79.1419 16.504V13.396C79.1419 13.3027 79.1699 13.2233 79.2259 13.158C79.2913 13.0927 79.3753 13.06 79.4779 13.06H80.6679C80.7613 13.06 80.8406 13.0927 80.9059 13.158C80.9713 13.2233 81.0039 13.3027 81.0039 13.396V22.664C81.0039 22.7573 80.9713 22.8367 80.9059 22.902C80.8406 22.9673 80.7613 23 80.6679 23H79.5619C79.4593 23 79.3753 22.9673 79.3099 22.902C79.2539 22.8367 79.2259 22.7573 79.2259 22.664V22.146C78.9926 22.4353 78.6939 22.6733 78.3299 22.86C77.9753 23.0467 77.5273 23.14 76.9859 23.14ZM77.5039 21.642C77.8959 21.642 78.2086 21.5533 78.4419 21.376C78.6753 21.1987 78.8479 20.9747 78.9599 20.704C79.0719 20.424 79.1326 20.1393 79.1419 19.85C79.1513 19.682 79.1559 19.5047 79.1559 19.318C79.1559 19.122 79.1513 18.94 79.1419 18.772C79.1326 18.492 79.0673 18.226 78.9459 17.974C78.8246 17.7127 78.6473 17.498 78.4139 17.33C78.1806 17.162 77.8773 17.078 77.5039 17.078C77.1119 17.078 76.7993 17.1667 76.5659 17.344C76.3419 17.512 76.1786 17.736 76.0759 18.016C75.9733 18.296 75.9126 18.604 75.8939 18.94C75.8846 19.22 75.8846 19.5 75.8939 19.78C75.9126 20.116 75.9733 20.424 76.0759 20.704C76.1786 20.984 76.3419 21.2127 76.5659 21.39C76.7993 21.558 77.1119 21.642 77.5039 21.642ZM82.9259 23C82.8325 23 82.7532 22.9673 82.6879 22.902C82.6225 22.8367 82.5899 22.7573 82.5899 22.664V16.056C82.5899 15.9627 82.6225 15.8833 82.6879 15.818C82.7532 15.7527 82.8325 15.72 82.9259 15.72H84.0879C84.1905 15.72 84.2699 15.7527 84.3259 15.818C84.3912 15.8833 84.4239 15.9627 84.4239 16.056V22.664C84.4239 22.7573 84.3912 22.8367 84.3259 22.902C84.2699 22.9673 84.1905 23 84.0879 23H82.9259ZM82.8699 14.516C82.7672 14.516 82.6832 14.488 82.6179 14.432C82.5619 14.3667 82.5339 14.2827 82.5339 14.18V13.172C82.5339 13.0787 82.5619 12.9993 82.6179 12.934C82.6832 12.8687 82.7672 12.836 82.8699 12.836H84.1439C84.2465 12.836 84.3305 12.8687 84.3959 12.934C84.4612 12.9993 84.4939 13.0787 84.4939 13.172V14.18C84.4939 14.2827 84.4612 14.3667 84.3959 14.432C84.3305 14.488 84.2465 14.516 84.1439 14.516H82.8699ZM88.1153 23.14C87.6299 23.14 87.1913 23.0467 86.7993 22.86C86.4073 22.664 86.0946 22.4073 85.8613 22.09C85.6373 21.7633 85.5253 21.3993 85.5253 20.998C85.5253 20.3447 85.7866 19.8267 86.3093 19.444C86.8413 19.052 87.5413 18.7907 88.4093 18.66L90.3273 18.38V18.086C90.3273 17.694 90.2293 17.3907 90.0333 17.176C89.8373 16.9613 89.5013 16.854 89.0253 16.854C88.6893 16.854 88.4139 16.924 88.1993 17.064C87.9939 17.1947 87.8399 17.372 87.7373 17.596C87.6626 17.7173 87.5553 17.778 87.4153 17.778H86.3093C86.2066 17.778 86.1273 17.75 86.0713 17.694C86.0246 17.638 86.0013 17.5633 86.0013 17.47C86.0106 17.3207 86.0713 17.1387 86.1833 16.924C86.2953 16.7093 86.4726 16.504 86.7153 16.308C86.9579 16.1027 87.2706 15.93 87.6533 15.79C88.0359 15.65 88.4979 15.58 89.0393 15.58C89.6273 15.58 90.1219 15.6547 90.5233 15.804C90.9339 15.944 91.2606 16.1353 91.5033 16.378C91.7459 16.6207 91.9233 16.9053 92.0353 17.232C92.1473 17.5587 92.2033 17.904 92.2033 18.268V22.664C92.2033 22.7573 92.1706 22.8367 92.1053 22.902C92.0399 22.9673 91.9606 23 91.8673 23H90.7333C90.6306 23 90.5466 22.9673 90.4813 22.902C90.4253 22.8367 90.3973 22.7573 90.3973 22.664V22.118C90.2759 22.2953 90.1126 22.4633 89.9073 22.622C89.7019 22.7713 89.4499 22.8973 89.1513 23C88.8619 23.0933 88.5166 23.14 88.1153 23.14ZM88.5913 21.81C88.9179 21.81 89.2119 21.74 89.4733 21.6C89.7439 21.46 89.9539 21.2453 90.1033 20.956C90.2619 20.6573 90.3413 20.284 90.3413 19.836V19.542L88.9413 19.766C88.3906 19.85 87.9799 19.9853 87.7093 20.172C87.4386 20.3587 87.3033 20.5873 87.3033 20.858C87.3033 21.0633 87.3639 21.2407 87.4853 21.39C87.6159 21.53 87.7793 21.6373 87.9753 21.712C88.1713 21.7773 88.3766 21.81 88.5913 21.81Z" fill="#A7B0B9"/>
<path fill-rule="evenodd" clip-rule="evenodd" d="M19.3466 29.4117H42.3555V24.8534L44.399 24.8752V29.4117H57.6057C55.7644 28.6363 53.9051 27.8899 52.1432 26.9804C51.2767 26.5347 50.403 25.9731 49.6485 25.3462C47.4028 23.4729 49.2694 21.4184 49.2694 19.0849C49.2694 18.1718 47.7566 14.6353 45.807 12.4323C45.1572 11.6967 44.4568 11.1133 43.7491 10.8198C43.2184 10.6024 42.5541 10.1604 41.6623 9.26176C39.868 7.44641 39.182 6.0224 36.4742 6.00066C33.9506 5.97891 30.2752 6.49344 28.3112 8.27618C28.1234 8.44648 27.9501 8.64577 27.8671 8.88854C27.6107 9.63859 28.3003 10.3524 28.535 11.1133C28.6939 11.6351 28.6289 12.2221 28.3545 12.6968C27.0692 14.9143 25.5203 16.6971 23.7621 18.5885C22.762 19.6647 22.3793 20.6901 22.1627 22.1069C22.0291 22.9801 21.8378 24.1722 20.6788 24.0635C20.2203 24.0201 19.7907 23.8135 19.3322 23.7773C18.2238 23.6903 17.4187 24.7121 16.4908 25.1542C14.5592 26.0782 13.9996 27.5819 13.292 29.4081H19.3394L19.3466 29.4117Z" fill="#5B6166"/>
<path fill-rule="evenodd" clip-rule="evenodd" d="M16.4041 36.9304C16.7399 36.9231 16.9168 36.6043 16.9385 35.9702V34.9592C16.9168 34.3251 16.7399 34.0063 16.4041 33.999H15.859V35.9376C15.859 36.6115 16.0395 36.9413 16.4041 36.9268V36.9304Z" fill="#5B6166"/>
<path fill-rule="evenodd" clip-rule="evenodd" d="M72.9643 36.9304C73.3 36.9231 73.4769 36.6043 73.4986 35.9702V35.8397C73.1376 35.8289 72.7801 35.8071 72.4227 35.7673V35.9412C72.4227 36.6152 72.6032 36.9449 72.9679 36.9304H72.9643Z" fill="#5B6166"/>
<path fill-rule="evenodd" clip-rule="evenodd" d="M59.8658 33.3287L60.3893 31.9808L62.8372 31.9699C62.8588 31.9699 62.8805 31.9699 62.9022 31.9699C62.2739 31.5967 61.6313 31.2525 60.9778 30.9263H59.8767L59.8658 33.3251V33.3287Z" fill="#5B6166"/>
<path fill-rule="evenodd" clip-rule="evenodd" d="M70.9316 57.5587H67.9711C67.2743 57.5587 66.9169 57.8957 66.9024 58.566C66.8952 59.2617 67.2274 59.6132 67.8989 59.6132H69.5416L69.4586 59.9429C69.6969 59.8233 69.9352 59.7074 70.1771 59.6023C70.6211 59.3378 70.8305 59.0044 70.928 58.6457V57.5623L70.9316 57.5587Z" fill="#5B6166"/>
<path fill-rule="evenodd" clip-rule="evenodd" d="M98.5438 34.0896C98.5438 32.9663 97.8397 31.7779 96.6952 31.7163C95.8613 31.6728 95.0561 31.9192 94.233 31.9228C93.4206 31.9264 92.6733 31.6981 91.8898 32.0677C91.2436 32.3757 90.749 33.0352 90.1821 33.4664C89.3265 34.1186 88.4708 34.7708 87.5538 35.3325C85.5825 36.5354 83.7485 35.9919 81.5858 35.7274C80.0514 35.5426 79.0044 36.3796 77.5422 36.405C77.5242 36.405 77.5025 36.405 77.4845 36.405C76.8093 36.405 76.1558 36.1948 75.5024 36.0282C75.4662 37.9884 74.625 38.9668 72.9787 38.9668C71.2927 38.974 70.4514 37.9631 70.4514 35.9339V35.4122C70.1301 35.3361 69.8124 35.2455 69.4947 35.1513V39.5828C69.4947 40.235 69.8449 40.5647 70.5417 40.5647H73.7946L73.3217 42.5757H70.5128C68.473 42.5757 67.4512 41.5793 67.4512 39.5828V34.9955C67.4512 34.7926 67.4621 34.6078 67.4801 34.4266C66.8699 34.1693 66.267 33.8867 65.6821 33.5823C65.8266 33.9737 65.9024 34.4375 65.9024 34.9701C65.9096 36.9014 64.9926 37.9087 63.1513 37.9957L64.0466 39.5936C64.3571 40.1335 64.812 40.2313 65.415 39.8871L65.6785 39.7458L65.2164 42.1192C63.9889 42.4163 63.0105 41.9126 62.2848 40.6118L60.0897 36.6804L61.2378 36.0245H62.8805C63.552 36.0245 63.8842 35.6731 63.877 34.9737C63.8625 34.2998 63.5087 33.9628 62.8083 33.9628L59.8767 33.9737V42.5721L57.8332 42.0684V30.9227H52.562V31.9518H52.7714C54.8113 31.9518 55.8294 32.9482 55.8294 34.9447V39.0682C55.8294 41.0611 54.8113 42.0612 52.7714 42.0612H50.4175C48.3848 42.0612 47.3703 41.0647 47.3703 39.0682V34.9447C47.3703 32.9518 48.3848 31.9518 50.4175 31.9518H50.5691V30.9227H44.399V42.5649L42.3555 42.0612V30.9263H33.2538V31.9663H36.254C38.2938 31.9663 39.312 32.9374 39.3047 34.8759V38.9885C39.312 41.0176 38.3047 42.0322 36.2829 42.0322L35.1456 42.0539L34.6438 40.0538H36.2865C36.958 40.0538 37.2902 39.7023 37.2829 39.003V34.9085C37.2757 34.2889 36.9219 33.9773 36.2251 33.9773H33.2538V45.6085L31.2103 45.1049V30.9263H29.9828L25.885 36.9087L27.0042 38.5972V38.608L28.0729 40.1842C28.4086 40.4886 28.73 40.5466 29.0405 40.3654C29.1415 41.8691 29.1849 42.6192 29.1704 42.6192C28.9574 42.6409 28.7516 42.6409 28.5567 42.6301C27.5241 42.5757 26.802 42.1445 26.3904 41.3365L24.6502 38.7095L21.9316 42.6808L20.2492 41.5177L23.4227 36.8688L22.7692 35.8796V35.8687L21.7114 34.2925C21.3756 33.9845 21.0543 33.9229 20.7438 34.1114C20.6427 32.604 20.5994 31.8467 20.6138 31.8467C21.9822 31.738 22.91 32.1692 23.3938 33.1403L24.6611 35.0607L27.4916 30.9263H15.8734V31.9554H16.4258C18.0902 31.9554 18.935 32.9555 18.9531 34.9556V35.9666C18.935 37.9667 18.0902 38.9668 16.4258 38.9668C14.7398 38.974 13.8985 37.9631 13.8985 35.9339L13.8877 34.0135L13.4148 34.0244C13.1007 34.0244 12.9418 34.3251 12.9418 34.923V39.5828C12.9418 40.235 13.292 40.5647 13.9888 40.5647H17.2418L16.7688 42.5757H13.9599C11.9201 42.5757 10.8983 41.5793 10.8983 39.5828V34.9955C10.8983 32.9591 11.7432 31.9518 13.4364 31.9626L13.8877 31.9409L13.8769 30.9191H11.2991C9.95602 31.18 8.25914 31.1727 7.67065 31.1727C5.60191 31.1727 3.57288 30.7705 1.50774 30.7379C1.20447 30.7343 0.89398 30.7379 0.612371 30.8394C0.327152 30.9445 0.0708153 31.1727 0.0130493 31.4699C-0.0374959 31.7271 0.0672049 31.9916 0.182737 32.2272C0.731514 33.3396 1.58356 34.2635 2.35979 35.231C3.13602 36.1985 4.22997 37.5645 3.99168 38.8834C3.78589 40.0284 2.59086 40.6372 2.28036 41.7351C2.03847 42.5938 2.59808 43.5287 3.37431 43.9599C4.50796 44.5867 5.93045 44.3693 7.16159 44.2498C9.38919 44.036 11.8479 43.8983 13.8336 44.4744C16.6027 45.2752 17.0143 48.0326 19.5018 49.703C20.39 50.2973 21.3648 51.0908 21.9461 51.743C23.2964 53.2576 22.3288 55.3447 24.1376 56.8195C25.477 57.9138 26.9139 58.6058 27.4447 57.8341C27.9898 57.0405 28.7805 56.6347 29.6362 57.1637C31.3944 58.2544 32.1129 61.6314 32.6761 63.4287C33.8278 67.092 34.7232 70.8314 35.698 74.5454C36.7089 78.3971 37.7342 82.267 39.1315 85.9955C40.1135 88.6189 41.6876 93.2098 44.8142 93.9417C46.6266 94.3656 47.2837 92.3764 48.2007 91.2495C49.5149 89.6334 51.0457 88.0427 51.4717 85.9194C51.6811 84.8795 51.4392 83.8178 51.7858 82.7815C52.0024 82.1256 52.5729 81.5604 52.6704 80.8719C52.7931 79.9987 52.6559 79.1182 52.5151 78.2558C52.2515 76.6325 51.7497 74.8244 52.5729 73.2663C53.23 72.0235 55.7283 71.5307 56.9017 70.69C58.4397 69.5921 59.79 68.2478 61.1258 66.918C62.978 65.0737 64.8373 63.0808 66.9602 61.4974C65.5738 61.2075 64.8842 60.2255 64.8879 58.5479C64.8879 56.5405 65.9096 55.5368 67.9495 55.5368H70.9388V53.9896C70.9388 53.3374 69.5922 53.3482 66.9024 54.0294V50.4821H64.6965V50.493L59.3495 50.5038V50.4821H58.7538V61.6278L56.7104 62.1315V53.533H53.739C53.0422 53.533 52.6884 53.841 52.6812 54.4606V58.5479C52.674 59.2472 53.0061 59.5987 53.6776 59.5987H55.3204L54.8185 61.6097L53.6813 61.5879C51.6595 61.5879 50.6558 60.5734 50.6594 58.5442V54.4316C50.6522 52.4931 51.6703 51.522 53.7101 51.522H56.7104V50.4821H39.8427V50.493L34.4957 50.5038V48.9784L39.4203 48.9675H56.7104V47.4927C56.7104 46.8405 56.3602 46.5108 55.6634 46.5108H55.129L55.6922 44.4998C57.7321 44.4998 58.7538 45.4962 58.7538 47.4927V48.9675H60.0319V48.9747L63.8192 48.9675H74.2604V50.4821H68.964V51.5111H69.9207C71.9606 51.5111 72.9823 52.5076 72.9823 54.5041V55.5332C75.3471 55.3339 77.6289 55.6237 79.9648 54.8411C80.4233 54.6889 80.8602 54.4244 81.2934 54.1418C81.8205 53.8012 82.3043 53.6635 82.7484 53.6635C84.0048 53.6635 84.7594 55.8991 86.0844 55.4027C86.2938 55.323 86.4526 55.1962 86.5754 55.0331C87.1314 54.2867 86.922 52.812 87.1458 52.0836C87.431 51.1452 87.9581 49.1668 89.164 49.011C91.7563 48.6812 92.5433 45.3078 93.2221 43.2895C93.6409 42.0467 94.0813 40.7531 94.9117 39.7168C95.4388 39.0537 96.1898 38.3327 97.0346 38.1116C97.652 37.9486 98.2658 38.3073 98.8759 38.1986C99.8254 38.0283 99.8038 36.5318 99.9699 35.7963C100.244 34.5969 98.551 34.7165 98.551 34.0751L98.5438 34.0896ZM60.3496 51.5256C62.3895 51.5256 63.4112 52.5221 63.4112 54.5186V61.6423L61.3677 62.146V54.515C61.3677 53.8628 61.0175 53.533 60.3207 53.533H59.7683L60.3532 51.522L60.3496 51.5256ZM40.5539 51.5148L42.5974 51.5365L42.5866 52.8917L43.1101 51.5365H45.5904C47.6339 51.5365 48.6556 52.5076 48.6556 54.4461L48.6845 62.0554L46.6194 61.6024L46.6085 54.4787C46.6013 53.8591 46.2511 53.5475 45.5507 53.5475H42.5902V62.146L40.5467 61.6423V51.5148H40.5539ZM35.4994 51.5256C37.5393 51.5256 38.561 52.5221 38.561 54.5186V61.6423L36.5175 62.146V54.515C36.5175 53.8628 36.1673 53.533 35.4705 53.533H34.9145L35.4994 51.522V51.5256ZM37.8859 47.8877L37.1205 48.2718C36.8316 46.797 37.0771 45.71 37.857 45.0071C38.4816 44.4418 39.052 44.1592 39.5683 44.1592C39.6874 44.1592 39.8102 44.1773 39.9293 44.2099L40.5937 45.989C39.0015 46.076 38.0989 46.7101 37.8859 47.8877ZM62.7361 47.8877L61.9707 48.2718C61.6818 46.797 61.9274 45.71 62.7072 45.0071C63.3318 44.4418 63.9022 44.1592 64.4185 44.1592C64.5377 44.1592 64.6604 44.1773 64.7795 44.2099L65.4439 45.989C63.8517 46.076 62.9491 46.7101 62.7361 47.8877Z" fill="#5B6166"/>
<path fill-rule="evenodd" clip-rule="evenodd" d="M49.421 34.952L49.4102 39.0755C49.4102 39.7277 49.7568 40.0574 50.4536 40.0574H52.7426C53.4394 40.0574 53.786 39.7313 53.786 39.0755L53.7751 34.952C53.7823 34.2998 53.4358 33.97 52.739 33.97H50.45C49.7532 33.97 49.4102 34.2961 49.4138 34.952H49.421Z" fill="#5B6166"/>
<path d="M126.28 52.7899C127.31 51.5399 127.42 50.6499 127.51 49.9399C127.56 49.5599 127.59 49.2999 127.75 49.0299C127.91 49.2999 127.95 49.5599 127.99 49.9399C128.08 50.6499 128.18 51.5399 129.22 52.7899C130.83 54.7399 132.98 55.6799 134.4 55.7499C135.1 55.7799 135.66 55.6199 136.01 55.2599C136.36 54.9099 136.53 54.3499 136.5 53.6499C136.43 52.2299 135.49 50.0799 133.54 48.4699C132.29 47.4399 131.4 47.3299 130.69 47.2399C130.31 47.1899 130.05 47.1599 129.78 46.9999C130.05 46.8399 130.31 46.7999 130.69 46.7599C131.4 46.6699 132.29 46.5699 133.54 45.5299C135.49 43.9199 136.43 41.7699 136.5 40.3499C136.53 39.6499 136.37 39.0899 136.01 38.7399C135.66 38.3899 135.1 38.2199 134.4 38.2499C132.98 38.3199 130.83 39.2599 129.22 41.2099C128.19 42.4599 128.08 43.3499 127.99 44.0599C127.94 44.4399 127.91 44.6999 127.75 44.9699C127.59 44.6999 127.55 44.4399 127.51 44.0599C127.42 43.3499 127.32 42.4599 126.28 41.2099C124.67 39.2599 122.52 38.3199 121.1 38.2499C120.4 38.2199 119.84 38.3899 119.49 38.7399C119.17 39.0599 119 39.5599 119 40.1799C119 40.2399 119 40.2899 119 40.3499C119.07 41.7699 120.01 43.9199 121.96 45.5299C123.21 46.5599 124.1 46.6699 124.81 46.7599C125.19 46.8099 125.45 46.8399 125.72 46.9999C125.45 47.1599 125.19 47.1999 124.81 47.2399C124.1 47.3299 123.21 47.4299 121.96 48.4699C120.01 50.0799 119.07 52.2399 119 53.6499C119 53.7099 119 53.7699 119 53.8199C119 54.4399 119.17 54.9399 119.49 55.2599C119.84 55.6099 120.4 55.7799 121.1 55.7499C122.52 55.6799 124.67 54.7399 126.28 52.7899ZM127.17 46.9999C127.17 46.6799 127.43 46.4199 127.75 46.4199C128.07 46.4199 128.33 46.6799 128.33 46.9999C128.33 47.3199 128.07 47.5799 127.75 47.5799C127.43 47.5799 127.17 47.3199 127.17 46.9999ZM132.83 49.3199C134.51 50.7099 135.33 52.5699 135.39 53.6999C135.41 54.1299 135.32 54.3799 135.23 54.4699C135.14 54.5599 134.89 54.6499 134.46 54.6299C133.32 54.5799 131.47 53.7499 130.08 52.0699C129.25 51.0699 129.17 50.4199 129.1 49.7899C129.05 49.3399 128.99 48.8799 128.67 48.3899C128.87 48.2599 129.04 48.0899 129.17 47.8899C129.65 48.1999 130.12 48.2599 130.57 48.3199C131.2 48.3999 131.84 48.4699 132.85 49.2999L132.83 49.3199ZM130.07 41.9099C131.46 40.2299 133.32 39.4099 134.45 39.3499C134.88 39.3299 135.13 39.4199 135.22 39.5099C135.31 39.5999 135.4 39.8499 135.38 40.2799C135.33 41.4199 134.5 43.2699 132.82 44.6599C131.82 45.4899 131.17 45.5699 130.54 45.6399C130.09 45.6899 129.63 45.7499 129.14 46.0699C129.01 45.8699 128.84 45.6999 128.64 45.5699C128.95 45.0899 129.01 44.6199 129.07 44.1699C129.15 43.5399 129.22 42.8999 130.05 41.8899L130.07 41.9099ZM122.66 44.6699C120.99 43.2899 120.16 41.4299 120.11 40.2999C120.09 39.8699 120.18 39.6199 120.27 39.5299C120.36 39.4399 120.61 39.3499 121.04 39.3699C122.18 39.4199 124.03 40.2499 125.42 41.9299C126.25 42.9299 126.33 43.5799 126.4 44.2099C126.45 44.6599 126.51 45.1199 126.83 45.6099C126.63 45.7399 126.46 45.9099 126.33 46.1099C125.85 45.7999 125.38 45.7399 124.93 45.6799C124.3 45.5999 123.66 45.5299 122.65 44.6999L122.66 44.6699ZM120.11 53.7099C120.16 52.5699 120.99 50.7199 122.67 49.3299C123.67 48.4999 124.32 48.4199 124.95 48.3499C125.4 48.2999 125.86 48.2399 126.35 47.9199C126.48 48.1199 126.65 48.2899 126.85 48.4199C126.54 48.8999 126.48 49.3699 126.42 49.8199C126.34 50.4499 126.27 51.0899 125.44 52.0999C124.05 53.7799 122.19 54.5999 121.06 54.6599C120.63 54.6799 120.38 54.5899 120.29 54.4999C120.2 54.4099 120.11 54.1599 120.13 53.7299L120.11 53.7099Z" fill="#A7B0B9"/>
<path d="M153.654 70.5826C152.554 72.2426 150.904 72.3226 148.504 72.3026C150.794 70.9926 152.084 70.1826 152.414 67.2226C151.864 68.7426 150.684 69.4926 149.384 69.5626C151.794 66.3226 151.884 64.7526 152.264 60.3226C152.484 63.5226 153.064 64.5626 153.774 65.5926C155.114 67.5526 156.074 69.8326 156.264 72.3026C155.584 71.1326 154.504 70.6726 153.644 70.5826H153.654ZM183.704 59.5726C182.224 59.5426 181.124 59.9026 180.334 60.3526C180.874 60.6126 181.494 61.3926 181.664 61.9826C178.134 60.9926 175.644 62.6026 171.444 63.1826C169.294 63.5526 164.494 63.5626 161.044 61.2726C163.514 62.0026 165.714 61.6026 167.954 60.2626C167.954 60.9126 167.694 61.5126 167.294 61.8326C169.374 61.7026 170.444 61.3926 171.764 59.5926C171.994 60.0526 172.134 60.7626 171.894 61.3126C174.024 60.9126 174.934 59.8126 175.424 58.6026C175.764 58.9226 175.934 59.4326 175.964 60.0126C177.984 58.7526 181.154 58.2426 183.694 59.5726H183.704ZM171.634 43.3526C170.054 44.2227 169.274 45.2826 168.864 46.3826C168.454 47.4626 168.414 48.8126 168.524 50.0526C167.684 49.8026 167.174 48.8326 167.344 48.2426C166.744 48.6726 164.244 48.7426 162.824 47.2826C165.514 46.9727 166.584 46.2227 167.944 45.2027C169.054 44.3727 170.064 43.6427 171.644 43.3526H171.634ZM164.614 53.6026L166.224 54.3126L165.904 55.0726L165.074 54.7226L165.454 55.6026L164.984 55.7926L164.644 54.8926L164.294 55.7326L163.544 55.4126L164.194 53.7526L163.794 52.7726L163.154 53.6126L163.344 55.3926L162.534 55.4826L162.414 54.5726L161.844 55.3426L161.444 55.0326L162.044 54.2826L161.154 54.4026L161.054 53.5826L162.804 53.3226L163.434 52.4826L162.404 52.3426L160.984 53.4026L160.474 52.7426L161.204 52.1826L160.254 52.0726L160.324 51.5626L161.264 51.7126L160.714 50.9926L161.374 50.4826L162.464 51.8826L163.494 52.0226L163.104 51.0426L161.494 50.3226L161.814 49.5626L162.644 49.9126L162.264 49.0326L162.734 48.8426L163.074 49.7426L163.424 48.9026L164.174 49.2226L163.524 50.8726L163.924 51.8526L164.564 51.0226L164.364 49.2526L165.174 49.1526L165.294 50.0626L165.864 49.2926L166.274 49.6026L165.674 50.3526L166.584 50.2426L166.684 51.0626L164.924 51.3226L164.304 52.1626L165.334 52.3026L166.764 51.2526L167.254 51.9226L166.524 52.4726L167.474 52.5826L167.404 53.0926L166.464 52.9426L167.014 53.6726L166.364 54.1726L165.264 52.7726L164.234 52.6326L164.614 53.6226V53.6026ZM160.164 35.0226L160.234 34.7826L161.354 31.2626L162.114 31.5126L161.684 32.8026L162.864 32.4126V33.1526L161.444 33.5426L160.864 35.2526L162.604 34.8426L163.134 33.4626L163.854 33.5426L163.364 34.6826L164.664 34.3826L164.854 35.2126L163.524 35.4826L164.444 36.3126L163.824 36.6926L162.774 35.6426L161.014 35.9826L162.234 37.3026L163.694 37.0726L163.984 37.7426L162.754 37.8826L163.664 38.8826L163.044 39.4426L162.154 38.4226L161.904 39.6426L161.264 39.2926L161.644 37.8426L160.474 36.4826L159.954 38.2126L160.874 39.3826L160.444 39.9626L159.714 38.9626L159.324 40.2326L158.574 40.0126L160.164 35.0226ZM156.804 45.8826C164.984 47.4526 170.924 44.0026 171.824 37.7226C172.034 36.2626 171.984 34.7826 171.724 33.3126C171.944 33.3326 173.034 33.5326 174.144 33.3726C175.254 33.2126 175.994 32.6926 175.994 32.6926C174.264 32.3126 172.044 31.3826 171.324 30.2626C171.324 30.2626 172.744 30.2226 173.934 29.3526C175.124 28.4726 175.744 27.1426 175.744 27.1426C175.744 27.1426 173.054 28.3226 171.254 27.4826C169.444 26.6426 169.184 25.8426 169.184 25.8426C169.184 25.8426 170.274 26.0326 171.424 25.4826C172.564 24.9326 172.874 23.7526 172.874 23.7526C168.954 24.9826 166.804 23.5526 164.524 21.7326C164.494 21.7126 164.454 21.6826 164.424 21.6526C164.424 21.6526 165.194 23.5526 164.654 25.6126C164.114 27.6726 161.894 29.6526 161.894 29.6526C161.894 29.6526 163.294 29.5226 164.394 28.8926C165.484 28.2626 166.374 27.2526 166.374 27.2526C166.164 29.2426 164.824 30.3726 162.974 31.4826C162.974 31.4826 165.024 31.4426 166.314 30.6826C167.604 29.9226 168.084 29.4026 168.084 29.4026C168.084 29.4026 168.004 30.9226 167.274 31.9726C166.544 33.0226 164.894 33.7226 164.894 33.7226C165.764 33.9126 167.154 33.7826 168.524 33.1326C168.524 33.1326 168.334 34.3126 167.104 35.8926C165.874 37.4726 164.344 38.3726 164.344 38.3726C165.964 38.7126 167.394 38.2226 168.304 37.6126C168.304 37.6126 166.934 39.5926 164.514 40.7726C162.824 41.5926 160.024 41.9226 158.424 41.8026C158.264 41.7926 158.174 41.7326 158.174 41.7326C159.014 42.8826 160.834 43.5826 162.234 43.3226C162.234 43.3226 161.724 44.2826 160.244 44.9826C158.764 45.6726 156.834 45.8826 156.834 45.8826H156.804ZM162.174 47.3426C162.174 47.3426 160.534 46.9526 159.234 47.7226C157.934 48.4926 157.514 49.9126 157.514 49.9126C156.794 48.8727 156.694 47.6726 156.684 46.2826C156.684 46.2826 155.884 48.1026 155.754 49.5126C155.634 50.7927 155.944 52.2127 156.804 53.1926C156.804 53.1926 156.784 53.1926 156.734 53.1726C155.874 52.9226 155.354 52.4826 154.754 51.8126C155.424 53.9026 157.514 55.8526 160.934 56.1426C157.034 52.9226 159.554 48.5626 162.174 47.3526V47.3426ZM154.354 53.7726C156.094 56.4826 159.414 57.4426 162.574 57.2126C171.444 56.5626 177.604 46.9926 186.264 48.0426C191.304 48.6526 192.904 50.7826 192.904 50.7826L189.694 50.7126C189.694 50.7126 189.804 51.3026 190.094 51.9726C190.384 52.6326 190.914 53.2226 190.914 53.2226C188.124 53.2626 185.834 52.5427 183.514 51.0226C183.514 51.0226 183.454 51.7226 183.704 52.4226C183.954 53.1227 184.274 53.4527 184.274 53.4527C184.274 53.4527 182.674 53.6827 181.374 53.5326C180.074 53.3827 179.164 52.7726 179.164 52.7726C179.164 52.7726 179.164 53.2526 179.564 53.7426C179.964 54.2327 180.614 54.4426 180.614 54.4426C180.464 54.5726 180.194 54.7526 179.994 54.8626C178.394 55.7526 176.834 55.9726 175.014 55.9826C174.024 55.9826 173.094 55.8226 173.094 55.8226C173.804 56.6526 174.414 56.9126 175.264 57.0226C175.264 57.0226 174.504 57.3426 173.534 57.6226C171.994 58.0826 170.444 58.2426 168.864 57.8626C168.614 57.8026 168.484 57.7626 168.484 57.7626C169.004 58.3826 169.934 58.7726 170.604 58.7726C170.604 58.7726 170.424 58.8526 170.124 58.9626C167.954 59.7926 166.064 60.1526 163.524 59.6226C162.634 59.4326 162.084 59.1726 162.084 59.1726C162.264 59.4826 162.444 59.6726 162.764 59.8526C163.114 60.0626 163.854 60.2526 163.854 60.2526C158.884 61.0326 155.404 58.5726 154.344 53.7826L154.354 53.7726ZM153.664 55.9026C154.724 58.2926 156.234 60.0926 158.574 61.3526C164.444 64.5226 169.084 64.0926 168.564 72.2626C168.564 72.2626 167.694 71.3826 166.524 70.7926C165.354 70.2026 164.334 70.0826 164.334 70.0826C163.694 71.3026 162.894 71.9026 161.454 72.3326C161.454 72.3326 161.924 71.4026 161.894 70.3526C161.864 69.3026 161.474 68.5726 161.474 68.5726C160.904 70.4926 158.984 71.9026 156.994 72.2926C156.994 72.2926 158.124 70.8526 158.594 69.3926C159.074 67.9226 159.014 66.5826 159.014 66.5826C158.394 67.5526 157.744 68.0826 156.524 68.4526C156.524 68.4526 156.954 66.9826 156.734 65.4426C156.524 63.9026 155.724 63.0426 155.724 63.0426C155.124 63.7426 154.784 64.4026 154.504 65.4026C154.504 65.4026 152.954 62.3226 153.144 59.5026C153.334 56.6826 153.674 55.9026 153.674 55.9026H153.664ZM166.444 21.6626C166.444 21.6626 168.204 23.1826 170.384 23.1526C172.564 23.1126 174.204 22.7326 174.204 22.7326C174.204 22.7326 174.344 24.1826 173.614 25.1126C172.884 26.0426 171.954 26.3526 171.954 26.3526C171.954 26.3526 172.954 26.8126 174.324 26.3926C175.704 25.9726 177.494 24.1426 177.494 24.1426C177.714 24.6326 177.824 26.0926 177.554 27.1126C177.554 27.1126 179.654 26.4126 180.874 24.6226C182.094 22.8326 182.384 21.6726 182.384 21.6726H166.444V21.6626ZM187.564 34.3526C187.564 34.3526 186.774 38.4926 183.184 40.7426C180.154 42.6326 176.454 43.1426 176.454 43.1426C178.604 44.0226 179.444 45.5626 179.894 47.7526C179.894 47.7526 180.394 46.9926 180.414 45.9226C180.434 44.8526 180.054 44.2426 180.054 44.2426C181.294 44.8126 181.814 45.5526 182.354 46.8326C182.354 46.8326 182.734 46.1626 182.724 44.9226C182.724 43.6826 182.414 42.9426 182.414 42.9426C183.264 43.0126 183.844 44.0126 184.054 44.9426C184.124 45.2426 188.724 41.6726 187.564 34.3426V34.3526ZM188.704 37.9226C188.844 40.0126 188.074 43.3426 184.124 46.8126C184.124 46.8126 186.364 46.6227 188.644 47.0826C190.914 47.5426 192.154 48.3926 192.154 48.3926C191.594 46.9926 189.604 45.2327 188.824 44.9426C189.704 43.0726 189.454 40.3027 188.704 37.9226ZM177.054 41.7526C176.214 38.7426 176.084 34.9426 176.534 31.7726C175.564 31.6526 174.554 31.3226 173.754 30.7126C173.754 30.7126 173.864 30.6926 173.994 30.6726C175.484 30.3626 176.694 29.1626 177.264 27.7826C177.264 29.0526 177.574 30.5226 178.504 31.4626C179.684 32.6626 182.134 32.8726 182.134 32.8726C181.644 33.6226 181.014 34.1326 180.304 34.6426C180.234 34.6926 179.864 34.9326 179.864 34.9326C183.034 35.6926 184.594 34.7826 187.014 32.7526C187.014 32.7526 186.984 36.3726 183.984 38.9026C180.984 41.4326 177.064 41.7526 177.064 41.7526H177.054ZM183.364 21.6626C183.364 21.6626 184.844 26.3426 185.384 28.0026C185.924 29.6626 186.034 31.3226 185.174 32.5926C184.314 33.8626 181.794 34.2526 181.794 34.2526C182.774 33.3926 183.634 32.4826 183.814 31.1426C183.814 31.1426 183.014 31.6726 181.114 31.3826C179.214 31.0826 178.264 28.7326 178.264 28.7326C178.264 28.7326 180.574 27.7726 181.854 25.9326C183.134 24.0926 183.364 21.6626 183.364 21.6626ZM187.374 72.3126C184.264 72.4526 182.314 72.1926 181.114 71.0926C180.804 71.6326 180.434 71.9426 179.864 72.2626V64.4726C180.704 68.6926 182.264 71.7826 187.374 72.3126ZM199.874 72.3026C198.364 72.0226 197.384 70.7726 197.154 69.7726C196.704 70.8926 195.974 71.7526 194.374 72.3026C194.834 71.5626 195.094 70.9626 195.074 69.3726C192.714 72.2226 191.714 72.0026 188.404 72.3026C194.174 70.7826 195.254 65.0926 193.614 61.1126C193.424 62.2426 192.854 62.7726 192.854 62.7726C192.834 60.2026 191.824 58.1826 190.464 57.2626C191.034 58.9026 190.624 60.1626 190.644 60.4026C189.874 58.2626 188.714 56.6926 186.914 56.2126C187.434 57.6026 187.204 58.5726 186.944 59.2826C186.014 57.1926 184.714 56.2426 183.054 56.1926C183.494 56.6326 183.804 57.3726 183.864 57.9526C182.314 56.9226 180.594 56.8126 178.744 57.4926C181.784 55.0527 185.264 54.4526 188.044 54.7326C189.244 54.8526 191.024 55.2426 191.824 53.9726C192.434 53.0026 192.214 51.7027 192.214 51.7027C192.214 51.7027 193.614 52.6326 193.524 54.7026C193.484 55.6226 193.284 56.2826 193.064 56.7326C196.794 59.9126 197.784 66.3526 199.884 72.3126L199.874 72.3026ZM184.584 66.5626L184.004 68.2726L183.124 68.2126L183.684 66.8126L182.114 67.2226L181.854 66.2326L183.444 65.8526L182.304 64.8826L183.044 64.4026L184.354 65.6226L186.474 65.1426L184.944 63.5926L183.194 63.9326L182.824 63.1326L184.284 62.9226L183.134 61.7326L183.874 61.0526L184.994 62.2326L185.254 60.7526L186.034 61.1726L185.644 62.9226L187.124 64.5226L187.684 62.4126L186.514 61.0526L187.014 60.3226L187.934 61.5126L188.354 59.9226L189.334 60.2026L188.874 61.7826L190.274 61.2626L190.314 62.1526L188.614 62.6826L187.984 64.7726L190.064 64.2026L190.644 62.5126L191.514 62.5726L190.964 63.9726L192.524 63.5626L192.784 64.5526L191.194 64.9326L192.334 65.9026L191.594 66.3826L190.284 65.1626L188.174 65.6526L189.704 67.1926L191.454 66.8526L191.824 67.6526L190.344 67.8726L191.484 69.0426L190.764 69.7526L189.654 68.5526L189.394 70.0326L188.614 69.6326L189.014 67.8726L187.544 66.2826L186.984 68.3926L188.144 69.7626L187.644 70.4826L186.724 69.3026L186.284 70.8526L185.304 70.5926L185.774 69.0326L184.374 69.5326L184.334 68.6526L186.034 68.1126L186.664 66.0226L184.574 66.5726L184.584 66.5626Z" fill="#5B6166"/>
<path opacity="0.9" d="M256.284 29.7727V33.6227C256.284 34.9327 255.524 35.7827 254.184 35.7827H253.984C253.984 35.7827 254.784 34.8827 254.784 33.6227V28.4227H260.104V35.6727H258.544V29.7727H256.274H256.284ZM223.104 29.7727V33.6227C223.104 34.9327 222.344 35.7827 221.004 35.7827H220.804C220.804 35.7827 221.604 34.8827 221.604 33.6227V28.4227H226.924V35.6727H225.374V29.7727H223.104ZM229.724 32.5827L229.374 32.9627V35.6827H227.854V28.4227H229.374V31.0427L232.054 28.4227H234.114L230.854 31.4627L234.174 35.6827H232.174L229.714 32.5927L229.724 32.5827ZM243.304 29.7727V35.6727H241.744V28.4227H246.614V29.7827H243.294L243.304 29.7727ZM271.664 32.5727H268.834V35.6727H267.274V28.4127H268.834V31.2527H271.664V28.4127H273.224V35.6627H271.664V32.5627V32.5727ZM216.704 25.8627H214.984L211.274 35.6727H213.024L214.014 32.9327H217.514L218.454 35.6727H220.274L216.704 25.8627ZM214.544 31.4127L215.784 28.0327L216.914 31.4127H214.544ZM240.614 30.2127C240.364 29.6227 239.984 29.1427 239.464 28.7827C238.914 28.3827 238.264 28.2227 237.584 28.2227C236.904 28.2227 236.264 28.3827 235.704 28.7827C235.184 29.1427 234.804 29.6227 234.554 30.2127C234.304 30.7927 234.184 31.4127 234.184 32.0427C234.184 32.6727 234.304 33.2927 234.554 33.8727C234.804 34.4627 235.184 34.9427 235.704 35.3027C236.264 35.7027 236.904 35.8627 237.584 35.8627C238.264 35.8627 238.914 35.7027 239.464 35.3027C239.984 34.9427 240.364 34.4527 240.614 33.8727C240.864 33.2927 240.984 32.6827 240.984 32.0427C240.984 31.4027 240.864 30.7927 240.614 30.2127ZM239.224 33.1527C239.114 33.5127 238.924 33.8327 238.654 34.0927C238.364 34.3727 237.984 34.4627 237.584 34.4627C237.184 34.4627 236.804 34.3727 236.514 34.0927C236.244 33.8227 236.054 33.5127 235.944 33.1427C235.844 32.7827 235.784 32.4127 235.784 32.0427C235.784 31.6727 235.844 31.2927 235.944 30.9327C236.054 30.5727 236.244 30.2627 236.514 29.9927C236.804 29.7127 237.194 29.6127 237.584 29.6127C237.974 29.6127 238.364 29.7127 238.654 29.9927C238.924 30.2527 239.114 30.5627 239.224 30.9327C239.324 31.2927 239.384 31.6627 239.384 32.0427C239.384 32.4227 239.324 32.7927 239.224 33.1527ZM253.404 30.2127C253.154 29.6227 252.774 29.1427 252.264 28.7827C251.704 28.3827 251.054 28.2227 250.384 28.2227C249.714 28.2227 249.054 28.3827 248.494 28.7827C247.984 29.1427 247.604 29.6227 247.354 30.2127C247.104 30.7927 246.984 31.4127 246.984 32.0427C246.984 32.6727 247.104 33.2927 247.354 33.8727C247.604 34.4627 247.984 34.9427 248.494 35.3027C249.054 35.7027 249.704 35.8627 250.384 35.8627C251.064 35.8627 251.704 35.7027 252.264 35.3027C252.774 34.9427 253.154 34.4527 253.404 33.8727C253.654 33.2927 253.774 32.6827 253.774 32.0427C253.774 31.4027 253.654 30.7927 253.404 30.2127ZM252.014 33.1527C251.914 33.5127 251.724 33.8327 251.444 34.0927C251.154 34.3727 250.774 34.4627 250.384 34.4627C249.994 34.4627 249.604 34.3727 249.314 34.0927C249.034 33.8227 248.844 33.5127 248.744 33.1427C248.644 32.7827 248.574 32.4127 248.574 32.0427C248.574 31.6727 248.644 31.2927 248.744 30.9327C248.844 30.5727 249.034 30.2627 249.314 29.9927C249.604 29.7127 249.984 29.6127 250.384 29.6127C250.784 29.6127 251.154 29.7127 251.444 29.9927C251.724 30.2527 251.914 30.5627 252.014 30.9327C252.114 31.2927 252.174 31.6627 252.174 32.0427C252.174 32.4227 252.114 32.7927 252.014 33.1527ZM263.824 31.3027H262.534V28.4227H260.984V35.6727H263.824C264.344 35.6727 264.904 35.6027 265.374 35.3827C265.764 35.2027 266.094 34.9427 266.314 34.5727C266.514 34.2327 266.604 33.8527 266.604 33.4627C266.604 31.7927 265.304 31.3027 263.824 31.3027ZM264.784 34.1127C264.554 34.2927 264.094 34.3227 263.814 34.3227H262.534V32.6227H263.824C264.114 32.6227 264.544 32.6527 264.784 32.8227C264.984 32.9627 265.034 33.2027 265.034 33.4327C265.034 33.6627 264.984 33.9527 264.784 34.1127ZM279.534 28.9727C279.204 28.6727 278.824 28.4627 278.394 28.3627C278.044 28.2827 277.674 28.2227 277.324 28.2227C276.564 28.2227 275.754 28.3527 275.134 28.8127C274.524 29.2627 274.304 29.9627 274.284 30.6927V30.9027H275.714L275.744 30.7327C275.784 30.4227 275.894 30.1327 276.094 29.8827C276.324 29.6227 276.804 29.5827 277.124 29.5827C277.774 29.5827 278.544 29.6927 278.544 30.4927C278.544 30.8127 278.464 31.0727 278.114 31.1027L276.204 31.3427C275.534 31.4227 274.774 31.6427 274.384 32.2327C274.104 32.6827 273.934 33.1627 273.934 33.6927C273.934 34.0927 274.034 34.4827 274.244 34.8227C274.444 35.1627 274.734 35.4227 275.084 35.6027C275.464 35.7927 275.874 35.8727 276.294 35.8727C276.824 35.8727 277.384 35.7927 277.864 35.5327C278.144 35.3727 278.414 35.1827 278.654 34.9627C278.704 35.1427 278.784 35.3127 278.914 35.4627C279.144 35.7227 279.534 35.7927 279.864 35.8027H280.074V30.3227C280.064 29.8027 279.924 29.3227 279.534 28.9727ZM278.514 33.1027C278.514 33.3627 278.424 33.5927 278.254 33.7927C278.064 34.0327 277.814 34.2027 277.534 34.3227C277.234 34.4527 276.914 34.5127 276.584 34.5127C275.884 34.5127 275.534 34.2327 275.534 33.5227C275.534 33.3427 275.574 33.1627 275.704 33.0327C275.834 32.9027 275.984 32.8027 276.164 32.7527C276.384 32.6827 276.604 32.6427 276.834 32.6027C277.284 32.5527 277.784 32.4927 278.224 32.3827C278.314 32.3627 278.414 32.3327 278.514 32.3027V33.1027ZM283.934 28.4227C283.244 28.4227 282.524 28.5527 281.964 28.9827C281.434 29.3927 281.214 29.9627 281.214 30.6227C281.214 31.0227 281.314 31.4027 281.524 31.7427C281.714 32.0427 281.964 32.3027 282.274 32.4927C282.434 32.5827 282.604 32.6627 282.774 32.7127L280.614 35.6727H282.524L284.564 32.7927H285.514V35.6727H287.074V28.4227H283.934ZM285.514 31.4727H283.934C283.324 31.4727 282.844 31.3127 282.844 30.6227C282.844 29.9327 283.334 29.7827 283.934 29.7827H285.514V31.4727ZM218.464 43.8427C218.344 43.2827 218.084 42.7427 217.564 42.4427C217.084 42.1727 216.564 42.0427 216.004 42.0427C215.444 42.0427 214.984 42.1627 214.534 42.4427C214.064 42.7227 213.734 43.1427 213.504 43.6327C213.214 44.2327 213.114 44.9227 213.114 45.5827C213.114 46.5227 213.264 47.5427 213.814 48.3227C214.334 49.0727 215.174 49.2927 216.044 49.2927C216.374 49.2927 216.704 49.2227 217.004 49.0927C217.374 48.9527 217.674 48.6727 217.914 48.3627C218.244 47.9427 218.434 47.3827 218.534 46.8627L218.564 46.7027H220.194L220.164 46.9327C220.034 47.8427 219.734 48.7827 219.074 49.4627C218.604 49.9527 218.034 50.3927 217.364 50.5727C216.874 50.7127 216.344 50.8127 215.834 50.8127C215.264 50.8127 214.704 50.7227 214.164 50.5127C213.624 50.3127 213.144 49.9927 212.734 49.5827C212.274 49.1227 211.954 48.5527 211.734 47.9427C211.464 47.2027 211.374 46.3927 211.374 45.6027C211.374 44.9027 211.464 44.2127 211.684 43.5527C211.884 42.9527 212.184 42.4027 212.594 41.9327C212.994 41.4727 213.494 41.1227 214.054 40.8727C214.664 40.6127 215.314 40.5027 215.974 40.5027C216.694 40.5027 217.414 40.6227 218.074 40.9527C218.634 41.2327 219.114 41.6227 219.464 42.1527C219.784 42.6427 219.994 43.1827 220.064 43.7627L220.094 43.9827H218.464L218.434 43.8227L218.464 43.8427ZM222.794 47.9627L225.454 43.3327H227.174V50.5927H225.614V45.9427L222.884 50.5927H221.234V43.3327H222.794V47.9627ZM237.234 47.9627L239.894 43.3327H241.614V50.5927H240.054V45.9427L237.324 50.5927H235.674V43.3327H237.234V47.9627ZM254.644 45.8627C254.514 45.0227 254.084 44.5627 253.204 44.5627C252.654 44.5627 252.214 44.7527 251.934 45.2327C251.624 45.7527 251.504 46.3527 251.504 46.9527C251.504 48.1327 251.774 49.3827 253.184 49.3827C253.544 49.3827 253.834 49.2527 254.094 49.0127C254.394 48.7227 254.554 48.3227 254.634 47.9227L254.664 47.7627H256.164L256.144 47.9827C256.064 48.7127 255.794 49.3527 255.324 49.9127C254.774 50.5727 253.974 50.7827 253.144 50.7827C252.524 50.7827 251.924 50.6427 251.394 50.3127C250.884 49.9927 250.514 49.5527 250.254 49.0027C249.974 48.4227 249.864 47.7827 249.864 47.1427C249.864 46.4427 249.974 45.7527 250.234 45.1027C250.484 44.5027 250.874 44.0127 251.404 43.6527C251.984 43.2627 252.664 43.1227 253.354 43.1227C253.884 43.1227 254.414 43.2227 254.874 43.5127C255.274 43.7627 255.584 44.1027 255.784 44.5227C255.984 44.9327 256.104 45.3627 256.134 45.8127L256.154 46.0227H254.654L254.624 45.8527L254.644 45.8627ZM258.854 47.4927L258.504 47.8727V50.5927H256.984V43.3327H258.504V45.9527L261.184 43.3327H263.244L259.984 46.3727L263.304 50.5927H261.304L258.844 47.5027L258.854 47.4927ZM234.554 45.2727C234.304 44.7127 233.944 44.2427 233.444 43.8727C232.934 43.5027 232.344 43.3327 231.714 43.3327C231.354 43.3327 230.964 43.3627 230.614 43.4627C230.334 43.5527 230.074 43.6727 229.844 43.8627C229.804 43.8927 229.764 43.9227 229.724 43.9527C229.904 43.5527 230.154 43.1827 230.524 42.9127C231.234 42.4027 232.114 42.3427 232.964 42.3427C233.544 42.3427 234.114 41.8627 234.114 41.2527V41.0527H233.224C232.064 41.0527 230.864 41.0927 229.854 41.7427C229.124 42.2127 228.694 42.9227 228.444 43.7427C228.174 44.6327 228.114 45.5527 228.114 46.4827C228.114 47.1427 228.184 47.8327 228.404 48.4627C228.574 48.9527 228.824 49.4327 229.184 49.8127C229.494 50.1327 229.844 50.3927 230.264 50.5527C230.634 50.7027 231.024 50.7827 231.424 50.7827C232.114 50.7827 232.794 50.6327 233.374 50.2427C233.894 49.8927 234.294 49.4327 234.554 48.8527C234.804 48.2827 234.924 47.6827 234.924 47.0627C234.924 46.4427 234.794 45.8427 234.554 45.2727ZM233.164 48.0627C233.064 48.4227 232.874 48.7327 232.604 49.0027C232.314 49.2927 231.934 49.3827 231.534 49.3827C231.134 49.3827 230.744 49.2927 230.454 49.0027C230.184 48.7327 229.994 48.4227 229.894 48.0627C229.794 47.7327 229.724 47.3927 229.724 47.0627C229.724 46.7327 229.794 46.3727 229.894 46.0527C229.994 45.6927 230.184 45.3827 230.454 45.1127C230.744 44.8227 231.124 44.7227 231.534 44.7227C231.944 44.7227 232.314 44.8227 232.604 45.1127C232.874 45.3827 233.064 45.6927 233.164 46.0527C233.254 46.3727 233.324 46.7227 233.324 47.0627C233.324 47.4027 233.264 47.7327 233.164 48.0627ZM248.724 44.9327C248.494 44.3927 248.144 43.9527 247.664 43.6127C247.174 43.2727 246.604 43.1327 246.014 43.1327C245.534 43.1327 245.024 43.2127 244.634 43.5027C244.454 43.6427 244.284 43.8027 244.134 43.9727V43.3327H242.644V53.3027H244.204V50.1827C244.334 50.3027 244.484 50.4027 244.644 50.4927C245.014 50.7027 245.434 50.7827 245.854 50.7827C246.554 50.7827 247.214 50.6127 247.754 50.1527C248.244 49.7427 248.574 49.2227 248.784 48.6127C248.984 48.0127 249.074 47.3927 249.074 46.7527C249.074 46.1127 248.974 45.5127 248.724 44.9327ZM247.284 48.2427C247.174 48.5727 246.994 48.8727 246.724 49.0927C246.464 49.3027 246.154 49.3827 245.824 49.3827C245.374 49.3827 244.994 49.2027 244.664 48.9027C244.234 48.5027 244.144 47.8327 244.144 47.2827C244.144 46.1327 244.334 44.5727 245.794 44.5727C246.184 44.5727 246.614 44.6427 246.894 44.9327C247.134 45.1827 247.304 45.4627 247.374 45.8027C247.454 46.1827 247.484 46.5627 247.484 46.9427C247.484 47.3827 247.434 47.8327 247.284 48.2427ZM273.474 43.3327C272.784 43.3327 272.064 43.4627 271.504 43.8927C270.974 44.3027 270.754 44.8827 270.754 45.5327C270.754 45.9327 270.854 46.3127 271.064 46.6527C271.254 46.9527 271.504 47.2127 271.814 47.4027C271.964 47.5027 272.134 47.5827 272.314 47.6327L270.154 50.5927H272.064L274.104 47.7027H275.054V50.5927H276.604V43.3327H273.474ZM275.054 46.3827H273.474C272.864 46.3827 272.384 46.2227 272.384 45.5327C272.384 44.8427 272.874 44.6927 273.474 44.6927H275.054V46.3827ZM268.854 43.8827C268.524 43.5827 268.154 43.3727 267.714 43.2727C267.364 43.1927 267.004 43.1327 266.644 43.1327C265.894 43.1327 265.074 43.2627 264.454 43.7227C263.844 44.1727 263.624 44.8727 263.604 45.6127V45.8127H265.044L265.064 45.6427C265.114 45.3327 265.214 45.0427 265.414 44.7927C265.644 44.5327 266.124 44.4927 266.444 44.4927C267.104 44.4927 267.864 44.6027 267.864 45.4027C267.864 45.7227 267.794 45.9827 267.434 46.0127L265.524 46.2527C264.864 46.3327 264.094 46.5527 263.714 47.1427C263.424 47.5827 263.254 48.0727 263.254 48.6027C263.254 49.0027 263.354 49.3927 263.564 49.7327C263.774 50.0727 264.054 50.3327 264.414 50.5127C264.784 50.7027 265.194 50.7827 265.614 50.7827C266.154 50.7827 266.714 50.7027 267.184 50.4427C267.474 50.2827 267.734 50.0927 267.974 49.8727C268.024 50.0527 268.114 50.2227 268.244 50.3727C268.464 50.6327 268.854 50.7027 269.184 50.7127H269.394V45.2327C269.394 44.7127 269.244 44.2327 268.854 43.8827ZM267.834 48.0127C267.834 48.2727 267.744 48.5027 267.584 48.7027C267.384 48.9327 267.134 49.1027 266.854 49.2227C266.554 49.3527 266.234 49.4227 265.904 49.4227C265.214 49.4227 264.854 49.1327 264.854 48.4327C264.854 48.2427 264.894 48.0727 265.034 47.9427C265.164 47.8127 265.314 47.7127 265.484 47.6627C265.704 47.5927 265.934 47.5527 266.154 47.5127C266.604 47.4527 267.104 47.3927 267.544 47.2927C267.644 47.2727 267.744 47.2427 267.834 47.2027V48.0127ZM252.214 58.7427C251.894 58.4427 251.514 58.2327 251.074 58.1327C250.734 58.0527 250.364 57.9927 250.004 57.9927C249.244 57.9927 248.434 58.1127 247.814 58.5827C247.204 59.0327 246.984 59.7327 246.964 60.4627V60.6727H248.404L248.424 60.5027C248.474 60.1927 248.574 59.9027 248.784 59.6527C249.004 59.3827 249.484 59.3427 249.804 59.3427C250.464 59.3427 251.224 59.4627 251.224 60.2627C251.224 60.5727 251.154 60.8427 250.804 60.8727L248.884 61.1127C248.224 61.1927 247.464 61.4127 247.074 62.0027C246.784 62.4427 246.624 62.9327 246.624 63.4627C246.624 63.8627 246.714 64.2427 246.924 64.5927C247.124 64.9327 247.414 65.1927 247.774 65.3627C248.144 65.5527 248.554 65.6327 248.974 65.6327C249.514 65.6327 250.074 65.5527 250.544 65.2927C250.834 65.1327 251.094 64.9527 251.334 64.7327C251.384 64.9127 251.474 65.0827 251.604 65.2227C251.834 65.4827 252.214 65.5527 252.544 65.5727H252.754V60.0927C252.754 59.5727 252.604 59.0927 252.214 58.7427ZM251.194 62.8727C251.194 63.1327 251.104 63.3527 250.944 63.5627C250.744 63.7927 250.494 63.9627 250.214 64.0827C249.914 64.2127 249.594 64.2827 249.264 64.2827C248.574 64.2827 248.214 63.9927 248.214 63.2927C248.214 63.1027 248.254 62.9327 248.394 62.7927C248.514 62.6627 248.674 62.5727 248.844 62.5127C249.064 62.4527 249.294 62.4027 249.514 62.3727C249.964 62.3127 250.464 62.2527 250.904 62.1527C250.994 62.1227 251.104 62.1027 251.194 62.0627V62.8727ZM224.534 59.7927C224.294 59.2527 223.954 58.8127 223.474 58.4827C222.974 58.1427 222.414 58.0027 221.814 58.0027C221.344 58.0027 220.834 58.0827 220.444 58.3727C220.264 58.5127 220.094 58.6627 219.934 58.8327V58.1927H218.454V68.1627H220.004V65.0427C220.144 65.1627 220.294 65.2727 220.454 65.3627C220.824 65.5627 221.234 65.6427 221.664 65.6427C222.354 65.6427 223.024 65.4727 223.564 65.0127C224.044 64.6027 224.384 64.0827 224.584 63.4727C224.784 62.8727 224.884 62.2527 224.884 61.6227C224.884 60.9927 224.784 60.3727 224.534 59.7927ZM223.094 63.1127C222.984 63.4427 222.804 63.7327 222.534 63.9527C222.274 64.1727 221.964 64.2527 221.634 64.2527C221.184 64.2527 220.804 64.0627 220.474 63.7627C220.044 63.3627 219.954 62.6927 219.954 62.1427C219.954 60.9927 220.144 59.4327 221.604 59.4327C221.994 59.4327 222.414 59.5027 222.704 59.7927C222.944 60.0427 223.104 60.3227 223.174 60.6627C223.254 61.0427 223.284 61.4227 223.284 61.8027C223.284 62.2427 223.234 62.6927 223.094 63.1127ZM244.234 59.5527H241.404V65.4527H239.844V58.2027H245.784V65.4627H244.224V59.5627L244.234 59.5527ZM237.194 59.5527H234.374V65.4527H232.814V58.2027H238.754V65.4627H237.194V59.5627V59.5527ZM227.754 65.4227L225.134 58.1927H226.884L228.564 63.3427L230.284 58.1927H231.984L231.884 58.4627C230.744 61.6427 229.654 64.9727 228.244 68.0427L228.184 68.1627H226.434L227.734 65.4227H227.754ZM214.034 56.9327V65.4527H212.474V55.5827H218.354V56.9427H214.024L214.034 56.9327Z" fill="#A7B0B9"/>
</svg>
