<?xml version="1.0" encoding="utf-8"?>
<!-- Generator: Adobe Illustrator 23.0.5, SVG Export Plug-In . SVG Version: 6.00 Build 0)  -->
<svg version="1.1"  xmlns="http://www.w3.org/2000/svg" xmlns:xlink="http://www.w3.org/1999/xlink" x="0px" y="0px"
	 viewBox="0 0 186 157" style="enable-background:new 0 0 186 157;" xml:space="preserve" width="186" height="157">
<style type="text/css">
	.st0{fill:#A7B0B9;}
	.st1{fill-rule:evenodd;clip-rule:evenodd;fill:#B17C57;}
</style>
<path class="st0" d="M120.4,11.1c-0.1,0-0.2,0-0.3-0.1c-0.1-0.1-0.1-0.2-0.1-0.3V0.5c0-0.1,0-0.2,0.1-0.3c0.1-0.1,0.2-0.1,0.3-0.1
	h6.8c0.1,0,0.2,0,0.3,0.1c0.1,0.1,0.1,0.2,0.1,0.3v1c0,0.1,0,0.2-0.1,0.3c-0.1,0.1-0.2,0.1-0.3,0.1h-5.1v2.8h4.8
	c0.1,0,0.2,0,0.3,0.1c0.1,0.1,0.1,0.2,0.1,0.3v1c0,0.1,0,0.2-0.1,0.3c-0.1,0.1-0.2,0.1-0.3,0.1h-4.8v2.9h5.2c0.1,0,0.2,0,0.3,0.1
	c0.1,0.1,0.1,0.2,0.1,0.3v1c0,0.1,0,0.2-0.1,0.3c-0.1,0.1-0.2,0.1-0.3,0.1H120.4z"/>
<path class="st0" d="M128.8,11.1c-0.1,0-0.2,0-0.2-0.1c-0.1-0.1-0.1-0.2-0.1-0.2c0-0.1,0-0.2,0.1-0.3l2.6-3.6l-2.5-3.3
	c-0.1-0.1-0.1-0.2-0.1-0.3c0-0.1,0-0.2,0.1-0.2C128.9,3,128.9,3,129,3h1.4c0.1,0,0.2,0,0.2,0.1c0.1,0,0.1,0.1,0.2,0.2l1.8,2.3
	l1.8-2.3c0,0,0.1-0.1,0.1-0.1c0.1-0.1,0.2-0.1,0.3-0.1h1.3c0.1,0,0.2,0,0.2,0.1c0.1,0.1,0.1,0.1,0.1,0.2c0,0.1,0,0.2-0.1,0.3
	l-2.5,3.4l2.7,3.5c0.1,0.1,0.1,0.2,0.1,0.3c0,0.1,0,0.2-0.1,0.2c-0.1,0.1-0.1,0.1-0.2,0.1h-1.4c-0.2,0-0.3-0.1-0.4-0.2l-1.9-2.5
	l-1.9,2.5c-0.1,0.2-0.3,0.2-0.4,0.2H128.8z"/>
<path class="st0" d="M138,14c-0.1,0-0.2,0-0.3-0.1c-0.1-0.1-0.1-0.2-0.1-0.3V3.3c0-0.1,0-0.2,0.1-0.3C137.8,3,137.9,3,138,3h1.2
	c0.1,0,0.2,0,0.3,0.1c0.1,0.1,0.1,0.2,0.1,0.3V4c0.6-0.8,1.4-1.2,2.5-1.2c1,0,1.9,0.3,2.4,1c0.6,0.7,0.9,1.5,0.9,2.7
	c0,0.1,0,0.3,0,0.5c0,0.2,0,0.4,0,0.6c0,1.1-0.3,2-0.9,2.7c-0.6,0.7-1.4,1-2.4,1c-1,0-1.8-0.4-2.4-1.1v3.5c0,0.1,0,0.2-0.1,0.3
	c-0.1,0.1-0.1,0.1-0.3,0.1H138z M141.6,9.6c1.1,0,1.7-0.7,1.8-2.1c0-0.1,0-0.3,0-0.5c0-0.2,0-0.4,0-0.5c-0.1-1.4-0.7-2.1-1.8-2.1
	c-0.6,0-1,0.2-1.3,0.6c-0.3,0.4-0.5,0.9-0.5,1.4l0,0.6l0,0.6c0,0.5,0.2,1,0.5,1.3C140.5,9.4,141,9.6,141.6,9.6z"/>
<path class="st0" d="M147.3,11.1c-0.1,0-0.2,0-0.3-0.1c-0.1-0.1-0.1-0.2-0.1-0.3V0.4c0-0.1,0-0.2,0.1-0.3c0.1-0.1,0.2-0.1,0.3-0.1
	h1.3c0.1,0,0.2,0,0.3,0.1c0.1,0.1,0.1,0.2,0.1,0.3v10.3c0,0.1,0,0.2-0.1,0.3c-0.1,0.1-0.2,0.1-0.3,0.1H147.3z"/>
<path class="st0" d="M154.3,11.2c-1.2,0-2.2-0.3-2.8-0.9c-0.7-0.6-1-1.5-1.1-2.6l0-0.7l0-0.7c0.1-1.1,0.4-1.9,1.1-2.6
	c0.7-0.6,1.6-1,2.8-1c1.2,0,2.1,0.3,2.8,1s1,1.5,1.1,2.6c0,0.1,0,0.4,0,0.7s0,0.6,0,0.7c-0.1,1.1-0.4,2-1.1,2.6
	C156.4,10.9,155.5,11.2,154.3,11.2z M154.3,9.7c0.5,0,1-0.2,1.3-0.5c0.3-0.4,0.5-0.9,0.5-1.5c0-0.1,0-0.3,0-0.6c0-0.3,0-0.5,0-0.6
	c0-0.7-0.2-1.2-0.5-1.5c-0.3-0.4-0.7-0.5-1.3-0.5c-0.6,0-1,0.2-1.3,0.5c-0.3,0.3-0.5,0.9-0.5,1.5l0,0.6l0,0.6c0,0.7,0.2,1.2,0.5,1.5
	C153.3,9.5,153.7,9.7,154.3,9.7z"/>
<path class="st0" d="M160,11.1c-0.1,0-0.2,0-0.3-0.1c-0.1-0.1-0.1-0.2-0.1-0.3V3.4c0-0.1,0-0.2,0.1-0.3C159.8,3,159.9,3,160,3h1.3
	c0.1,0,0.2,0,0.3,0.1c0.1,0.1,0.1,0.2,0.1,0.3V4c0.2-0.3,0.6-0.6,0.9-0.8c0.4-0.2,0.8-0.3,1.3-0.3h0.6c0.1,0,0.2,0,0.3,0.1
	c0.1,0.1,0.1,0.2,0.1,0.3v1.1c0,0.1,0,0.2-0.1,0.3c-0.1,0.1-0.2,0.1-0.3,0.1h-1.2c-0.5,0-0.9,0.1-1.2,0.4c-0.3,0.3-0.4,0.7-0.4,1.2
	v4.3c0,0.1,0,0.2-0.1,0.3c-0.1,0.1-0.2,0.1-0.3,0.1H160z"/>
<path class="st0" d="M169.2,11.2c-1.2,0-2.1-0.3-2.8-1c-0.7-0.7-1-1.6-1.1-2.8l0-0.4l0-0.4c0.1-1.2,0.4-2.1,1.1-2.8
	c0.7-0.7,1.6-1,2.7-1c1.2,0,2.2,0.4,2.8,1.1c0.7,0.7,1,1.7,1,3v0.3c0,0.1,0,0.2-0.1,0.3c-0.1,0.1-0.2,0.1-0.3,0.1h-5.2v0.1
	c0,0.6,0.2,1.1,0.5,1.5c0.3,0.4,0.7,0.6,1.2,0.6c0.6,0,1.1-0.2,1.5-0.7c0.1-0.1,0.2-0.2,0.2-0.2c0.1,0,0.2,0,0.3,0h1.3
	c0.1,0,0.2,0,0.2,0.1c0.1,0.1,0.1,0.1,0.1,0.2c0,0.2-0.1,0.5-0.5,0.9c-0.3,0.3-0.7,0.6-1.3,0.9C170.5,11.1,169.9,11.2,169.2,11.2z
	 M170.9,6.3L170.9,6.3c0-0.7-0.2-1.2-0.5-1.5c-0.3-0.4-0.7-0.6-1.3-0.6s-1,0.2-1.3,0.6c-0.3,0.4-0.5,0.9-0.5,1.5v0H170.9z"/>
<path class="st0" d="M121.3,32.8c-0.2,0-0.3-0.1-0.4-0.2s-0.2-0.3-0.2-0.4V16.3c0-0.2,0.1-0.3,0.2-0.4c0.1-0.1,0.3-0.2,0.4-0.2h2.3
	c0.2,0,0.3,0.1,0.4,0.2c0.1,0.1,0.2,0.2,0.2,0.4v15.8c0,0.2-0.1,0.3-0.2,0.4c-0.1,0.1-0.2,0.2-0.4,0.2H121.3z"/>
<path class="st0" d="M127.7,32.8c-0.2,0-0.3-0.1-0.4-0.2s-0.2-0.3-0.2-0.4V20.7c0-0.2,0.1-0.3,0.2-0.4s0.3-0.2,0.4-0.2h2
	c0.2,0,0.3,0.1,0.4,0.2c0.1,0.1,0.2,0.3,0.2,0.4v1c1-1.2,2.3-1.8,4-1.8c1.5,0,2.7,0.5,3.5,1.5c0.9,1,1.3,2.3,1.3,4v6.8
	c0,0.2-0.1,0.3-0.2,0.4c-0.1,0.1-0.2,0.2-0.4,0.2h-2.1c-0.2,0-0.3-0.1-0.4-0.2s-0.2-0.3-0.2-0.4v-6.7c0-1-0.2-1.7-0.7-2.2
	c-0.5-0.5-1.1-0.8-2-0.8c-0.9,0-1.5,0.3-2,0.8c-0.5,0.5-0.7,1.3-0.7,2.2v6.7c0,0.2-0.1,0.3-0.2,0.4c-0.1,0.1-0.2,0.2-0.4,0.2H127.7z
	"/>
<path class="st0" d="M146.4,33c-1.6,0-2.9-0.5-3.8-1.6c-0.9-1.1-1.3-2.5-1.4-4.2l0-0.8l0-0.8c0-1.7,0.5-3.1,1.4-4.2
	c0.9-1.1,2.1-1.6,3.8-1.6c1.6,0,2.8,0.5,3.7,1.6v-5.4c0-0.2,0.1-0.3,0.2-0.4c0.1-0.1,0.3-0.2,0.4-0.2h2.1c0.2,0,0.3,0.1,0.4,0.2
	c0.1,0.1,0.2,0.2,0.2,0.4v16.1c0,0.2-0.1,0.3-0.2,0.4c-0.1,0.1-0.2,0.2-0.4,0.2h-1.9c-0.2,0-0.3-0.1-0.4-0.2
	c-0.1-0.1-0.2-0.3-0.2-0.4v-0.9C149.4,32.4,148.1,33,146.4,33z M147.3,30.4c0.9,0,1.6-0.3,2.1-0.9c0.5-0.6,0.7-1.3,0.8-2.2
	c0-0.2,0-0.5,0-0.9c0-0.4,0-0.7,0-0.9c0-0.8-0.3-1.5-0.8-2.1c-0.5-0.6-1.2-0.9-2.1-0.9c-1.7,0-2.7,1.1-2.8,3.2l0,0.7l0,0.7
	C144.6,29.3,145.6,30.4,147.3,30.4z"/>
<path class="st0" d="M156.6,18c-0.2,0-0.3-0.1-0.4-0.2c-0.1-0.1-0.2-0.3-0.2-0.4v-1.7c0-0.2,0.1-0.3,0.2-0.4
	c0.1-0.1,0.3-0.2,0.4-0.2h2.2c0.2,0,0.3,0.1,0.4,0.2c0.1,0.1,0.2,0.3,0.2,0.4v1.7c0,0.2-0.1,0.3-0.2,0.4c-0.1,0.1-0.3,0.2-0.4,0.2
	H156.6z M156.7,32.8c-0.2,0-0.3-0.1-0.4-0.2c-0.1-0.1-0.2-0.3-0.2-0.4V20.7c0-0.2,0.1-0.3,0.2-0.4c0.1-0.1,0.3-0.2,0.4-0.2h2
	c0.2,0,0.3,0.1,0.4,0.2c0.1,0.1,0.2,0.2,0.2,0.4v11.5c0,0.2-0.1,0.3-0.2,0.4c-0.1,0.1-0.2,0.2-0.4,0.2H156.7z"/>
<path class="st0" d="M165.7,33c-0.8,0-1.6-0.2-2.3-0.5c-0.7-0.3-1.2-0.8-1.6-1.4c-0.4-0.6-0.6-1.2-0.6-1.9c0-1.1,0.4-2,1.3-2.7
	c0.9-0.7,2.1-1.1,3.7-1.4l3.3-0.5v-0.5c0-0.7-0.2-1.2-0.5-1.6c-0.4-0.4-0.9-0.5-1.7-0.5c-0.5,0-1,0.1-1.3,0.3
	c-0.3,0.2-0.6,0.4-0.8,0.6c-0.2,0.2-0.3,0.3-0.4,0.4c-0.1,0.2-0.2,0.3-0.4,0.3h-1.9c-0.1,0-0.3,0-0.4-0.1c-0.1-0.1-0.1-0.2-0.1-0.4
	c0-0.4,0.2-0.9,0.6-1.4c0.4-0.5,1-1,1.8-1.3c0.8-0.4,1.8-0.6,2.9-0.6c1.9,0,3.3,0.4,4.2,1.3c0.9,0.9,1.3,2,1.3,3.4v7.6
	c0,0.2-0.1,0.3-0.2,0.4c-0.1,0.1-0.2,0.2-0.4,0.2h-2c-0.2,0-0.3-0.1-0.4-0.2c-0.1-0.1-0.2-0.3-0.2-0.4v-0.9
	c-0.4,0.5-0.9,0.9-1.5,1.3C167.4,32.8,166.6,33,165.7,33z M166.5,30.7c0.9,0,1.6-0.3,2.2-0.9c0.6-0.6,0.8-1.4,0.8-2.5v-0.5l-2.4,0.4
	c-0.9,0.1-1.6,0.4-2.1,0.7c-0.5,0.3-0.7,0.7-0.7,1.2c0,0.5,0.2,0.9,0.7,1.2C165.3,30.5,165.9,30.7,166.5,30.7z"/>
<path class="st1" d="M46.5,45.4h39.8v-7.9l3.5,0v7.8h22.8c-3.2-1.3-6.4-2.6-9.5-4.2c-1.5-0.8-3-1.7-4.3-2.8
	c-3.9-3.2-0.7-6.8-0.7-10.8c0-1.6-2.6-7.7-6-11.5c-1.1-1.3-2.3-2.3-3.6-2.8c-0.9-0.4-2.1-1.1-3.6-2.7C82,7.5,80.8,5,76.1,5
	C71.7,5,65.4,5.9,62,8.9c-0.3,0.3-0.6,0.6-0.8,1.1c-0.4,1.3,0.7,2.5,1.2,3.8c0.3,0.9,0.2,1.9-0.3,2.7c-2.2,3.8-4.9,6.9-7.9,10.2
	c-1.7,1.9-2.4,3.6-2.8,6.1c-0.2,1.5-0.6,3.6-2.6,3.4c-0.8-0.1-1.5-0.4-2.3-0.5c-1.9-0.2-3.3,1.6-4.9,2.4c-3.3,1.6-4.3,4.2-5.5,7.3
	L46.5,45.4L46.5,45.4z"/>
<path class="st1" d="M41.4,58.4c0.6,0,0.9-0.6,0.9-1.7V55c0-1.1-0.3-1.6-0.9-1.7h-0.9v3.3C40.4,57.9,40.7,58.4,41.4,58.4L41.4,58.4z
	"/>
<path class="st1" d="M139.2,58.4c0.6,0,0.9-0.6,0.9-1.7v-0.2c-0.6,0-1.2-0.1-1.9-0.1v0.3C138.3,57.9,138.6,58.5,139.2,58.4
	L139.2,58.4z"/>
<path class="st1" d="M116.6,52.2l0.9-2.3l4.2,0c0,0,0.1,0,0.1,0c-1.1-0.6-2.2-1.2-3.3-1.8h-1.9L116.6,52.2L116.6,52.2z"/>
<path class="st1" d="M135.7,94.1h-5.1c-1.2,0-1.8,0.6-1.8,1.7c0,1.2,0.6,1.8,1.7,1.8h2.8l-0.1,0.6c0.4-0.2,0.8-0.4,1.2-0.6
	c0.8-0.5,1.1-1,1.3-1.7L135.7,94.1L135.7,94.1z"/>
<path class="st1" d="M183.5,53.5c0-1.9-1.2-4-3.2-4.1c-1.4-0.1-2.8,0.4-4.3,0.4c-1.4,0-2.7-0.4-4.1,0.3c-1.1,0.5-2,1.7-3,2.4
	c-1.5,1.1-3,2.3-4.5,3.2c-3.4,2.1-6.6,1.1-10.3,0.7c-2.7-0.3-4.5,1.1-7,1.2c0,0-0.1,0-0.1,0c-1.2,0-2.3-0.4-3.4-0.7
	c-0.1,3.4-1.5,5.1-4.4,5.1c-2.9,0-4.4-1.7-4.4-5.2v-0.9c-0.6-0.1-1.1-0.3-1.7-0.5V63c0,1.1,0.6,1.7,1.8,1.7h5.6l-0.8,3.5H135
	c-3.5,0-5.3-1.7-5.3-5.2v-7.9c0-0.4,0-0.7,0-1c-1.1-0.4-2.1-0.9-3.1-1.5c0.3,0.7,0.4,1.5,0.4,2.4c0,3.3-1.6,5.1-4.8,5.2l1.5,2.8
	c0.5,0.9,1.3,1.1,2.4,0.5l0.5-0.2l-0.8,4.1c-2.1,0.5-3.8-0.4-5.1-2.6L117,58l2-1.1h2.8c1.2,0,1.7-0.6,1.7-1.8c0-1.2-0.6-1.7-1.8-1.7
	l-5.1,0v14.9l-3.5-0.9V48h-9.1v1.8h0.4c3.5,0,5.3,1.7,5.3,5.2v7.1c0,3.4-1.8,5.2-5.3,5.2h-4.1c-3.5,0-5.3-1.7-5.3-5.2V55
	c0-3.4,1.8-5.2,5.3-5.2h0.3V48H89.8v20.1l-3.5-0.9V48.1H70.5v1.8h5.2c3.5,0,5.3,1.7,5.3,5V62c0,3.5-1.7,5.3-5.2,5.3l-2,0l-0.9-3.5
	h2.8c1.2,0,1.7-0.6,1.7-1.8v-7.1c0-1.1-0.6-1.6-1.8-1.6h-5.1v20.1L67,72.5V48.1h-2.1l-7.1,10.3l1.9,2.9v0l1.8,2.7
	c0.6,0.5,1.1,0.6,1.7,0.3c0.2,2.6,0.2,3.9,0.2,3.9c-0.4,0-0.7,0-1.1,0c-1.8-0.1-3-0.8-3.7-2.2l-3-4.5l-4.7,6.9l-2.9-2l5.5-8
	l-1.1-1.7v0l-1.8-2.7c-0.6-0.5-1.1-0.6-1.7-0.3c-0.2-2.6-0.2-3.9-0.2-3.9c2.4-0.2,4,0.6,4.8,2.2l2.2,3.3l4.9-7.1H40.5v1.8h1
	c2.9,0,4.3,1.7,4.4,5.2v1.7c0,3.5-1.5,5.2-4.4,5.2c-2.9,0-4.4-1.7-4.4-5.2l0-3.3l-0.8,0c-0.5,0-0.8,0.5-0.8,1.6v8
	c0,1.1,0.6,1.7,1.8,1.7h5.6L42,68.2h-4.9c-3.5,0-5.3-1.7-5.3-5.2v-7.9c0-3.5,1.5-5.3,4.4-5.2l0.8,0l0-1.8h-4.5
	c-2.3,0.5-5.3,0.4-6.3,0.4c-3.6,0-7.1-0.7-10.7-0.8c-0.5,0-1.1,0-1.5,0.2c-0.5,0.2-0.9,0.6-1,1.1c-0.1,0.4,0.1,0.9,0.3,1.3
	c0.9,1.9,2.4,3.5,3.8,5.2c1.3,1.7,3.2,4,2.8,6.3c-0.4,2-2.4,3-3,4.9c-0.4,1.5,0.5,3.1,1.9,3.8c2,1.1,4.4,0.7,6.6,0.5
	c3.9-0.4,8.1-0.6,11.5,0.4c4.8,1.4,5.5,6.1,9.8,9c1.5,1,3.2,2.4,4.2,3.5c2.3,2.6,0.7,6.2,3.8,8.8c2.3,1.9,4.8,3.1,5.7,1.8
	c0.9-1.4,2.3-2.1,3.8-1.2c3,1.9,4.3,7.7,5.3,10.8c2,6.3,3.5,12.8,5.2,19.2c1.7,6.7,3.5,13.3,5.9,19.8c1.7,4.5,4.4,12.5,9.8,13.7
	c3.1,0.7,4.3-2.7,5.9-4.7c2.3-2.8,4.9-5.5,5.7-9.2c0.4-1.8-0.1-3.6,0.5-5.4c0.4-1.1,1.4-2.1,1.5-3.3c0.2-1.5,0-3-0.3-4.5
	c-0.5-2.8-1.3-5.9,0.1-8.6c1.1-2.1,5.5-3,7.5-4.4c2.7-1.9,5-4.2,7.3-6.5c3.2-3.2,6.4-6.6,10.1-9.4c-2.4-0.5-3.6-2.2-3.6-5.1
	c0-3.5,1.8-5.2,5.3-5.2h5.2v-2.7c0-1.1-2.3-1.1-7,0.1v-6.1h-3.8v0l-9.3,0v0h-1v19.3l-3.5,0.9V87.1H106c-1.2,0-1.8,0.5-1.8,1.6v7.1
	c0,1.2,0.6,1.8,1.7,1.8h2.8l-0.9,3.5l-2,0c-3.5,0-5.2-1.8-5.2-5.3v-7.1c0-3.3,1.7-5,5.3-5h5.2v-1.8H81.9v0l-9.3,0v-2.6l8.5,0h29.9
	v-2.5c0-1.1-0.6-1.7-1.8-1.7h-0.9l1-3.5c3.5,0,5.3,1.7,5.3,5.2v2.5h2.2v0l6.6,0h18.1v2.6h-9.2v1.8h1.7c3.5,0,5.3,1.7,5.3,5.2v1.8
	c4.1-0.3,8,0.2,12.1-1.2c0.8-0.3,1.5-0.7,2.3-1.2c0.9-0.6,1.7-0.8,2.5-0.8c2.2,0,3.5,3.9,5.8,3c0.4-0.1,0.6-0.4,0.8-0.6
	c1-1.3,0.6-3.8,1-5.1c0.5-1.6,1.4-5,3.5-5.3c4.5-0.6,5.8-6.4,7-9.9c0.7-2.1,1.5-4.4,2.9-6.2c0.9-1.1,2.2-2.4,3.7-2.8
	c1.1-0.3,2.1,0.3,3.2,0.2c1.6-0.3,1.6-2.9,1.9-4.1C186.4,54.4,183.5,54.6,183.5,53.5L183.5,53.5z M117.4,83.6c3.5,0,5.3,1.7,5.3,5.2
	v12.3l-3.5,0.9V88.8c0-1.1-0.6-1.7-1.8-1.7h-1L117.4,83.6L117.4,83.6z M83.2,83.6l3.5,0l0,2.3l0.9-2.3h4.3c3.5,0,5.3,1.7,5.3,5
	l0,13.1l-3.6-0.8l0-12.3c0-1.1-0.6-1.6-1.8-1.6h-5.1V102l-3.5-0.9L83.2,83.6L83.2,83.6z M74.4,83.6c3.5,0,5.3,1.7,5.3,5.2v12.3
	l-3.5,0.9V88.8c0-1.1-0.6-1.7-1.8-1.7h-1L74.4,83.6L74.4,83.6z M78.5,77.4L77.2,78c-0.5-2.5-0.1-4.4,1.3-5.6c1.1-1,2.1-1.5,3-1.5
	c0.2,0,0.4,0,0.6,0.1l1.1,3.1C80.5,74.2,78.9,75.3,78.5,77.4z M121.5,77.4l-1.3,0.7c-0.5-2.5-0.1-4.4,1.3-5.6c1.1-1,2.1-1.5,3-1.5
	c0.2,0,0.4,0,0.6,0.1l1.1,3.1C123.5,74.2,121.9,75.3,121.5,77.4z"/>
<path class="st1" d="M98.5,55l0,7.1c0,1.1,0.6,1.7,1.8,1.7h4c1.2,0,1.8-0.6,1.8-1.7l0-7.1c0-1.1-0.6-1.7-1.8-1.7h-4
	C99.1,53.3,98.5,53.9,98.5,55L98.5,55z"/>
</svg>
