<svg width="288" height="94" viewBox="0 0 288 94" fill="none" xmlns="http://www.w3.org/2000/svg">
<path d="M61.918 10C61.858 10 61.807 9.979 61.765 9.937C61.723 9.895 61.702 9.844 61.702 9.784V3.925C61.702 3.859 61.72 3.805 61.756 3.763C61.798 3.721 61.852 3.7 61.918 3.7H65.878C65.944 3.7 65.998 3.721 66.04 3.763C66.082 3.805 66.103 3.859 66.103 3.925V4.519C66.103 4.585 66.082 4.639 66.04 4.681C65.998 4.717 65.944 4.735 65.878 4.735H62.917V6.328H65.68C65.746 6.328 65.8 6.349 65.842 6.391C65.884 6.427 65.905 6.478 65.905 6.544V7.102C65.905 7.168 65.884 7.222 65.842 7.264C65.8 7.3 65.746 7.318 65.68 7.318H62.917V8.965H65.95C66.016 8.965 66.07 8.986 66.112 9.028C66.154 9.07 66.175 9.124 66.175 9.19V9.784C66.175 9.85 66.154 9.904 66.112 9.946C66.07 9.982 66.016 10 65.95 10H61.918ZM66.8146 10C66.7606 10 66.7126 9.982 66.6706 9.946C66.6346 9.904 66.6166 9.856 66.6166 9.802C66.6166 9.748 66.6376 9.697 66.6796 9.649L68.2096 7.597L66.7876 5.671C66.7516 5.623 66.7336 5.572 66.7336 5.518C66.7336 5.464 66.7516 5.419 66.7876 5.383C66.8296 5.341 66.8776 5.32 66.9316 5.32H67.7146C67.7746 5.32 67.8196 5.335 67.8496 5.365C67.8856 5.389 67.9216 5.425 67.9576 5.473L68.9746 6.823L69.9916 5.473C69.9976 5.467 70.0216 5.44 70.0636 5.392C70.0996 5.344 70.1566 5.32 70.2346 5.32H70.9816C71.0356 5.32 71.0806 5.341 71.1166 5.383C71.1586 5.419 71.1796 5.461 71.1796 5.509C71.1796 5.569 71.1616 5.623 71.1256 5.671L69.6856 7.615L71.2246 9.649C71.2666 9.697 71.2876 9.748 71.2876 9.802C71.2876 9.856 71.2666 9.904 71.2246 9.946C71.1886 9.982 71.1436 10 71.0896 10H70.2706C70.1746 10 70.0936 9.952 70.0276 9.856L68.9476 8.425L67.8496 9.856C67.7836 9.952 67.7026 10 67.6066 10H66.8146ZM72.1377 11.71C72.0777 11.71 72.0267 11.689 71.9847 11.647C71.9427 11.611 71.9217 11.56 71.9217 11.494V5.536C71.9217 5.47 71.9427 5.419 71.9847 5.383C72.0267 5.341 72.0777 5.32 72.1377 5.32H72.8487C72.9147 5.32 72.9657 5.341 73.0017 5.383C73.0437 5.419 73.0647 5.47 73.0647 5.536V5.896C73.4007 5.452 73.8807 5.23 74.5047 5.23C75.1107 5.23 75.5757 5.422 75.8997 5.806C76.2237 6.184 76.3977 6.697 76.4217 7.345C76.4277 7.417 76.4307 7.522 76.4307 7.66C76.4307 7.804 76.4277 7.912 76.4217 7.984C76.3977 8.614 76.2237 9.124 75.8997 9.514C75.5757 9.898 75.1107 10.09 74.5047 10.09C73.8987 10.09 73.4367 9.877 73.1187 9.451V11.494C73.1187 11.56 73.0977 11.611 73.0557 11.647C73.0197 11.689 72.9687 11.71 72.9027 11.71H72.1377ZM74.1717 9.127C74.8197 9.127 75.1647 8.728 75.2067 7.93C75.2127 7.87 75.2157 7.78 75.2157 7.66C75.2157 7.54 75.2127 7.45 75.2067 7.39C75.1647 6.592 74.8197 6.193 74.1717 6.193C73.8237 6.193 73.5657 6.304 73.3977 6.526C73.2297 6.748 73.1367 7.021 73.1187 7.345L73.1097 7.687L73.1187 8.038C73.1307 8.338 73.2237 8.596 73.3977 8.812C73.5777 9.022 73.8357 9.127 74.1717 9.127ZM77.486 10C77.426 10 77.375 9.979 77.333 9.937C77.291 9.895 77.27 9.844 77.27 9.784V3.826C77.27 3.76 77.291 3.709 77.333 3.673C77.375 3.631 77.426 3.61 77.486 3.61H78.233C78.299 3.61 78.35 3.631 78.386 3.673C78.428 3.709 78.449 3.76 78.449 3.826V9.784C78.449 9.844 78.428 9.895 78.386 9.937C78.35 9.979 78.299 10 78.233 10H77.486ZM81.5329 10.09C80.8309 10.09 80.2879 9.91 79.9039 9.55C79.5199 9.184 79.3129 8.686 79.2829 8.056L79.2739 7.66L79.2829 7.264C79.3129 6.64 79.5229 6.145 79.9129 5.779C80.3029 5.413 80.8429 5.23 81.5329 5.23C82.2229 5.23 82.7629 5.413 83.1529 5.779C83.5429 6.145 83.7529 6.64 83.7829 7.264C83.7889 7.336 83.7919 7.468 83.7919 7.66C83.7919 7.852 83.7889 7.984 83.7829 8.056C83.7529 8.686 83.5459 9.184 83.1619 9.55C82.7779 9.91 82.2349 10.09 81.5329 10.09ZM81.5329 9.199C81.8509 9.199 82.0969 9.1 82.2709 8.902C82.4449 8.698 82.5409 8.401 82.5589 8.011C82.5649 7.951 82.5679 7.834 82.5679 7.66C82.5679 7.486 82.5649 7.369 82.5589 7.309C82.5409 6.919 82.4449 6.625 82.2709 6.427C82.0969 6.223 81.8509 6.121 81.5329 6.121C81.2149 6.121 80.9689 6.223 80.7949 6.427C80.6209 6.625 80.5249 6.919 80.5069 7.309L80.4979 7.66L80.5069 8.011C80.5249 8.401 80.6209 8.698 80.7949 8.902C80.9689 9.1 81.2149 9.199 81.5329 9.199ZM84.825 10C84.765 10 84.714 9.979 84.672 9.937C84.63 9.895 84.609 9.844 84.609 9.784V5.545C84.609 5.485 84.63 5.434 84.672 5.392C84.714 5.344 84.765 5.32 84.825 5.32H85.554C85.62 5.32 85.674 5.341 85.716 5.383C85.758 5.425 85.779 5.479 85.779 5.545V5.914C85.923 5.722 86.103 5.575 86.319 5.473C86.541 5.371 86.793 5.32 87.075 5.32H87.444C87.51 5.32 87.561 5.341 87.597 5.383C87.639 5.419 87.66 5.47 87.66 5.536V6.184C87.66 6.244 87.639 6.295 87.597 6.337C87.561 6.379 87.51 6.4 87.444 6.4H86.742C86.46 6.4 86.238 6.481 86.076 6.643C85.914 6.805 85.833 7.027 85.833 7.309V9.784C85.833 9.844 85.812 9.895 85.77 9.937C85.728 9.979 85.674 10 85.608 10H84.825ZM90.1364 10.09C89.4704 10.09 88.9394 9.898 88.5434 9.514C88.1534 9.124 87.9464 8.578 87.9224 7.876L87.9134 7.651L87.9224 7.426C87.9524 6.742 88.1624 6.205 88.5524 5.815C88.9484 5.425 89.4764 5.23 90.1364 5.23C90.8444 5.23 91.3904 5.446 91.7744 5.878C92.1644 6.31 92.3594 6.886 92.3594 7.606V7.795C92.3594 7.855 92.3384 7.906 92.2964 7.948C92.2544 7.99 92.2004 8.011 92.1344 8.011H89.1464V8.083C89.1584 8.413 89.2484 8.692 89.4164 8.92C89.5904 9.142 89.8274 9.253 90.1274 9.253C90.4814 9.253 90.7664 9.115 90.9824 8.839C91.0364 8.773 91.0784 8.731 91.1084 8.713C91.1444 8.695 91.1954 8.686 91.2614 8.686H92.0354C92.0894 8.686 92.1344 8.704 92.1704 8.74C92.2124 8.77 92.2334 8.809 92.2334 8.857C92.2334 9.001 92.1464 9.172 91.9724 9.37C91.8044 9.562 91.5614 9.73 91.2434 9.874C90.9254 10.018 90.5564 10.09 90.1364 10.09ZM91.1354 7.255V7.228C91.1354 6.874 91.0454 6.589 90.8654 6.373C90.6914 6.157 90.4484 6.049 90.1364 6.049C89.8244 6.049 89.5814 6.157 89.4074 6.373C89.2334 6.589 89.1464 6.874 89.1464 7.228V7.255H91.1354ZM62.428 23C62.3347 23 62.2553 22.9673 62.19 22.902C62.1247 22.8367 62.092 22.7573 62.092 22.664V13.536C62.092 13.4333 62.1247 13.354 62.19 13.298C62.2553 13.2327 62.3347 13.2 62.428 13.2H63.744C63.8467 13.2 63.926 13.2327 63.982 13.298C64.0473 13.354 64.08 13.4333 64.08 13.536V22.664C64.08 22.7573 64.0473 22.8367 63.982 22.902C63.926 22.9673 63.8467 23 63.744 23H62.428ZM66.1636 23C66.0703 23 65.9909 22.9673 65.9256 22.902C65.8603 22.8367 65.8276 22.7573 65.8276 22.664V16.056C65.8276 15.9627 65.8603 15.8833 65.9256 15.818C65.9909 15.7527 66.0703 15.72 66.1636 15.72H67.3116C67.4049 15.72 67.4843 15.7527 67.5496 15.818C67.6149 15.8833 67.6476 15.9627 67.6476 16.056V16.63C68.1983 15.93 68.9776 15.58 69.9856 15.58C70.8443 15.58 71.5256 15.8647 72.0296 16.434C72.5336 16.994 72.7856 17.7593 72.7856 18.73V22.664C72.7856 22.7573 72.7529 22.8367 72.6876 22.902C72.6316 22.9673 72.5523 23 72.4496 23H71.2176C71.1243 23 71.0449 22.9673 70.9796 22.902C70.9143 22.8367 70.8816 22.7573 70.8816 22.664V18.814C70.8816 18.2633 70.7463 17.8387 70.4756 17.54C70.2143 17.232 69.8316 17.078 69.3276 17.078C68.8329 17.078 68.4409 17.232 68.1516 17.54C67.8716 17.848 67.7316 18.2727 67.7316 18.814V22.664C67.7316 22.7573 67.6989 22.8367 67.6336 22.902C67.5776 22.9673 67.4983 23 67.3956 23H66.1636ZM76.9859 23.14C76.0433 23.14 75.3199 22.8367 74.8159 22.23C74.3119 21.6233 74.0413 20.816 74.0039 19.808L73.9899 19.346L74.0039 18.898C74.0319 17.918 74.2979 17.12 74.8019 16.504C75.3153 15.888 76.0433 15.58 76.9859 15.58C77.8913 15.58 78.6099 15.888 79.1419 16.504V13.396C79.1419 13.2933 79.1746 13.214 79.2399 13.158C79.3053 13.0927 79.3846 13.06 79.4779 13.06H80.6679C80.7706 13.06 80.8499 13.0927 80.9059 13.158C80.9713 13.214 81.0039 13.2933 81.0039 13.396V22.664C81.0039 22.7573 80.9713 22.8367 80.9059 22.902C80.8499 22.9673 80.7706 23 80.6679 23H79.5619C79.4686 23 79.3893 22.9673 79.3239 22.902C79.2586 22.8367 79.2259 22.7573 79.2259 22.664V22.146C78.6939 22.8087 77.9473 23.14 76.9859 23.14ZM77.5039 21.642C78.0453 21.642 78.4466 21.4693 78.7079 21.124C78.9693 20.7787 79.1139 20.354 79.1419 19.85C79.1513 19.738 79.1559 19.556 79.1559 19.304C79.1559 19.0613 79.1513 18.884 79.1419 18.772C79.1233 18.3053 78.9739 17.9087 78.6939 17.582C78.4233 17.246 78.0266 17.078 77.5039 17.078C76.4959 17.078 75.9593 17.6987 75.8939 18.94L75.8799 19.36L75.8939 19.78C75.9593 21.0213 76.4959 21.642 77.5039 21.642ZM82.8699 14.516C82.7765 14.516 82.6972 14.4833 82.6319 14.418C82.5665 14.3527 82.5339 14.2733 82.5339 14.18V13.172C82.5339 13.0787 82.5665 12.9993 82.6319 12.934C82.6972 12.8687 82.7765 12.836 82.8699 12.836H84.1439C84.2372 12.836 84.3165 12.8687 84.3819 12.934C84.4565 12.9993 84.4939 13.0787 84.4939 13.172V14.18C84.4939 14.2733 84.4612 14.3527 84.3959 14.418C84.3305 14.4833 84.2465 14.516 84.1439 14.516H82.8699ZM82.9259 23C82.8325 23 82.7532 22.9673 82.6879 22.902C82.6225 22.8367 82.5899 22.7573 82.5899 22.664V16.056C82.5899 15.9627 82.6225 15.8833 82.6879 15.818C82.7532 15.7527 82.8325 15.72 82.9259 15.72H84.0879C84.1905 15.72 84.2699 15.7527 84.3259 15.818C84.3912 15.874 84.4239 15.9533 84.4239 16.056V22.664C84.4239 22.7573 84.3912 22.8367 84.3259 22.902C84.2699 22.9673 84.1905 23 84.0879 23H82.9259ZM88.1153 23.14C87.6393 23.14 87.2006 23.0467 86.7993 22.86C86.4073 22.664 86.0946 22.4027 85.8613 22.076C85.6373 21.7493 85.5253 21.39 85.5253 20.998C85.5253 20.3633 85.7819 19.85 86.2953 19.458C86.8086 19.066 87.5133 18.8 88.4093 18.66L90.3273 18.38V18.086C90.3273 17.6753 90.2246 17.3673 90.0193 17.162C89.8139 16.9567 89.4826 16.854 89.0253 16.854C88.7173 16.854 88.4653 16.9147 88.2693 17.036C88.0826 17.148 87.9333 17.26 87.8213 17.372C87.7093 17.4933 87.6346 17.5727 87.5973 17.61C87.5599 17.722 87.4899 17.778 87.3873 17.778H86.3093C86.2253 17.778 86.1506 17.75 86.0853 17.694C86.0293 17.638 86.0013 17.5633 86.0013 17.47C86.0106 17.2367 86.1226 16.9707 86.3373 16.672C86.5613 16.3733 86.9019 16.1167 87.3593 15.902C87.8166 15.6873 88.3766 15.58 89.0393 15.58C90.1406 15.58 90.9433 15.8273 91.4473 16.322C91.9513 16.8167 92.2033 17.4653 92.2033 18.268V22.664C92.2033 22.7573 92.1706 22.8367 92.1053 22.902C92.0493 22.9673 91.9699 23 91.8673 23H90.7333C90.6399 23 90.5606 22.9673 90.4953 22.902C90.4299 22.8367 90.3973 22.7573 90.3973 22.664V22.118C90.1919 22.4167 89.8979 22.664 89.5153 22.86C89.1419 23.0467 88.6753 23.14 88.1153 23.14ZM88.5913 21.81C89.1046 21.81 89.5246 21.642 89.8513 21.306C90.1779 20.97 90.3413 20.48 90.3413 19.836V19.542L88.9413 19.766C88.3999 19.85 87.9893 19.9853 87.7093 20.172C87.4386 20.3587 87.3033 20.5873 87.3033 20.858C87.3033 21.1567 87.4293 21.39 87.6813 21.558C87.9333 21.726 88.2366 21.81 88.5913 21.81Z" fill="#A7B0B9"/>
<path fill-rule="evenodd" clip-rule="evenodd" d="M19.3466 29.4117H42.3555V24.8534L44.399 24.8752V29.4117H57.6057C55.7644 28.6363 53.9051 27.8899 52.1432 26.9804C51.2767 26.5347 50.403 25.9731 49.6485 25.3462C47.4028 23.4729 49.2694 21.4184 49.2694 19.0849C49.2694 18.1718 47.7566 14.6353 45.807 12.4323C45.1572 11.6967 44.4568 11.1133 43.7491 10.8198C43.2184 10.6024 42.5541 10.1604 41.6623 9.26176C39.868 7.44641 39.182 6.0224 36.4742 6.00066C33.9506 5.97891 30.2752 6.49344 28.3112 8.27618C28.1234 8.44648 27.9501 8.64577 27.8671 8.88854C27.6107 9.63859 28.3003 10.3524 28.535 11.1133C28.6939 11.6351 28.6289 12.2221 28.3545 12.6968C27.0692 14.9143 25.5203 16.6971 23.7621 18.5885C22.762 19.6647 22.3793 20.6901 22.1627 22.1069C22.0291 22.9801 21.8378 24.1722 20.6788 24.0635C20.2203 24.0201 19.7907 23.8135 19.3322 23.7773C18.2238 23.6903 17.4187 24.7121 16.4908 25.1542C14.5592 26.0782 13.9996 27.5819 13.292 29.4081H19.3394L19.3466 29.4117Z" fill="#B17C57"/>
<path fill-rule="evenodd" clip-rule="evenodd" d="M16.4041 36.9304C16.7399 36.9231 16.9168 36.6043 16.9385 35.9702V34.9592C16.9168 34.3251 16.7399 34.0063 16.4041 33.999H15.859V35.9376C15.859 36.6115 16.0395 36.9413 16.4041 36.9268V36.9304Z" fill="#B17C57"/>
<path fill-rule="evenodd" clip-rule="evenodd" d="M72.9643 36.9304C73.3 36.9231 73.4769 36.6043 73.4986 35.9702V35.8397C73.1376 35.8289 72.7801 35.8071 72.4227 35.7673V35.9412C72.4227 36.6152 72.6032 36.9449 72.9679 36.9304H72.9643Z" fill="#B17C57"/>
<path fill-rule="evenodd" clip-rule="evenodd" d="M59.8658 33.3287L60.3893 31.9808L62.8372 31.9699C62.8588 31.9699 62.8805 31.9699 62.9022 31.9699C62.2739 31.5967 61.6313 31.2525 60.9778 30.9263H59.8767L59.8658 33.3251V33.3287Z" fill="#B17C57"/>
<path fill-rule="evenodd" clip-rule="evenodd" d="M70.9316 57.5587H67.9711C67.2743 57.5587 66.9169 57.8957 66.9024 58.566C66.8952 59.2617 67.2274 59.6132 67.8989 59.6132H69.5416L69.4586 59.9429C69.6969 59.8233 69.9352 59.7074 70.1771 59.6023C70.6211 59.3378 70.8305 59.0044 70.928 58.6457V57.5623L70.9316 57.5587Z" fill="#B17C57"/>
<path fill-rule="evenodd" clip-rule="evenodd" d="M98.5438 34.0896C98.5438 32.9663 97.8397 31.7779 96.6952 31.7163C95.8613 31.6728 95.0561 31.9192 94.233 31.9228C93.4206 31.9264 92.6733 31.6981 91.8898 32.0677C91.2436 32.3757 90.749 33.0352 90.1821 33.4664C89.3265 34.1186 88.4708 34.7708 87.5538 35.3325C85.5825 36.5354 83.7485 35.9919 81.5858 35.7274C80.0514 35.5426 79.0044 36.3796 77.5422 36.405C77.5242 36.405 77.5025 36.405 77.4845 36.405C76.8093 36.405 76.1558 36.1948 75.5024 36.0282C75.4662 37.9884 74.625 38.9668 72.9787 38.9668C71.2927 38.974 70.4514 37.9631 70.4514 35.9339V35.4122C70.1301 35.3361 69.8124 35.2455 69.4947 35.1513V39.5828C69.4947 40.235 69.8449 40.5647 70.5417 40.5647H73.7946L73.3217 42.5757H70.5128C68.473 42.5757 67.4512 41.5793 67.4512 39.5828V34.9955C67.4512 34.7926 67.4621 34.6078 67.4801 34.4266C66.8699 34.1693 66.267 33.8867 65.6821 33.5823C65.8266 33.9737 65.9024 34.4375 65.9024 34.9701C65.9096 36.9014 64.9926 37.9087 63.1513 37.9957L64.0466 39.5936C64.3571 40.1335 64.812 40.2313 65.415 39.8871L65.6785 39.7458L65.2164 42.1192C63.9889 42.4163 63.0105 41.9126 62.2848 40.6118L60.0897 36.6804L61.2378 36.0245H62.8805C63.552 36.0245 63.8842 35.6731 63.877 34.9737C63.8625 34.2998 63.5087 33.9628 62.8083 33.9628L59.8767 33.9737V42.5721L57.8332 42.0684V30.9227H52.562V31.9518H52.7714C54.8113 31.9518 55.8294 32.9482 55.8294 34.9447V39.0682C55.8294 41.0611 54.8113 42.0612 52.7714 42.0612H50.4175C48.3848 42.0612 47.3703 41.0647 47.3703 39.0682V34.9447C47.3703 32.9518 48.3848 31.9518 50.4175 31.9518H50.5691V30.9227H44.399V42.5649L42.3555 42.0612V30.9263H33.2538V31.9663H36.254C38.2938 31.9663 39.312 32.9374 39.3047 34.8759V38.9885C39.312 41.0176 38.3047 42.0322 36.2829 42.0322L35.1456 42.0539L34.6438 40.0538H36.2865C36.958 40.0538 37.2902 39.7023 37.2829 39.003V34.9085C37.2757 34.2889 36.9219 33.9773 36.2251 33.9773H33.2538V45.6085L31.2103 45.1049V30.9263H29.9828L25.885 36.9087L27.0042 38.5972V38.608L28.0729 40.1842C28.4086 40.4886 28.73 40.5466 29.0405 40.3654C29.1415 41.8691 29.1849 42.6192 29.1704 42.6192C28.9574 42.6409 28.7516 42.6409 28.5567 42.6301C27.5241 42.5757 26.802 42.1445 26.3904 41.3365L24.6502 38.7095L21.9316 42.6808L20.2492 41.5177L23.4227 36.8688L22.7692 35.8796V35.8687L21.7114 34.2925C21.3756 33.9845 21.0543 33.9229 20.7438 34.1114C20.6427 32.604 20.5994 31.8467 20.6138 31.8467C21.9822 31.738 22.91 32.1692 23.3938 33.1403L24.6611 35.0607L27.4916 30.9263H15.8734V31.9554H16.4258C18.0902 31.9554 18.935 32.9555 18.9531 34.9556V35.9666C18.935 37.9667 18.0902 38.9668 16.4258 38.9668C14.7398 38.974 13.8985 37.9631 13.8985 35.9339L13.8877 34.0135L13.4148 34.0244C13.1007 34.0244 12.9418 34.3251 12.9418 34.923V39.5828C12.9418 40.235 13.292 40.5647 13.9888 40.5647H17.2418L16.7688 42.5757H13.9599C11.9201 42.5757 10.8983 41.5793 10.8983 39.5828V34.9955C10.8983 32.9591 11.7432 31.9518 13.4364 31.9626L13.8877 31.9409L13.8769 30.9191H11.2991C9.95602 31.18 8.25914 31.1727 7.67065 31.1727C5.60191 31.1727 3.57288 30.7705 1.50774 30.7379C1.20447 30.7343 0.89398 30.7379 0.612371 30.8394C0.327152 30.9445 0.0708153 31.1727 0.0130493 31.4699C-0.0374959 31.7271 0.0672049 31.9916 0.182737 32.2272C0.731514 33.3396 1.58356 34.2635 2.35979 35.231C3.13602 36.1985 4.22997 37.5645 3.99168 38.8834C3.78589 40.0284 2.59086 40.6372 2.28036 41.7351C2.03847 42.5938 2.59808 43.5287 3.37431 43.9599C4.50796 44.5867 5.93045 44.3693 7.16159 44.2498C9.38919 44.036 11.8479 43.8983 13.8336 44.4744C16.6027 45.2752 17.0143 48.0326 19.5018 49.703C20.39 50.2973 21.3648 51.0908 21.9461 51.743C23.2964 53.2576 22.3288 55.3447 24.1376 56.8195C25.477 57.9138 26.9139 58.6058 27.4447 57.8341C27.9898 57.0405 28.7805 56.6347 29.6362 57.1637C31.3944 58.2544 32.1129 61.6314 32.6761 63.4287C33.8278 67.092 34.7232 70.8314 35.698 74.5454C36.7089 78.3971 37.7342 82.267 39.1315 85.9955C40.1135 88.6189 41.6876 93.2098 44.8142 93.9417C46.6266 94.3656 47.2837 92.3764 48.2007 91.2495C49.5149 89.6334 51.0457 88.0427 51.4717 85.9194C51.6811 84.8795 51.4392 83.8178 51.7858 82.7815C52.0024 82.1256 52.5729 81.5604 52.6704 80.8719C52.7931 79.9987 52.6559 79.1182 52.5151 78.2558C52.2515 76.6325 51.7497 74.8244 52.5729 73.2663C53.23 72.0235 55.7283 71.5307 56.9017 70.69C58.4397 69.5921 59.79 68.2478 61.1258 66.918C62.978 65.0737 64.8373 63.0808 66.9602 61.4974C65.5738 61.2075 64.8842 60.2255 64.8879 58.5479C64.8879 56.5405 65.9096 55.5368 67.9495 55.5368H70.9388V53.9896C70.9388 53.3374 69.5922 53.3482 66.9024 54.0294V50.4821H64.6965V50.493L59.3495 50.5038V50.4821H58.7538V61.6278L56.7104 62.1315V53.533H53.739C53.0422 53.533 52.6884 53.841 52.6812 54.4606V58.5479C52.674 59.2472 53.0061 59.5987 53.6776 59.5987H55.3204L54.8185 61.6097L53.6813 61.5879C51.6595 61.5879 50.6558 60.5734 50.6594 58.5442V54.4316C50.6522 52.4931 51.6703 51.522 53.7101 51.522H56.7104V50.4821H39.8427V50.493L34.4957 50.5038V48.9784L39.4203 48.9675H56.7104V47.4927C56.7104 46.8405 56.3602 46.5108 55.6634 46.5108H55.129L55.6922 44.4998C57.7321 44.4998 58.7538 45.4962 58.7538 47.4927V48.9675H60.0319V48.9747L63.8192 48.9675H74.2604V50.4821H68.964V51.5111H69.9207C71.9606 51.5111 72.9823 52.5076 72.9823 54.5041V55.5332C75.3471 55.3339 77.6289 55.6237 79.9648 54.8411C80.4233 54.6889 80.8602 54.4244 81.2934 54.1418C81.8205 53.8012 82.3043 53.6635 82.7484 53.6635C84.0048 53.6635 84.7594 55.8991 86.0844 55.4027C86.2938 55.323 86.4526 55.1962 86.5754 55.0331C87.1314 54.2867 86.922 52.812 87.1458 52.0836C87.431 51.1452 87.9581 49.1668 89.164 49.011C91.7563 48.6812 92.5433 45.3078 93.2221 43.2895C93.6409 42.0467 94.0813 40.7531 94.9117 39.7168C95.4388 39.0537 96.1898 38.3327 97.0346 38.1116C97.652 37.9486 98.2658 38.3073 98.8759 38.1986C99.8254 38.0283 99.8038 36.5318 99.9699 35.7963C100.244 34.5969 98.551 34.7165 98.551 34.0751L98.5438 34.0896ZM60.3496 51.5256C62.3895 51.5256 63.4112 52.5221 63.4112 54.5186V61.6423L61.3677 62.146V54.515C61.3677 53.8628 61.0175 53.533 60.3207 53.533H59.7683L60.3532 51.522L60.3496 51.5256ZM40.5539 51.5148L42.5974 51.5365L42.5866 52.8917L43.1101 51.5365H45.5904C47.6339 51.5365 48.6556 52.5076 48.6556 54.4461L48.6845 62.0554L46.6194 61.6024L46.6085 54.4787C46.6013 53.8591 46.2511 53.5475 45.5507 53.5475H42.5902V62.146L40.5467 61.6423V51.5148H40.5539ZM35.4994 51.5256C37.5393 51.5256 38.561 52.5221 38.561 54.5186V61.6423L36.5175 62.146V54.515C36.5175 53.8628 36.1673 53.533 35.4705 53.533H34.9145L35.4994 51.522V51.5256ZM37.8859 47.8877L37.1205 48.2718C36.8316 46.797 37.0771 45.71 37.857 45.0071C38.4816 44.4418 39.052 44.1592 39.5683 44.1592C39.6874 44.1592 39.8102 44.1773 39.9293 44.2099L40.5937 45.989C39.0015 46.076 38.0989 46.7101 37.8859 47.8877ZM62.7361 47.8877L61.9707 48.2718C61.6818 46.797 61.9274 45.71 62.7072 45.0071C63.3318 44.4418 63.9022 44.1592 64.4185 44.1592C64.5377 44.1592 64.6604 44.1773 64.7795 44.2099L65.4439 45.989C63.8517 46.076 62.9491 46.7101 62.7361 47.8877Z" fill="#B17C57"/>
<path fill-rule="evenodd" clip-rule="evenodd" d="M49.421 34.952L49.4102 39.0755C49.4102 39.7277 49.7568 40.0574 50.4536 40.0574H52.7426C53.4394 40.0574 53.786 39.7313 53.786 39.0755L53.7751 34.952C53.7823 34.2998 53.4358 33.97 52.739 33.97H50.45C49.7532 33.97 49.4102 34.2961 49.4138 34.952H49.421Z" fill="#B17C57"/>
<path d="M126.28 52.79C127.31 51.54 127.42 50.65 127.51 49.94C127.56 49.56 127.59 49.3 127.75 49.03C127.91 49.3 127.95 49.56 127.99 49.94C128.08 50.65 128.18 51.54 129.22 52.79C130.83 54.74 132.98 55.68 134.4 55.75C135.1 55.78 135.66 55.62 136.01 55.26C136.36 54.91 136.53 54.35 136.5 53.65C136.43 52.23 135.49 50.08 133.54 48.47C132.29 47.44 131.4 47.33 130.69 47.24C130.31 47.19 130.05 47.16 129.78 47C130.05 46.84 130.31 46.8 130.69 46.76C131.4 46.67 132.29 46.57 133.54 45.53C135.49 43.92 136.43 41.77 136.5 40.35C136.53 39.65 136.37 39.09 136.01 38.74C135.66 38.39 135.1 38.22 134.4 38.25C132.98 38.32 130.83 39.26 129.22 41.21C128.19 42.46 128.08 43.35 127.99 44.06C127.94 44.44 127.91 44.7 127.75 44.97C127.59 44.7 127.55 44.44 127.51 44.06C127.42 43.35 127.32 42.46 126.28 41.21C124.67 39.26 122.52 38.32 121.1 38.25C120.4 38.22 119.84 38.39 119.49 38.74C119.17 39.06 119 39.56 119 40.18C119 40.24 119 40.29 119 40.35C119.07 41.77 120.01 43.92 121.96 45.53C123.21 46.56 124.1 46.67 124.81 46.76C125.19 46.81 125.45 46.84 125.72 47C125.45 47.16 125.19 47.2 124.81 47.24C124.1 47.33 123.21 47.43 121.96 48.47C120.01 50.08 119.07 52.24 119 53.65C119 53.71 119 53.77 119 53.82C119 54.44 119.17 54.94 119.49 55.26C119.84 55.61 120.4 55.78 121.1 55.75C122.52 55.68 124.67 54.74 126.28 52.79ZM127.17 47C127.17 46.68 127.43 46.42 127.75 46.42C128.07 46.42 128.33 46.68 128.33 47C128.33 47.32 128.07 47.58 127.75 47.58C127.43 47.58 127.17 47.32 127.17 47ZM132.83 49.32C134.51 50.71 135.33 52.57 135.39 53.7C135.41 54.13 135.32 54.38 135.23 54.47C135.14 54.56 134.89 54.65 134.46 54.63C133.32 54.58 131.47 53.75 130.08 52.07C129.25 51.07 129.17 50.42 129.1 49.79C129.05 49.34 128.99 48.88 128.67 48.39C128.87 48.26 129.04 48.09 129.17 47.89C129.65 48.2 130.12 48.26 130.57 48.32C131.2 48.4 131.84 48.47 132.85 49.3L132.83 49.32ZM130.07 41.91C131.46 40.23 133.32 39.41 134.45 39.35C134.88 39.33 135.13 39.42 135.22 39.51C135.31 39.6 135.4 39.85 135.38 40.28C135.33 41.42 134.5 43.27 132.82 44.66C131.82 45.49 131.17 45.57 130.54 45.64C130.09 45.69 129.63 45.75 129.14 46.07C129.01 45.87 128.84 45.7 128.64 45.57C128.95 45.09 129.01 44.62 129.07 44.17C129.15 43.54 129.22 42.9 130.05 41.89L130.07 41.91ZM122.66 44.67C120.99 43.29 120.16 41.43 120.11 40.3C120.09 39.87 120.18 39.62 120.27 39.53C120.36 39.44 120.61 39.35 121.04 39.37C122.18 39.42 124.03 40.25 125.42 41.93C126.25 42.93 126.33 43.58 126.4 44.21C126.45 44.66 126.51 45.12 126.83 45.61C126.63 45.74 126.46 45.91 126.33 46.11C125.85 45.8 125.38 45.74 124.93 45.68C124.3 45.6 123.66 45.53 122.65 44.7L122.66 44.67ZM120.11 53.71C120.16 52.57 120.99 50.72 122.67 49.33C123.67 48.5 124.32 48.42 124.95 48.35C125.4 48.3 125.86 48.24 126.35 47.92C126.48 48.12 126.65 48.29 126.85 48.42C126.54 48.9 126.48 49.37 126.42 49.82C126.34 50.45 126.27 51.09 125.44 52.1C124.05 53.78 122.19 54.6 121.06 54.66C120.63 54.68 120.38 54.59 120.29 54.5C120.2 54.41 120.11 54.16 120.13 53.73L120.11 53.71Z" fill="#A7B0B9"/>
<path d="M153.654 70.5828C152.554 72.2428 150.904 72.3228 148.504 72.3028C150.794 70.9928 152.084 70.1828 152.414 67.2228C151.864 68.7428 150.684 69.4928 149.384 69.5628C151.794 66.3228 151.884 64.7528 152.264 60.3228C152.484 63.5228 153.064 64.5628 153.774 65.5928C155.114 67.5528 156.074 69.8328 156.264 72.3028C155.584 71.1328 154.504 70.6728 153.644 70.5828H153.654ZM183.704 59.5728C182.224 59.5428 181.124 59.9028 180.334 60.3528C180.874 60.6128 181.494 61.3928 181.664 61.9828C178.134 60.9928 175.644 62.6028 171.444 63.1828C169.294 63.5528 164.494 63.5628 161.044 61.2728C163.514 62.0028 165.714 61.6028 167.954 60.2628C167.954 60.9128 167.694 61.5128 167.294 61.8328C169.374 61.7028 170.444 61.3928 171.764 59.5928C171.994 60.0528 172.134 60.7628 171.894 61.3128C174.024 60.9128 174.934 59.8128 175.424 58.6028C175.764 58.9228 175.934 59.4328 175.964 60.0128C177.984 58.7528 181.154 58.2428 183.694 59.5728H183.704ZM171.634 43.3528C170.054 44.2228 169.274 45.2828 168.864 46.3828C168.454 47.4628 168.414 48.8128 168.524 50.0528C167.684 49.8028 167.174 48.8328 167.344 48.2428C166.744 48.6728 164.244 48.7428 162.824 47.2828C165.514 46.9728 166.584 46.2228 167.944 45.2028C169.054 44.3728 170.064 43.6428 171.644 43.3528H171.634ZM164.614 53.6028L166.224 54.3128L165.904 55.0728L165.074 54.7228L165.454 55.6028L164.984 55.7928L164.644 54.8928L164.294 55.7328L163.544 55.4128L164.194 53.7528L163.794 52.7728L163.154 53.6128L163.344 55.3928L162.534 55.4828L162.414 54.5728L161.844 55.3428L161.444 55.0328L162.044 54.2828L161.154 54.4028L161.054 53.5828L162.804 53.3228L163.434 52.4828L162.404 52.3428L160.984 53.4028L160.474 52.7428L161.204 52.1828L160.254 52.0728L160.324 51.5628L161.264 51.7128L160.714 50.9928L161.374 50.4828L162.464 51.8828L163.494 52.0228L163.104 51.0428L161.494 50.3228L161.814 49.5628L162.644 49.9128L162.264 49.0328L162.734 48.8428L163.074 49.7428L163.424 48.9028L164.174 49.2228L163.524 50.8728L163.924 51.8528L164.564 51.0228L164.364 49.2528L165.174 49.1528L165.294 50.0628L165.864 49.2928L166.274 49.6028L165.674 50.3528L166.584 50.2428L166.684 51.0628L164.924 51.3228L164.304 52.1628L165.334 52.3028L166.764 51.2528L167.254 51.9228L166.524 52.4728L167.474 52.5828L167.404 53.0928L166.464 52.9428L167.014 53.6728L166.364 54.1728L165.264 52.7728L164.234 52.6328L164.614 53.6228V53.6028ZM160.164 35.0228L160.234 34.7828L161.354 31.2628L162.114 31.5128L161.684 32.8028L162.864 32.4128V33.1528L161.444 33.5428L160.864 35.2528L162.604 34.8428L163.134 33.4628L163.854 33.5428L163.364 34.6828L164.664 34.3828L164.854 35.2128L163.524 35.4828L164.444 36.3128L163.824 36.6928L162.774 35.6428L161.014 35.9828L162.234 37.3028L163.694 37.0728L163.984 37.7428L162.754 37.8828L163.664 38.8828L163.044 39.4428L162.154 38.4228L161.904 39.6428L161.264 39.2928L161.644 37.8428L160.474 36.4828L159.954 38.2128L160.874 39.3828L160.444 39.9628L159.714 38.9628L159.324 40.2328L158.574 40.0128L160.164 35.0228ZM156.804 45.8828C164.984 47.4528 170.924 44.0028 171.824 37.7228C172.034 36.2628 171.984 34.7828 171.724 33.3128C171.944 33.3328 173.034 33.5328 174.144 33.3728C175.254 33.2128 175.994 32.6928 175.994 32.6928C174.264 32.3128 172.044 31.3828 171.324 30.2628C171.324 30.2628 172.744 30.2228 173.934 29.3528C175.124 28.4728 175.744 27.1428 175.744 27.1428C175.744 27.1428 173.054 28.3228 171.254 27.4828C169.444 26.6428 169.184 25.8428 169.184 25.8428C169.184 25.8428 170.274 26.0328 171.424 25.4828C172.564 24.9328 172.874 23.7528 172.874 23.7528C168.954 24.9828 166.804 23.5528 164.524 21.7328C164.494 21.7128 164.454 21.6828 164.424 21.6528C164.424 21.6528 165.194 23.5528 164.654 25.6128C164.114 27.6728 161.894 29.6528 161.894 29.6528C161.894 29.6528 163.294 29.5228 164.394 28.8928C165.484 28.2628 166.374 27.2528 166.374 27.2528C166.164 29.2428 164.824 30.3728 162.974 31.4828C162.974 31.4828 165.024 31.4428 166.314 30.6828C167.604 29.9228 168.084 29.4028 168.084 29.4028C168.084 29.4028 168.004 30.9228 167.274 31.9728C166.544 33.0228 164.894 33.7228 164.894 33.7228C165.764 33.9128 167.154 33.7828 168.524 33.1328C168.524 33.1328 168.334 34.3128 167.104 35.8928C165.874 37.4728 164.344 38.3728 164.344 38.3728C165.964 38.7128 167.394 38.2228 168.304 37.6128C168.304 37.6128 166.934 39.5928 164.514 40.7728C162.824 41.5928 160.024 41.9228 158.424 41.8028C158.264 41.7928 158.174 41.7328 158.174 41.7328C159.014 42.8828 160.834 43.5828 162.234 43.3228C162.234 43.3228 161.724 44.2828 160.244 44.9828C158.764 45.6728 156.834 45.8828 156.834 45.8828H156.804ZM162.174 47.3428C162.174 47.3428 160.534 46.9528 159.234 47.7228C157.934 48.4928 157.514 49.9128 157.514 49.9128C156.794 48.8728 156.694 47.6728 156.684 46.2828C156.684 46.2828 155.884 48.1028 155.754 49.5128C155.634 50.7928 155.944 52.2128 156.804 53.1928C156.804 53.1928 156.784 53.1928 156.734 53.1728C155.874 52.9228 155.354 52.4828 154.754 51.8128C155.424 53.9028 157.514 55.8528 160.934 56.1428C157.034 52.9228 159.554 48.5628 162.174 47.3528V47.3428ZM154.354 53.7728C156.094 56.4828 159.414 57.4428 162.574 57.2128C171.444 56.5628 177.604 46.9928 186.264 48.0428C191.304 48.6528 192.904 50.7828 192.904 50.7828L189.694 50.7128C189.694 50.7128 189.804 51.3028 190.094 51.9728C190.384 52.6328 190.914 53.2228 190.914 53.2228C188.124 53.2628 185.834 52.5428 183.514 51.0228C183.514 51.0228 183.454 51.7228 183.704 52.4228C183.954 53.1228 184.274 53.4528 184.274 53.4528C184.274 53.4528 182.674 53.6828 181.374 53.5328C180.074 53.3828 179.164 52.7728 179.164 52.7728C179.164 52.7728 179.164 53.2528 179.564 53.7428C179.964 54.2328 180.614 54.4428 180.614 54.4428C180.464 54.5728 180.194 54.7528 179.994 54.8628C178.394 55.7528 176.834 55.9728 175.014 55.9828C174.024 55.9828 173.094 55.8228 173.094 55.8228C173.804 56.6528 174.414 56.9128 175.264 57.0228C175.264 57.0228 174.504 57.3428 173.534 57.6228C171.994 58.0828 170.444 58.2428 168.864 57.8628C168.614 57.8028 168.484 57.7628 168.484 57.7628C169.004 58.3828 169.934 58.7728 170.604 58.7728C170.604 58.7728 170.424 58.8528 170.124 58.9628C167.954 59.7928 166.064 60.1528 163.524 59.6228C162.634 59.4328 162.084 59.1728 162.084 59.1728C162.264 59.4828 162.444 59.6728 162.764 59.8528C163.114 60.0628 163.854 60.2528 163.854 60.2528C158.884 61.0328 155.404 58.5728 154.344 53.7828L154.354 53.7728ZM153.664 55.9028C154.724 58.2928 156.234 60.0928 158.574 61.3528C164.444 64.5228 169.084 64.0928 168.564 72.2628C168.564 72.2628 167.694 71.3828 166.524 70.7928C165.354 70.2028 164.334 70.0828 164.334 70.0828C163.694 71.3028 162.894 71.9028 161.454 72.3328C161.454 72.3328 161.924 71.4028 161.894 70.3528C161.864 69.3028 161.474 68.5728 161.474 68.5728C160.904 70.4928 158.984 71.9028 156.994 72.2928C156.994 72.2928 158.124 70.8528 158.594 69.3928C159.074 67.9228 159.014 66.5828 159.014 66.5828C158.394 67.5528 157.744 68.0828 156.524 68.4528C156.524 68.4528 156.954 66.9828 156.734 65.4428C156.524 63.9028 155.724 63.0428 155.724 63.0428C155.124 63.7428 154.784 64.4028 154.504 65.4028C154.504 65.4028 152.954 62.3228 153.144 59.5028C153.334 56.6828 153.674 55.9028 153.674 55.9028H153.664ZM166.444 21.6628C166.444 21.6628 168.204 23.1828 170.384 23.1528C172.564 23.1128 174.204 22.7328 174.204 22.7328C174.204 22.7328 174.344 24.1828 173.614 25.1128C172.884 26.0428 171.954 26.3528 171.954 26.3528C171.954 26.3528 172.954 26.8128 174.324 26.3928C175.704 25.9728 177.494 24.1428 177.494 24.1428C177.714 24.6328 177.824 26.0928 177.554 27.1128C177.554 27.1128 179.654 26.4128 180.874 24.6228C182.094 22.8328 182.384 21.6728 182.384 21.6728H166.444V21.6628ZM187.564 34.3528C187.564 34.3528 186.774 38.4928 183.184 40.7428C180.154 42.6328 176.454 43.1428 176.454 43.1428C178.604 44.0228 179.444 45.5628 179.894 47.7528C179.894 47.7528 180.394 46.9928 180.414 45.9228C180.434 44.8528 180.054 44.2428 180.054 44.2428C181.294 44.8128 181.814 45.5528 182.354 46.8328C182.354 46.8328 182.734 46.1628 182.724 44.9228C182.724 43.6828 182.414 42.9428 182.414 42.9428C183.264 43.0128 183.844 44.0128 184.054 44.9428C184.124 45.2428 188.724 41.6728 187.564 34.3428V34.3528ZM188.704 37.9228C188.844 40.0128 188.074 43.3428 184.124 46.8128C184.124 46.8128 186.364 46.6228 188.644 47.0828C190.914 47.5428 192.154 48.3928 192.154 48.3928C191.594 46.9928 189.604 45.2328 188.824 44.9428C189.704 43.0728 189.454 40.3028 188.704 37.9228ZM177.054 41.7528C176.214 38.7428 176.084 34.9428 176.534 31.7728C175.564 31.6528 174.554 31.3228 173.754 30.7128C173.754 30.7128 173.864 30.6928 173.994 30.6728C175.484 30.3628 176.694 29.1628 177.264 27.7828C177.264 29.0528 177.574 30.5228 178.504 31.4628C179.684 32.6628 182.134 32.8728 182.134 32.8728C181.644 33.6228 181.014 34.1328 180.304 34.6428C180.234 34.6928 179.864 34.9328 179.864 34.9328C183.034 35.6928 184.594 34.7828 187.014 32.7528C187.014 32.7528 186.984 36.3728 183.984 38.9028C180.984 41.4328 177.064 41.7528 177.064 41.7528H177.054ZM183.364 21.6628C183.364 21.6628 184.844 26.3428 185.384 28.0028C185.924 29.6628 186.034 31.3228 185.174 32.5928C184.314 33.8628 181.794 34.2528 181.794 34.2528C182.774 33.3928 183.634 32.4828 183.814 31.1428C183.814 31.1428 183.014 31.6728 181.114 31.3828C179.214 31.0828 178.264 28.7328 178.264 28.7328C178.264 28.7328 180.574 27.7728 181.854 25.9328C183.134 24.0928 183.364 21.6628 183.364 21.6628ZM187.374 72.3128C184.264 72.4528 182.314 72.1928 181.114 71.0928C180.804 71.6328 180.434 71.9428 179.864 72.2628V64.4728C180.704 68.6928 182.264 71.7828 187.374 72.3128ZM199.874 72.3028C198.364 72.0228 197.384 70.7728 197.154 69.7728C196.704 70.8928 195.974 71.7528 194.374 72.3028C194.834 71.5628 195.094 70.9628 195.074 69.3728C192.714 72.2228 191.714 72.0028 188.404 72.3028C194.174 70.7828 195.254 65.0928 193.614 61.1128C193.424 62.2428 192.854 62.7728 192.854 62.7728C192.834 60.2028 191.824 58.1828 190.464 57.2628C191.034 58.9028 190.624 60.1628 190.644 60.4028C189.874 58.2628 188.714 56.6928 186.914 56.2128C187.434 57.6028 187.204 58.5728 186.944 59.2828C186.014 57.1928 184.714 56.2428 183.054 56.1928C183.494 56.6328 183.804 57.3728 183.864 57.9528C182.314 56.9228 180.594 56.8128 178.744 57.4928C181.784 55.0528 185.264 54.4528 188.044 54.7328C189.244 54.8528 191.024 55.2428 191.824 53.9728C192.434 53.0028 192.214 51.7028 192.214 51.7028C192.214 51.7028 193.614 52.6328 193.524 54.7028C193.484 55.6228 193.284 56.2828 193.064 56.7328C196.794 59.9128 197.784 66.3528 199.884 72.3128L199.874 72.3028ZM184.584 66.5628L184.004 68.2728L183.124 68.2128L183.684 66.8128L182.114 67.2228L181.854 66.2328L183.444 65.8528L182.304 64.8828L183.044 64.4028L184.354 65.6228L186.474 65.1428L184.944 63.5928L183.194 63.9328L182.824 63.1328L184.284 62.9228L183.134 61.7328L183.874 61.0528L184.994 62.2328L185.254 60.7528L186.034 61.1728L185.644 62.9228L187.124 64.5228L187.684 62.4128L186.514 61.0528L187.014 60.3228L187.934 61.5128L188.354 59.9228L189.334 60.2028L188.874 61.7828L190.274 61.2628L190.314 62.1528L188.614 62.6828L187.984 64.7728L190.064 64.2028L190.644 62.5128L191.514 62.5728L190.964 63.9728L192.524 63.5628L192.784 64.5528L191.194 64.9328L192.334 65.9028L191.594 66.3828L190.284 65.1628L188.174 65.6528L189.704 67.1928L191.454 66.8528L191.824 67.6528L190.344 67.8728L191.484 69.0428L190.764 69.7528L189.654 68.5528L189.394 70.0328L188.614 69.6328L189.014 67.8728L187.544 66.2828L186.984 68.3928L188.144 69.7628L187.644 70.4828L186.724 69.3028L186.284 70.8528L185.304 70.5928L185.774 69.0328L184.374 69.5328L184.334 68.6528L186.034 68.1128L186.664 66.0228L184.574 66.5728L184.584 66.5628Z" fill="#B17C57"/>
<path opacity="0.9" d="M256.283 29.7728V33.6228C256.283 34.9328 255.523 35.7828 254.183 35.7828H253.983C253.983 35.7828 254.783 34.8828 254.783 33.6228V28.4228H260.103V35.6728H258.543V29.7728H256.273H256.283ZM223.103 29.7728V33.6228C223.103 34.9328 222.343 35.7828 221.003 35.7828H220.803C220.803 35.7828 221.603 34.8828 221.603 33.6228V28.4228H226.923V35.6728H225.373V29.7728H223.103ZM229.723 32.5828L229.373 32.9628V35.6828H227.853V28.4228H229.373V31.0428L232.053 28.4228H234.113L230.853 31.4628L234.173 35.6828H232.173L229.713 32.5928L229.723 32.5828ZM243.303 29.7728V35.6728H241.743V28.4228H246.613V29.7828H243.293L243.303 29.7728ZM271.663 32.5728H268.833V35.6728H267.273V28.4128H268.833V31.2528H271.663V28.4128H273.223V35.6628H271.663V32.5628V32.5728ZM216.703 25.8628H214.983L211.273 35.6728H213.023L214.013 32.9328H217.513L218.453 35.6728H220.273L216.703 25.8628ZM214.543 31.4128L215.783 28.0328L216.913 31.4128H214.543ZM240.613 30.2128C240.363 29.6228 239.983 29.1428 239.463 28.7828C238.913 28.3828 238.263 28.2228 237.583 28.2228C236.903 28.2228 236.263 28.3828 235.703 28.7828C235.183 29.1428 234.803 29.6228 234.553 30.2128C234.303 30.7928 234.183 31.4128 234.183 32.0428C234.183 32.6728 234.303 33.2928 234.553 33.8728C234.803 34.4628 235.183 34.9428 235.703 35.3028C236.263 35.7028 236.903 35.8628 237.583 35.8628C238.263 35.8628 238.913 35.7028 239.463 35.3028C239.983 34.9428 240.363 34.4528 240.613 33.8728C240.863 33.2928 240.983 32.6828 240.983 32.0428C240.983 31.4028 240.863 30.7928 240.613 30.2128ZM239.223 33.1528C239.113 33.5128 238.923 33.8328 238.653 34.0928C238.363 34.3728 237.983 34.4628 237.583 34.4628C237.183 34.4628 236.803 34.3728 236.513 34.0928C236.243 33.8228 236.053 33.5128 235.943 33.1428C235.843 32.7828 235.783 32.4128 235.783 32.0428C235.783 31.6728 235.843 31.2928 235.943 30.9328C236.053 30.5728 236.243 30.2628 236.513 29.9928C236.803 29.7128 237.193 29.6128 237.583 29.6128C237.973 29.6128 238.363 29.7128 238.653 29.9928C238.923 30.2528 239.113 30.5628 239.223 30.9328C239.323 31.2928 239.383 31.6628 239.383 32.0428C239.383 32.4228 239.323 32.7928 239.223 33.1528ZM253.403 30.2128C253.153 29.6228 252.773 29.1428 252.263 28.7828C251.703 28.3828 251.053 28.2228 250.383 28.2228C249.713 28.2228 249.053 28.3828 248.493 28.7828C247.983 29.1428 247.603 29.6228 247.353 30.2128C247.103 30.7928 246.983 31.4128 246.983 32.0428C246.983 32.6728 247.103 33.2928 247.353 33.8728C247.603 34.4628 247.983 34.9428 248.493 35.3028C249.053 35.7028 249.703 35.8628 250.383 35.8628C251.063 35.8628 251.703 35.7028 252.263 35.3028C252.773 34.9428 253.153 34.4528 253.403 33.8728C253.653 33.2928 253.773 32.6828 253.773 32.0428C253.773 31.4028 253.653 30.7928 253.403 30.2128ZM252.013 33.1528C251.913 33.5128 251.723 33.8328 251.443 34.0928C251.153 34.3728 250.773 34.4628 250.383 34.4628C249.993 34.4628 249.603 34.3728 249.313 34.0928C249.033 33.8228 248.843 33.5128 248.743 33.1428C248.643 32.7828 248.573 32.4128 248.573 32.0428C248.573 31.6728 248.643 31.2928 248.743 30.9328C248.843 30.5728 249.033 30.2628 249.313 29.9928C249.603 29.7128 249.983 29.6128 250.383 29.6128C250.783 29.6128 251.153 29.7128 251.443 29.9928C251.723 30.2528 251.913 30.5628 252.013 30.9328C252.113 31.2928 252.173 31.6628 252.173 32.0428C252.173 32.4228 252.113 32.7928 252.013 33.1528ZM263.823 31.3028H262.533V28.4228H260.983V35.6728H263.823C264.343 35.6728 264.903 35.6028 265.373 35.3828C265.763 35.2028 266.093 34.9428 266.313 34.5728C266.513 34.2328 266.603 33.8528 266.603 33.4628C266.603 31.7928 265.303 31.3028 263.823 31.3028ZM264.783 34.1128C264.553 34.2928 264.093 34.3228 263.813 34.3228H262.533V32.6228H263.823C264.113 32.6228 264.543 32.6528 264.783 32.8228C264.983 32.9628 265.033 33.2028 265.033 33.4328C265.033 33.6628 264.983 33.9528 264.783 34.1128ZM279.533 28.9728C279.203 28.6728 278.823 28.4628 278.393 28.3628C278.043 28.2828 277.673 28.2228 277.323 28.2228C276.563 28.2228 275.753 28.3528 275.133 28.8128C274.523 29.2628 274.303 29.9628 274.283 30.6928V30.9028H275.713L275.743 30.7328C275.783 30.4228 275.893 30.1328 276.093 29.8828C276.323 29.6228 276.803 29.5828 277.123 29.5828C277.773 29.5828 278.543 29.6928 278.543 30.4928C278.543 30.8128 278.463 31.0728 278.113 31.1028L276.203 31.3428C275.533 31.4228 274.773 31.6428 274.383 32.2328C274.103 32.6828 273.933 33.1628 273.933 33.6928C273.933 34.0928 274.033 34.4828 274.243 34.8228C274.443 35.1628 274.733 35.4228 275.083 35.6028C275.463 35.7928 275.873 35.8728 276.293 35.8728C276.823 35.8728 277.383 35.7928 277.863 35.5328C278.143 35.3728 278.413 35.1828 278.653 34.9628C278.703 35.1428 278.783 35.3128 278.913 35.4628C279.143 35.7228 279.533 35.7928 279.863 35.8028H280.073V30.3228C280.063 29.8028 279.923 29.3228 279.533 28.9728ZM278.513 33.1028C278.513 33.3628 278.423 33.5928 278.253 33.7928C278.063 34.0328 277.813 34.2028 277.533 34.3228C277.233 34.4528 276.913 34.5128 276.583 34.5128C275.883 34.5128 275.533 34.2328 275.533 33.5228C275.533 33.3428 275.573 33.1628 275.703 33.0328C275.833 32.9028 275.983 32.8028 276.163 32.7528C276.383 32.6828 276.603 32.6428 276.833 32.6028C277.283 32.5528 277.783 32.4928 278.223 32.3828C278.313 32.3628 278.413 32.3328 278.513 32.3028V33.1028ZM283.933 28.4228C283.243 28.4228 282.523 28.5528 281.963 28.9828C281.433 29.3928 281.213 29.9628 281.213 30.6228C281.213 31.0228 281.313 31.4028 281.523 31.7428C281.713 32.0428 281.963 32.3028 282.273 32.4928C282.433 32.5828 282.603 32.6628 282.773 32.7128L280.613 35.6728H282.523L284.563 32.7928H285.513V35.6728H287.073V28.4228H283.933ZM285.513 31.4728H283.933C283.323 31.4728 282.843 31.3128 282.843 30.6228C282.843 29.9328 283.333 29.7828 283.933 29.7828H285.513V31.4728ZM218.463 43.8428C218.343 43.2828 218.083 42.7428 217.563 42.4428C217.083 42.1728 216.563 42.0428 216.003 42.0428C215.443 42.0428 214.983 42.1628 214.533 42.4428C214.063 42.7228 213.733 43.1428 213.503 43.6328C213.213 44.2328 213.113 44.9228 213.113 45.5828C213.113 46.5228 213.263 47.5428 213.813 48.3228C214.333 49.0728 215.173 49.2928 216.043 49.2928C216.373 49.2928 216.703 49.2228 217.003 49.0928C217.373 48.9528 217.673 48.6728 217.913 48.3628C218.243 47.9428 218.433 47.3828 218.533 46.8628L218.563 46.7028H220.193L220.163 46.9328C220.033 47.8428 219.733 48.7828 219.073 49.4628C218.603 49.9528 218.033 50.3928 217.363 50.5728C216.873 50.7128 216.343 50.8128 215.833 50.8128C215.263 50.8128 214.703 50.7228 214.163 50.5128C213.623 50.3128 213.143 49.9928 212.733 49.5828C212.273 49.1228 211.953 48.5528 211.733 47.9428C211.463 47.2028 211.373 46.3928 211.373 45.6028C211.373 44.9028 211.463 44.2128 211.683 43.5528C211.883 42.9528 212.183 42.4028 212.593 41.9328C212.993 41.4728 213.493 41.1228 214.053 40.8728C214.663 40.6128 215.313 40.5028 215.973 40.5028C216.693 40.5028 217.413 40.6228 218.073 40.9528C218.633 41.2328 219.113 41.6228 219.463 42.1528C219.783 42.6428 219.993 43.1828 220.063 43.7628L220.093 43.9828H218.463L218.433 43.8228L218.463 43.8428ZM222.793 47.9628L225.453 43.3328H227.173V50.5928H225.613V45.9428L222.883 50.5928H221.233V43.3328H222.793V47.9628ZM237.233 47.9628L239.893 43.3328H241.613V50.5928H240.053V45.9428L237.323 50.5928H235.673V43.3328H237.233V47.9628ZM254.643 45.8628C254.513 45.0228 254.083 44.5628 253.203 44.5628C252.653 44.5628 252.213 44.7528 251.933 45.2328C251.623 45.7528 251.503 46.3528 251.503 46.9528C251.503 48.1328 251.773 49.3828 253.183 49.3828C253.543 49.3828 253.833 49.2528 254.093 49.0128C254.393 48.7228 254.553 48.3228 254.633 47.9228L254.663 47.7628H256.163L256.143 47.9828C256.063 48.7128 255.793 49.3528 255.323 49.9128C254.773 50.5728 253.973 50.7828 253.143 50.7828C252.523 50.7828 251.923 50.6428 251.393 50.3128C250.883 49.9928 250.513 49.5528 250.253 49.0028C249.973 48.4228 249.863 47.7828 249.863 47.1428C249.863 46.4428 249.973 45.7528 250.233 45.1028C250.483 44.5028 250.873 44.0128 251.403 43.6528C251.983 43.2628 252.663 43.1228 253.353 43.1228C253.883 43.1228 254.413 43.2228 254.873 43.5128C255.273 43.7628 255.583 44.1028 255.783 44.5228C255.983 44.9328 256.103 45.3628 256.133 45.8128L256.153 46.0228H254.653L254.623 45.8528L254.643 45.8628ZM258.853 47.4928L258.503 47.8728V50.5928H256.983V43.3328H258.503V45.9528L261.183 43.3328H263.243L259.983 46.3728L263.303 50.5928H261.303L258.843 47.5028L258.853 47.4928ZM234.553 45.2728C234.303 44.7128 233.943 44.2428 233.443 43.8728C232.933 43.5028 232.343 43.3328 231.713 43.3328C231.353 43.3328 230.963 43.3628 230.613 43.4628C230.333 43.5528 230.073 43.6728 229.843 43.8628C229.803 43.8928 229.763 43.9228 229.723 43.9528C229.903 43.5528 230.153 43.1828 230.523 42.9128C231.233 42.4028 232.113 42.3428 232.963 42.3428C233.543 42.3428 234.113 41.8628 234.113 41.2528V41.0528H233.223C232.063 41.0528 230.863 41.0928 229.853 41.7428C229.123 42.2128 228.693 42.9228 228.443 43.7428C228.173 44.6328 228.113 45.5528 228.113 46.4828C228.113 47.1428 228.183 47.8328 228.403 48.4628C228.573 48.9528 228.823 49.4328 229.183 49.8128C229.493 50.1328 229.843 50.3928 230.263 50.5528C230.633 50.7028 231.023 50.7828 231.423 50.7828C232.113 50.7828 232.793 50.6328 233.373 50.2428C233.893 49.8928 234.293 49.4328 234.553 48.8528C234.803 48.2828 234.923 47.6828 234.923 47.0628C234.923 46.4428 234.793 45.8428 234.553 45.2728ZM233.163 48.0628C233.063 48.4228 232.873 48.7328 232.603 49.0028C232.313 49.2928 231.933 49.3828 231.533 49.3828C231.133 49.3828 230.743 49.2928 230.453 49.0028C230.183 48.7328 229.993 48.4228 229.893 48.0628C229.793 47.7328 229.723 47.3928 229.723 47.0628C229.723 46.7328 229.793 46.3728 229.893 46.0528C229.993 45.6928 230.183 45.3828 230.453 45.1128C230.743 44.8228 231.123 44.7228 231.533 44.7228C231.943 44.7228 232.313 44.8228 232.603 45.1128C232.873 45.3828 233.063 45.6928 233.163 46.0528C233.253 46.3728 233.323 46.7228 233.323 47.0628C233.323 47.4028 233.263 47.7328 233.163 48.0628ZM248.723 44.9328C248.493 44.3928 248.143 43.9528 247.663 43.6128C247.173 43.2728 246.603 43.1328 246.013 43.1328C245.533 43.1328 245.023 43.2128 244.633 43.5028C244.453 43.6428 244.283 43.8028 244.133 43.9728V43.3328H242.643V53.3028H244.203V50.1828C244.333 50.3028 244.483 50.4028 244.643 50.4928C245.013 50.7028 245.433 50.7828 245.853 50.7828C246.553 50.7828 247.213 50.6128 247.753 50.1528C248.243 49.7428 248.573 49.2228 248.783 48.6128C248.983 48.0128 249.073 47.3928 249.073 46.7528C249.073 46.1128 248.973 45.5128 248.723 44.9328ZM247.283 48.2428C247.173 48.5728 246.993 48.8728 246.723 49.0928C246.463 49.3028 246.153 49.3828 245.823 49.3828C245.373 49.3828 244.993 49.2028 244.663 48.9028C244.233 48.5028 244.143 47.8328 244.143 47.2828C244.143 46.1328 244.333 44.5728 245.793 44.5728C246.183 44.5728 246.613 44.6428 246.893 44.9328C247.133 45.1828 247.303 45.4628 247.373 45.8028C247.453 46.1828 247.483 46.5628 247.483 46.9428C247.483 47.3828 247.433 47.8328 247.283 48.2428ZM273.473 43.3328C272.783 43.3328 272.063 43.4628 271.503 43.8928C270.973 44.3028 270.753 44.8828 270.753 45.5328C270.753 45.9328 270.853 46.3128 271.063 46.6528C271.253 46.9528 271.503 47.2128 271.813 47.4028C271.963 47.5028 272.133 47.5828 272.313 47.6328L270.153 50.5928H272.063L274.103 47.7028H275.053V50.5928H276.603V43.3328H273.473ZM275.053 46.3828H273.473C272.863 46.3828 272.383 46.2228 272.383 45.5328C272.383 44.8428 272.873 44.6928 273.473 44.6928H275.053V46.3828ZM268.853 43.8828C268.523 43.5828 268.153 43.3728 267.713 43.2728C267.363 43.1928 267.003 43.1328 266.643 43.1328C265.893 43.1328 265.073 43.2628 264.453 43.7228C263.843 44.1728 263.623 44.8728 263.603 45.6128V45.8128H265.043L265.063 45.6428C265.113 45.3328 265.213 45.0428 265.413 44.7928C265.643 44.5328 266.123 44.4928 266.443 44.4928C267.103 44.4928 267.863 44.6028 267.863 45.4028C267.863 45.7228 267.793 45.9828 267.433 46.0128L265.523 46.2528C264.863 46.3328 264.093 46.5528 263.713 47.1428C263.423 47.5828 263.253 48.0728 263.253 48.6028C263.253 49.0028 263.353 49.3928 263.563 49.7328C263.773 50.0728 264.053 50.3328 264.413 50.5128C264.783 50.7028 265.193 50.7828 265.613 50.7828C266.153 50.7828 266.713 50.7028 267.183 50.4428C267.473 50.2828 267.733 50.0928 267.973 49.8728C268.023 50.0528 268.113 50.2228 268.243 50.3728C268.463 50.6328 268.853 50.7028 269.183 50.7128H269.393V45.2328C269.393 44.7128 269.243 44.2328 268.853 43.8828ZM267.833 48.0128C267.833 48.2728 267.743 48.5028 267.583 48.7028C267.383 48.9328 267.133 49.1028 266.853 49.2228C266.553 49.3528 266.233 49.4228 265.903 49.4228C265.213 49.4228 264.853 49.1328 264.853 48.4328C264.853 48.2428 264.893 48.0728 265.033 47.9428C265.163 47.8128 265.313 47.7128 265.483 47.6628C265.703 47.5928 265.933 47.5528 266.153 47.5128C266.603 47.4528 267.103 47.3928 267.543 47.2928C267.643 47.2728 267.743 47.2428 267.833 47.2028V48.0128ZM252.213 58.7428C251.893 58.4428 251.513 58.2328 251.073 58.1328C250.733 58.0528 250.363 57.9928 250.003 57.9928C249.243 57.9928 248.433 58.1128 247.813 58.5828C247.203 59.0328 246.983 59.7328 246.963 60.4628V60.6728H248.403L248.423 60.5028C248.473 60.1928 248.573 59.9028 248.783 59.6528C249.003 59.3828 249.483 59.3428 249.803 59.3428C250.463 59.3428 251.223 59.4628 251.223 60.2628C251.223 60.5728 251.153 60.8428 250.803 60.8728L248.883 61.1128C248.223 61.1928 247.463 61.4128 247.073 62.0028C246.783 62.4428 246.623 62.9328 246.623 63.4628C246.623 63.8628 246.713 64.2428 246.923 64.5928C247.123 64.9328 247.413 65.1928 247.773 65.3628C248.143 65.5528 248.553 65.6328 248.973 65.6328C249.513 65.6328 250.073 65.5528 250.543 65.2928C250.833 65.1328 251.093 64.9528 251.333 64.7328C251.383 64.9128 251.473 65.0828 251.603 65.2228C251.833 65.4828 252.213 65.5528 252.543 65.5728H252.753V60.0928C252.753 59.5728 252.603 59.0928 252.213 58.7428ZM251.193 62.8728C251.193 63.1328 251.103 63.3528 250.943 63.5628C250.743 63.7928 250.493 63.9628 250.213 64.0828C249.913 64.2128 249.593 64.2828 249.263 64.2828C248.573 64.2828 248.213 63.9928 248.213 63.2928C248.213 63.1028 248.253 62.9328 248.393 62.7928C248.513 62.6628 248.673 62.5728 248.843 62.5128C249.063 62.4528 249.293 62.4028 249.513 62.3728C249.963 62.3128 250.463 62.2528 250.903 62.1528C250.993 62.1228 251.103 62.1028 251.193 62.0628V62.8728ZM224.533 59.7928C224.293 59.2528 223.953 58.8128 223.473 58.4828C222.973 58.1428 222.413 58.0028 221.813 58.0028C221.343 58.0028 220.833 58.0828 220.443 58.3728C220.263 58.5128 220.093 58.6628 219.933 58.8328V58.1928H218.453V68.1628H220.003V65.0428C220.143 65.1628 220.293 65.2728 220.453 65.3628C220.823 65.5628 221.233 65.6428 221.663 65.6428C222.353 65.6428 223.023 65.4728 223.563 65.0128C224.043 64.6028 224.383 64.0828 224.583 63.4728C224.783 62.8728 224.883 62.2528 224.883 61.6228C224.883 60.9928 224.783 60.3728 224.533 59.7928ZM223.093 63.1128C222.983 63.4428 222.803 63.7328 222.533 63.9528C222.273 64.1728 221.963 64.2528 221.633 64.2528C221.183 64.2528 220.803 64.0628 220.473 63.7628C220.043 63.3628 219.953 62.6928 219.953 62.1428C219.953 60.9928 220.143 59.4328 221.603 59.4328C221.993 59.4328 222.413 59.5028 222.703 59.7928C222.943 60.0428 223.103 60.3228 223.173 60.6628C223.253 61.0428 223.283 61.4228 223.283 61.8028C223.283 62.2428 223.233 62.6928 223.093 63.1128ZM244.233 59.5528H241.403V65.4528H239.843V58.2028H245.783V65.4628H244.223V59.5628L244.233 59.5528ZM237.193 59.5528H234.373V65.4528H232.813V58.2028H238.753V65.4628H237.193V59.5628V59.5528ZM227.753 65.4228L225.133 58.1928H226.883L228.563 63.3428L230.283 58.1928H231.983L231.883 58.4628C230.743 61.6428 229.653 64.9728 228.243 68.0428L228.183 68.1628H226.433L227.733 65.4228H227.753ZM214.033 56.9328V65.4528H212.473V55.5828H218.353V56.9428H214.023L214.033 56.9328Z" fill="#A7B0B9"/>
</svg>
